<svg width="26" height="29" viewBox="0 0 26 29" fill="none" xmlns="http://www.w3.org/2000/svg">
<path d="M5.57143 7.90804C5.57143 9.77046 6.35408 11.5566 7.74721 12.8735C9.14033 14.1905 11.0298 14.9303 13 14.9303C14.9702 14.9303 16.8597 14.1905 18.2528 12.8735C19.6459 11.5566 20.4286 9.77046 20.4286 7.90804C20.4286 6.04561 19.6459 4.25946 18.2528 2.94252C16.8597 1.62559 14.9702 0.885742 13 0.885742C11.0298 0.885742 9.14033 1.62559 7.74721 2.94252C6.35408 4.25946 5.57143 6.04561 5.57143 7.90804ZM11.0558 18.8913L12.1353 20.5921L10.2027 27.3894L8.11339 19.3302C7.99732 18.8859 7.54464 18.5951 7.07455 18.7103C3.01205 19.6704 0 23.1486 0 27.2907C0 28.2233 0.800893 28.9749 1.7817 28.9749H24.2183C25.2049 28.9749 26 28.2178 26 27.2907C26 23.1486 22.9879 19.6704 18.9254 18.7103C18.4554 18.6006 18.0027 18.8913 17.8866 19.3302L15.7973 27.3894L13.8647 20.5921L14.9442 18.8913C15.3156 18.3043 14.8687 17.5637 14.1491 17.5637H11.8567C11.1371 17.5637 10.6902 18.3098 11.0616 18.8913H11.0558Z" fill="#242424"/>
</svg>
