<svg width="1550" height="325" viewBox="0 0 1550 325" fill="none" xmlns="http://www.w3.org/2000/svg">
<g opacity="0.5">
<mask id="path-1-outside-1_48_234" maskUnits="userSpaceOnUse" x="7.40723" y="-1" width="1543" height="318" fill="black">
<rect fill="white" x="7.40723" y="-1" width="1543" height="318"/>
<path d="M8.40723 315.643C295.175 252.005 393.034 181.823 428.499 128.582C468.076 69.1623 447.666 4.21932 490.389 0.186302C517.745 -2.39708 551.406 21.8533 614.164 75.0132C804.474 236.214 808.783 279.022 889.865 290.133C1003.45 305.709 1073.47 232.433 1248.06 234.012C1376.3 235.175 1480.06 275.974 1550 312.24"/>
</mask>
<path d="M428.499 128.582L428.915 128.859V128.859L428.499 128.582ZM490.389 0.186302L490.436 0.684089L490.436 0.684087L490.389 0.186302ZM614.164 75.0132L613.84 75.3947V75.3947L614.164 75.0132ZM889.865 290.133L889.933 289.638L889.933 289.638L889.865 290.133ZM1248.06 234.012L1248.07 233.512L1248.06 234.012ZM8.51555 316.131C295.295 252.49 393.333 182.277 428.915 128.859L428.083 128.305C392.735 181.37 295.055 251.519 8.2989 315.155L8.51555 316.131ZM428.915 128.859C448.768 99.0528 453.575 67.8539 458.753 43.719C461.347 31.6274 464.024 21.3575 468.685 13.8576C473.319 6.40072 479.917 1.67706 490.436 0.684089L490.342 -0.311485C479.499 0.712052 472.627 5.61864 467.835 13.3298C463.07 20.9978 460.366 31.4335 457.775 43.5092C452.583 67.7091 447.807 98.6914 428.083 128.305L428.915 128.859ZM490.436 0.684087C503.946 -0.591738 519.082 4.75182 538.734 17.1192C558.38 29.4826 582.46 48.8132 613.84 75.3947L614.487 74.6316C583.11 48.0533 558.98 28.6788 539.267 16.2729C519.56 3.87093 504.188 -1.61904 490.342 -0.311484L490.436 0.684087ZM613.84 75.3947C708.987 155.988 757.611 206.961 792.636 239.225C810.144 255.352 824.268 266.816 839.102 274.941C853.946 283.07 869.479 287.844 889.797 290.628L889.933 289.638C869.709 286.867 854.298 282.123 839.583 274.064C824.858 265.999 810.807 254.603 793.314 238.489C758.337 206.27 709.651 155.239 614.487 74.6316L613.84 75.3947ZM889.797 290.628C946.714 298.433 992.718 283.97 1046.23 267.8C1099.75 251.628 1160.84 233.723 1248.06 234.512L1248.07 233.512C1160.69 232.722 1099.48 250.665 1045.94 266.843C992.399 283.022 946.601 297.409 889.933 289.638L889.797 290.628ZM1248.06 234.512C1376.19 235.674 1479.87 276.44 1549.77 312.684L1550.23 311.796C1480.25 275.508 1376.41 234.676 1248.07 233.512L1248.06 234.512Z" fill="#242424" mask="url(#path-1-outside-1_48_234)"/>
<mask id="path-3-outside-2_48_234" maskUnits="userSpaceOnUse" x="0.521484" y="7.49487" width="1549" height="303" fill="black">
<rect fill="white" x="0.521484" y="7.49487" width="1549" height="303"/>
<path d="M1.52148 309.246C280.215 246.977 383.695 178.759 421.972 128.861C464.747 73.0983 444.546 11.5101 486.824 8.59724C514.005 6.72318 547.034 30.5589 607.654 81.8969C791.882 237.89 797.597 281.232 878.055 291.794C992.298 306.581 1059.27 228.004 1235.71 226.934C1239.56 226.911 1243.34 226.911 1247.14 226.958C1372.33 228.537 1477.57 269.356 1549 305.399"/>
</mask>
<path d="M421.972 128.861L422.369 129.165L422.369 129.165L421.972 128.861ZM486.824 8.59724L486.858 9.09606L486.858 9.09606L486.824 8.59724ZM607.654 81.8969L607.331 82.2785V82.2785L607.654 81.8969ZM878.055 291.794L877.99 292.29L877.991 292.29L878.055 291.794ZM1235.71 226.934L1235.71 226.434L1235.71 226.934ZM1247.14 226.958L1247.14 226.458H1247.14L1247.14 226.958ZM1.63051 309.734C280.337 247.462 383.975 179.215 422.369 129.165L421.576 128.557C383.414 178.304 280.093 246.492 1.41246 308.758L1.63051 309.734ZM422.369 129.165C443.832 101.185 449.495 71.7358 455.07 49.0297C457.863 37.6533 460.622 28.0244 465.285 21.0537C469.919 14.1276 476.443 9.81363 486.858 9.09606L486.79 8.09842C476.066 8.83727 469.26 13.3142 464.454 20.4977C459.678 27.6365 456.887 37.4361 454.099 48.7912C448.511 71.548 442.887 100.774 421.576 128.557L422.369 129.165ZM486.858 9.09606C500.288 8.17013 515.228 13.591 534.432 25.7153C553.631 37.8362 577.019 56.6081 607.331 82.2785L607.977 81.5154C577.669 55.8477 554.232 37.0327 534.966 24.8697C515.706 12.7103 500.541 7.15029 486.79 8.09843L486.858 9.09606ZM607.331 82.2785C699.438 160.269 746.889 210.071 781.43 241.75C798.696 257.585 812.746 268.902 827.53 276.918C842.323 284.938 857.827 289.643 877.99 292.29L878.12 291.298C858.053 288.664 842.671 283.99 828.007 276.039C813.333 268.082 799.355 256.833 782.106 241.014C747.619 209.383 700.098 159.518 607.977 81.5154L607.331 82.2785ZM877.991 292.29C935.244 299.7 980.655 283.708 1033.72 265.784C1086.78 247.859 1147.57 227.969 1235.71 227.434L1235.71 226.434C1147.4 226.97 1086.49 246.903 1033.4 264.837C980.303 282.772 935.108 298.675 878.119 291.298L877.991 292.29ZM1235.71 227.434C1239.56 227.411 1243.34 227.411 1247.13 227.458L1247.14 226.458C1243.35 226.411 1239.56 226.411 1235.71 226.434L1235.71 227.434ZM1247.13 227.458C1372.21 229.036 1477.38 269.821 1548.78 305.845L1549.23 304.952C1477.76 268.89 1372.44 228.038 1247.14 226.458L1247.13 227.458Z" fill="#242424" mask="url(#path-3-outside-2_48_234)"/>
<mask id="path-5-outside-3_48_234" maskUnits="userSpaceOnUse" x="-6.34277" y="15.9709" width="1555" height="288" fill="black">
<rect fill="white" x="-6.34277" y="15.9709" width="1555" height="288"/>
<path d="M-5.34277 302.848C265.255 241.956 374.274 175.817 415.463 129.144C461.37 77.1198 441.456 18.8087 483.277 17.0122C510.291 15.8494 542.691 39.2722 601.157 88.7867C779.264 239.564 786.352 283.579 866.275 293.455C981.074 307.641 1045.13 223.537 1223.39 219.855C1227.3 219.773 1231.2 219.692 1235.09 219.702C1362.35 220.02 1473.07 261.681 1548.03 298.556"/>
</mask>
<path d="M415.463 129.144L415.838 129.475V129.475L415.463 129.144ZM483.277 17.0122L483.298 17.5117L483.298 17.5117L483.277 17.0122ZM601.157 88.7867L600.834 89.1682L600.834 89.1683L601.157 88.7867ZM866.275 293.455L866.336 292.959L866.275 293.455ZM1223.39 219.855L1223.4 220.355L1223.39 219.855ZM1235.09 219.702L1235.1 219.202L1235.09 219.702ZM-5.233 303.336C265.38 242.44 374.538 176.275 415.838 129.475L415.088 128.813C374.011 175.36 265.13 241.472 -5.45254 302.361L-5.233 303.336ZM415.838 129.475C438.879 103.364 445.401 75.6659 451.384 54.378C454.381 43.7119 457.228 34.7166 461.898 28.2681C466.536 21.8648 472.989 17.9546 483.298 17.5117L483.255 16.5126C472.654 16.968 465.913 21.0204 461.088 27.6815C456.296 34.2973 453.411 43.4682 450.421 54.1074C444.429 75.4302 437.954 102.9 415.088 128.813L415.838 129.475ZM483.298 17.5117C496.652 16.9369 511.398 22.436 530.155 34.3178C548.907 46.1967 571.6 64.4099 600.834 89.1682L601.48 88.4051C572.249 63.649 549.508 45.3935 530.69 33.4731C511.877 21.5556 496.917 15.9246 483.255 16.5126L483.298 17.5117ZM600.834 89.1683C689.882 164.552 736.142 213.216 770.198 244.328C787.219 259.879 801.201 271.052 815.943 278.953C830.694 286.858 846.184 291.476 866.214 293.951L866.336 292.959C846.404 290.496 831.037 285.908 816.415 278.071C801.784 270.23 787.876 259.124 770.872 243.59C736.876 212.532 690.54 163.799 601.48 88.4051L600.834 89.1683ZM866.214 293.951C923.753 301.062 968.579 283.53 1021.21 263.824C1073.84 244.116 1134.35 222.194 1223.4 220.355L1223.38 219.355C1134.16 221.198 1073.52 243.169 1020.86 262.887C968.195 282.607 923.595 300.034 866.336 292.959L866.214 293.951ZM1223.4 220.355C1227.31 220.273 1231.2 220.192 1235.09 220.202L1235.1 219.202C1231.19 219.192 1227.29 219.274 1223.38 219.355L1223.4 220.355ZM1235.09 220.202C1362.25 220.519 1472.89 262.148 1547.81 299.004L1548.25 298.107C1473.25 261.215 1362.46 219.52 1235.1 219.202L1235.09 220.202Z" fill="#242424" mask="url(#path-5-outside-3_48_234)"/>
<mask id="path-7-outside-4_48_234" maskUnits="userSpaceOnUse" x="-13.2217" y="24.4226" width="1561" height="273" fill="black">
<rect fill="white" x="-13.2217" y="24.4226" width="1561" height="273"/>
<path d="M-12.2217 296.451C250.319 236.917 364.707 173.017 408.943 129.427C457.855 81.2264 438.372 26.1131 479.715 25.429C506.575 24.9832 538.309 47.9836 594.65 95.6744C766.658 241.254 775.147 285.848 854.485 295.116C969.894 308.597 1031 219.037 1211.05 212.775C1215.05 212.636 1219.04 212.502 1223.02 212.444C1352.34 210.572 1468.54 254.005 1547.02 291.709"/>
</mask>
<path d="M408.943 129.427L409.294 129.783V129.783L408.943 129.427ZM479.715 25.429L479.723 25.9289L479.723 25.9289L479.715 25.429ZM594.65 95.6744L594.327 96.056V96.056L594.65 95.6744ZM854.485 295.116L854.427 295.612L854.485 295.116ZM1211.05 212.775L1211.07 213.275L1211.05 212.775ZM1223.02 212.444L1223.02 211.944L1223.02 212.444ZM-12.1111 296.939C250.447 237.401 364.953 173.476 409.294 129.783L408.592 129.071C364.461 172.557 250.191 236.433 -12.3323 295.963L-12.1111 296.939ZM409.294 129.783C433.848 105.586 441.235 79.6427 447.643 59.7627C450.854 49.8022 453.8 41.4325 458.486 35.499C463.137 29.6103 469.525 26.0977 479.723 25.9289L479.707 24.929C469.234 25.1023 462.554 28.7354 457.701 34.8792C452.884 40.9781 449.892 49.5274 446.692 59.4559C440.278 79.3537 432.95 105.067 408.592 129.071L409.294 129.783ZM479.723 25.9289C493.007 25.7085 507.554 31.2848 525.859 42.9224C544.16 54.5577 566.155 72.2097 594.327 96.056L594.973 95.2927C566.804 71.4482 544.761 53.7547 526.395 42.0785C508.033 30.4047 493.283 24.7037 479.706 24.929L479.723 25.9289ZM594.327 96.056C680.327 168.843 725.409 216.348 758.982 246.882C775.762 262.143 789.673 273.169 804.369 280.957C819.074 288.75 834.542 293.29 854.427 295.612L854.543 294.619C834.758 292.308 819.413 287.798 804.838 280.074C790.253 272.345 776.416 261.386 759.655 246.142C726.148 215.668 680.981 168.086 594.973 95.2927L594.327 96.056ZM854.427 295.612C912.28 302.37 956.526 283.291 1008.72 261.811C1060.91 240.33 1121.13 216.403 1211.07 213.275L1211.04 212.276C1120.92 215.41 1060.56 239.393 1008.34 260.887C956.109 282.382 912.099 301.342 854.543 294.619L854.427 295.612ZM1211.07 213.275C1215.07 213.135 1219.06 213.002 1223.03 212.944L1223.02 211.944C1219.03 212.002 1215.03 212.136 1211.04 212.276L1211.07 213.275ZM1223.03 212.944C1352.24 211.073 1468.35 254.471 1546.81 292.159L1547.24 291.258C1468.72 253.539 1352.44 210.07 1223.02 211.944L1223.03 212.944Z" fill="#242424" mask="url(#path-7-outside-4_48_234)"/>
<mask id="path-9-outside-5_48_234" maskUnits="userSpaceOnUse" x="-20.0996" y="32.8433" width="1567" height="266" fill="black">
<rect fill="white" x="-20.0996" y="32.8433" width="1567" height="266"/>
<path d="M-19.0996 290.054C235.366 231.896 354.948 170.366 402.42 129.71C454.141 85.4164 435.307 33.4252 476.158 33.8458C502.869 34.1191 533.944 56.697 588.148 102.564C754.052 242.937 763.947 288.112 842.695 296.775C958.751 309.542 1016.89 214.504 1198.72 205.688C1202.8 205.494 1206.89 205.3 1210.99 205.18C1342.36 201.61 1464.04 246.324 1546.06 284.866"/>
</mask>
<path d="M402.42 129.71L402.095 129.33L402.42 129.71ZM476.158 33.8458L476.153 34.3458L476.153 34.3458L476.158 33.8458ZM588.148 102.564L587.825 102.946V102.946L588.148 102.564ZM842.695 296.775L842.75 296.278L842.695 296.775ZM1198.72 205.688L1198.7 205.188L1198.7 205.188L1198.72 205.688ZM1210.99 205.18L1210.98 204.68L1210.97 204.68L1210.99 205.18ZM-18.9882 290.541C235.497 232.379 355.178 170.827 402.745 130.09L402.095 129.33C354.718 169.904 235.236 231.413 -19.211 289.566L-18.9882 290.541ZM402.745 130.09C428.713 107.851 436.971 83.6659 443.834 65.1841C447.272 55.925 450.336 48.1726 455.053 42.7464C459.733 37.3633 466.068 34.2419 476.153 34.3458L476.163 33.3458C465.823 33.2394 459.193 36.4592 454.298 42.0903C449.441 47.6784 446.321 55.6133 442.896 64.836C436.033 83.3181 427.847 107.276 402.095 129.33L402.745 130.09ZM476.153 34.3458C489.369 34.481 503.72 40.135 521.574 51.5287C539.426 62.9206 560.723 80.0115 587.825 102.946L588.471 102.182C561.37 79.2495 540.027 62.1179 522.112 50.6857C504.2 39.2554 489.658 33.4839 476.163 33.3458L476.153 34.3458ZM587.825 102.946C670.776 173.131 714.677 219.474 747.77 249.431C764.308 264.402 778.149 275.281 792.799 282.957C807.457 290.638 822.903 295.1 842.641 297.272L842.75 296.278C823.114 294.118 807.792 289.685 793.263 282.072C778.725 274.454 764.958 263.642 748.441 248.69C715.423 218.8 671.424 172.37 588.471 102.182L587.825 102.946ZM842.641 297.272C900.825 303.673 944.496 283.038 996.246 259.781C1048 236.522 1107.92 210.591 1198.75 206.187L1198.7 205.188C1107.68 209.601 1047.62 235.597 995.836 258.869C944.046 282.144 900.621 302.644 842.75 296.278L842.641 297.272ZM1198.75 206.187C1202.83 205.993 1206.91 205.8 1211 205.68L1210.97 204.68C1206.87 204.801 1202.78 204.995 1198.7 205.188L1198.75 206.187ZM1211 205.68C1342.26 202.113 1463.85 246.79 1545.85 285.318L1546.28 284.413C1464.22 245.858 1342.46 201.107 1210.98 204.68L1211 205.68Z" fill="#242424" mask="url(#path-9-outside-5_48_234)"/>
<mask id="path-11-outside-6_48_234" maskUnits="userSpaceOnUse" x="-26.9766" y="41.2261" width="1573" height="259" fill="black">
<rect fill="white" x="-26.9766" y="41.2261" width="1573" height="259"/>
<path d="M-25.9766 283.656C220.419 226.872 344.942 167.875 395.91 129.995C450.144 89.6838 432.243 40.743 472.611 42.2605C499.181 43.2605 529.585 65.4082 581.652 109.454C741.46 244.619 752.766 290.367 830.916 298.435C947.608 310.48 1002.79 209.94 1186.4 198.614C1190.57 198.356 1194.74 198.095 1198.95 197.928C1332.37 192.676 1459.55 238.653 1545.09 278.028"/>
</mask>
<path d="M395.91 129.995L396.209 130.396V130.396L395.91 129.995ZM472.611 42.2605L472.63 41.7609L472.63 41.7609L472.611 42.2605ZM581.652 109.454L581.329 109.835L581.329 109.835L581.652 109.454ZM830.916 298.435L830.864 298.933L830.916 298.435ZM1186.4 198.614L1186.43 199.113L1186.4 198.614ZM1198.95 197.928L1198.93 197.428H1198.93L1198.95 197.928ZM-25.8643 284.143C220.552 227.355 345.156 168.339 396.209 130.396L395.612 129.593C344.728 167.411 220.286 226.39 -26.0888 283.169L-25.8643 284.143ZM396.209 130.396C423.441 110.155 432.566 87.7318 439.92 70.6395C443.603 62.0777 446.812 54.9345 451.582 50.0079C456.314 45.1212 462.618 42.3852 472.592 42.7602L472.63 41.7609C462.42 41.3771 455.824 44.1897 450.864 49.3123C445.942 54.395 442.668 61.7218 439.001 70.2443C431.655 87.3208 422.614 109.523 395.612 129.593L396.209 130.396ZM472.592 42.7602C485.746 43.2552 499.899 48.987 517.3 60.136C534.7 71.2837 555.295 87.8122 581.329 109.835L581.975 109.072C555.942 87.0495 535.301 70.4815 517.84 59.294C500.38 48.1079 486.046 42.2658 472.63 41.7609L472.592 42.7602ZM581.329 109.835C661.235 177.419 703.958 222.599 736.571 251.977C752.868 266.658 766.639 277.39 781.242 284.955C795.853 292.524 811.275 296.91 830.864 298.933L830.967 297.938C811.481 295.926 796.184 291.569 781.702 284.067C767.212 276.561 753.515 265.895 737.24 251.234C704.711 221.93 661.877 176.653 581.975 109.072L581.329 109.835ZM830.864 298.933C889.375 304.972 932.472 282.773 983.783 257.738C1035.1 232.701 1094.73 204.77 1186.43 199.113L1186.37 198.115C1094.46 203.784 1034.69 231.786 983.345 256.839C931.989 281.895 889.148 303.943 830.967 297.938L830.864 298.933ZM1186.43 199.113C1190.6 198.855 1194.77 198.594 1198.97 198.428L1198.93 197.428C1194.72 197.595 1190.54 197.857 1186.37 198.115L1186.43 199.113ZM1198.97 198.428C1332.27 193.18 1459.37 239.12 1544.88 278.482L1545.3 277.574C1459.73 238.187 1332.46 192.172 1198.93 197.428L1198.97 198.428Z" fill="#242424" mask="url(#path-11-outside-6_48_234)"/>
<mask id="path-13-outside-7_48_234" maskUnits="userSpaceOnUse" x="-33.8486" y="49.5713" width="1579" height="252" fill="black">
<rect fill="white" x="-33.8486" y="49.5713" width="1579" height="252"/>
<path d="M-32.8486 277.259C205.468 221.843 334.612 165.544 389.385 130.278C445.735 93.9941 429.205 48.0708 469.047 50.6774C495.485 52.4062 525.213 74.1275 575.139 116.341C728.848 246.299 741.577 292.618 819.12 300.095C936.474 311.411 988.682 205.349 1174.06 191.535C1178.33 191.217 1182.58 190.891 1186.88 190.672C1322.34 183.75 1455.02 230.983 1544.09 271.185"/>
</mask>
<path d="M389.385 130.278L389.655 130.698V130.698L389.385 130.278ZM469.047 50.6774L469.015 51.1764L469.015 51.1764L469.047 50.6774ZM575.139 116.341L574.816 116.723V116.723L575.139 116.341ZM819.12 300.095L819.168 299.597L819.12 300.095ZM1174.06 191.535L1174.02 191.036L1174.02 191.036L1174.06 191.535ZM1186.88 190.672L1186.91 191.171H1186.91L1186.88 190.672ZM-32.7354 277.746C205.602 222.325 334.811 166.01 389.655 130.698L389.114 129.857C334.413 165.077 205.334 221.361 -32.9619 276.772L-32.7354 277.746ZM389.655 130.698C417.949 112.48 427.954 91.8233 435.853 76.1184C439.809 68.2533 443.2 61.714 448.053 57.2821C452.868 52.8853 459.162 50.5318 469.015 51.1764L469.08 50.1785C459.011 49.5198 452.432 51.9292 447.379 56.5437C442.364 61.1232 438.896 67.8438 434.96 75.6691C427.075 91.345 417.17 111.792 389.114 129.857L389.655 130.698ZM469.015 51.1764C482.11 52.0327 496.066 57.8435 513.015 68.748C529.962 79.6516 549.853 95.616 574.816 116.723L575.462 115.96C550.499 94.8528 530.564 78.8497 513.556 67.907C496.549 56.9651 482.422 51.051 469.08 50.1785L469.015 51.1764ZM574.816 116.723C651.676 181.707 693.222 225.72 725.358 254.521C741.414 268.91 755.115 279.496 769.672 286.949C784.236 294.407 799.633 298.718 819.072 300.592L819.168 299.597C799.835 297.733 784.562 293.45 770.128 286.059C755.685 278.664 742.058 268.145 726.025 253.776C693.983 225.059 652.31 180.934 575.462 115.96L574.816 116.723ZM819.072 300.592C877.922 306.267 920.445 282.496 971.314 255.681C1022.19 228.862 1081.51 198.932 1174.1 192.033L1174.02 191.036C1081.23 197.951 1021.76 227.959 970.848 254.796C919.931 281.636 877.672 305.238 819.168 299.597L819.072 300.592ZM1174.1 192.033C1178.37 191.715 1182.62 191.39 1186.91 191.171L1186.86 190.173C1182.55 190.392 1178.3 190.718 1174.02 191.036L1174.1 192.033ZM1186.91 191.171C1322.25 184.255 1454.84 231.449 1543.88 271.641L1544.3 270.729C1455.21 230.517 1322.43 183.244 1186.86 190.173L1186.91 191.171Z" fill="#242424" mask="url(#path-13-outside-7_48_234)"/>
<mask id="path-15-outside-8_48_234" maskUnits="userSpaceOnUse" x="-40.7256" y="57.8472" width="1585" height="246" fill="black">
<rect fill="white" x="-40.7256" y="57.8472" width="1585" height="246"/>
<path d="M-39.7256 270.861C190.517 216.816 311.206 157.681 382.867 130.561C426.269 93.9184 426.162 55.4081 465.491 59.0922C491.796 61.5574 520.85 82.8329 568.638 123.241C716.243 247.991 730.395 294.87 807.331 301.765C925.344 312.341 974.577 200.74 1161.72 184.465C1166.08 184.087 1170.43 183.699 1174.84 183.424C1312.34 174.848 1450.54 223.312 1543.12 264.352"/>
</mask>
<path d="M382.867 130.561L383.044 131.028L383.124 130.998L383.189 130.943L382.867 130.561ZM465.491 59.0922L465.538 58.5944L465.538 58.5944L465.491 59.0922ZM568.638 123.241L568.315 123.622L568.315 123.622L568.638 123.241ZM807.331 301.765L807.286 302.263L807.331 301.765ZM1161.72 184.465L1161.68 183.966V183.966L1161.72 184.465ZM1174.84 183.424L1174.81 182.925L1174.84 183.424ZM-39.6113 271.348C190.673 217.293 311.412 158.138 383.044 131.028L382.69 130.093C311 157.224 190.361 216.339 -39.8398 270.375L-39.6113 271.348ZM383.189 130.943C404.948 112.573 415.827 93.7042 426.107 80.0041C431.254 73.1434 436.236 67.5955 442.347 63.9825C448.443 60.379 455.702 58.6773 465.445 59.59L465.538 58.5944C455.617 57.665 448.141 59.3956 441.838 63.1217C435.552 66.8383 430.474 72.5173 425.307 79.4039C414.957 93.1985 404.188 111.906 382.544 130.178L383.189 130.943ZM465.445 59.59C478.482 60.8118 492.241 66.6988 508.737 77.3579C525.232 88.0167 544.421 103.419 568.315 123.622L568.961 122.859C545.067 102.655 525.835 87.2152 509.28 76.518C492.726 65.8212 478.806 59.8378 465.538 58.5944L465.445 59.59ZM568.315 123.622C642.128 186.007 682.494 228.849 714.153 257.072C729.968 271.17 743.6 281.608 758.109 288.951C772.626 296.297 787.999 300.534 807.286 302.263L807.376 301.267C788.195 299.548 772.949 295.34 758.561 288.058C744.166 280.773 730.609 270.402 714.818 256.325C683.266 228.197 642.753 185.225 568.961 122.859L568.315 123.622ZM807.286 302.263C866.474 307.567 908.422 282.217 958.849 253.619C1009.28 225.016 1068.3 193.091 1161.77 184.963L1161.68 183.966C1068 192.114 1008.83 224.126 958.356 252.749C907.876 281.376 866.201 306.539 807.376 301.267L807.286 302.263ZM1161.77 184.963C1166.12 184.585 1170.47 184.198 1174.87 183.923L1174.81 182.925C1170.39 183.2 1166.03 183.589 1161.68 183.966L1161.77 184.963ZM1174.87 183.923C1312.25 175.355 1450.36 223.779 1542.92 264.809L1543.32 263.894C1450.72 222.846 1312.43 174.341 1174.81 182.925L1174.87 183.923Z" fill="#242424" mask="url(#path-15-outside-8_48_234)"/>
<mask id="path-17-outside-9_48_234" maskUnits="userSpaceOnUse" x="-47.6055" y="66.0701" width="1590" height="239" fill="black">
<rect fill="white" x="-47.6055" y="66.0701" width="1590" height="239"/>
<path d="M-46.6055 264.464C175.567 211.789 299.517 154.23 376.346 130.843C420.296 97.4553 423.117 62.7551 461.933 67.509C488.11 70.7145 516.479 91.5405 562.13 130.121C703.614 249.663 719.22 297.096 795.544 303.416C914.22 313.242 960.465 196.087 1149.39 177.375C1153.83 176.935 1158.27 176.486 1162.79 176.156C1302.34 165.941 1446.01 215.628 1542.13 257.499"/>
</mask>
<path d="M376.346 130.843L376.491 131.322L376.577 131.296L376.648 131.242L376.346 130.843ZM461.933 67.509L461.872 68.0053L461.872 68.0053L461.933 67.509ZM562.13 130.121L561.807 130.502V130.503L562.13 130.121ZM795.544 303.416L795.503 303.914L795.544 303.416ZM1149.39 177.375L1149.44 177.873V177.873L1149.39 177.375ZM1162.79 176.156L1162.82 176.655L1162.82 176.655L1162.79 176.156ZM-46.4901 264.95C175.685 212.274 299.752 154.681 376.491 131.322L376.2 130.365C299.283 153.778 175.449 211.303 -46.7208 263.977L-46.4901 264.95ZM376.648 131.242C398.673 114.51 410.43 97.4122 421.436 85.2078C426.947 79.0961 432.261 74.2181 438.583 71.1542C444.893 68.0961 452.248 66.8267 461.872 68.0053L461.994 67.0127C452.21 65.8145 444.656 67.0998 438.147 70.2543C431.65 73.403 426.233 78.3955 420.693 84.5381C409.597 96.8424 397.968 113.789 376.043 130.445L376.648 131.242ZM461.872 68.0053C474.853 69.5949 488.415 75.5579 504.456 85.9687C520.498 96.3796 538.982 111.213 561.807 130.502L562.453 129.739C539.627 110.448 521.101 95.5784 505.001 85.1299C488.901 74.6814 475.19 68.6287 461.994 67.0127L461.872 68.0053ZM561.807 130.503C597.169 160.38 624.665 185.752 647.213 207.104C669.754 228.451 687.368 245.798 702.94 259.601C718.517 273.408 732.082 283.698 746.547 290.93C761.018 298.166 776.367 302.33 795.503 303.914L795.586 302.918C776.559 301.342 761.336 297.207 746.994 290.036C732.644 282.861 719.155 272.637 703.604 258.853C688.048 245.064 670.463 227.745 647.9 206.378C625.344 185.018 597.833 159.632 562.453 129.739L561.807 130.503ZM795.503 303.914C855.03 308.843 896.4 281.907 946.383 251.524C996.376 221.136 1055.09 187.217 1149.44 177.873L1149.34 176.878C1054.77 186.245 995.894 220.259 945.864 250.67C895.824 281.087 854.734 307.815 795.586 302.918L795.503 303.914ZM1149.44 177.873C1153.88 177.433 1158.32 176.984 1162.82 176.655L1162.75 175.658C1158.23 175.988 1153.78 176.438 1149.34 176.878L1149.44 177.873ZM1162.82 176.655C1302.25 166.449 1445.83 216.094 1541.94 257.957L1542.33 257.04C1446.19 215.161 1302.43 165.433 1162.75 175.658L1162.82 176.655Z" fill="#242424" mask="url(#path-17-outside-9_48_234)"/>
<mask id="path-19-outside-10_48_234" maskUnits="userSpaceOnUse" x="-54.4824" y="74.2134" width="1596" height="232" fill="black">
<rect fill="white" x="-54.4824" y="74.2134" width="1596" height="232"/>
<path d="M-53.4824 258.067C160.616 206.762 287.827 150.782 369.824 131.127C414.321 100.99 420.074 70.1101 458.377 75.9241C484.421 79.8757 512.115 100.254 555.625 137.009C691.031 251.352 708.051 299.323 783.756 305.073C903.107 314.141 946.343 191.42 1137.06 170.292C1141.58 169.792 1146.12 169.282 1150.74 168.897C1292.34 157.051 1441.5 207.95 1541.15 250.654"/>
</mask>
<path d="M369.824 131.127L369.94 131.613L370.029 131.592L370.104 131.541L369.824 131.127ZM458.377 75.9241L458.302 76.4185L458.302 76.4185L458.377 75.9241ZM555.625 137.009L555.302 137.39L555.302 137.391L555.625 137.009ZM783.756 305.073L783.794 304.575L783.756 305.073ZM1137.06 170.292L1137 169.795L1137 169.795L1137.06 170.292ZM1150.74 168.897L1150.78 169.395L1150.74 168.897ZM-53.3659 258.553C53.7021 232.896 139.044 206.07 207.866 183.203C276.704 160.33 328.97 141.434 369.94 131.613L369.707 130.64C328.681 140.475 276.342 159.396 207.551 182.254C138.744 205.116 53.4311 231.933 -53.5989 257.581L-53.3659 258.553ZM370.104 131.541C392.391 116.447 405.03 101.121 416.76 90.4133C422.636 85.05 428.282 80.8411 434.818 78.3254C441.346 75.8131 448.798 74.9758 458.302 76.4185L458.452 75.4298C448.805 73.9654 441.174 74.8079 434.459 77.3922C427.753 79.9732 421.999 84.2777 416.086 89.6748C404.24 100.488 391.753 115.67 369.543 130.713L370.104 131.541ZM458.302 76.4185C471.224 78.3791 484.59 84.4201 500.178 94.5841C515.768 104.748 533.548 119.014 555.302 137.39L555.948 136.627C534.192 118.249 516.371 103.948 500.725 93.7464C485.078 83.5448 471.574 77.4207 458.452 75.4298L458.302 76.4185ZM555.302 137.391C589.144 165.968 615.589 190.399 637.405 211.062C659.215 231.718 676.417 248.628 691.748 262.138C722.439 289.185 745.719 302.686 783.718 305.572L783.794 304.575C746.088 301.711 723.006 288.351 692.409 261.388C677.096 247.894 659.923 231.012 638.093 210.335C616.268 189.665 589.809 165.22 555.948 136.626L555.302 137.391ZM783.718 305.572C843.591 310.121 884.381 281.594 933.918 249.426C983.466 217.251 1041.87 181.34 1137.11 170.789L1137 169.795C1041.53 180.372 982.96 216.386 933.373 248.587C883.775 280.795 843.272 309.094 783.794 304.575L783.718 305.572ZM1137.11 170.789C1141.64 170.289 1146.17 169.78 1150.78 169.395L1150.7 168.398C1146.07 168.785 1141.53 169.295 1137 169.795L1137.11 170.789ZM1150.78 169.395C1292.25 157.56 1441.32 208.416 1540.96 251.113L1541.35 250.194C1441.68 207.483 1292.42 156.543 1150.7 168.398L1150.78 169.395Z" fill="#242424" mask="url(#path-19-outside-10_48_234)"/>
<mask id="path-21-outside-11_48_234" maskUnits="userSpaceOnUse" x="-61.3555" y="82.2605" width="1602" height="226" fill="black">
<rect fill="white" x="-61.3555" y="82.2605" width="1602" height="226"/>
<path d="M-60.3555 251.669C145.672 201.734 276.141 147.332 363.305 131.411C408.349 104.529 417.027 77.4763 454.817 84.3408C480.729 89.0463 507.752 108.969 549.124 143.892C678.426 253.022 696.887 301.54 771.967 306.73C891.994 315.027 932.212 186.73 1124.73 163.208C1129.34 162.644 1133.97 162.079 1138.68 161.635C1282.34 148.171 1436.99 200.271 1540.17 243.807"/>
</mask>
<path d="M363.305 131.411L363.395 131.903L363.484 131.887L363.562 131.841L363.305 131.411ZM454.817 84.3408L454.728 84.8327V84.8327L454.817 84.3408ZM549.124 143.892L548.801 144.274V144.274L549.124 143.892ZM771.967 306.73L771.933 307.229L771.967 306.73ZM1124.73 163.208L1124.79 163.705H1124.79L1124.73 163.208ZM1138.68 161.635L1138.64 161.137L1138.64 161.137L1138.68 161.635ZM-60.2377 252.155C42.7933 227.184 126.931 201.095 196.199 179.262C265.481 157.424 319.852 139.857 363.395 131.903L363.216 130.92C319.595 138.887 265.149 156.481 195.899 178.308C126.635 200.14 42.5237 226.22 -60.4732 251.183L-60.2377 252.155ZM363.562 131.841C386.103 118.388 399.632 104.832 412.079 95.623C418.318 91.0072 424.298 87.4669 431.05 85.4993C437.796 83.5334 445.344 83.1282 454.728 84.8327L454.906 83.8488C445.395 82.1211 437.687 82.5234 430.77 84.5393C423.858 86.5536 417.768 90.1696 411.484 94.8191C398.883 104.141 385.552 117.552 363.049 130.982L363.562 131.841ZM454.728 84.8327C467.591 87.1688 480.761 93.2876 495.899 103.203C511.037 113.119 528.116 126.814 548.801 144.274L549.446 143.51C528.759 126.048 511.64 112.319 496.447 102.367C481.252 92.4137 467.954 86.2183 454.906 83.8488L454.728 84.8327ZM548.801 144.274C581.117 171.548 606.507 195.036 627.59 215.008C648.667 234.975 665.458 251.446 680.549 264.665C710.76 291.126 734.245 304.624 771.933 307.229L772.002 306.231C734.609 303.647 711.323 290.29 681.208 263.913C666.136 250.711 649.375 234.267 628.278 214.282C607.187 194.302 581.782 170.801 549.446 143.51L548.801 144.274ZM771.933 307.229C832.151 311.392 872.359 281.267 921.448 247.312C970.551 213.349 1028.65 175.451 1124.79 163.705L1124.67 162.712C1028.29 174.488 970.022 212.499 920.88 246.49C871.724 280.49 831.81 310.366 772.002 306.231L771.933 307.229ZM1124.79 163.705C1129.4 163.141 1134.02 162.576 1138.73 162.133L1138.64 161.137C1133.91 161.582 1129.28 162.148 1124.67 162.712L1124.79 163.705ZM1138.73 162.133C1282.26 148.681 1436.81 200.738 1539.97 244.267L1540.36 243.346C1437.17 199.804 1282.43 147.661 1138.64 161.137L1138.73 162.133Z" fill="#242424" mask="url(#path-21-outside-11_48_234)"/>
<mask id="path-23-outside-12_48_234" maskUnits="userSpaceOnUse" x="-68.2334" y="90.1877" width="1608" height="220" fill="black">
<rect fill="white" x="-68.2334" y="90.1877" width="1608" height="220"/>
<path d="M-67.2334 245.27C130.712 196.709 264.463 143.882 356.791 131.702C402.382 108.074 413.974 84.8544 451.256 92.7653C477.026 98.2306 503.383 117.688 542.613 150.795C665.815 254.718 685.717 303.767 760.182 308.403C880.892 315.92 918.067 182.044 1112.4 156.142C1117.1 155.516 1121.8 154.89 1126.63 154.398C1272.35 139.324 1432.48 192.614 1539.19 236.983"/>
</mask>
<path d="M356.791 131.702L356.856 132.198L356.943 132.186L357.021 132.146L356.791 131.702ZM451.256 92.7653L451.152 93.2545L451.152 93.2545L451.256 92.7653ZM542.613 150.795L542.291 151.178L542.291 151.178L542.613 150.795ZM760.182 308.403L760.213 307.904H760.213L760.182 308.403ZM1112.4 156.142L1112.33 155.647L1112.33 155.647L1112.4 156.142ZM1126.63 154.398L1126.68 154.896L1126.69 154.896L1126.63 154.398ZM-67.1143 245.755C31.8726 221.471 114.809 196.121 184.528 175.322C254.26 154.52 310.739 138.282 356.856 132.198L356.725 131.206C310.514 137.303 253.954 153.568 184.242 174.364C114.517 195.164 31.6056 220.507 -67.3525 244.784L-67.1143 245.755ZM357.021 132.146C368.441 126.227 377.731 120.335 385.819 114.954C393.917 109.566 400.78 104.713 407.392 100.838C413.994 96.9685 420.31 94.0975 427.279 92.679C434.244 91.2611 441.888 91.2887 451.152 93.2545L451.36 92.2762C441.983 90.2865 434.198 90.2499 427.079 91.6991C419.964 93.1476 413.542 96.0749 406.887 99.9751C400.242 103.869 393.328 108.757 385.265 114.121C377.192 119.492 367.936 125.363 356.561 131.258L357.021 132.146ZM451.152 93.2545C476.778 98.6891 503.04 118.053 542.291 151.178L542.936 150.413C503.726 117.323 477.274 97.772 451.36 92.2762L451.152 93.2545ZM542.291 151.178C573.081 177.15 597.418 199.694 617.769 218.975C638.114 238.251 654.493 254.283 669.346 267.209C699.078 293.083 722.771 306.575 760.151 308.902L760.213 307.904C723.129 305.595 699.638 292.244 670.002 266.454C655.171 253.548 638.821 237.543 618.457 218.249C598.098 198.96 573.746 176.402 542.936 150.413L542.291 151.178ZM760.151 308.902C820.719 312.674 860.34 280.948 908.978 245.208C957.631 209.456 1015.42 169.572 1112.46 156.638L1112.33 155.647C1015.04 168.614 957.08 208.619 908.386 244.402C859.677 280.195 820.355 311.649 760.213 307.904L760.151 308.902ZM1112.46 156.638C1117.16 156.012 1121.86 155.387 1126.68 154.896L1126.58 153.901C1121.74 154.394 1117.03 155.021 1112.33 155.647L1112.46 156.638ZM1126.69 154.896C1272.27 139.835 1432.3 193.081 1538.99 237.445L1539.38 236.521C1432.66 192.147 1272.43 138.813 1126.58 153.901L1126.69 154.896Z" fill="#242424" mask="url(#path-23-outside-12_48_234)"/>
<mask id="path-25-outside-13_48_234" maskUnits="userSpaceOnUse" x="-75.1104" y="97.9312" width="1614" height="213" fill="black">
<rect fill="white" x="-75.1104" y="97.9312" width="1614" height="213"/>
<path d="M-74.1104 238.873C115.764 191.682 252.76 140.433 350.269 131.977C396.407 111.603 410.902 92.2267 447.704 101.173C473.325 107.401 499.019 126.394 536.113 157.677C653.232 256.392 674.562 305.967 748.39 310.056C869.784 316.779 903.898 177.312 1100.06 149.055C1104.85 148.365 1109.66 147.683 1114.6 147.127C1262.39 130.46 1427.99 184.918 1538.22 230.128"/>
</mask>
<path d="M350.269 131.977L350.312 132.476L350.395 132.468L350.471 132.435L350.269 131.977ZM447.704 101.173L447.823 100.687V100.687L447.704 101.173ZM536.113 157.677L535.79 158.06L535.79 158.06L536.113 157.677ZM748.39 310.056L748.362 310.555L748.39 310.056ZM1100.06 149.055L1100.14 149.55L1100.14 149.55L1100.06 149.055ZM1114.6 147.127L1114.65 147.624V147.624L1114.6 147.127ZM-73.9898 239.358C20.9577 215.76 102.69 191.146 172.852 171.381C243.028 151.611 301.611 136.699 350.312 132.476L350.225 131.479C301.418 135.712 242.748 150.651 172.581 170.418C102.399 190.189 20.6964 214.795 -74.231 238.387L-73.9898 239.358ZM350.471 132.435C362.023 127.333 371.594 122.295 380.02 117.751C388.452 113.203 395.718 109.163 402.692 106.036C416.601 99.8003 429.312 97.2163 447.586 101.658L447.823 100.687C429.294 96.183 416.356 98.8143 402.283 105.124C395.266 108.27 387.957 112.334 379.545 116.871C371.126 121.411 361.583 126.434 350.067 131.52L350.471 132.435ZM447.586 101.658C473.074 107.855 498.681 126.763 535.79 158.06L536.435 157.295C499.357 126.025 473.576 106.948 447.823 100.687L447.586 101.658ZM535.79 158.06C565.06 182.73 588.345 204.33 607.965 222.92C627.579 241.505 643.547 257.098 658.159 269.73C687.408 295.016 711.299 308.502 748.362 310.555L748.417 309.557C711.652 307.52 687.965 294.175 658.813 268.973C644.224 256.361 628.285 240.796 608.653 222.194C589.026 203.597 565.725 181.983 536.435 157.295L535.79 158.06ZM748.362 310.555C809.28 313.929 848.31 280.596 896.495 243.067C944.697 205.525 1002.18 163.659 1100.14 149.55L1099.99 148.56C1001.78 162.707 944.125 204.703 895.88 242.278C847.618 279.867 808.893 312.906 748.417 309.557L748.362 310.555ZM1100.14 149.55C1104.92 148.86 1109.73 148.179 1114.65 147.624L1114.54 146.63C1109.6 147.187 1104.78 147.87 1099.99 148.56L1100.14 149.55ZM1114.65 147.624C1262.31 130.972 1427.81 185.385 1538.03 230.591L1538.41 229.666C1428.17 184.452 1262.47 129.948 1114.54 146.63L1114.65 147.624Z" fill="#242424" mask="url(#path-25-outside-13_48_234)"/>
<mask id="path-27-outside-14_48_234" maskUnits="userSpaceOnUse" x="-81.9756" y="105.452" width="1620" height="207" fill="black">
<rect fill="white" x="-81.9756" y="105.452" width="1620" height="207"/>
<path d="M-80.9756 232.475C100.812 186.654 241.069 136.985 343.75 132.264C390.431 115.143 407.819 99.6103 444.148 109.589C469.615 116.585 494.654 135.105 529.611 164.565C640.614 258.074 663.401 308.172 736.6 311.717C858.687 317.635 889.715 172.567 1087.73 141.975C1092.6 141.221 1097.51 140.481 1102.53 139.869C1252.4 121.605 1423.46 177.249 1537.25 223.285"/>
</mask>
<path d="M343.75 132.264L343.773 132.763L343.849 132.76L343.922 132.733L343.75 132.264ZM444.148 109.589L444.28 109.107L444.28 109.107L444.148 109.589ZM529.611 164.565L529.288 164.947L529.289 164.947L529.611 164.565ZM736.6 311.717L736.625 311.217L736.6 311.717ZM1087.73 141.975L1087.8 142.469L1087.8 142.469L1087.73 141.975ZM1102.53 139.869L1102.6 140.365V140.365L1102.53 139.869ZM-80.8534 232.96C10.038 210.05 90.5821 186.169 161.18 167.44C231.802 148.706 292.491 135.121 343.773 132.763L343.727 131.764C292.328 134.128 231.547 147.739 160.924 166.474C90.2766 185.215 9.79834 209.079 -81.0978 231.99L-80.8534 232.96ZM343.922 132.733C355.605 128.448 365.455 124.263 374.217 120.555C382.983 116.846 390.648 113.62 397.985 111.24C412.629 106.49 425.958 105.111 444.015 110.071L444.28 109.107C426.009 104.088 412.479 105.487 397.677 110.289C390.291 112.685 382.585 115.928 373.827 119.635C365.064 123.343 355.235 127.519 343.577 131.795L343.922 132.733ZM444.015 110.071C469.361 117.034 494.321 135.478 529.288 164.947L529.933 164.183C494.987 134.732 469.869 116.137 444.28 109.107L444.015 110.071ZM529.289 164.947C557.029 188.316 579.258 208.972 598.145 226.871C617.026 244.765 632.583 259.918 646.956 272.257C675.727 296.955 699.826 310.436 736.576 312.216L736.625 311.217C700.174 309.452 676.28 296.112 647.607 271.498C633.259 259.181 617.731 244.055 598.832 226.145C579.939 208.24 557.694 187.569 529.933 164.182L529.289 164.947ZM736.576 312.216C797.848 315.186 836.281 280.24 884.01 240.923C931.757 201.59 988.932 157.745 1087.8 142.469L1087.65 141.481C988.511 156.798 931.165 200.782 883.374 240.151C835.563 279.537 797.439 314.165 736.625 311.217L736.576 312.216ZM1087.8 142.469C1092.68 141.716 1097.58 140.976 1102.6 140.365L1102.47 139.372C1097.44 139.986 1092.53 140.727 1087.65 141.481L1087.8 142.469ZM1102.6 140.365C1252.32 122.118 1423.28 177.716 1537.06 223.748L1537.43 222.821C1423.64 176.783 1252.47 121.092 1102.47 139.372L1102.6 140.365Z" fill="#242424" mask="url(#path-27-outside-14_48_234)"/>
<mask id="path-29-outside-15_48_234" maskUnits="userSpaceOnUse" x="-88.8604" y="112.646" width="1626" height="202" fill="black">
<rect fill="white" x="-88.8604" y="112.646" width="1626" height="202"/>
<path d="M-87.8604 226.078C85.8614 181.627 229.384 133.536 337.233 132.545C384.461 118.679 404.73 106.996 440.593 118.01C465.893 125.776 490.292 143.821 523.089 171.459C627.993 259.761 652.224 310.364 724.796 313.38C847.57 318.482 875.5 167.835 1075.38 134.898C1080.34 134.082 1085.34 133.285 1090.47 132.615C1242.42 112.766 1418.94 169.579 1536.23 216.446"/>
</mask>
<path d="M337.233 132.545L337.237 133.045L337.307 133.045L337.373 133.025L337.233 132.545ZM440.593 118.01L440.446 118.488L440.446 118.488L440.593 118.01ZM523.089 171.459L522.767 171.841L522.767 171.841L523.089 171.459ZM724.796 313.38L724.817 312.88L724.796 313.38ZM1075.38 134.898L1075.3 134.405L1075.3 134.405L1075.38 134.898ZM1090.47 132.615L1090.4 132.119L1090.4 132.119L1090.47 132.615ZM-87.7364 226.562C-0.829826 204.325 78.4107 181.208 149.509 163.499C220.581 145.797 283.375 133.54 337.237 133.045L337.228 132.045C283.241 132.541 220.35 144.824 149.268 162.529C78.2126 180.226 -1.16916 203.38 -87.9843 225.593L-87.7364 226.562ZM337.373 133.025C384.702 119.129 404.768 107.531 440.446 118.488L440.739 117.532C404.692 106.462 384.22 118.228 337.092 132.065L337.373 133.025ZM440.446 118.488C465.636 126.22 489.963 144.198 522.767 171.841L523.411 171.076C490.62 143.443 466.15 125.331 440.739 117.532L440.446 118.488ZM522.767 171.841C548.982 193.907 570.158 213.619 588.313 230.825C606.463 248.026 621.608 262.738 635.743 274.782C664.035 298.89 688.339 312.365 724.775 313.879L724.817 312.88C688.681 311.379 664.584 298.044 636.391 274.021C622.283 261.999 607.166 247.315 589.001 230.099C570.84 212.888 549.648 193.161 523.411 171.076L522.767 171.841ZM724.775 313.879C786.399 316.44 824.231 279.884 871.502 238.781C918.794 197.659 975.66 151.837 1075.46 135.391L1075.3 134.405C975.221 150.896 918.182 196.866 870.845 238.026C823.487 279.206 785.967 315.422 724.817 312.88L724.775 313.879ZM1075.46 135.391C1080.42 134.576 1085.41 133.78 1090.53 133.111L1090.4 132.119C1085.27 132.791 1080.26 133.588 1075.3 134.405L1075.46 135.391ZM1090.53 133.111C1242.34 113.28 1418.76 170.045 1536.04 216.91L1536.41 215.982C1419.12 169.112 1242.49 112.252 1090.4 132.119L1090.53 133.111Z" fill="#242424" mask="url(#path-29-outside-15_48_234)"/>
<mask id="path-31-outside-16_48_234" maskUnits="userSpaceOnUse" x="-95.7373" y="119.35" width="1632" height="197" fill="black">
<rect fill="white" x="-95.7373" y="119.35" width="1632" height="197"/>
<path d="M-94.7373 219.681C70.91 176.6 217.694 130.086 330.71 132.828C378.49 122.216 401.623 114.386 437.037 126.421C462.162 134.96 485.924 152.53 516.606 178.345C615.405 261.437 641.081 312.547 713.029 315.037C836.492 319.31 861.3 163.065 1063.07 127.824C1068.11 126.945 1073.21 126.092 1078.45 125.365C1232.48 103.927 1414.45 161.899 1535.26 209.591"/>
</mask>
<path d="M330.71 132.828L330.698 133.328L330.759 133.33L330.819 133.316L330.71 132.828ZM437.037 126.421L437.198 125.948V125.948L437.037 126.421ZM516.606 178.345L516.284 178.727L516.284 178.727L516.606 178.345ZM713.029 315.037L713.012 315.537L713.029 315.037ZM1063.07 127.824L1062.98 127.332L1062.98 127.332L1063.07 127.824ZM1078.45 125.365L1078.52 125.86L1078.52 125.86L1078.45 125.365ZM-94.6115 220.165C-11.7698 198.62 66.3148 176.227 137.837 159.558C209.355 142.89 274.255 131.959 330.698 133.328L330.722 132.328C274.149 130.956 209.149 141.911 137.61 158.584C66.0736 175.257 -12.0576 197.661 -94.8632 219.197L-94.6115 220.165ZM330.819 133.316C378.652 122.692 401.625 114.915 436.876 126.895L437.198 125.948C401.622 113.858 378.328 121.739 330.602 132.34L330.819 133.316ZM436.876 126.895C461.902 135.4 485.6 152.911 516.284 178.727L516.927 177.962C486.247 152.149 462.422 134.52 437.198 125.948L436.876 126.895ZM516.284 178.727C540.972 199.491 561.094 218.257 578.516 234.77C595.934 251.279 610.669 265.549 624.564 277.298C652.376 300.816 676.886 314.286 713.012 315.537L713.046 314.537C677.224 313.297 652.922 299.968 625.21 276.535C611.342 264.809 596.636 250.567 579.204 234.044C561.777 217.527 541.639 198.745 516.927 177.962L516.284 178.727ZM713.012 315.537C774.987 317.682 812.213 279.507 859.022 236.617C905.855 193.705 962.412 145.913 1063.15 128.317L1062.98 127.332C961.955 144.977 905.224 192.927 858.346 235.88C811.444 278.855 774.534 316.665 713.046 314.537L713.012 315.537ZM1063.15 128.317C1068.19 127.437 1073.28 126.586 1078.52 125.86L1078.39 124.87C1073.13 125.598 1068.03 126.452 1062.98 127.332L1063.15 128.317ZM1078.52 125.86C1232.4 104.441 1414.27 162.365 1535.08 210.056L1535.44 209.126C1414.63 161.432 1232.55 103.412 1078.39 124.87L1078.52 125.86Z" fill="#242424" mask="url(#path-31-outside-16_48_234)"/>
<mask id="path-33-outside-17_48_234" maskUnits="userSpaceOnUse" x="-102.616" y="111.971" width="1638" height="206" fill="black">
<rect fill="white" x="-102.616" y="111.971" width="1638" height="206"/>
<path d="M-101.616 213.283C55.9609 171.575 206.002 126.644 324.19 133.111C372.492 125.746 398.502 121.779 433.479 134.838C458.416 144.15 481.558 161.241 510.099 185.226C602.798 263.111 629.92 314.719 701.239 316.688C825.39 320.118 847.061 158.286 1050.73 120.727C1055.86 119.781 1061.05 118.874 1066.38 118.089C1222.52 95.0967 1409.95 154.224 1534.28 202.756"/>
</mask>
<path d="M324.19 133.111L324.163 133.61L324.215 133.613L324.266 133.605L324.19 133.111ZM433.479 134.838L433.654 134.369V134.369L433.479 134.838ZM510.099 185.226L509.777 185.609V185.609L510.099 185.226ZM701.239 316.688L701.252 316.188L701.239 316.688ZM1050.73 120.727L1050.64 120.235V120.235L1050.73 120.727ZM1066.38 118.089L1066.46 118.584V118.584L1066.38 118.089ZM-101.488 213.766C-22.6884 192.909 54.1976 171.255 126.164 155.62C198.131 139.985 265.136 130.38 324.163 133.61L324.218 132.612C265.056 129.374 197.947 139.002 125.952 154.643C53.9563 170.284 -22.9669 191.949 -101.744 212.8L-101.488 213.766ZM324.266 133.605C372.583 126.238 398.466 122.3 433.304 135.306L433.654 134.369C398.537 121.259 372.401 125.255 324.115 132.617L324.266 133.605ZM433.304 135.306C458.154 144.586 481.239 161.626 509.777 185.609L510.42 184.843C481.877 160.856 458.679 143.714 433.654 134.369L433.304 135.306ZM509.777 185.609C532.94 205.071 552.008 222.891 568.699 238.711C585.385 254.526 599.709 268.354 613.365 279.809C640.698 302.734 665.413 316.199 701.225 317.188L701.252 316.188C665.745 315.208 641.24 301.884 614.008 279.042C600.381 267.613 586.086 253.813 569.387 237.985C552.692 222.162 533.607 204.324 510.42 184.843L509.777 185.609ZM701.225 317.188C763.552 318.91 800.166 279.115 846.513 234.438C892.886 189.736 949.134 139.971 1050.82 121.219L1050.64 120.235C948.661 139.042 892.237 188.972 845.819 233.718C799.373 278.49 763.076 317.896 701.252 316.188L701.225 317.188ZM1050.82 121.219C1055.95 120.274 1061.13 119.368 1066.46 118.584L1066.31 117.595C1060.97 118.381 1055.78 119.289 1050.64 120.235L1050.82 121.219ZM1066.46 118.584C1222.45 95.6124 1409.77 154.69 1534.09 203.221L1534.46 202.29C1410.13 153.757 1222.59 94.5811 1066.31 117.595L1066.46 118.584Z" fill="#242424" mask="url(#path-33-outside-17_48_234)"/>
<mask id="path-35-outside-18_48_234" maskUnits="userSpaceOnUse" x="-109.493" y="104.174" width="1643" height="215" fill="black">
<rect fill="white" x="-109.493" y="104.174" width="1643" height="215"/>
<path d="M-108.493 206.878C41.0096 166.54 194.312 123.181 317.668 133.388C366.538 129.282 395.369 129.163 429.915 143.245C454.664 153.323 477.19 169.945 503.589 192.114C590.189 264.79 618.755 316.892 689.446 318.349C814.29 320.93 832.806 153.513 1038.4 113.659C1043.61 112.648 1048.9 111.686 1054.33 110.843C1212.59 86.2751 1405.43 146.551 1533.29 195.922"/>
</mask>
<path d="M317.668 133.388L317.627 133.887L317.669 133.89L317.71 133.887L317.668 133.388ZM429.915 143.245L429.726 143.708L429.726 143.708L429.915 143.245ZM503.589 192.114L503.268 192.497L503.268 192.497L503.589 192.114ZM689.446 318.349L689.456 317.849H689.456L689.446 318.349ZM1038.4 113.659L1038.5 114.15L1038.5 114.15L1038.4 113.659ZM1054.33 110.843L1054.25 110.349V110.349L1054.33 110.843ZM-108.363 207.361C41.1767 167.013 194.379 123.688 317.627 133.887L317.71 132.89C194.246 122.674 40.8424 166.067 -108.623 206.395L-108.363 207.361ZM317.71 133.887C366.567 129.781 395.297 129.674 429.726 143.708L430.104 142.782C395.441 128.653 366.508 128.782 317.626 132.89L317.71 133.887ZM429.726 143.708C454.399 153.755 476.875 170.333 503.268 192.497L503.911 191.731C477.505 169.557 454.929 152.891 430.104 142.782L429.726 143.708ZM503.268 192.497C524.906 210.656 542.92 227.531 558.879 242.656C574.834 257.778 588.747 271.164 602.164 282.323C629.017 304.657 653.937 318.117 689.436 318.849L689.456 317.849C654.264 317.123 629.556 303.804 602.803 281.554C589.418 270.421 575.534 257.064 559.567 241.931C543.605 226.802 525.573 209.91 503.911 191.731L503.268 192.497ZM689.436 318.849C752.116 320.145 788.116 278.729 833.998 232.269C879.909 185.778 935.849 134.048 1038.5 114.15L1038.31 113.168C935.359 133.124 879.243 185.03 833.286 231.566C787.3 278.132 751.62 319.134 689.456 317.849L689.436 318.849ZM1038.5 114.15C1043.7 113.139 1048.99 112.179 1054.41 111.337L1054.25 110.349C1048.82 111.194 1043.52 112.156 1038.31 113.169L1038.5 114.15ZM1054.41 111.337C1212.52 86.7916 1405.25 147.018 1533.11 196.389L1533.47 195.456C1405.61 146.085 1212.65 85.7587 1054.25 110.349L1054.41 111.337Z" fill="#242424" mask="url(#path-35-outside-18_48_234)"/>
<mask id="path-37-outside-19_48_234" maskUnits="userSpaceOnUse" x="-116.367" y="96.354" width="1649" height="225" fill="black">
<rect fill="white" x="-116.367" y="96.354" width="1649" height="225"/>
<path d="M-115.367 200.482C26.0568 161.528 181.001 144.072 311.153 133.679C359.856 129.789 392.231 136.565 426.362 151.67C450.91 162.522 472.83 178.666 497.091 199.011C577.588 266.483 607.594 319.066 677.661 320.017C803.184 321.721 818.533 148.722 1026.07 106.574C1031.36 105.5 1036.76 104.483 1042.28 103.581C1202.65 77.4512 1400.9 138.873 1532.31 189.069"/>
</mask>
<path d="M311.153 133.679L311.193 134.177L311.153 133.679ZM426.362 151.67L426.16 152.127L426.16 152.127L426.362 151.67ZM497.091 199.011L496.77 199.395L496.77 199.395L497.091 199.011ZM677.661 320.017L677.654 320.517L677.661 320.017ZM1026.07 106.574L1025.97 106.084L1025.97 106.084L1026.07 106.574ZM1042.28 103.581L1042.2 103.088L1042.2 103.088L1042.28 103.581ZM-115.234 200.964C26.1428 162.023 181.049 144.57 311.193 134.177L311.113 133.18C180.953 143.575 25.9709 161.033 -115.5 200L-115.234 200.964ZM311.193 134.177C359.815 130.294 392.106 137.056 426.16 152.127L426.565 151.212C392.356 136.073 359.898 129.284 311.113 133.18L311.193 134.177ZM426.16 152.127C450.642 162.951 472.518 179.058 496.77 199.395L497.413 198.628C473.141 178.275 451.178 162.094 426.564 151.212L426.16 152.127ZM496.77 199.395C516.882 216.252 533.841 232.181 549.068 246.612C564.29 261.04 577.791 273.982 590.969 284.845C617.342 306.586 642.467 320.039 677.654 320.517L677.667 319.517C642.788 319.044 617.876 305.731 591.605 284.074C578.461 273.238 564.989 260.325 549.755 245.887C534.527 231.453 517.549 215.507 497.412 198.628L496.77 199.395ZM677.654 320.517C740.681 321.373 776.059 278.33 821.474 230.083C866.921 181.801 922.554 128.107 1026.17 107.064L1025.97 106.084C922.049 127.189 866.239 181.068 820.746 229.397C775.222 277.76 740.163 320.366 677.667 319.517L677.654 320.517ZM1026.17 107.064C1031.46 105.991 1036.84 104.975 1042.36 104.075L1042.2 103.088C1036.67 103.99 1031.27 105.009 1025.97 106.084L1026.17 107.064ZM1042.36 104.075C1202.59 77.9685 1400.72 139.339 1532.13 189.536L1532.49 188.602C1401.08 138.406 1202.72 76.9339 1042.2 103.088L1042.36 104.075Z" fill="#242424" mask="url(#path-37-outside-19_48_234)"/>
<mask id="path-39-outside-20_48_234" maskUnits="userSpaceOnUse" x="-123.244" y="88.5769" width="1655" height="234" fill="black">
<rect fill="white" x="-123.244" y="88.5769" width="1655" height="234"/>
<path d="M-122.244 194.087C11.1183 156.489 167.99 121.745 304.635 133.958C353.928 138.365 389.077 143.952 422.806 160.082C447.145 171.711 468.462 187.374 490.586 205.897C564.987 268.162 596.426 321.221 665.872 321.672C792.071 322.494 804.24 143.921 1013.73 99.4903C1019.12 98.3508 1024.6 97.2849 1030.23 96.3217C1192.85 68.7805 1396.41 131.196 1531.34 182.226"/>
</mask>
<path d="M304.635 133.958L304.68 133.46V133.46L304.635 133.958ZM422.806 160.082L422.591 160.534L422.591 160.534L422.806 160.082ZM490.586 205.897L490.265 206.281L490.265 206.281L490.586 205.897ZM665.872 321.672L665.876 321.172L665.872 321.672ZM1013.73 99.4903L1013.63 99.0012L1013.63 99.0012L1013.73 99.4903ZM1030.23 96.3217L1030.15 95.8287L1030.15 95.8288L1030.23 96.3217ZM-122.108 194.568C11.2482 156.972 168.044 122.251 304.591 134.456L304.68 133.46C167.937 121.238 10.9884 156.007 -122.38 193.606L-122.108 194.568ZM304.591 134.456C353.875 138.862 388.947 144.444 422.591 160.534L423.022 159.631C389.207 143.46 353.982 137.868 304.68 133.46L304.591 134.456ZM422.591 160.534C446.875 172.135 468.154 187.768 490.265 206.281L490.907 205.514C468.77 186.979 447.416 171.286 423.022 159.631L422.591 160.534ZM490.265 206.281C508.853 221.836 524.758 236.817 539.253 250.554C553.743 264.287 566.833 276.786 579.771 287.352C605.662 308.498 630.991 321.946 665.869 322.172L665.876 321.172C631.307 320.948 606.193 307.64 580.403 286.577C567.501 276.04 554.44 263.57 539.941 249.829C525.445 236.091 509.52 221.091 490.907 205.514L490.265 206.281ZM665.869 322.172C729.241 322.585 763.992 277.916 808.939 227.885C853.921 177.816 909.248 122.162 1013.84 99.9794L1013.63 99.0012C908.727 121.25 853.222 177.097 808.196 227.217C763.135 277.375 728.702 321.581 665.876 321.172L665.869 322.172ZM1013.84 99.9795C1019.21 98.8411 1024.7 97.7765 1030.31 96.8145L1030.15 95.8288C1024.51 96.7933 1019.02 97.8604 1013.63 99.0012L1013.84 99.9795ZM1030.31 96.8146C1192.78 69.2984 1396.23 131.663 1531.17 182.694L1531.52 181.759C1396.59 130.73 1192.91 68.2626 1030.15 95.8287L1030.31 96.8146Z" fill="#242424" mask="url(#path-39-outside-20_48_234)"/>
<mask id="path-41-outside-21_48_234" maskUnits="userSpaceOnUse" x="-130.123" y="80.7168" width="1661" height="244" fill="black">
<rect fill="white" x="-130.123" y="80.7168" width="1661" height="244"/>
<path d="M-129.123 187.691C-3.84354 151.464 157.354 115.551 298.116 134.243C348.045 140.875 385.913 151.346 419.249 168.499C443.37 180.903 464.096 196.089 484.079 212.787C552.38 269.846 585.255 323.512 654.082 323.335C780.952 323.01 789.779 138.983 1001.4 92.4127C1006.86 91.2034 1012.45 90.0877 1018.17 89.0657C1182.88 59.8966 1391.9 123.52 1530.35 175.381"/>
</mask>
<path d="M298.116 134.243L298.181 133.747L298.181 133.747L298.116 134.243ZM419.249 168.499L419.02 168.944L419.02 168.944L419.249 168.499ZM484.079 212.787L483.759 213.171L483.759 213.171L484.079 212.787ZM654.082 323.335L654.084 323.835L654.082 323.335ZM1001.4 92.4127L1001.51 92.901L1001.51 92.9009L1001.4 92.4127ZM1018.17 89.0657L1018.09 88.5734L1018.09 88.5735L1018.17 89.0657ZM-128.984 188.172C-3.71243 151.947 157.399 116.061 298.05 134.739L298.181 133.747C157.309 115.04 -3.97466 150.982 -129.262 187.211L-128.984 188.172ZM298.05 134.739C347.944 141.366 385.751 151.825 419.02 168.944L419.478 168.055C386.074 150.867 348.147 140.384 298.181 133.747L298.05 134.739ZM419.02 168.944C443.096 181.324 463.792 196.486 483.759 213.171L484.4 212.403C464.401 195.692 443.643 180.481 419.478 168.055L419.02 168.944ZM483.759 213.171C500.82 227.424 515.671 241.467 529.434 254.519C543.192 267.568 555.871 279.635 568.569 289.913C593.98 310.481 619.514 323.924 654.084 323.835L654.081 322.835C619.824 322.923 594.507 309.621 569.198 289.136C556.537 278.887 543.888 266.85 530.122 253.794C516.36 240.742 501.489 226.679 484.4 212.403L483.759 213.171ZM654.084 323.835C685.942 323.754 710.389 312.133 732.432 294.052C754.45 275.99 774.099 251.453 796.339 225.542C840.834 173.699 895.858 116.151 1001.51 92.901L1001.29 91.9244C895.322 115.245 840.121 172.995 795.58 224.89C773.301 250.848 753.729 275.289 731.797 293.279C709.889 311.25 685.658 322.754 654.081 322.835L654.084 323.835ZM1001.51 92.9009C1006.96 91.6931 1012.54 90.5788 1018.26 89.558L1018.09 88.5735C1012.36 89.5967 1006.76 90.7137 1001.29 91.9245L1001.51 92.9009ZM1018.26 89.5581C1100.52 74.9893 1193.88 83.5903 1284 102.327C1374.12 121.062 1460.96 149.923 1530.17 175.849L1530.52 174.913C1461.28 148.978 1374.39 120.097 1284.21 101.348C1194.03 82.5991 1100.53 73.9731 1018.09 88.5734L1018.26 89.5581Z" fill="#242424" mask="url(#path-41-outside-21_48_234)"/>
<mask id="path-43-outside-22_48_234" maskUnits="userSpaceOnUse" x="-137" y="72.8467" width="1667" height="253" fill="black">
<rect fill="white" x="-137" y="72.8467" width="1667" height="253"/>
<path d="M-136 181.296C-18.7949 146.441 147.553 109.396 291.593 134.53C508.735 172.426 527.521 325.888 642.298 324.996C773.139 323.981 775.815 124.336 1006.13 81.8099C1172.91 51.0148 1387.41 115.845 1529.36 168.542"/>
</mask>
<path d="M291.593 134.53L291.679 134.037V134.037L291.593 134.53ZM642.298 324.996L642.294 324.496L642.298 324.996ZM1006.13 81.8099L1006.03 81.3182L1006.13 81.8099ZM-135.857 181.775C-18.6633 146.923 147.589 109.909 291.507 135.022L291.679 134.037C147.518 108.882 -18.9265 145.958 -136.143 180.817L-135.857 181.775ZM291.507 135.022C399.944 153.947 458.841 201.716 504.992 244.674C551.11 287.602 584.667 325.944 642.302 325.496L642.294 324.496C585.152 324.94 551.927 286.996 505.673 243.942C459.451 200.918 400.384 153.009 291.679 134.037L291.507 135.022ZM642.302 325.496C675.162 325.241 699.973 312.507 722.287 292.926C744.575 273.367 764.413 246.936 787.296 219.288C833.078 163.971 891.23 103.533 1006.22 82.3015L1006.03 81.3182C890.71 102.612 832.368 163.26 786.525 218.651C763.595 246.357 743.837 272.685 721.627 292.174C699.444 311.641 674.855 324.243 642.294 324.496L642.302 325.496ZM1006.22 82.3015C1089.52 66.9207 1184.76 75.4169 1276.95 94.3563C1369.13 113.294 1458.22 142.667 1529.19 169.011L1529.54 168.073C1458.55 141.72 1369.41 112.329 1277.15 93.3767C1184.91 74.4255 1089.52 65.9039 1006.03 81.3182L1006.22 82.3015Z" fill="#242424" mask="url(#path-43-outside-22_48_234)"/>
</g>
</svg>
