<svg width="657" height="734" viewBox="0 0 657 734" fill="none" xmlns="http://www.w3.org/2000/svg">
<g opacity="0.5">
<path d="M27.0009 721.002C-171.822 721.002 -333 559.824 -333 361.001C-333 162.178 -171.822 1 27.0009 1C225.824 1 387.002 162.178 387.002 361.001C387.002 559.824 225.824 721.002 27.0009 721.002Z" stroke="#07242B" stroke-width="0.2" stroke-miterlimit="10"/>
<path d="M27.0009 707.09C-164.139 707.09 -319.088 552.141 -319.088 361.001C-319.088 169.861 -164.139 14.912 27.0009 14.912C218.141 14.912 373.09 169.861 373.09 361.001C373.09 552.141 218.141 707.09 27.0009 707.09Z" stroke="#07242B" stroke-width="0.2" stroke-miterlimit="10"/>
<path d="M27.0009 693.174C-156.453 693.174 -305.172 544.455 -305.172 361.001C-305.172 177.547 -156.453 28.8281 27.0009 28.8281C210.455 28.8281 359.174 177.547 359.174 361.001C359.174 544.455 210.455 693.174 27.0009 693.174Z" stroke="#07242B" stroke-width="0.2" stroke-miterlimit="10"/>
<path d="M27.0009 679.262C-148.77 679.262 -291.26 536.772 -291.26 361.001C-291.26 185.23 -148.77 42.7402 27.0009 42.7402C202.772 42.7402 345.262 185.23 345.262 361.001C345.262 536.772 202.772 679.262 27.0009 679.262Z" stroke="#07242B" stroke-width="0.2" stroke-miterlimit="10"/>
<path d="M27.0009 665.35C-141.086 665.35 -277.348 529.088 -277.348 361.001C-277.348 192.914 -141.086 56.6522 27.0009 56.6522C195.088 56.6522 331.35 192.914 331.35 361.001C331.35 529.088 195.088 665.35 27.0009 665.35Z" stroke="#07242B" stroke-width="0.2" stroke-miterlimit="10"/>
<path d="M27.0006 651.438C-133.403 651.438 -263.436 521.405 -263.436 361.001C-263.436 200.597 -133.403 70.5642 27.0006 70.5642C187.404 70.5642 317.438 200.597 317.438 361.001C317.438 521.405 187.404 651.438 27.0006 651.438Z" stroke="#07242B" stroke-width="0.2" stroke-miterlimit="10"/>
<path d="M27.0009 637.522C-125.717 637.522 -249.52 513.719 -249.52 361.001C-249.52 208.283 -125.717 84.4802 27.0009 84.4802C179.719 84.4802 303.522 208.283 303.522 361.001C303.522 513.719 179.719 637.522 27.0009 637.522Z" stroke="#07242B" stroke-width="0.2" stroke-miterlimit="10"/>
<path d="M27.0008 623.61C-118.034 623.61 -235.608 506.036 -235.608 361.001C-235.608 215.966 -118.034 98.3923 27.0008 98.3923C172.036 98.3923 289.61 215.966 289.61 361.001C289.61 506.036 172.036 623.61 27.0008 623.61Z" stroke="#07242B" stroke-width="0.2" stroke-miterlimit="10"/>
<path d="M27.0009 609.698C-110.351 609.698 -221.696 498.353 -221.696 361.001C-221.696 223.65 -110.351 112.304 27.0009 112.304C164.352 112.304 275.698 223.65 275.698 361.001C275.698 498.353 164.352 609.698 27.0009 609.698Z" stroke="#07242B" stroke-width="0.2" stroke-miterlimit="10"/>
<path d="M27.0008 595.786C-102.667 595.786 -207.784 490.669 -207.784 361.001C-207.784 231.333 -102.667 126.216 27.0008 126.216C156.669 126.216 261.786 231.333 261.786 361.001C261.786 490.669 156.669 595.786 27.0008 595.786Z" stroke="#07242B" stroke-width="0.2" stroke-miterlimit="10"/>
<path d="M27.0008 581.87C-94.9816 581.87 -193.868 482.984 -193.868 361.001C-193.868 239.019 -94.9816 140.132 27.0008 140.132C148.983 140.132 247.87 239.019 247.87 361.001C247.87 482.984 148.983 581.87 27.0008 581.87Z" stroke="#07242B" stroke-width="0.2" stroke-miterlimit="10"/>
<path d="M27.0008 567.958C-87.2982 567.958 -179.956 475.3 -179.956 361.001C-179.956 246.702 -87.2982 154.044 27.0008 154.044C141.3 154.044 233.957 246.702 233.957 361.001C233.957 475.3 141.3 567.958 27.0008 567.958Z" stroke="#07242B" stroke-width="0.2" stroke-miterlimit="10"/>
<path d="M27.0008 554.046C-79.6147 554.046 -166.044 467.617 -166.044 361.001C-166.044 254.386 -79.6147 167.957 27.0008 167.957C133.616 167.957 220.045 254.386 220.045 361.001C220.045 467.617 133.616 554.046 27.0008 554.046Z" stroke="#07242B" stroke-width="0.2" stroke-miterlimit="10"/>
<path d="M27.0009 540.134C-71.9313 540.134 -152.132 459.933 -152.132 361.001C-152.132 262.069 -71.9313 181.869 27.0009 181.869C125.933 181.869 206.133 262.069 206.133 361.001C206.133 459.933 125.933 540.134 27.0009 540.134Z" stroke="#07242B" stroke-width="0.2" stroke-miterlimit="10"/>
<path d="M27.0008 526.218C-64.2457 526.218 -138.216 452.248 -138.216 361.001C-138.216 269.755 -64.2457 195.785 27.0008 195.785C118.247 195.785 192.217 269.755 192.217 361.001C192.217 452.248 118.247 526.218 27.0008 526.218Z" stroke="#07242B" stroke-width="0.2" stroke-miterlimit="10"/>
<path d="M27.0008 512.306C-56.5623 512.306 -124.304 444.564 -124.304 361.001C-124.304 277.438 -56.5623 209.697 27.0008 209.697C110.564 209.697 178.305 277.438 178.305 361.001C178.305 444.564 110.564 512.306 27.0008 512.306Z" stroke="#07242B" stroke-width="0.2" stroke-miterlimit="10"/>
<path d="M27.0009 498.394C-48.8789 498.394 -110.392 436.881 -110.392 361.001C-110.392 285.121 -48.8789 223.609 27.0009 223.609C102.881 223.609 164.393 285.121 164.393 361.001C164.393 436.881 102.881 498.394 27.0009 498.394Z" stroke="#07242B" stroke-width="0.2" stroke-miterlimit="10"/>
<path d="M27.0008 484.481C-41.1955 484.481 -96.4795 429.197 -96.4795 361.001C-96.4795 292.805 -41.1955 237.521 27.0008 237.521C95.1971 237.521 150.481 292.805 150.481 361.001C150.481 429.197 95.1971 484.481 27.0008 484.481Z" stroke="#07242B" stroke-width="0.2" stroke-miterlimit="10"/>
<path d="M27.0011 470.565C-33.5096 470.565 -82.5632 421.512 -82.5632 361.001C-82.5632 300.49 -33.5096 251.437 27.0011 251.437C87.5118 251.437 136.565 300.49 136.565 361.001C136.565 421.512 87.5118 470.565 27.0011 470.565Z" stroke="#07242B" stroke-width="0.2" stroke-miterlimit="10"/>
<path d="M27.0008 456.653C-25.8265 456.653 -68.6515 413.828 -68.6515 361.001C-68.6515 308.174 -25.8265 265.349 27.0008 265.349C79.8281 265.349 122.653 308.174 122.653 361.001C122.653 413.828 79.8281 456.653 27.0008 456.653Z" stroke="#07242B" stroke-width="0.2" stroke-miterlimit="10"/>
<path d="M27.0008 442.741C-18.143 442.741 -54.7394 406.145 -54.7394 361.001C-54.7394 315.857 -18.143 279.261 27.0008 279.261C72.1447 279.261 108.741 315.857 108.741 361.001C108.741 406.145 72.1447 442.741 27.0008 442.741Z" stroke="#07242B" stroke-width="0.2" stroke-miterlimit="10"/>
<path d="M27.0008 428.829C-10.4597 428.829 -40.8274 398.462 -40.8274 361.001C-40.8274 323.541 -10.4597 293.173 27.0008 293.173C64.4613 293.173 94.829 323.541 94.829 361.001C94.829 398.462 64.4613 428.829 27.0008 428.829Z" stroke="#07242B" stroke-width="0.2" stroke-miterlimit="10"/>
<path d="M27.0008 414.913C-2.77402 414.913 -26.9113 390.776 -26.9113 361.001C-26.9113 331.226 -2.77402 307.089 27.0008 307.089C56.7757 307.089 80.913 331.226 80.913 361.001C80.913 390.776 56.7757 414.913 27.0008 414.913Z" stroke="#07242B" stroke-width="0.2" stroke-miterlimit="10"/>
<path d="M27.0009 401.001C4.9094 401.001 -12.9993 383.093 -12.9993 361.001C-12.9993 338.91 4.9094 321.001 27.0009 321.001C49.0923 321.001 67.001 338.91 67.001 361.001C67.001 383.093 49.0923 401.001 27.0009 401.001Z" stroke="#07242B" stroke-width="0.2" stroke-miterlimit="10"/>
</g>
<g opacity="0.5">
<path d="M435.001 733.002C312.945 733.002 214 634.057 214 512.001C214 389.946 312.945 291 435.001 291C557.056 291 656.002 389.946 656.002 512.001C656.002 634.057 557.056 733.002 435.001 733.002Z" stroke="#07242B" stroke-width="0.1" stroke-miterlimit="10"/>
<path d="M435.001 724.462C317.662 724.462 222.54 629.34 222.54 512.001C222.54 394.662 317.662 299.54 435.001 299.54C552.34 299.54 647.461 394.662 647.461 512.001C647.461 629.34 552.34 724.462 435.001 724.462Z" stroke="#07242B" stroke-width="0.1" stroke-miterlimit="10"/>
<path d="M435.001 715.919C322.38 715.919 231.083 624.622 231.083 512.001C231.083 399.38 322.38 308.083 435.001 308.083C547.622 308.083 638.919 399.38 638.919 512.001C638.919 624.622 547.622 715.919 435.001 715.919Z" stroke="#07242B" stroke-width="0.1" stroke-miterlimit="10"/>
<path d="M435.001 707.378C327.097 707.378 239.624 619.905 239.624 512.001C239.624 404.097 327.097 316.624 435.001 316.624C542.905 316.624 630.378 404.097 630.378 512.001C630.378 619.905 542.905 707.378 435.001 707.378Z" stroke="#07242B" stroke-width="0.1" stroke-miterlimit="10"/>
<path d="M435.001 698.838C331.814 698.838 248.164 615.188 248.164 512.001C248.164 408.814 331.814 325.164 435.001 325.164C538.188 325.164 621.838 408.814 621.838 512.001C621.838 615.188 538.188 698.838 435.001 698.838Z" stroke="#07242B" stroke-width="0.1" stroke-miterlimit="10"/>
<path d="M435.001 690.297C336.531 690.297 256.705 610.471 256.705 512.001C256.705 413.531 336.531 333.705 435.001 333.705C533.471 333.705 613.297 413.531 613.297 512.001C613.297 610.471 533.471 690.297 435.001 690.297Z" stroke="#07242B" stroke-width="0.1" stroke-miterlimit="10"/>
<path d="M435.001 681.755C341.249 681.755 265.247 605.753 265.247 512.001C265.247 418.249 341.249 342.248 435.001 342.248C528.753 342.248 604.754 418.249 604.754 512.001C604.754 605.753 528.753 681.755 435.001 681.755Z" stroke="#07242B" stroke-width="0.1" stroke-miterlimit="10"/>
<path d="M435.001 673.214C345.965 673.214 273.788 601.037 273.788 512.001C273.788 422.966 345.965 350.788 435.001 350.788C524.036 350.788 596.214 422.966 596.214 512.001C596.214 601.037 524.036 673.214 435.001 673.214Z" stroke="#07242B" stroke-width="0.1" stroke-miterlimit="10"/>
<path d="M435.001 664.674C350.682 664.674 282.328 596.32 282.328 512.001C282.328 427.682 350.682 359.329 435.001 359.329C519.32 359.329 587.673 427.682 587.673 512.001C587.673 596.32 519.32 664.674 435.001 664.674Z" stroke="#07242B" stroke-width="0.1" stroke-miterlimit="10"/>
<path d="M435.001 656.133C355.399 656.133 290.869 591.603 290.869 512.001C290.869 432.399 355.399 367.869 435.001 367.869C514.603 367.869 579.133 432.399 579.133 512.001C579.133 591.603 514.603 656.133 435.001 656.133Z" stroke="#07242B" stroke-width="0.1" stroke-miterlimit="10"/>
<path d="M435.001 647.59C360.117 647.59 299.412 586.885 299.412 512.001C299.412 437.117 360.117 376.412 435.001 376.412C509.885 376.412 570.59 437.117 570.59 512.001C570.59 586.885 509.885 647.59 435.001 647.59Z" stroke="#07242B" stroke-width="0.1" stroke-miterlimit="10"/>
<path d="M435.001 639.05C364.834 639.05 307.952 582.168 307.952 512.001C307.952 441.834 364.834 384.953 435.001 384.953C505.168 384.953 562.049 441.834 562.049 512.001C562.049 582.168 505.168 639.05 435.001 639.05Z" stroke="#07242B" stroke-width="0.1" stroke-miterlimit="10"/>
<path d="M435.001 630.509C369.551 630.509 316.493 577.451 316.493 512.001C316.493 446.551 369.551 393.493 435.001 393.493C500.451 393.493 553.509 446.551 553.509 512.001C553.509 577.451 500.451 630.509 435.001 630.509Z" stroke="#07242B" stroke-width="0.1" stroke-miterlimit="10"/>
<path d="M435.001 621.969C374.267 621.969 325.033 572.735 325.033 512.001C325.033 451.268 374.267 402.033 435.001 402.033C495.734 402.033 544.969 451.268 544.969 512.001C544.969 572.735 495.734 621.969 435.001 621.969Z" stroke="#07242B" stroke-width="0.1" stroke-miterlimit="10"/>
<path d="M435.001 613.426C378.985 613.426 333.576 568.016 333.576 512.001C333.576 455.986 378.985 410.576 435.001 410.576C491.016 410.576 536.426 455.986 536.426 512.001C536.426 568.016 491.016 613.426 435.001 613.426Z" stroke="#07242B" stroke-width="0.1" stroke-miterlimit="10"/>
<path d="M435.001 604.885C383.702 604.885 342.117 563.3 342.117 512.001C342.117 460.703 383.702 419.117 435.001 419.117C486.299 419.117 527.885 460.703 527.885 512.001C527.885 563.3 486.299 604.885 435.001 604.885Z" stroke="#07242B" stroke-width="0.1" stroke-miterlimit="10"/>
<path d="M435.001 596.345C388.419 596.345 350.657 558.583 350.657 512.001C350.657 465.419 388.419 427.657 435.001 427.657C481.583 427.657 519.345 465.419 519.345 512.001C519.345 558.583 481.583 596.345 435.001 596.345Z" stroke="#07242B" stroke-width="0.1" stroke-miterlimit="10"/>
<path d="M435.001 587.805C393.136 587.805 359.197 553.866 359.197 512.001C359.197 470.136 393.136 436.198 435.001 436.198C476.866 436.198 510.804 470.136 510.804 512.001C510.804 553.866 476.866 587.805 435.001 587.805Z" stroke="#07242B" stroke-width="0.1" stroke-miterlimit="10"/>
<path d="M435.001 579.262C397.854 579.262 367.74 549.148 367.74 512.001C367.74 474.854 397.854 444.741 435.001 444.741C472.148 444.741 502.261 474.854 502.261 512.001C502.261 549.148 472.148 579.262 435.001 579.262Z" stroke="#07242B" stroke-width="0.1" stroke-miterlimit="10"/>
<path d="M435.001 570.721C402.571 570.721 376.281 544.431 376.281 512.001C376.281 479.571 402.571 453.281 435.001 453.281C467.431 453.281 493.721 479.571 493.721 512.001C493.721 544.431 467.431 570.721 435.001 570.721Z" stroke="#07242B" stroke-width="0.1" stroke-miterlimit="10"/>
<path d="M435.001 562.181C407.287 562.181 384.821 539.714 384.821 512.001C384.821 484.288 407.287 461.822 435.001 461.822C462.714 461.822 485.18 484.288 485.18 512.001C485.18 539.714 462.714 562.181 435.001 562.181Z" stroke="#07242B" stroke-width="0.1" stroke-miterlimit="10"/>
<path d="M435.001 553.64C412.004 553.64 393.362 534.998 393.362 512.001C393.362 489.005 412.004 470.362 435.001 470.362C457.997 470.362 476.64 489.005 476.64 512.001C476.64 534.998 457.997 553.64 435.001 553.64Z" stroke="#07242B" stroke-width="0.1" stroke-miterlimit="10"/>
<path d="M435.001 545.097C416.722 545.097 401.905 530.28 401.905 512.001C401.905 493.723 416.722 478.905 435.001 478.905C453.279 478.905 468.097 493.723 468.097 512.001C468.097 530.28 453.279 545.097 435.001 545.097Z" stroke="#07242B" stroke-width="0.1" stroke-miterlimit="10"/>
<path d="M435.001 536.557C421.439 536.557 410.445 525.563 410.445 512.001C410.445 498.439 421.439 487.445 435.001 487.445C448.563 487.445 459.557 498.439 459.557 512.001C459.557 525.563 448.563 536.557 435.001 536.557Z" stroke="#07242B" stroke-width="0.1" stroke-miterlimit="10"/>
</g>
<g opacity="0.5">
<path d="M391.001 454.002C268.945 454.002 170 355.057 170 233.001C170 110.946 268.945 12 391.001 12C513.056 12 612.002 110.946 612.002 233.001C612.002 355.057 513.056 454.002 391.001 454.002Z" stroke="#07242B" stroke-width="0.1" stroke-miterlimit="10"/>
<path d="M391.001 445.462C273.662 445.462 178.54 350.34 178.54 233.001C178.54 115.662 273.662 20.5405 391.001 20.5405C508.34 20.5405 603.461 115.662 603.461 233.001C603.461 350.34 508.34 445.462 391.001 445.462Z" stroke="#07242B" stroke-width="0.1" stroke-miterlimit="10"/>
<path d="M391.001 436.919C278.38 436.919 187.083 345.622 187.083 233.001C187.083 120.38 278.38 29.0834 391.001 29.0834C503.622 29.0834 594.919 120.38 594.919 233.001C594.919 345.622 503.622 436.919 391.001 436.919Z" stroke="#07242B" stroke-width="0.1" stroke-miterlimit="10"/>
<path d="M391.001 428.378C283.097 428.378 195.624 340.905 195.624 233.001C195.624 125.097 283.097 37.6238 391.001 37.6238C498.905 37.6238 586.378 125.097 586.378 233.001C586.378 340.905 498.905 428.378 391.001 428.378Z" stroke="#07242B" stroke-width="0.1" stroke-miterlimit="10"/>
<path d="M391.001 419.838C287.814 419.838 204.164 336.188 204.164 233.001C204.164 129.814 287.814 46.1643 391.001 46.1643C494.188 46.1643 577.838 129.814 577.838 233.001C577.838 336.188 494.188 419.838 391.001 419.838Z" stroke="#07242B" stroke-width="0.1" stroke-miterlimit="10"/>
<path d="M391.001 411.297C292.531 411.297 212.705 331.471 212.705 233.001C212.705 134.531 292.531 54.7048 391.001 54.7048C489.471 54.7048 569.297 134.531 569.297 233.001C569.297 331.471 489.471 411.297 391.001 411.297Z" stroke="#07242B" stroke-width="0.1" stroke-miterlimit="10"/>
<path d="M391.001 402.755C297.249 402.755 221.247 326.753 221.247 233.001C221.247 139.249 297.249 63.2477 391.001 63.2477C484.753 63.2477 560.754 139.249 560.754 233.001C560.754 326.753 484.753 402.755 391.001 402.755Z" stroke="#07242B" stroke-width="0.1" stroke-miterlimit="10"/>
<path d="M391.001 394.214C301.965 394.214 229.788 322.037 229.788 233.001C229.788 143.966 301.965 71.7882 391.001 71.7882C480.036 71.7882 552.214 143.966 552.214 233.001C552.214 322.037 480.036 394.214 391.001 394.214Z" stroke="#07242B" stroke-width="0.1" stroke-miterlimit="10"/>
<path d="M391.001 385.674C306.682 385.674 238.328 317.32 238.328 233.001C238.328 148.682 306.682 80.3286 391.001 80.3286C475.32 80.3286 543.673 148.682 543.673 233.001C543.673 317.32 475.32 385.674 391.001 385.674Z" stroke="#07242B" stroke-width="0.1" stroke-miterlimit="10"/>
<path d="M391.001 377.133C311.399 377.133 246.869 312.603 246.869 233.001C246.869 153.399 311.399 88.8691 391.001 88.8691C470.603 88.8691 535.133 153.399 535.133 233.001C535.133 312.603 470.603 377.133 391.001 377.133Z" stroke="#07242B" stroke-width="0.1" stroke-miterlimit="10"/>
<path d="M391.001 368.59C316.117 368.59 255.412 307.885 255.412 233.001C255.412 158.117 316.117 97.412 391.001 97.412C465.885 97.412 526.59 158.117 526.59 233.001C526.59 307.885 465.885 368.59 391.001 368.59Z" stroke="#07242B" stroke-width="0.1" stroke-miterlimit="10"/>
<path d="M391.001 360.05C320.834 360.05 263.952 303.168 263.952 233.001C263.952 162.834 320.834 105.952 391.001 105.952C461.168 105.952 518.049 162.834 518.049 233.001C518.049 303.168 461.168 360.05 391.001 360.05Z" stroke="#07242B" stroke-width="0.1" stroke-miterlimit="10"/>
<path d="M391.001 351.509C325.551 351.509 272.493 298.451 272.493 233.001C272.493 167.551 325.551 114.493 391.001 114.493C456.451 114.493 509.509 167.551 509.509 233.001C509.509 298.451 456.451 351.509 391.001 351.509Z" stroke="#07242B" stroke-width="0.1" stroke-miterlimit="10"/>
<path d="M391.001 342.969C330.267 342.969 281.033 293.735 281.033 233.001C281.033 172.268 330.267 123.033 391.001 123.033C451.734 123.033 500.969 172.268 500.969 233.001C500.969 293.735 451.734 342.969 391.001 342.969Z" stroke="#07242B" stroke-width="0.1" stroke-miterlimit="10"/>
<path d="M391.001 334.426C334.985 334.426 289.576 289.016 289.576 233.001C289.576 176.986 334.985 131.576 391.001 131.576C447.016 131.576 492.426 176.986 492.426 233.001C492.426 289.016 447.016 334.426 391.001 334.426Z" stroke="#07242B" stroke-width="0.1" stroke-miterlimit="10"/>
<path d="M391.001 325.885C339.702 325.885 298.117 284.3 298.117 233.001C298.117 181.703 339.702 140.117 391.001 140.117C442.299 140.117 483.885 181.703 483.885 233.001C483.885 284.3 442.299 325.885 391.001 325.885Z" stroke="#07242B" stroke-width="0.1" stroke-miterlimit="10"/>
<path d="M391.001 317.345C344.419 317.345 306.657 279.583 306.657 233.001C306.657 186.419 344.419 148.657 391.001 148.657C437.583 148.657 475.345 186.419 475.345 233.001C475.345 279.583 437.583 317.345 391.001 317.345Z" stroke="#07242B" stroke-width="0.1" stroke-miterlimit="10"/>
<path d="M391.001 308.805C349.136 308.805 315.197 274.866 315.197 233.001C315.197 191.136 349.136 157.198 391.001 157.198C432.866 157.198 466.804 191.136 466.804 233.001C466.804 274.866 432.866 308.805 391.001 308.805Z" stroke="#07242B" stroke-width="0.1" stroke-miterlimit="10"/>
<path d="M391.001 300.262C353.854 300.262 323.74 270.148 323.74 233.001C323.74 195.854 353.854 165.741 391.001 165.741C428.148 165.741 458.261 195.854 458.261 233.001C458.261 270.148 428.148 300.262 391.001 300.262Z" stroke="#07242B" stroke-width="0.1" stroke-miterlimit="10"/>
<path d="M391.001 291.721C358.571 291.721 332.281 265.431 332.281 233.001C332.281 200.571 358.571 174.281 391.001 174.281C423.431 174.281 449.721 200.571 449.721 233.001C449.721 265.431 423.431 291.721 391.001 291.721Z" stroke="#07242B" stroke-width="0.1" stroke-miterlimit="10"/>
<path d="M391.001 283.181C363.287 283.181 340.821 260.715 340.821 233.001C340.821 205.288 363.287 182.822 391.001 182.822C418.714 182.822 441.18 205.288 441.18 233.001C441.18 260.715 418.714 283.181 391.001 283.181Z" stroke="#07242B" stroke-width="0.1" stroke-miterlimit="10"/>
<path d="M391.001 274.64C368.004 274.64 349.362 255.998 349.362 233.001C349.362 210.005 368.004 191.362 391.001 191.362C413.997 191.362 432.64 210.005 432.64 233.001C432.64 255.998 413.997 274.64 391.001 274.64Z" stroke="#07242B" stroke-width="0.1" stroke-miterlimit="10"/>
<path d="M391.001 266.097C372.722 266.097 357.905 251.28 357.905 233.001C357.905 214.723 372.722 199.905 391.001 199.905C409.279 199.905 424.097 214.723 424.097 233.001C424.097 251.28 409.279 266.097 391.001 266.097Z" stroke="#07242B" stroke-width="0.1" stroke-miterlimit="10"/>
<path d="M391.001 257.557C377.439 257.557 366.445 246.563 366.445 233.001C366.445 219.439 377.439 208.445 391.001 208.445C404.563 208.445 415.557 219.439 415.557 233.001C415.557 246.563 404.563 257.557 391.001 257.557Z" stroke="#07242B" stroke-width="0.1" stroke-miterlimit="10"/>
</g>
</svg>
