<svg width="1384" height="417" viewBox="0 0 1384 417" fill="none" xmlns="http://www.w3.org/2000/svg">
<g opacity="0.2">
<mask id="path-1-outside-1_31_22" maskUnits="userSpaceOnUse" x="26.1465" y="-82" width="1391" height="584" fill="black">
<rect fill="white" x="26.1465" y="-82" width="1391" height="584"/>
<path d="M27.1465 500.755C285.595 383.464 373.79 254.114 405.753 155.986C441.421 46.4714 423.026 -73.2235 461.53 -80.6566C486.185 -85.418 516.522 -40.7226 573.082 57.2551C744.599 354.36 748.482 433.26 821.557 453.738C923.925 482.445 987.029 347.391 1144.38 350.302C1259.95 352.445 1353.47 427.641 1416.5 494.483"/>
</mask>
<path d="M405.753 155.986L406.228 156.141V156.141L405.753 155.986ZM461.53 -80.6566L461.625 -80.1657L461.625 -80.1657L461.53 -80.6566ZM573.082 57.2551L572.649 57.505L573.082 57.2551ZM821.557 453.738L821.692 453.256L821.692 453.256L821.557 453.738ZM1144.38 350.302L1144.39 349.802L1144.38 350.302ZM27.3531 501.21C285.896 383.876 374.212 254.434 406.228 156.141L405.277 155.832C373.368 253.794 285.294 383.051 26.9399 500.299L27.3531 501.21ZM406.228 156.141C424.083 101.322 428.405 43.9567 433.076 -0.563629C435.413 -22.8424 437.834 -41.8758 442.066 -55.8005C446.305 -69.7528 452.297 -78.3649 461.625 -80.1657L461.436 -81.1476C451.512 -79.2318 445.364 -70.0946 441.109 -56.0912C436.845 -42.0602 434.417 -22.9314 432.081 -0.667969C427.406 43.8961 423.091 101.136 405.277 155.832L406.228 156.141ZM461.625 -80.1657C467.609 -81.3213 473.99 -79.4915 481.121 -74.4855C488.255 -69.4762 496.09 -61.3194 504.947 -49.9211C522.659 -27.1267 544.367 8.51189 572.649 57.505L573.515 57.0051C545.238 8.02056 523.497 -27.6774 505.737 -50.5347C496.857 -61.9624 488.95 -70.2102 481.695 -75.304C474.435 -80.401 467.779 -82.3726 461.436 -81.1476L461.625 -80.1657ZM572.649 57.505C658.403 206.049 702.236 300.019 733.794 359.466C765.336 418.885 784.661 443.918 821.422 454.219L821.692 453.256C785.378 443.08 766.224 418.424 734.677 358.997C703.145 299.599 659.278 205.566 573.515 57.0051L572.649 57.505ZM821.422 454.219C872.855 468.643 914.422 441.899 962.613 412.119C1010.85 382.31 1065.85 349.349 1144.37 350.802L1144.39 349.802C1065.56 348.344 1010.33 381.455 962.087 411.268C913.796 441.111 872.627 467.54 821.692 453.256L821.422 454.219ZM1144.37 350.802C1259.73 352.941 1353.13 428.008 1416.14 494.826L1416.87 494.14C1353.81 427.275 1260.17 351.949 1144.39 349.802L1144.37 350.802Z" fill="white" mask="url(#path-1-outside-1_31_22)"/>
<mask id="path-3-outside-2_31_22" maskUnits="userSpaceOnUse" x="19.9404" y="-66.3432" width="1397" height="556" fill="black">
<rect fill="white" x="19.9404" y="-66.3432" width="1397" height="556"/>
<path d="M20.9404 488.964C272.112 374.198 365.373 248.467 399.87 156.501C438.42 53.726 420.214 -59.7859 458.318 -65.1545C482.815 -68.6086 512.581 -24.6776 567.215 69.9425C733.25 357.45 738.401 437.332 810.913 456.799C913.874 484.053 974.228 339.229 1133.25 337.257C1136.72 337.215 1140.13 337.215 1143.55 337.3C1256.37 340.211 1351.22 415.443 1415.6 481.874"/>
</mask>
<path d="M399.87 156.501L400.338 156.676V156.676L399.87 156.501ZM458.318 -65.1545L458.387 -64.6594L458.387 -64.6594L458.318 -65.1545ZM567.215 69.9425L566.782 70.1925V70.1925L567.215 69.9425ZM810.913 456.799L810.783 457.282L810.785 457.282L810.913 456.799ZM1133.25 337.257L1133.24 336.758L1133.25 337.257ZM1143.55 337.3L1143.56 336.801H1143.56L1143.55 337.3ZM21.1482 489.419C272.405 374.614 365.782 248.798 400.338 156.676L399.402 156.325C364.963 248.136 271.818 373.783 20.7326 488.509L21.1482 489.419ZM400.338 156.676C419.639 105.22 424.73 51.0811 429.758 9.20539C432.274 -11.7523 434.771 -29.6058 439.007 -42.5532C443.249 -55.5202 449.165 -63.3601 458.387 -64.6594L458.248 -65.6496C448.418 -64.2647 442.322 -55.9023 438.056 -42.8642C433.784 -29.8065 431.279 -11.852 428.765 9.08619C423.732 51.0023 418.651 105.006 399.402 156.325L400.338 156.676ZM458.387 -64.6594C464.338 -65.4985 470.663 -63.4711 477.692 -58.4032C484.724 -53.333 492.415 -45.252 501.07 -34.0776C518.379 -11.7301 539.463 22.8785 566.782 70.1925L567.648 69.6925C540.333 22.3864 519.217 -12.2805 501.86 -34.69C493.182 -45.8941 485.423 -54.062 478.277 -59.2143C471.128 -64.3689 464.545 -66.5376 458.248 -65.6496L458.387 -64.6594ZM566.782 70.1925C649.795 213.939 692.573 305.752 723.694 364.121C754.798 422.46 774.3 447.487 810.783 457.282L811.042 456.316C775.013 446.643 755.684 421.996 724.576 363.65C693.484 305.335 650.67 213.453 567.648 69.6924L566.782 70.1925ZM810.785 457.282C862.53 470.979 903.563 441.406 951.343 408.399C999.177 375.355 1053.91 338.741 1133.25 337.757L1133.24 336.758C1053.57 337.745 998.612 374.529 950.774 407.576C902.882 440.661 862.257 469.872 811.041 456.315L810.785 457.282ZM1133.25 337.757C1136.72 337.715 1140.12 337.715 1143.53 337.8L1143.56 336.801C1140.13 336.715 1136.71 336.715 1133.24 336.758L1133.25 337.757ZM1143.53 337.8C1256.15 340.706 1350.88 415.81 1415.25 482.222L1415.96 481.526C1351.57 415.076 1256.59 339.717 1143.56 336.801L1143.53 337.8Z" fill="white" mask="url(#path-3-outside-2_31_22)"/>
<mask id="path-5-outside-3_31_22" maskUnits="userSpaceOnUse" x="13.7549" y="-50.7212" width="1402" height="529" fill="black">
<rect fill="white" x="13.7549" y="-50.7212" width="1402" height="529"/>
<path d="M14.7549 477.173C258.63 364.943 356.883 243.045 394.004 157.022C435.378 61.1377 417.43 -46.3341 455.121 -49.6453C479.468 -51.7884 508.669 -8.61822 561.361 82.6407C721.879 360.536 728.267 441.657 800.297 459.86C903.759 486.006 961.486 330.996 1122.14 324.209C1125.67 324.059 1129.18 323.909 1132.69 323.927C1247.39 324.513 1347.17 401.298 1414.73 469.261"/>
</mask>
<path d="M394.004 157.022L394.463 157.22V157.22L394.004 157.022ZM455.121 -49.6453L455.165 -49.1472L455.165 -49.1472L455.121 -49.6453ZM561.361 82.6407L560.928 82.8907L560.928 82.8907L561.361 82.6407ZM800.297 459.86L800.42 459.375L800.297 459.86ZM1122.14 324.209L1122.16 324.709H1122.16L1122.14 324.209ZM1132.69 323.927L1132.7 323.427L1132.69 323.927ZM14.9639 477.627C258.916 365.362 357.28 243.387 394.463 157.22L393.545 156.824C356.487 242.702 258.344 364.525 14.5459 476.719L14.9639 477.627ZM394.463 157.22C415.183 109.203 421.046 58.2906 426.439 19.0416C429.139 -0.60421 431.717 -17.2914 435.961 -29.2734C440.208 -41.2651 446.05 -48.3464 455.165 -49.1472L455.078 -50.1433C445.348 -49.2886 439.299 -41.6942 435.018 -29.6073C430.733 -17.5107 428.145 -0.716228 425.449 18.9054C420.05 58.1912 414.2 108.957 393.545 156.824L394.463 157.22ZM455.165 -49.1472C461.086 -49.6684 467.356 -47.4417 474.285 -42.3112C481.216 -37.1793 488.762 -29.1736 497.216 -18.2225C514.122 3.67895 534.58 37.2576 560.928 82.8907L561.794 82.3906C535.45 36.7648 514.961 3.12896 498.007 -18.8336C489.531 -29.8145 481.919 -37.9032 474.88 -43.1148C467.84 -48.3278 461.33 -50.6937 455.078 -50.1433L455.165 -49.1472ZM560.928 82.8907C641.184 221.832 682.89 311.549 713.571 368.871C744.235 426.16 763.927 451.185 800.175 460.345L800.42 459.375C764.636 450.333 745.12 425.695 714.453 368.399C683.803 311.136 642.056 221.344 561.794 82.3906L560.928 82.8907ZM800.175 460.345C826.183 466.917 849.313 462.097 871.86 451.099C894.387 440.11 916.367 422.937 940.076 404.782C987.522 368.449 1042.01 328.095 1122.16 324.709L1122.12 323.71C1041.62 327.11 986.915 367.655 939.468 403.988C915.73 422.165 893.838 439.266 871.422 450.2C849.027 461.124 826.142 465.876 800.42 459.375L800.175 460.345ZM1122.16 324.709C1125.69 324.559 1129.19 324.409 1132.69 324.427L1132.7 323.427C1129.17 323.409 1125.64 323.56 1122.12 323.71L1122.16 324.709ZM1132.69 324.427C1247.17 325.012 1346.83 401.668 1414.37 469.614L1415.08 468.909C1347.51 400.929 1247.6 324.014 1132.7 323.427L1132.69 324.427Z" fill="white" mask="url(#path-5-outside-3_31_22)"/>
<mask id="path-7-outside-4_31_22" maskUnits="userSpaceOnUse" x="7.55469" y="-35.144" width="1407" height="502" fill="black">
<rect fill="white" x="7.55469" y="-35.144" width="1407" height="502"/>
<path d="M8.55469 465.382C245.168 355.657 348.26 237.883 388.128 157.544C432.21 68.7068 414.651 -32.8714 451.911 -34.1323C476.119 -34.9538 504.718 7.43769 555.496 95.3354C710.517 363.651 718.168 445.84 789.671 462.921C893.683 487.768 948.752 322.702 1111.03 311.161C1114.63 310.904 1118.23 310.658 1121.81 310.55C1238.36 307.1 1343.08 387.15 1413.82 456.642"/>
</mask>
<path d="M388.128 157.544L388.576 157.766L388.128 157.544ZM451.911 -34.1323L451.928 -33.6326L451.928 -33.6326L451.911 -34.1323ZM555.496 95.3354L555.063 95.5855L555.063 95.5855L555.496 95.3354ZM789.671 462.921L789.554 463.408L789.671 462.921ZM1111.03 311.161L1111.06 311.66L1111.06 311.66L1111.03 311.161ZM1121.81 310.55L1121.8 310.051H1121.8L1121.81 310.55ZM8.76504 465.836C245.448 356.078 348.643 238.237 388.576 157.766L387.68 157.322C347.877 237.53 244.889 355.235 8.34434 464.929L8.76504 465.836ZM388.576 157.766C410.657 113.267 417.296 65.5829 423.072 28.9426C425.963 10.5996 428.632 -4.93477 432.891 -15.9635C437.15 -26.9901 442.92 -33.3277 451.928 -33.6326L451.894 -34.632C442.272 -34.3064 436.264 -27.4739 431.958 -16.3238C427.653 -5.17585 424.97 10.473 422.084 28.7869C416.303 65.4601 409.681 112.984 387.68 157.322L388.576 157.766ZM451.928 -33.6326C457.823 -33.8326 464.038 -31.4049 470.865 -26.2122C477.693 -21.0188 485.093 -13.0896 493.343 -2.36332C509.843 19.089 529.672 51.6334 555.063 95.5855L555.929 95.0853C530.542 51.1397 510.682 18.5394 494.136 -2.97298C485.863 -13.7291 478.4 -21.7373 471.471 -27.0081C464.54 -32.2795 458.103 -34.8427 451.894 -34.632L451.928 -33.6326ZM555.063 95.5855C632.571 229.739 673.216 317.323 703.462 373.578C733.688 429.796 753.567 454.811 789.554 463.408L789.787 462.435C754.271 453.951 734.573 429.33 704.343 373.104C674.132 316.915 633.442 229.247 555.929 95.0853L555.063 95.5855ZM789.554 463.408C815.71 469.655 838.781 463.955 861.182 451.753C883.562 439.562 905.311 420.858 928.822 401.069C975.877 361.465 1030.1 317.418 1111.06 311.66L1110.99 310.663C1029.68 316.446 975.23 360.702 928.178 400.304C904.637 420.118 882.974 438.743 860.704 450.875C838.455 462.995 815.638 468.61 789.787 462.435L789.554 463.408ZM1111.06 311.66C1114.67 311.403 1118.25 311.157 1121.83 311.05L1121.8 310.051C1118.2 310.158 1114.59 310.405 1110.99 310.663L1111.06 311.66ZM1121.83 311.05C1238.15 307.606 1342.74 387.517 1413.47 456.998L1414.17 456.285C1343.42 386.784 1238.57 306.594 1121.8 310.051L1121.83 311.05Z" fill="white" mask="url(#path-7-outside-4_31_22)"/>
<mask id="path-9-outside-5_31_22" maskUnits="userSpaceOnUse" x="1.35645" y="-19.6241" width="1412" height="489" fill="black">
<rect fill="white" x="1.35645" y="-19.6241" width="1412" height="489"/>
<path d="M2.35645 453.591C231.693 346.402 339.465 232.997 382.249 158.065C428.862 76.4292 411.889 -19.3946 448.706 -18.6195C472.779 -18.1158 500.785 23.497 549.637 108.034C699.157 366.751 708.075 450.012 779.046 465.979C883.64 489.511 936.036 314.347 1099.91 298.099C1103.59 297.742 1107.28 297.384 1110.97 297.163C1229.37 290.583 1339.03 372.995 1412.95 444.029"/>
</mask>
<path d="M382.249 158.065L381.815 157.817H381.815L382.249 158.065ZM448.706 -18.6195L448.695 -18.1196L448.695 -18.1196L448.706 -18.6195ZM549.637 108.034L549.204 108.284V108.284L549.637 108.034ZM779.046 465.979L779.156 465.491L779.046 465.979ZM1099.91 298.099L1099.87 297.601L1099.86 297.601L1099.91 298.099ZM1110.97 297.163L1110.94 296.664L1110.94 296.664L1110.97 297.163ZM2.56816 454.044C231.966 346.826 339.833 233.361 382.684 158.313L381.815 157.817C339.097 232.633 231.419 345.978 2.14473 453.138L2.56816 454.044ZM382.684 158.313C406.039 117.409 413.46 72.9571 419.643 38.908C422.739 21.8591 425.517 7.46396 429.805 -2.62396C431.947 -7.66262 434.448 -11.5835 437.517 -14.2191C440.573 -16.8432 444.214 -18.2139 448.695 -18.1196L448.716 -19.1194C443.993 -19.2188 440.111 -17.7646 436.866 -14.9778C433.634 -12.2025 431.057 -8.12653 428.885 -3.01515C424.544 7.19703 421.749 21.7148 418.659 38.7294C412.471 72.8075 405.072 117.086 381.815 157.817L382.684 158.313ZM448.695 -18.1196C454.566 -17.9968 460.728 -15.3668 467.454 -10.1114C474.181 -4.8559 481.435 2.99714 489.482 13.4988C505.577 34.5025 524.776 66.0125 549.204 108.284L550.069 107.783C525.646 65.518 506.416 33.9533 490.276 12.8906C482.206 2.359 474.892 -5.56912 468.07 -10.8994C461.248 -16.2298 454.882 -18.9904 448.716 -19.1194L448.695 -18.1196ZM549.204 108.284C623.963 237.641 663.547 323.088 693.357 378.275C723.146 433.423 743.211 458.429 778.936 466.467L779.156 465.491C743.91 457.562 724.03 432.954 694.237 377.8C664.466 322.686 624.83 237.144 550.069 107.783L549.204 108.284ZM778.936 466.467C805.246 472.386 828.264 465.799 850.52 452.388C872.755 438.99 894.273 418.751 917.587 397.325C964.248 354.441 1018.21 306.703 1099.96 298.596L1099.86 297.601C1017.74 305.744 963.565 353.711 916.91 396.588C893.566 418.042 872.132 438.198 850.004 451.532C827.897 464.853 805.143 471.338 779.156 465.491L778.936 466.467ZM1099.96 298.596C1103.64 298.239 1107.32 297.883 1111 297.662L1110.94 296.664C1107.23 296.886 1103.54 297.244 1099.87 297.601L1099.96 298.596ZM1111 297.662C1229.17 291.095 1338.69 373.361 1412.61 444.39L1413.3 443.669C1339.37 372.628 1229.57 290.071 1110.94 296.664L1111 297.662Z" fill="white" mask="url(#path-9-outside-5_31_22)"/>
<mask id="path-11-outside-6_31_22" maskUnits="userSpaceOnUse" x="-4.8418" y="-4.17376" width="1418" height="476" fill="black">
<rect fill="white" x="-4.8418" y="-4.17376" width="1418" height="476"/>
<path d="M-3.8418 441.8C218.221 337.143 330.447 228.407 376.382 158.59C425.261 84.2945 409.127 -5.90711 445.508 -3.1103C469.454 -1.26719 496.856 39.5527 543.781 120.732C687.808 369.851 697.997 454.17 768.429 469.04C873.598 491.239 923.331 305.935 1088.81 285.061C1092.57 284.586 1096.33 284.104 1100.12 283.797C1220.36 274.117 1334.98 358.857 1412.07 431.428"/>
</mask>
<path d="M376.382 158.59L376.8 158.865V158.865L376.382 158.59ZM445.508 -3.1103L445.547 -3.60883L445.547 -3.60883L445.508 -3.1103ZM543.781 120.732L543.348 120.982V120.982L543.781 120.732ZM768.429 469.04L768.326 469.529L768.429 469.04ZM1088.81 285.061L1088.87 285.557L1088.87 285.557L1088.81 285.061ZM1100.12 283.797L1100.08 283.298L1100.08 283.298L1100.12 283.797ZM-3.62864 442.253C218.489 337.57 330.799 228.781 376.8 158.865L375.965 158.315C330.095 228.033 217.954 336.717 -4.05496 441.348L-3.62864 442.253ZM376.8 158.865C401.299 121.626 409.5 80.4084 416.121 48.9332C419.437 33.1695 422.348 19.9007 426.684 10.7416C428.849 6.16885 431.351 2.66445 434.397 0.387993C437.429 -1.87846 441.034 -2.95275 445.47 -2.61177L445.547 -3.60883C440.887 -3.96705 437.038 -2.83435 433.798 -0.41301C430.572 1.99832 427.983 5.66251 425.781 10.3137C421.383 19.6026 418.45 33.0033 415.142 48.7273C408.516 80.2277 400.344 121.259 375.965 158.316L376.8 158.865ZM445.47 -2.61178C451.32 -2.1615 457.429 0.672972 464.054 5.99166C470.678 11.3101 477.787 19.0866 485.63 29.3631C501.317 49.9168 519.884 80.3898 543.348 120.982L544.214 120.481C520.753 79.8945 502.156 49.3681 486.425 28.7564C478.559 18.4501 471.394 10.6024 464.68 5.21187C457.966 -0.178373 451.67 -3.13755 445.547 -3.60883L445.47 -2.61178ZM543.348 120.982C615.362 245.543 653.887 328.849 683.264 382.968C712.616 437.043 732.866 462.043 768.326 469.529L768.532 468.551C733.56 461.167 713.499 436.573 684.143 382.491C654.81 328.453 616.227 245.04 544.214 120.481L543.348 120.982ZM768.326 469.529C794.789 475.115 817.752 467.636 839.862 453.011C861.951 438.4 883.239 416.622 906.356 393.557C952.625 347.392 1006.32 295.971 1088.87 285.557L1088.74 284.565C1005.82 295.026 951.909 346.693 905.65 392.849C882.503 415.944 861.296 437.635 839.31 452.177C817.345 466.706 794.654 474.064 768.532 468.551L768.326 469.529ZM1088.87 285.557C1092.63 285.082 1096.38 284.601 1100.16 284.295L1100.08 283.298C1096.27 283.607 1092.5 284.09 1088.74 284.565L1088.87 285.557ZM1100.16 284.295C1160.15 279.466 1218.77 298.189 1272.04 327.207C1325.31 356.225 1373.2 395.522 1411.73 431.792L1412.42 431.063C1373.85 394.763 1325.89 355.404 1272.52 326.329C1219.14 297.255 1160.33 278.448 1100.08 283.298L1100.16 284.295Z" fill="white" mask="url(#path-11-outside-6_31_22)"/>
<mask id="path-13-outside-7_31_22" maskUnits="userSpaceOnUse" x="-11.0352" y="11.2069" width="1423" height="463" fill="black">
<rect fill="white" x="-11.0352" y="11.2069" width="1423" height="463"/>
<path d="M-10.0352 430.01C204.747 327.874 321.137 224.11 370.501 159.112C421.286 92.2384 406.389 7.59832 442.297 12.4025C466.123 15.5887 492.916 55.6227 537.911 133.426C676.441 372.948 687.913 458.317 757.798 472.097C863.564 492.954 910.616 297.474 1077.69 272.013C1081.54 271.427 1085.37 270.827 1089.24 270.423C1211.32 257.665 1330.9 344.719 1411.17 418.815"/>
</mask>
<path d="M370.501 159.112L370.899 159.414V159.414L370.501 159.112ZM442.297 12.4025L442.23 12.8981L442.23 12.8981L442.297 12.4025ZM537.911 133.426L537.479 133.677V133.677L537.911 133.426ZM757.798 472.097L757.895 471.607L757.798 472.097ZM1077.69 272.013L1077.61 271.519L1077.61 271.519L1077.69 272.013ZM1089.24 270.423L1089.3 270.921L1089.3 270.921L1089.24 270.423ZM-9.82043 430.461C205.01 328.303 321.473 224.495 370.899 159.414L370.103 158.809C320.802 223.725 204.485 327.445 -10.2499 429.558L-9.82043 430.461ZM370.899 159.414C396.363 125.884 405.354 87.9053 412.464 58.9975C416.025 44.5159 419.103 32.3675 423.513 24.131C425.713 20.0213 428.224 16.9287 431.253 15.0064C434.271 13.0917 437.844 12.3112 442.23 12.8981L442.363 11.907C437.773 11.2928 433.957 12.1064 430.717 14.1621C427.49 16.2102 424.877 19.4644 422.631 23.659C418.148 32.0312 415.043 44.3216 411.492 58.7587C404.377 87.6883 395.424 125.467 370.103 158.809L370.899 159.414ZM442.23 12.8981C448.062 13.6779 454.119 16.7184 460.643 22.1012C467.166 27.4835 474.129 35.1842 481.768 45.2354C497.047 65.3392 514.98 94.7726 537.479 133.677L538.344 133.176C515.848 94.2764 497.886 64.791 482.564 44.6303C474.902 34.5494 467.887 26.7814 461.279 21.3299C454.672 15.8788 448.445 12.7203 442.363 11.907L442.23 12.8981ZM537.479 133.677C606.746 253.442 644.213 334.604 673.157 387.654C702.075 440.656 722.511 465.649 757.701 472.588L757.895 471.607C723.2 464.766 702.957 440.184 674.035 387.175C645.14 334.216 607.606 252.932 538.344 133.176L537.479 133.677ZM757.701 472.588C784.323 477.838 807.234 469.461 829.199 453.619C851.144 437.792 872.201 414.471 895.119 389.764C940.993 340.312 994.418 285.208 1077.76 272.507L1077.61 271.519C993.885 284.278 940.248 339.645 894.386 389.084C871.437 413.823 850.458 437.053 828.614 452.808C806.789 468.549 784.156 476.785 757.895 471.607L757.701 472.588ZM1077.76 272.507C1081.62 271.921 1085.43 271.323 1089.3 270.921L1089.19 269.926C1085.3 270.331 1081.46 270.934 1077.61 271.519L1077.76 272.507ZM1089.3 270.921C1150.2 264.555 1210.51 283.086 1265.65 312.49C1320.79 341.893 1370.72 382.149 1410.84 419.183L1411.51 418.448C1371.36 381.385 1321.36 341.066 1266.12 311.608C1210.88 282.15 1150.37 263.533 1089.19 269.926L1089.3 270.921Z" fill="white" mask="url(#path-13-outside-7_31_22)"/>
<mask id="path-15-outside-8_31_22" maskUnits="userSpaceOnUse" x="-17.2334" y="26.4602" width="1428" height="451" fill="black">
<rect fill="white" x="-17.2334" y="26.4602" width="1428" height="451"/>
<path d="M-16.2334 418.219C191.272 318.609 300.042 209.619 364.626 159.633C403.743 92.0992 403.646 21.1217 439.092 27.9119C462.799 32.4553 488.983 71.6678 532.052 146.142C665.08 376.067 677.835 462.468 747.173 475.176C853.532 494.668 897.903 288.98 1066.57 258.983C1070.49 258.286 1074.42 257.572 1078.39 257.065C1202.31 241.259 1326.86 330.582 1410.3 406.221"/>
</mask>
<path d="M364.626 159.633L364.932 160.029L365.01 159.969L365.059 159.884L364.626 159.633ZM439.092 27.9119L439.186 27.4208L439.186 27.4208L439.092 27.9119ZM532.052 146.142L531.619 146.393L531.619 146.393L532.052 146.142ZM747.173 475.176L747.083 475.668L747.173 475.176ZM1066.57 258.983L1066.48 258.49L1066.48 258.49L1066.57 258.983ZM1078.39 257.065L1078.32 256.569H1078.32L1078.39 257.065ZM-16.017 418.669C191.551 319.029 300.389 209.983 364.932 160.029L364.32 159.238C299.695 209.255 190.992 318.188 -16.4498 417.768L-16.017 418.669ZM365.059 159.884C384.646 126.067 394.425 91.3668 403.705 66.0732C408.354 53.4017 412.863 43.1313 418.389 36.4504C421.146 33.1177 424.139 30.6984 427.51 29.3148C430.875 27.9332 434.651 27.5702 438.998 28.4029L439.186 27.4208C434.671 26.556 430.696 26.9257 427.13 28.3897C423.568 29.8519 420.449 32.3913 417.618 35.8131C411.971 42.6411 407.413 53.0629 402.766 65.7288C393.454 91.1099 383.723 125.666 364.194 159.383L365.059 159.884ZM438.998 28.4029C444.81 29.517 450.815 32.7643 457.238 38.2105C463.661 43.6562 470.477 51.2792 477.912 61.1047C492.784 80.7572 510.084 109.154 531.619 146.393L532.485 145.892C510.951 108.657 493.624 80.2095 478.71 60.5012C471.252 50.6463 464.386 42.9597 457.885 37.4478C451.385 31.9365 445.226 28.5785 439.186 27.4208L438.998 28.4029ZM531.619 146.393C598.139 261.364 634.545 340.374 663.058 392.356C691.541 444.281 712.162 469.268 747.083 475.668L747.263 474.685C712.847 468.376 692.422 443.808 663.935 391.875C635.479 339.997 598.994 260.845 532.485 145.892L531.619 146.393ZM747.083 475.668C773.862 480.576 796.72 471.295 818.538 454.232C840.338 437.183 861.164 412.315 883.885 385.964C929.363 333.221 982.518 274.439 1066.66 259.475L1066.48 258.49C981.954 273.523 928.591 332.585 883.127 385.311C860.377 411.696 839.626 436.471 817.922 453.444C796.237 470.403 773.664 479.523 747.263 474.685L747.083 475.668ZM1066.66 259.475C1070.58 258.778 1074.49 258.066 1078.45 257.561L1078.32 256.569C1074.34 257.078 1070.4 257.795 1066.48 258.49L1066.66 259.475ZM1078.45 257.561C1140.28 249.675 1202.29 268.01 1259.3 297.794C1316.3 327.576 1368.26 368.786 1409.96 406.591L1410.64 405.85C1368.9 368.016 1316.87 326.745 1259.76 296.908C1202.65 267.072 1140.43 248.648 1078.32 256.569L1078.45 257.561Z" fill="white" mask="url(#path-15-outside-8_31_22)"/>
<mask id="path-17-outside-9_31_22" maskUnits="userSpaceOnUse" x="-23.4326" y="41.6155" width="1434" height="439" fill="black">
<rect fill="white" x="-23.4326" y="41.6155" width="1434" height="439"/>
<path d="M-22.4326 406.428C177.799 309.343 289.509 203.257 358.751 160.155C398.36 98.6178 400.903 34.6627 435.886 43.4246C459.477 49.3325 485.045 87.7164 526.188 158.822C653.7 379.149 667.765 466.572 736.552 478.22C843.508 496.329 885.186 280.403 1055.45 245.916C1059.45 245.106 1063.46 244.277 1067.53 243.67C1193.3 224.842 1322.78 316.419 1409.41 393.59"/>
</mask>
<path d="M358.751 160.155L359.015 160.579L359.11 160.52L359.171 160.425L358.751 160.155ZM435.886 43.4246L435.764 43.9096L435.764 43.9096L435.886 43.4246ZM526.188 158.822L525.755 159.073V159.073L526.188 158.822ZM736.552 478.22L736.468 478.713L736.552 478.22ZM1055.45 245.916L1055.55 246.407L1055.55 246.407L1055.45 245.916ZM1067.53 243.67L1067.6 244.164L1067.6 244.164L1067.53 243.67ZM-22.2145 406.878C77.934 358.32 155.944 307.511 217.571 263.455C248.383 241.428 275.102 221.088 298.437 203.566C321.778 186.04 341.726 171.341 359.015 160.579L358.486 159.73C341.155 170.519 321.173 185.244 297.837 202.766C274.495 220.292 247.789 240.623 216.99 262.641C155.394 306.675 77.4329 357.451 -22.6508 405.978L-22.2145 406.878ZM359.171 160.425C379.004 129.613 389.574 98.164 399.511 75.6294C404.491 64.3364 409.294 55.3206 414.997 49.6688C417.84 46.8507 420.895 44.8824 424.293 43.8803C427.69 42.8788 431.464 42.8326 435.764 43.9096L436.007 42.9396C431.561 41.8261 427.604 41.8618 424.011 42.9212C420.42 43.98 417.226 46.0514 414.293 48.9585C408.442 54.757 403.576 63.9331 398.596 75.2259C388.614 97.8626 378.107 129.16 358.33 159.884L359.171 160.425ZM435.764 43.9096C447.376 46.8175 459.575 57.7558 474.056 76.9751C488.519 96.1705 505.183 123.518 525.755 159.073L526.621 158.572C506.05 123.02 489.359 95.6233 474.855 76.3733C460.368 57.1472 447.987 45.9397 436.007 42.9396L435.764 43.9096ZM525.755 159.073C589.52 269.251 624.867 346.105 652.954 397.017C681.005 447.866 701.819 472.845 736.468 478.713L736.635 477.727C702.498 471.946 681.885 447.39 653.829 396.534C625.809 345.741 590.368 268.72 526.621 158.572L525.755 159.073ZM736.468 478.713C763.406 483.274 786.209 473.083 807.881 454.794C829.535 436.52 850.129 410.101 872.65 382.105C917.732 326.066 970.617 263.61 1055.55 246.407L1055.36 245.426C970.023 262.71 916.935 325.46 871.871 381.478C849.32 409.511 828.798 435.834 807.236 454.03C785.691 472.212 763.176 482.22 736.635 477.727L736.468 478.713ZM1055.55 246.407C1059.56 245.595 1063.55 244.769 1067.6 244.164L1067.45 243.175C1063.37 243.785 1059.35 244.616 1055.36 245.426L1055.55 246.407ZM1067.6 244.164C1130.34 234.772 1194.05 252.914 1252.92 283.075C1311.79 313.235 1365.78 355.392 1409.08 393.964L1409.75 393.217C1366.42 354.617 1312.35 312.4 1253.38 282.185C1194.4 251.973 1130.48 233.74 1067.45 243.175L1067.6 244.164Z" fill="white" mask="url(#path-17-outside-9_31_22)"/>
<mask id="path-19-outside-10_31_22" maskUnits="userSpaceOnUse" x="-29.6309" y="56.6239" width="1439" height="427" fill="black">
<rect fill="white" x="-29.6309" y="56.6239" width="1439" height="427"/>
<path d="M-28.6309 394.637C164.324 300.077 278.973 196.903 352.872 160.676C392.975 105.133 398.16 48.2181 432.681 58.9339C456.153 66.217 481.112 103.776 520.325 171.517C642.359 382.26 657.699 470.676 725.927 481.274C833.492 497.987 872.458 271.802 1044.34 232.861C1048.42 231.94 1052.51 231 1056.67 230.289C1184.28 208.458 1318.72 302.267 1408.53 380.974"/>
</mask>
<path d="M352.872 160.676L353.092 161.125L353.204 161.07L353.278 160.969L352.872 160.676ZM432.681 58.9339L432.533 59.4114L432.533 59.4114L432.681 58.9339ZM520.325 171.517L519.892 171.768L519.892 171.768L520.325 171.517ZM725.927 481.274L726.004 480.78H726.004L725.927 481.274ZM1044.34 232.861L1044.23 232.373L1044.23 232.374L1044.34 232.861ZM1056.67 230.289L1056.75 230.782L1056.75 230.782L1056.67 230.289ZM-28.4108 395.086C68.0965 347.792 145.019 298.344 207.048 256.195C269.1 214.03 316.185 179.218 353.092 161.125L352.652 160.227C315.66 178.361 268.471 213.249 206.486 255.368C144.476 297.504 67.5969 346.923 -28.8509 394.188L-28.4108 395.086ZM353.278 160.969C373.354 133.162 384.719 104.965 395.311 85.1941C400.621 75.2819 405.717 67.5195 411.596 62.8925C417.432 58.2992 424.057 56.7805 432.533 59.4114L432.829 58.4563C424.044 55.7294 417.076 57.3066 410.977 62.1068C404.922 66.8732 399.743 74.8019 394.429 84.7218C383.772 104.615 372.493 132.647 352.467 160.384L353.278 160.969ZM432.533 59.4114C444.104 63.002 456.13 74.0931 470.2 92.8536C484.256 111.595 500.285 137.896 519.892 171.768L520.758 171.267C501.152 137.397 485.096 111.048 471 92.2536C456.919 73.4786 444.729 62.1489 432.829 58.4563L432.533 59.4114ZM519.892 171.768C550.395 224.444 574.231 269.477 593.894 307.563C613.554 345.643 629.052 376.798 642.866 401.692C670.482 451.46 691.476 476.428 725.85 481.768L726.004 480.78C692.15 475.521 671.36 450.983 643.74 401.207C629.936 376.33 614.454 345.205 594.783 307.104C575.116 269.01 551.272 223.962 520.758 171.267L519.892 171.768ZM725.85 481.768C752.949 485.978 775.699 474.873 797.223 455.357C818.732 435.854 839.092 407.882 861.414 378.238C906.096 318.901 958.71 252.774 1044.45 233.349L1044.23 232.374C958.089 251.889 905.278 318.325 860.615 377.637C838.265 407.318 817.972 435.193 796.551 454.616C775.145 474.025 752.688 484.926 726.004 480.78L725.85 481.768ZM1044.45 233.349C1048.53 232.426 1052.61 231.49 1056.75 230.782L1056.58 229.797C1052.41 230.51 1048.3 231.453 1044.23 232.373L1044.45 233.349ZM1056.75 230.782C1120.41 219.891 1185.81 237.84 1246.55 268.377C1307.28 298.911 1363.31 342.01 1408.2 381.35L1408.86 380.598C1363.94 341.231 1307.84 298.072 1247 267.483C1186.16 236.896 1120.54 218.856 1056.58 229.797L1056.75 230.782Z" fill="white" mask="url(#path-19-outside-10_31_22)"/>
<mask id="path-21-outside-11_31_22" maskUnits="userSpaceOnUse" x="-35.8252" y="71.4557" width="1444" height="415" fill="black">
<rect fill="white" x="-35.8252" y="71.4557" width="1444" height="415"/>
<path d="M-34.8252 382.846C150.857 290.812 268.441 190.545 346.998 161.201C387.593 111.655 395.414 61.7951 429.472 74.4468C452.825 83.1194 477.179 119.839 514.466 184.205C630.998 385.339 647.637 474.762 715.303 484.328C823.476 499.619 859.722 263.158 1033.23 219.806C1037.38 218.766 1041.56 217.723 1045.8 216.906C1175.28 192.091 1314.65 288.115 1407.64 368.355"/>
</mask>
<path d="M346.998 161.201L347.173 161.67L347.299 161.623L347.384 161.518L346.998 161.201ZM429.472 74.4468L429.298 74.9155L429.298 74.9155L429.472 74.4468ZM514.466 184.205L514.033 184.455V184.455L514.466 184.205ZM715.303 484.328L715.233 484.823L715.303 484.328ZM1033.23 219.806L1033.35 220.291L1033.35 220.291L1033.23 219.806ZM1045.8 216.906L1045.71 216.414L1045.71 216.415L1045.8 216.906ZM-34.6031 383.294C58.2644 337.264 134.101 289.176 196.529 248.935C258.982 208.679 307.959 176.317 347.173 161.67L346.823 160.733C307.48 175.429 258.387 207.873 195.987 248.094C133.564 288.332 57.7671 336.394 -35.0472 382.398L-34.6031 383.294ZM347.384 161.518C367.698 136.726 379.867 111.776 391.103 94.7757C396.741 86.2465 402.128 79.7347 408.182 76.1269C414.196 72.5426 420.91 71.7998 429.298 74.9155L429.646 73.9781C421.004 70.7679 413.97 71.5132 407.67 75.2678C401.41 78.9988 395.919 85.6765 390.269 94.2243C378.932 111.378 366.893 136.131 346.611 160.885L347.384 161.518ZM429.298 74.9155C440.829 79.1979 452.682 90.4408 466.343 108.74C479.992 127.024 495.39 152.272 514.033 184.455L514.898 183.954C496.255 151.772 480.832 126.477 467.144 108.142C453.468 89.8214 441.468 78.3683 429.646 73.9781L429.298 74.9155ZM514.033 184.455C543.161 234.729 566.046 278.023 585.049 314.837C604.048 351.644 619.175 381.992 632.773 406.348C659.955 455.038 681.135 480.003 715.233 484.823L715.373 483.833C681.804 479.087 660.832 454.558 633.646 405.861C620.059 381.524 604.947 351.205 585.938 314.378C566.931 277.557 544.037 234.247 514.898 183.954L514.033 184.455ZM715.233 484.823C742.492 488.676 765.187 476.651 786.563 455.902C807.926 435.167 828.052 405.638 850.174 374.347C894.456 311.709 946.798 241.917 1033.35 220.291L1033.11 219.321C946.151 241.048 893.618 311.161 849.357 373.77C827.208 405.101 807.146 434.53 785.867 455.185C764.601 475.827 742.2 487.625 715.373 483.833L715.233 484.823ZM1033.35 220.291C1037.51 219.251 1041.67 218.211 1045.9 217.396L1045.71 216.415C1041.45 217.236 1037.26 218.282 1033.11 219.321L1033.35 220.291ZM1045.9 217.397C1110.49 205.018 1177.58 222.774 1240.18 253.683C1302.78 284.591 1360.84 328.627 1407.32 368.733L1407.97 367.976C1361.46 327.843 1303.33 283.747 1240.63 252.787C1177.93 221.828 1110.6 203.979 1045.71 216.414L1045.9 217.397Z" fill="white" mask="url(#path-21-outside-11_31_22)"/>
<mask id="path-23-outside-12_31_22" maskUnits="userSpaceOnUse" x="-42.0244" y="86.0662" width="1450" height="403" fill="black">
<rect fill="white" x="-42.0244" y="86.0662" width="1450" height="403"/>
<path d="M-41.0244 371.051C137.373 281.55 257.916 184.187 341.126 161.737C382.215 118.188 392.662 75.3933 426.262 89.9738C449.488 100.047 473.241 135.909 508.598 196.928C619.633 388.465 637.57 478.866 704.681 487.41C813.47 501.266 846.974 254.521 1022.11 206.783C1026.35 205.629 1030.59 204.475 1034.94 203.568C1166.27 175.786 1310.59 274.002 1406.76 355.778"/>
</mask>
<path d="M341.126 161.737L341.256 162.22L341.393 162.183L341.49 162.08L341.126 161.737ZM426.262 89.9738L426.063 90.4325L426.063 90.4325L426.262 89.9738ZM508.598 196.928L508.165 197.178L508.165 197.178L508.598 196.928ZM704.681 487.41L704.744 486.914L704.681 487.41ZM1022.11 206.783L1021.98 206.3L1021.98 206.3L1022.11 206.783ZM1034.94 203.568L1035.05 204.057L1035.05 204.057L1034.94 203.568ZM-40.8002 371.498C48.4207 326.736 123.175 280.008 186.006 241.677C248.863 203.33 299.735 173.422 341.256 162.22L340.996 161.254C299.307 172.502 248.302 202.501 185.485 240.823C122.644 279.161 47.9276 325.865 -41.2486 370.605L-40.8002 371.498ZM341.49 162.08C351.782 151.171 360.153 140.313 367.441 130.398C374.736 120.472 380.925 111.521 386.886 104.377C392.847 97.2332 398.523 91.9675 404.755 89.3732C410.956 86.7918 417.766 86.832 426.063 90.4325L426.461 89.5151C417.958 85.8254 410.863 85.7472 404.371 88.45C397.909 91.14 392.106 96.561 386.118 103.737C380.131 110.912 373.904 119.915 366.635 129.805C359.357 139.707 351.014 150.529 340.762 161.394L341.49 162.08ZM426.063 90.4325C437.549 95.4139 449.228 106.806 462.479 124.644C475.722 142.471 490.487 166.669 508.165 197.178L509.03 196.677C491.352 166.167 476.562 141.925 463.282 124.048C450.011 106.182 438.201 94.6066 426.461 89.5151L426.063 90.4325ZM508.165 197.178C535.918 245.053 557.854 286.608 576.197 322.148C594.537 357.682 609.293 387.221 622.675 411.036C649.425 458.643 670.794 483.6 704.618 487.906L704.744 486.914C671.457 482.676 650.302 458.161 623.547 410.546C610.176 386.751 595.435 357.243 577.086 321.689C558.739 286.142 536.795 244.571 509.03 196.677L508.165 197.178ZM704.618 487.906C732.04 491.399 754.679 478.45 775.906 456.468C797.122 434.497 817.012 403.411 838.932 370.471C882.81 304.533 934.879 231.079 1022.24 207.265L1021.98 206.3C934.208 230.225 881.955 304.012 838.1 369.917C816.152 402.899 796.323 433.885 775.187 455.773C754.061 477.651 731.716 490.349 704.744 486.914L704.618 487.906ZM1022.24 207.265C1026.48 206.111 1030.71 204.961 1035.05 204.057L1034.84 203.078C1030.47 203.989 1026.22 205.147 1021.98 206.3L1022.24 207.265ZM1035.05 204.057C1100.56 190.198 1169.35 207.759 1233.82 239.039C1298.28 270.316 1358.36 315.284 1406.43 356.159L1407.08 355.397C1358.98 314.497 1298.82 269.468 1234.25 238.139C1169.69 206.812 1100.66 189.155 1034.84 203.079L1035.05 204.057Z" fill="white" mask="url(#path-23-outside-12_31_22)"/>
<mask id="path-25-outside-13_31_22" maskUnits="userSpaceOnUse" x="-48.2227" y="100.338" width="1455" height="392" fill="black">
<rect fill="white" x="-48.2227" y="100.338" width="1455" height="392"/>
<path d="M-47.2227 359.261C123.901 272.284 247.368 177.829 335.247 162.244C376.829 124.693 389.893 88.9808 423.061 105.469C446.152 116.949 469.308 151.954 502.739 209.612C608.292 391.551 627.515 482.92 694.053 490.457C803.458 502.848 834.204 245.799 1011 193.72C1015.31 192.449 1019.65 191.191 1024.1 190.166C1157.29 159.448 1306.54 259.818 1405.88 343.144"/>
</mask>
<path d="M335.247 162.244L335.335 162.737L335.476 162.712L335.582 162.615L335.247 162.244ZM423.061 105.469L423.284 105.021L423.284 105.021L423.061 105.469ZM502.739 209.612L502.306 209.862L502.306 209.862L502.739 209.612ZM694.053 490.457L693.996 490.954L694.053 490.457ZM1011 193.72L1011.14 194.2L1011.14 194.2L1011 193.72ZM1024.1 190.166L1024.21 190.653V190.653L1024.1 190.166ZM-46.9961 359.706C38.5815 316.21 112.252 270.839 175.479 234.414C238.734 197.972 291.496 170.511 335.335 162.737L335.16 161.752C291.12 169.562 238.208 197.121 174.98 233.547C111.722 269.99 38.0972 315.335 -47.4492 358.815L-46.9961 359.706ZM335.582 162.615C345.997 153.21 354.624 143.922 362.217 135.548C369.818 127.166 376.364 119.721 382.647 113.96C388.928 108.202 394.896 104.175 401.315 102.589C407.715 101.007 414.629 101.835 422.838 105.917L423.284 105.021C414.909 100.858 407.752 99.9677 401.075 101.618C394.416 103.264 388.3 107.421 381.971 113.223C375.645 119.024 369.056 126.517 361.476 134.877C353.888 143.245 345.289 152.503 334.912 161.873L335.582 162.615ZM422.838 105.917C434.274 111.602 445.778 123.143 458.62 140.521C471.457 157.89 485.591 181.034 502.306 209.862L503.171 209.361C486.456 180.531 472.297 157.344 459.425 139.926C446.559 122.517 434.939 110.816 423.284 105.021L422.838 105.917ZM502.306 209.862C528.689 255.337 549.677 295.153 567.361 329.419C585.041 363.678 599.427 392.407 612.591 415.681C638.906 462.204 660.455 487.155 693.996 490.954L694.109 489.96C661.112 486.223 639.781 461.72 613.462 415.189C600.31 391.937 585.939 363.238 568.249 328.96C550.562 294.688 529.565 254.856 503.171 209.361L502.306 209.862ZM693.996 490.954C721.581 494.078 744.163 480.199 765.239 456.979C786.307 433.768 805.961 401.121 827.678 366.531C871.151 297.289 922.948 220.179 1011.14 194.2L1010.86 193.241C922.255 219.34 870.281 296.794 826.831 365.999C805.087 400.632 785.491 433.179 764.499 456.307C743.515 479.426 721.227 493.032 694.109 489.96L693.996 490.954ZM1011.14 194.2C1015.45 192.928 1019.78 191.675 1024.21 190.653L1023.98 189.679C1019.52 190.708 1015.17 191.969 1010.86 193.241L1011.14 194.2ZM1024.21 190.653C1090.65 175.33 1161.14 192.695 1227.47 224.34C1293.79 255.982 1355.9 301.877 1405.56 343.527L1406.2 342.761C1356.52 301.086 1294.33 255.132 1227.9 223.437C1161.47 191.745 1090.74 174.284 1023.98 189.679L1024.21 190.653Z" fill="white" mask="url(#path-25-outside-13_31_22)"/>
<mask id="path-27-outside-14_31_22" maskUnits="userSpaceOnUse" x="-54.4092" y="114.2" width="1460" height="381" fill="black">
<rect fill="white" x="-54.4092" y="114.2" width="1460" height="381"/>
<path d="M-53.4092 347.47C110.426 263.019 236.832 171.474 329.373 162.773C371.444 131.219 387.115 102.59 419.856 120.982C442.808 133.876 465.375 168.009 496.879 222.306C596.92 394.651 617.457 486.985 683.428 493.518C793.458 504.427 821.422 237.055 999.881 180.672C1004.27 179.282 1008.7 177.918 1013.23 176.789C1148.29 143.128 1302.46 245.684 1405.01 330.532"/>
</mask>
<path d="M329.373 162.773L329.42 163.271L329.56 163.258L329.673 163.173L329.373 162.773ZM419.856 120.982L420.101 120.546L420.101 120.546L419.856 120.982ZM496.879 222.306L496.447 222.557L496.447 222.557L496.879 222.306ZM683.428 493.518L683.477 493.021H683.477L683.428 493.518ZM999.881 180.672L1000.03 181.149L1000.03 181.149L999.881 180.672ZM1013.23 176.789L1013.35 177.274V177.274L1013.23 176.789ZM-53.1801 347.914C28.7342 305.69 101.345 261.665 164.956 227.155C228.611 192.621 283.264 167.611 329.42 163.271L329.326 162.275C282.941 166.637 228.121 191.749 164.479 226.276C100.793 260.826 28.2828 304.798 -53.6383 347.025L-53.1801 347.914ZM329.673 163.173C340.207 155.272 349.087 147.556 356.983 140.723C364.886 133.884 371.787 127.944 378.39 123.564C384.988 119.187 391.25 116.394 397.866 115.813C404.474 115.233 411.492 116.857 419.611 121.418L420.101 120.546C411.85 115.911 404.632 114.216 397.778 114.817C390.932 115.418 384.508 118.305 377.837 122.731C371.171 127.153 364.219 133.138 356.328 139.967C348.43 146.802 339.575 154.497 329.073 162.373L329.673 163.173ZM419.611 121.418C430.993 127.812 442.322 139.5 454.758 156.414C467.189 173.323 480.696 195.41 496.447 222.557L497.312 222.055C481.559 194.906 468.03 172.778 455.564 155.822C443.102 138.872 431.671 127.046 420.101 120.546L419.611 121.418ZM496.447 222.557C521.451 265.633 541.488 303.71 558.511 336.702C575.531 369.687 589.546 397.606 602.496 420.339C628.379 465.778 650.117 490.722 683.379 494.016L683.477 493.021C650.768 489.781 629.253 465.292 603.365 419.844C590.428 397.134 576.429 369.246 559.4 336.243C542.374 303.246 522.328 265.152 497.312 222.055L496.447 222.557ZM683.379 494.016C711.128 496.767 733.652 481.954 754.577 457.492C775.496 433.037 794.911 398.826 816.424 362.585C859.488 290.037 911.008 209.275 1000.03 181.149L999.73 180.195C910.295 208.452 858.604 289.567 815.564 362.074C794.025 398.36 774.664 432.47 753.817 456.842C732.976 481.206 710.744 495.724 683.477 493.021L683.379 494.016ZM1000.03 181.149C1004.42 179.759 1008.83 178.399 1013.35 177.274L1013.1 176.304C1008.56 177.437 1004.12 178.805 999.73 180.195L1000.03 181.149ZM1013.35 177.274C1080.72 160.483 1152.9 177.658 1221.1 209.672C1289.29 241.684 1353.43 288.505 1404.69 330.917L1405.33 330.146C1354.04 287.711 1289.82 240.83 1221.52 208.767C1153.23 176.707 1080.79 159.434 1013.1 176.304L1013.35 177.274Z" fill="white" mask="url(#path-27-outside-14_31_22)"/>
<mask id="path-29-outside-15_31_22" maskUnits="userSpaceOnUse" x="-60.6152" y="127.458" width="1466" height="370" fill="black">
<rect fill="white" x="-60.6152" y="127.458" width="1466" height="370"/>
<path d="M-59.6152 335.679C96.9508 253.753 226.3 165.116 323.498 163.291C366.062 137.734 384.33 116.203 416.651 136.502C439.453 150.814 461.442 184.072 491.001 235.012C585.545 397.759 607.383 491.025 672.788 496.583C783.438 505.988 808.609 228.332 988.752 167.627C993.22 166.124 997.728 164.656 1002.35 163.42C1139.29 126.836 1298.38 231.547 1404.09 317.926"/>
</mask>
<path d="M323.498 163.291L323.508 163.791L323.641 163.788L323.755 163.72L323.498 163.291ZM416.651 136.502L416.385 136.925L416.385 136.925L416.651 136.502ZM491.001 235.012L490.568 235.263L490.569 235.263L491.001 235.012ZM672.788 496.583L672.83 496.085L672.788 496.583ZM988.752 167.627L988.592 167.153L988.592 167.154L988.752 167.627ZM1002.35 163.42L1002.22 162.937L1002.22 162.937L1002.35 163.42ZM-59.3834 336.122C-20.2351 315.637 17.2112 294.733 52.8723 274.874C88.536 255.015 122.412 236.202 154.431 219.893C218.488 187.266 275.034 164.701 323.508 163.791L323.489 162.791C274.764 163.706 218.037 186.373 153.978 219.002C121.939 235.321 88.0468 254.143 52.3858 274.001C16.7223 293.86 -20.7123 314.758 -59.847 335.236L-59.3834 336.122ZM323.755 163.72C334.406 157.325 343.542 151.178 351.736 145.889C359.939 140.594 367.193 136.161 374.115 133.159C381.03 130.16 387.593 128.599 394.415 129.029C401.235 129.459 408.358 131.883 416.385 136.925L416.917 136.078C408.784 130.97 401.502 128.474 394.478 128.031C387.453 127.588 380.729 129.201 373.717 132.242C366.712 135.28 359.397 139.753 351.194 145.049C342.981 150.35 333.873 156.479 323.241 162.862L323.755 163.72ZM416.385 136.925C427.707 144.032 438.86 155.864 450.888 172.317C462.914 188.765 475.79 209.795 490.568 235.263L491.433 234.761C476.653 209.289 463.755 188.22 451.696 171.727C439.64 155.237 428.397 143.285 416.917 136.078L416.385 136.925ZM490.569 235.263C514.198 275.939 533.286 312.274 549.649 343.989C566.009 375.697 579.654 402.802 592.388 424.992C617.838 469.342 639.763 494.278 672.746 497.081L672.83 496.085C640.408 493.33 618.711 468.854 593.255 424.494C580.536 402.33 566.906 375.255 550.538 343.53C534.172 311.811 515.075 275.458 491.433 234.76L490.569 235.263ZM672.746 497.081C700.657 499.454 723.122 483.704 743.894 458.002C764.663 432.304 783.838 396.532 805.146 358.641C847.801 282.792 899.047 198.384 988.911 168.101L988.592 167.154C898.314 197.576 846.904 282.347 804.275 358.151C782.941 396.087 763.818 431.759 743.117 457.374C722.419 482.984 700.244 498.415 672.83 496.085L672.746 497.081ZM988.911 168.101C993.378 166.598 997.873 165.134 1002.48 163.903L1002.22 162.937C997.582 164.177 993.063 165.649 988.592 167.153L988.911 168.101ZM1002.48 163.903C1070.79 145.654 1144.67 162.636 1214.72 195.016C1284.77 227.392 1350.93 275.135 1403.77 318.314L1404.4 317.539C1351.54 274.338 1285.3 226.536 1215.14 194.108C1144.99 161.683 1070.85 144.602 1002.22 162.937L1002.48 163.903Z" fill="white" mask="url(#path-29-outside-15_31_22)"/>
<mask id="path-31-outside-16_31_22" maskUnits="userSpaceOnUse" x="-66.8125" y="139.813" width="1471" height="361" fill="black">
<rect fill="white" x="-66.8125" y="139.813" width="1471" height="361"/>
<path d="M-65.8125 323.888C83.4765 244.488 215.765 158.758 317.621 163.812C360.682 144.253 381.531 129.822 413.447 152.004C436.091 167.742 457.506 200.125 485.158 247.702C574.201 400.848 597.342 495.047 662.184 499.637C773.454 507.513 795.813 219.542 977.654 154.59C982.2 152.968 986.792 151.397 991.523 150.057C1130.33 110.545 1294.33 217.391 1403.22 305.292"/>
</mask>
<path d="M317.621 163.812L317.596 164.312L317.717 164.318L317.827 164.268L317.621 163.812ZM413.447 152.004L413.732 151.593V151.593L413.447 152.004ZM485.158 247.702L484.726 247.954L484.726 247.954L485.158 247.702ZM662.184 499.637L662.148 500.136L662.184 499.637ZM977.654 154.59L977.486 154.119L977.486 154.119L977.654 154.59ZM991.523 150.057L991.659 150.538L991.659 150.538L991.523 150.057ZM-65.5777 324.329C9.09494 284.614 79.453 243.351 143.907 212.631C208.362 181.91 266.801 161.791 317.596 164.312L317.645 163.313C266.585 160.779 207.952 180.998 143.477 211.728C78.9998 242.46 8.56908 283.761 -66.0473 323.446L-65.5777 324.329ZM317.827 164.268C328.616 159.367 337.961 154.812 346.474 151.054C354.974 147.301 362.579 144.372 369.823 142.743C377.06 141.115 383.931 140.786 390.964 142.23C397.999 143.674 405.225 146.898 413.162 152.414L413.732 151.593C405.711 146.018 398.362 142.728 391.165 141.251C383.967 139.773 376.95 140.115 369.603 141.767C362.263 143.418 354.587 146.378 346.07 150.139C337.565 153.894 328.155 158.478 317.414 163.357L317.827 164.268ZM413.162 152.414C424.417 160.237 435.393 172.216 447.02 188.207C458.645 204.196 470.901 224.168 484.726 247.954L485.59 247.451C471.763 223.66 459.486 203.651 447.829 187.619C436.174 171.59 425.121 159.508 413.732 151.593L413.162 152.414ZM484.726 247.954C506.98 286.229 525.117 320.823 540.82 351.259C556.521 381.691 569.795 407.982 582.313 429.628C607.331 472.89 629.443 497.821 662.148 500.136L662.219 499.138C630.082 496.863 608.203 472.4 583.179 429.128C570.676 407.508 557.417 381.248 541.709 350.801C526.004 320.36 507.857 285.749 485.59 247.451L484.726 247.954ZM662.148 500.136C690.222 502.123 712.626 485.431 733.244 458.484C753.861 431.538 772.794 394.2 793.896 354.659C836.138 275.508 887.109 187.462 977.822 155.061L977.486 154.119C886.358 186.669 835.23 275.085 793.014 354.188C771.887 393.775 753.003 431.013 732.45 457.876C711.898 484.738 689.78 501.089 662.219 499.138L662.148 500.136ZM977.822 155.061C982.365 153.44 986.944 151.873 991.659 150.538L991.386 149.576C986.64 150.92 982.035 152.496 977.486 154.119L977.822 155.061ZM991.659 150.538C1060.9 130.828 1136.47 147.611 1208.39 180.35C1280.29 213.085 1348.48 261.742 1402.9 305.682L1403.53 304.903C1349.08 260.941 1280.82 212.225 1208.8 179.44C1136.79 146.657 1060.96 129.773 991.386 149.576L991.659 150.538Z" fill="white" mask="url(#path-31-outside-16_31_22)"/>
<mask id="path-33-outside-17_31_22" maskUnits="userSpaceOnUse" x="-73.0117" y="126.214" width="1476" height="378" fill="black">
<rect fill="white" x="-73.0117" y="126.214" width="1476" height="378"/>
<path d="M-72.0117 312.097C70.0041 235.226 205.228 152.415 311.745 164.334C355.276 150.761 378.718 143.449 410.241 167.517C432.716 184.68 453.572 216.18 479.294 260.386C562.839 403.935 587.282 499.051 651.558 502.68C763.449 509.003 782.98 210.733 966.539 141.509C971.162 139.766 975.839 138.095 980.643 136.648C1121.36 94.2709 1290.28 203.246 1402.33 292.694"/>
</mask>
<path d="M311.745 164.334L311.689 164.831L311.794 164.843L311.894 164.811L311.745 164.334ZM410.241 167.517L410.545 167.119L410.545 167.119L410.241 167.517ZM479.294 260.386L478.862 260.638V260.638L479.294 260.386ZM651.558 502.68L651.586 502.181L651.558 502.68ZM966.539 141.509L966.363 141.042L966.363 141.042L966.539 141.509ZM980.643 136.648L980.787 137.127V137.127L980.643 136.648ZM-71.7737 312.537C-0.747696 274.091 68.5328 234.187 133.382 205.376C198.236 176.562 258.569 158.887 311.689 164.831L311.801 163.837C258.404 157.862 197.867 175.632 132.976 204.462C68.0795 233.294 -1.25993 273.232 -72.2497 311.657L-71.7737 312.537ZM311.894 164.811C333.682 158.018 350.353 152.823 365.513 152.31C380.627 151.798 394.257 155.942 409.938 167.914L410.545 167.119C394.702 155.024 380.85 150.79 365.479 151.31C350.155 151.829 333.339 157.077 311.596 163.857L311.894 164.811ZM409.938 167.914C432.321 185.007 453.132 216.418 478.862 260.638L479.726 260.135C454.012 215.943 433.111 184.352 410.545 167.119L409.938 167.914ZM478.862 260.638C499.742 296.514 516.929 329.365 531.973 358.523C547.013 387.676 559.918 413.152 572.22 434.255C596.805 476.425 619.104 501.349 651.53 503.179L651.586 502.181C619.736 500.383 597.676 475.933 573.084 433.751C560.798 412.677 547.91 387.232 532.861 358.065C517.816 328.903 500.619 296.033 479.726 260.135L478.862 260.638ZM651.53 503.179C679.766 504.775 702.107 487.138 722.57 458.943C743.033 430.746 761.724 391.843 782.619 350.651C824.446 268.195 875.144 176.511 966.716 141.977L966.363 141.042C874.376 175.732 823.528 267.794 781.727 350.198C760.808 391.436 742.164 430.241 721.76 458.355C701.355 486.471 679.296 503.747 651.586 502.181L651.53 503.179ZM966.716 141.977C971.334 140.236 975.999 138.569 980.787 137.127L980.499 136.169C975.679 137.621 970.991 139.297 966.363 141.042L966.716 141.977ZM980.787 137.127C1050.98 115.988 1128.26 132.587 1202.03 165.693C1275.8 198.796 1346.01 248.372 1402.02 293.085L1402.64 292.304C1346.6 247.569 1276.32 197.933 1202.44 164.781C1128.57 131.631 1051.03 114.931 980.499 136.169L980.787 137.127Z" fill="white" mask="url(#path-33-outside-17_31_22)"/>
<mask id="path-35-outside-18_31_22" maskUnits="userSpaceOnUse" x="-79.21" y="111.844" width="1481" height="395" fill="black">
<rect fill="white" x="-79.21" y="111.844" width="1481" height="395"/>
<path d="M-78.21 300.292C56.5288 225.946 194.692 146.031 305.866 164.845C349.91 157.276 375.894 157.058 407.028 183.012C429.333 201.585 449.635 232.222 473.427 273.081C551.475 407.028 577.22 503.055 640.93 505.741C753.445 510.499 770.133 201.936 955.426 128.483C960.122 126.618 964.887 124.846 969.779 123.293C1112.41 78.0115 1286.21 189.105 1401.44 280.1"/>
</mask>
<path d="M305.866 164.845L305.783 165.338L305.867 165.352L305.951 165.338L305.866 164.845ZM407.028 183.012L406.708 183.396L406.708 183.396L407.028 183.012ZM473.427 273.081L472.995 273.333L472.995 273.333L473.427 273.081ZM640.93 505.741L640.951 505.242H640.951L640.93 505.741ZM955.426 128.483L955.61 128.947L955.61 128.947L955.426 128.483ZM969.779 123.293L969.628 122.816L969.628 122.816L969.779 123.293ZM-77.9684 300.73C-10.5881 263.551 57.6081 225.003 122.856 198.096C188.109 171.187 250.336 155.955 305.783 165.338L305.95 164.352C250.223 154.921 187.781 170.24 122.474 197.171C57.1619 224.105 -11.093 262.687 -78.4515 299.854L-77.9684 300.73ZM305.951 165.338C327.969 161.554 345.409 159.621 361.218 161.852C377.006 164.081 391.201 170.469 406.708 183.396L407.349 182.627C391.721 169.6 377.357 163.121 361.358 160.862C345.382 158.607 327.808 160.567 305.782 164.352L305.951 165.338ZM406.708 183.396C428.937 201.906 449.199 232.467 472.995 273.333L473.859 272.829C450.071 231.976 429.73 201.265 407.348 182.627L406.708 183.396ZM472.995 273.333C492.5 306.808 508.738 337.915 523.122 365.794C537.503 393.669 550.037 418.329 562.124 438.887C586.277 479.967 608.762 504.886 640.909 506.241L640.951 505.242C609.388 503.911 587.146 479.473 562.986 438.381C550.917 417.853 538.399 393.224 524.011 365.336C509.626 337.454 493.378 306.328 473.859 272.829L472.995 273.333ZM640.909 506.241C669.307 507.442 691.585 488.857 711.892 459.415C732.202 429.968 750.648 389.499 771.336 346.658C812.747 260.903 863.171 165.592 955.61 128.947L955.241 128.018C862.387 164.827 811.82 260.523 770.436 346.224C749.725 389.111 731.323 429.482 711.069 458.847C690.811 488.218 668.81 506.42 640.951 505.242L640.909 506.241ZM955.61 128.947C960.3 127.085 965.053 125.318 969.931 123.769L969.628 122.816C964.721 124.375 959.944 126.151 955.241 128.018L955.61 128.947ZM969.931 123.769C1041.08 101.182 1120.05 117.584 1195.68 151.05C1271.31 184.513 1343.53 235.006 1401.13 280.492L1401.75 279.707C1344.12 234.199 1271.82 183.648 1196.08 150.136C1120.35 116.627 1041.11 100.122 969.628 122.816L969.931 123.769Z" fill="white" mask="url(#path-35-outside-18_31_22)"/>
<mask id="path-37-outside-19_31_22" maskUnits="userSpaceOnUse" x="-85.4053" y="97.4309" width="1487" height="412" fill="black">
<rect fill="white" x="-85.4053" y="97.4309" width="1487" height="412"/>
<path d="M-84.4053 288.504C43.0526 216.709 182.695 184.537 299.995 165.38C343.888 158.212 373.066 170.699 403.826 198.539C425.95 218.541 445.705 248.295 467.571 285.793C540.118 410.15 567.161 507.063 630.308 508.817C743.435 511.956 757.269 193.106 944.311 115.424C949.08 113.445 953.942 111.57 958.919 109.909C1103.45 61.7484 1282.13 174.953 1400.56 267.469"/>
</mask>
<path d="M299.995 165.38L300.075 165.874L299.995 165.38ZM403.826 198.539L403.491 198.909L403.491 198.909L403.826 198.539ZM467.571 285.793L467.139 286.045L467.139 286.045L467.571 285.793ZM630.308 508.817L630.294 509.316L630.308 508.817ZM944.311 115.424L944.119 114.962L944.119 114.962L944.311 115.424ZM958.919 109.909L958.761 109.434L958.76 109.434L958.919 109.909ZM-84.1599 288.94C43.2218 217.187 182.796 185.027 300.075 165.874L299.914 164.887C182.594 184.046 42.8834 216.23 -84.6507 288.069L-84.1599 288.94ZM300.075 165.874C321.955 162.3 340.138 163.63 356.673 169.304C373.213 174.98 388.14 185.016 403.491 198.909L404.162 198.168C388.752 184.221 373.71 174.094 356.998 168.358C340.28 162.621 321.928 161.292 299.914 164.887L300.075 165.874ZM403.491 198.909C425.552 218.855 445.274 248.548 467.139 286.045L468.003 285.541C446.136 248.042 426.348 218.227 404.162 198.168L403.491 198.909ZM467.139 286.045C485.268 317.122 500.556 346.486 514.28 373.086C528 399.681 540.164 423.524 552.034 443.536C575.753 483.521 598.425 508.431 630.294 509.316L630.322 508.317C599.044 507.448 576.621 483.024 552.894 443.026C541.042 423.046 528.895 399.234 515.168 372.628C501.444 346.026 486.146 316.642 468.003 285.541L467.139 286.045ZM630.294 509.316C658.852 510.109 681.063 490.568 701.212 459.872C721.366 429.167 739.567 387.129 760.046 342.637C801.039 253.578 851.189 154.64 944.503 115.885L944.119 114.962C850.391 153.889 800.103 253.218 759.137 342.219C738.637 386.758 720.477 428.699 700.376 459.323C680.269 489.956 658.328 509.094 630.322 508.317L630.294 509.316ZM944.502 115.885C949.264 113.91 954.114 112.039 959.077 110.383L958.76 109.434C953.769 111.1 948.896 112.98 944.119 114.962L944.502 115.885ZM959.077 110.383C1031.17 86.3598 1111.84 102.569 1189.33 136.394C1266.81 170.215 1341.05 221.616 1400.25 267.863L1400.87 267.075C1341.64 220.807 1267.32 169.347 1189.73 135.477C1112.14 101.611 1031.2 85.2972 958.761 109.434L959.077 110.383Z" fill="white" mask="url(#path-37-outside-19_31_22)"/>
<mask id="path-39-outside-20_31_22" maskUnits="userSpaceOnUse" x="-91.6025" y="83.0972" width="1492" height="430" fill="black">
<rect fill="white" x="-91.6025" y="83.0972" width="1492" height="430"/>
<path d="M-90.6025 276.717C29.5899 207.422 170.97 143.385 294.121 165.895C338.546 174.017 370.224 184.315 400.622 214.044C422.557 235.476 441.769 264.344 461.709 298.484C528.762 413.243 557.096 511.035 619.685 511.867C733.42 513.382 744.388 184.258 933.194 102.368C938.044 100.268 942.991 98.3035 948.06 96.5283C1094.62 45.7678 1278.08 160.805 1399.69 254.857"/>
</mask>
<path d="M294.121 165.895L294.211 165.403H294.211L294.121 165.895ZM400.622 214.044L400.273 214.402L400.273 214.402L400.622 214.044ZM461.709 298.484L461.277 298.737L461.277 298.737L461.709 298.484ZM619.685 511.867L619.691 511.367L619.685 511.867ZM933.194 102.368L932.995 101.91L932.995 101.91L933.194 102.368ZM948.06 96.5283L947.897 96.0558L947.895 96.0564L948.06 96.5283ZM-90.3528 277.15C-30.2691 242.51 35.0907 209.196 100.807 187.353C166.527 165.511 232.569 155.152 294.031 166.387L294.211 165.403C232.522 154.127 166.299 164.533 100.492 186.405C34.6829 208.277 -30.7435 241.629 -90.8523 276.284L-90.3528 277.15ZM294.031 166.387C338.418 174.502 369.979 184.775 400.273 214.402L400.972 213.687C370.468 183.855 338.674 173.533 294.211 165.403L294.031 166.387ZM400.273 214.402C422.158 235.784 441.341 264.603 461.277 298.737L462.14 298.232C442.197 264.085 422.957 235.167 400.972 213.687L400.273 214.402ZM461.277 298.737C478.033 327.414 492.371 355.032 505.435 380.351C518.495 405.665 530.288 428.69 541.942 448.155C565.226 487.045 588.085 511.947 619.678 512.367L619.691 511.367C588.696 510.955 566.093 486.545 542.8 447.641C531.166 428.209 519.39 405.217 506.323 379.893C493.26 354.574 478.911 326.934 462.14 298.232L461.277 298.737ZM619.678 512.367C648.393 512.749 670.536 492.252 690.526 460.303C710.523 428.341 728.477 384.735 748.746 338.595C769.025 292.433 791.635 243.702 820.961 201.398C850.285 159.097 886.305 123.25 933.393 102.827L932.995 101.91C885.68 122.431 849.527 158.434 820.139 200.828C790.753 243.219 768.111 292.028 747.83 338.193C727.54 384.381 709.626 427.89 689.678 459.772C669.723 491.667 647.844 511.742 619.691 511.367L619.678 512.367ZM933.393 102.827C938.234 100.731 943.169 98.7709 948.225 97.0002L947.895 96.0564C942.812 97.8361 937.855 99.8052 932.995 101.91L933.393 102.827ZM948.224 97.0007C1021.33 71.6802 1103.69 87.6969 1183.03 121.847C1262.36 155.994 1338.59 208.237 1399.38 255.253L1399.99 254.461C1339.17 207.425 1262.87 155.124 1183.43 120.929C1103.99 86.7375 1021.35 70.6159 947.897 96.0558L948.224 97.0007Z" fill="white" mask="url(#path-39-outside-20_31_22)"/>
<mask id="path-41-outside-21_31_22" maskUnits="userSpaceOnUse" x="-97.8018" y="68.6104" width="1497" height="447" fill="black">
<rect fill="white" x="-97.8018" y="68.6104" width="1497" height="447"/>
<path d="M-96.8018 264.93C16.1059 198.16 161.385 131.969 288.245 166.42C333.244 178.643 367.372 197.942 397.416 229.557C419.155 252.417 437.835 280.407 455.845 311.183C517.401 416.347 547.029 515.257 609.059 514.932C723.4 514.332 731.355 175.157 922.079 89.3237C926.998 87.0949 932.036 85.0386 937.196 83.155C1085.63 29.3941 1274.01 146.657 1398.79 242.241"/>
</mask>
<path d="M288.245 166.42L288.377 165.937L288.377 165.937L288.245 166.42ZM397.416 229.557L397.054 229.902L397.054 229.902L397.416 229.557ZM455.845 311.183L455.413 311.435V311.435L455.845 311.183ZM609.059 514.932L609.062 515.432L609.059 514.932ZM922.079 89.3237L922.285 89.7797L922.286 89.7792L922.079 89.3237ZM937.196 83.155L937.026 82.6849L937.025 82.6854L937.196 83.155ZM-96.5472 265.36C-40.1083 231.984 24.4002 198.766 90.6377 178.195C156.877 157.623 224.809 149.711 288.114 166.903L288.377 165.937C224.821 148.678 156.683 156.636 90.3412 177.24C23.9972 197.844 -40.5875 231.106 -97.0563 264.499L-96.5472 265.36ZM288.114 166.902C333.036 179.105 367.08 198.361 397.054 229.902L397.779 229.213C367.664 197.524 333.453 178.182 288.377 165.937L288.114 166.902ZM397.054 229.902C418.754 252.721 437.411 280.672 455.413 311.435L456.276 310.93C438.259 280.142 419.557 252.114 397.779 229.213L397.054 229.902ZM455.413 311.435C470.794 337.713 484.182 363.602 496.586 387.659C508.987 411.711 520.408 433.941 531.846 452.874C554.697 490.699 577.742 515.596 609.062 515.432L609.057 514.432C578.346 514.593 555.562 490.198 532.702 452.357C521.285 433.458 509.88 411.262 497.475 387.201C485.072 363.146 471.673 337.234 456.276 310.93L455.413 311.435ZM609.062 515.432C637.932 515.28 659.996 493.75 679.815 460.504C699.643 427.241 717.336 382.058 737.386 334.284C757.447 286.486 779.879 236.063 809.203 192.229C838.525 148.399 874.718 111.187 922.285 89.7797L921.874 88.8678C874.079 110.378 837.756 147.75 808.372 191.673C778.989 235.594 756.526 286.096 736.464 333.897C716.393 381.72 698.738 426.808 678.956 459.992C659.164 493.192 637.357 514.283 609.057 514.432L609.062 515.432ZM922.286 89.7792C927.192 87.5556 932.219 85.5041 937.367 83.6247L937.025 82.6854C931.853 84.5732 926.803 86.6342 921.873 88.8683L922.286 89.7792ZM937.366 83.6252C1011.41 56.8079 1095.47 72.6302 1176.67 107.154C1257.86 141.673 1336.11 194.856 1398.48 242.638L1399.09 241.844C1336.69 194.042 1258.36 140.801 1177.06 106.233C1095.77 71.6698 1011.42 55.7413 937.026 82.6849L937.366 83.6252Z" fill="white" mask="url(#path-41-outside-21_31_22)"/>
<mask id="path-43-outside-22_31_22" maskUnits="userSpaceOnUse" x="-104" y="54.105" width="1503" height="465" fill="black">
<rect fill="white" x="-104" y="54.105" width="1503" height="465"/>
<path d="M-103 253.142C2.63065 188.902 152.551 120.624 282.367 166.949C478.065 236.794 494.996 519.636 598.438 517.993C716.358 516.121 718.769 148.16 926.336 69.7817C1076.65 13.024 1269.96 132.512 1397.9 229.636"/>
</mask>
<path d="M282.367 166.949L282.535 166.478L282.535 166.478L282.367 166.949ZM598.438 517.993L598.43 517.493H598.43L598.438 517.993ZM926.336 69.7817L926.16 69.314L926.336 69.7817ZM-102.74 253.57C-49.9434 221.46 13.9017 188.356 80.7528 169.064C147.605 149.772 217.424 144.305 282.199 167.419L282.535 166.478C217.494 143.268 147.445 148.777 80.4755 168.103C13.5047 187.429 -50.4259 220.584 -103.26 252.715L-102.74 253.57ZM282.199 167.419C379.847 202.27 432.928 290.271 474.556 369.511C495.353 409.1 513.307 446.533 532.523 473.944C551.735 501.351 572.323 518.908 598.446 518.493L598.43 517.493C572.833 517.899 552.513 500.717 533.342 473.37C514.174 446.028 496.269 408.693 475.441 369.046C433.818 289.815 380.585 201.472 282.535 166.478L282.199 167.419ZM598.446 518.493C628.223 518.02 650.609 494.432 670.667 458.436C690.739 422.416 708.6 373.747 729.233 322.765C749.876 271.758 773.305 218.4 804.53 172.9C835.752 127.405 874.748 89.7964 926.513 70.2495L926.16 69.314C874.142 88.9564 834.999 126.735 803.705 172.335C772.414 217.93 748.952 271.376 728.306 322.39C707.65 373.429 689.826 422 669.794 457.949C649.749 493.92 627.613 517.03 598.43 517.493L598.446 518.493ZM926.513 70.2495C1001.49 41.9372 1087.25 57.566 1170.31 92.464C1253.37 127.358 1333.64 181.482 1397.6 230.034L1398.21 229.237C1334.22 180.666 1253.87 126.484 1170.7 91.5421C1087.54 56.6047 1001.49 40.8685 926.16 69.314L926.513 70.2495Z" fill="white" mask="url(#path-43-outside-22_31_22)"/>
</g>
</svg>
