<svg width="1550" height="535" viewBox="0 0 1550 535" fill="none" xmlns="http://www.w3.org/2000/svg">
<mask id="mask0_3_109" style="mask-type:alpha" maskUnits="userSpaceOnUse" x="0" y="0" width="1550" height="535">
<rect x="0.25" y="0.25" width="1549.5" height="534.5" rx="9.75" fill="#07242B" stroke="#242424" stroke-width="0.5"/>
</mask>
<g mask="url(#mask0_3_109)">
<mask id="mask1_3_109" style="mask-type:alpha" maskUnits="userSpaceOnUse" x="0" y="0" width="1550" height="535">
<rect x="0.1" y="0.1" width="1549.8" height="534.8" rx="9.9" fill="#07242B" stroke="#242424" stroke-width="0.2"/>
</mask>
<g mask="url(#mask1_3_109)">
<g opacity="0.5">
<mask id="path-3-outside-1_3_109" maskUnits="userSpaceOnUse" x="29.4043" y="-104.921" width="1558" height="748" fill="black">
<rect fill="white" x="29.4043" y="-104.921" width="1558" height="748"/>
<path d="M30.4043 642.455C319.852 491.974 418.625 326.022 454.421 200.126C494.368 59.6216 473.767 -93.9438 516.889 -103.48C544.501 -109.589 578.477 -52.2461 641.821 73.4567C833.91 454.634 838.259 555.861 920.098 582.133C1034.74 618.964 1105.42 445.693 1281.64 449.428C1411.07 452.178 1515.81 548.652 1586.4 634.408"/>
</mask>
<path d="M454.421 200.126L454.614 200.181V200.181L454.421 200.126ZM516.889 -103.48L516.932 -103.285V-103.285L516.889 -103.48ZM641.821 73.4567L641.642 73.5467V73.5467L641.821 73.4567ZM920.098 582.133L920.159 581.943H920.159L920.098 582.133ZM1281.64 449.428L1281.65 449.228L1281.64 449.428ZM30.4966 642.633C319.986 492.13 418.8 326.136 454.614 200.181L454.229 200.072C418.45 325.907 319.717 491.818 30.312 642.278L30.4966 642.633ZM454.614 200.181C474.593 129.906 479.431 56.3668 484.664 -0.771858C487.281 -29.3479 489.995 -53.8116 494.747 -71.7258C497.123 -80.6827 500.005 -87.988 503.628 -93.3476C507.25 -98.704 511.605 -102.107 516.932 -103.285L516.846 -103.676C511.393 -102.47 506.959 -98.9876 503.297 -93.5716C499.637 -88.1589 496.742 -80.8047 494.361 -71.8284C489.599 -53.8762 486.882 -29.3788 484.265 -0.808334C479.031 56.346 474.196 129.841 454.229 200.072L454.614 200.181ZM516.932 -103.285C523.752 -104.794 530.992 -102.394 539.025 -95.9322C547.06 -89.4699 555.862 -78.966 565.79 -64.3289C585.645 -35.0563 609.969 10.6935 641.642 73.5467L641.999 73.3667C610.328 10.5171 585.993 -35.2559 566.121 -64.5534C556.186 -79.2013 547.357 -89.7442 539.276 -96.2439C531.194 -102.744 523.832 -105.221 516.846 -103.676L516.932 -103.285ZM641.642 73.5467C737.685 264.132 786.789 384.721 822.121 460.969C857.446 537.198 879.024 569.158 920.037 582.324L920.159 581.943C879.333 568.837 857.816 537.047 822.484 460.8C787.16 384.572 738.045 263.959 641.999 73.3667L641.642 73.5467ZM920.037 582.324C948.755 591.55 974.719 587.615 1000.25 576.595C1025.78 565.578 1050.89 547.474 1077.89 528.355C1131.92 490.108 1193.6 447.762 1281.64 449.628L1281.65 449.228C1193.46 447.359 1131.69 489.782 1077.66 528.029C1050.64 547.156 1025.57 565.231 1000.09 576.227C974.626 587.22 948.764 591.132 920.159 581.943L920.037 582.324ZM1281.64 449.628C1410.97 452.376 1515.66 548.785 1586.25 634.535L1586.56 634.281C1515.96 548.52 1411.17 451.98 1281.65 449.228L1281.64 449.628Z" fill="#242424" mask="url(#path-3-outside-1_3_109)"/>
<mask id="path-5-outside-2_3_109" maskUnits="userSpaceOnUse" x="22.4531" y="-84.8338" width="1564" height="713" fill="black">
<rect fill="white" x="22.4531" y="-84.8338" width="1564" height="713"/>
<path d="M23.4531 627.328C304.751 480.086 409.197 318.776 447.833 200.786C491.007 68.9288 470.617 -76.704 513.29 -83.5917C540.725 -88.0232 574.063 -31.6609 635.249 89.7341C821.199 458.598 826.967 561.085 908.177 586.061C1023.49 621.026 1091.08 435.222 1269.17 432.692C1273.06 432.637 1276.88 432.637 1280.71 432.747C1407.07 436.482 1513.29 533.002 1585.4 618.231"/>
</mask>
<path d="M447.833 200.786L448.023 200.848L447.833 200.786ZM513.29 -83.5917L513.322 -83.3943V-83.3943L513.29 -83.5917ZM635.249 89.7341L635.07 89.8242L635.249 89.7341ZM908.177 586.061L908.118 586.252L908.119 586.252L908.177 586.061ZM1269.17 432.692L1269.17 432.492L1269.17 432.692ZM1280.71 432.747L1280.71 432.547H1280.71L1280.71 432.747ZM23.5459 627.505C304.882 480.243 409.369 318.896 448.023 200.848L447.642 200.724C409.026 318.656 304.62 479.929 23.3604 627.15L23.5459 627.505ZM448.023 200.848C469.618 134.895 475.315 65.4985 480.948 11.7544C483.765 -15.1248 486.565 -38.0772 491.323 -54.7394C496.087 -71.4203 502.784 -81.6935 513.322 -83.3943L513.258 -83.7892C502.459 -82.0461 495.703 -71.5323 490.939 -54.8493C486.169 -38.1476 483.367 -15.1593 480.55 11.7128C474.916 65.4714 469.221 134.82 447.642 200.724L448.023 200.848ZM513.322 -83.3943C520.101 -84.4892 527.272 -81.8353 535.189 -75.2961C543.106 -68.7566 551.745 -58.3517 561.447 -44.0017C580.851 -15.303 604.476 29.125 635.07 89.8242L635.428 89.6441C604.835 28.9483 581.199 -15.5024 561.779 -44.2257C552.069 -58.5867 543.405 -69.0287 535.444 -75.6045C527.482 -82.1804 520.197 -84.91 513.258 -83.7892L513.322 -83.3943ZM635.07 89.8242C728.044 274.253 775.967 392.078 810.809 466.94C845.642 541.783 867.418 573.735 908.118 586.252L908.235 585.87C867.726 573.411 846.013 541.631 811.172 466.771C776.339 391.93 728.404 274.079 635.428 89.6441L635.07 89.8242ZM908.119 586.252C937.007 595.012 962.906 589.941 988.273 577.383C1013.63 564.83 1038.47 544.788 1065.26 523.594C1118.83 481.196 1180.2 434.156 1269.18 432.892L1269.17 432.492C1180.05 433.758 1118.58 480.885 1065.01 523.28C1038.21 544.484 1013.41 564.494 988.096 577.025C962.793 589.55 937.001 594.592 908.235 585.869L908.119 586.252ZM1269.18 432.892C1273.06 432.837 1276.88 432.837 1280.7 432.947L1280.71 432.547C1276.88 432.437 1273.06 432.437 1269.17 432.492L1269.18 432.892ZM1280.7 432.947C1406.97 436.679 1513.14 533.135 1585.24 618.36L1585.55 618.102C1513.44 532.87 1407.16 436.285 1280.71 432.547L1280.7 432.947Z" fill="#242424" mask="url(#path-5-outside-2_3_109)"/>
<mask id="path-7-outside-3_3_109" maskUnits="userSpaceOnUse" x="15.5254" y="-64.791" width="1570" height="678" fill="black">
<rect fill="white" x="15.5254" y="-64.791" width="1570" height="678"/>
<path d="M16.5254 612.2C289.651 468.213 399.69 311.82 441.263 201.455C487.599 78.4381 467.499 -59.4454 509.711 -63.6935C536.977 -66.4431 569.68 -11.0569 628.692 106.026C808.464 462.558 815.617 566.635 896.287 589.988C1012.16 623.533 1076.81 424.659 1256.74 415.952C1260.68 415.76 1264.62 415.567 1268.55 415.59C1397 416.342 1508.75 514.855 1584.41 602.05"/>
</mask>
<path d="M441.263 201.455L441.45 201.526L441.263 201.455ZM509.711 -63.6935L509.731 -63.4945L509.731 -63.4945L509.711 -63.6935ZM628.692 106.026L628.514 106.116V106.116L628.692 106.026ZM896.287 589.988L896.343 589.796L896.287 589.988ZM1256.74 415.952L1256.75 416.152H1256.75L1256.74 415.952ZM1268.55 415.59L1268.55 415.39L1268.55 415.59ZM16.6187 612.377C289.779 468.372 399.856 311.945 441.45 201.526L441.076 201.385C399.523 311.695 289.524 468.054 16.4321 612.023L16.6187 612.377ZM441.45 201.526C464.629 139.99 471.189 74.7386 477.232 24.3663C480.254 -0.82761 483.145 -22.2865 487.915 -37.7121C492.689 -53.1529 499.312 -62.446 509.731 -63.4945L509.691 -63.8925C499.003 -62.817 492.31 -53.2816 487.532 -37.8302C482.75 -22.3635 479.856 -0.86644 476.835 24.3187C470.791 74.7045 464.234 139.903 441.076 201.385L441.45 201.526ZM509.731 -63.4945C516.471 -64.1742 523.575 -61.2651 531.377 -54.6471C539.178 -48.0295 547.655 -37.7228 557.131 -23.6592C576.084 4.46687 599.007 47.5729 628.514 106.116L628.871 105.936C599.366 47.396 576.432 4.26754 557.463 -23.8828C547.979 -37.9574 539.479 -48.2994 531.635 -54.9522C523.793 -61.6046 516.584 -64.5876 509.69 -63.8925L509.731 -63.4945ZM628.514 106.116C718.398 284.38 765.123 399.518 799.472 473.034C833.811 546.53 855.799 578.475 896.232 590.18L896.343 589.796C856.105 578.148 834.182 546.378 799.834 472.864C765.496 399.371 718.758 284.204 628.871 105.936L628.514 106.116ZM896.232 590.18C925.265 598.586 951.087 592.427 976.286 578.346C1001.48 564.27 1026.06 542.267 1052.62 518.965C1105.76 472.349 1166.86 420.502 1256.75 416.152L1256.73 415.752C1166.69 420.11 1105.49 472.053 1052.36 518.664C1025.78 541.977 1001.24 563.946 976.091 577.997C950.956 592.042 925.245 598.163 896.343 589.796L896.232 590.18ZM1256.75 416.152C1260.69 415.959 1264.62 415.767 1268.55 415.79L1268.55 415.39C1264.61 415.367 1260.67 415.56 1256.73 415.752L1256.75 416.152ZM1268.55 415.79C1396.9 416.541 1508.6 514.989 1584.26 602.181L1584.56 601.919C1508.9 514.721 1397.1 416.142 1268.55 415.39L1268.55 415.79Z" fill="#242424" mask="url(#path-7-outside-3_3_109)"/>
<mask id="path-9-outside-4_3_109" maskUnits="userSpaceOnUse" x="8.58203" y="-44.8057" width="1575" height="643" fill="black">
<rect fill="white" x="8.58203" y="-44.8057" width="1575" height="643"/>
<path d="M9.58203 597.073C274.575 456.298 390.032 305.198 434.682 202.125C484.051 88.1491 464.386 -42.173 506.115 -43.7906C533.227 -44.8447 565.257 9.54253 622.124 122.313C795.739 466.554 804.307 572.002 884.387 593.916C1000.87 625.793 1062.55 414.019 1244.29 399.212C1248.32 398.882 1252.35 398.566 1256.37 398.428C1386.9 394.001 1504.18 496.704 1583.4 585.86"/>
</mask>
<path d="M434.682 202.125L434.865 202.204L434.682 202.125ZM506.115 -43.7906L506.123 -43.5908L506.123 -43.5908L506.115 -43.7906ZM622.124 122.313L621.946 122.403L622.124 122.313ZM884.387 593.916L884.334 594.109L884.387 593.916ZM1244.29 399.212L1244.3 399.411L1244.29 399.212ZM1256.37 398.428L1256.36 398.228H1256.36L1256.37 398.428ZM9.67586 597.25C274.7 456.458 390.194 305.328 434.865 202.204L434.498 202.045C389.871 305.069 274.451 456.138 9.4882 596.897L9.67586 597.25ZM434.865 202.204C459.563 145.187 466.992 84.0835 473.462 37.0601C476.698 13.5399 479.693 -6.4433 484.481 -20.6478C489.274 -34.8632 495.827 -43.1917 506.123 -43.5908L506.107 -43.9905C495.538 -43.5808 488.902 -35.0124 484.102 -20.7756C479.299 -6.52803 476.3 13.4961 473.066 37.0056C466.594 84.0415 459.17 145.087 434.498 202.045L434.865 202.204ZM506.123 -43.5908C512.829 -43.8515 519.866 -40.6855 527.551 -33.9892C535.235 -27.2935 543.546 -17.0866 552.795 -3.31152C571.292 24.2379 593.511 66.0164 621.946 122.403L622.303 122.223C593.87 65.8391 571.64 24.0388 553.127 -3.53449C543.871 -17.3208 535.537 -27.5612 527.813 -34.2907C520.091 -41.0197 512.957 -44.2568 506.107 -43.9905L506.123 -43.5908ZM621.946 122.403C708.752 294.522 754.291 406.928 788.15 479.072C822 551.195 844.195 583.124 884.334 594.109L884.439 593.723C844.499 582.793 822.37 551.042 788.512 478.902C754.664 406.783 709.111 294.345 622.303 122.223L621.946 122.403ZM884.334 594.109C913.526 602.097 939.28 594.815 964.313 579.193C989.338 563.577 1013.66 539.613 1040.01 514.214C1092.71 463.401 1153.51 406.808 1244.3 399.411L1244.27 399.013C1153.32 406.422 1092.42 463.12 1039.73 513.926C1013.37 539.337 989.082 563.265 964.102 578.854C939.13 594.437 913.492 601.673 884.439 593.723L884.334 594.109ZM1244.3 399.411C1248.34 399.081 1252.36 398.765 1256.37 398.628L1256.36 398.228C1252.34 398.366 1248.31 398.683 1244.27 399.013L1244.3 399.411ZM1256.37 398.628C1321.58 396.417 1383.49 420.964 1439.01 457.218C1494.53 493.471 1543.64 541.421 1583.25 585.992L1583.55 585.727C1543.93 541.142 1494.79 493.163 1439.23 456.883C1383.67 420.603 1321.68 396.013 1256.36 398.228L1256.37 398.628Z" fill="#242424" mask="url(#path-9-outside-4_3_109)"/>
<mask id="path-11-outside-5_3_109" maskUnits="userSpaceOnUse" x="1.64062" y="-24.8945" width="1581" height="626" fill="black">
<rect fill="white" x="1.64062" y="-24.8945" width="1581" height="626"/>
<path d="M2.64062 581.945C259.484 444.424 380.183 298.929 428.099 202.793C480.303 98.0564 461.293 -24.883 502.526 -23.8885C529.487 -23.2424 560.852 30.1458 615.563 138.604C783.017 470.531 793.004 577.354 872.488 597.838C989.628 628.029 1048.31 403.299 1231.84 382.453C1235.96 381.994 1240.09 381.536 1244.22 381.252C1376.82 372.811 1499.63 478.542 1582.43 569.678"/>
</mask>
<path d="M428.099 202.793L427.92 202.704L428.099 202.793ZM502.526 -23.8885L502.521 -23.6886L502.521 -23.6886L502.526 -23.8885ZM615.563 138.604L615.384 138.694L615.563 138.604ZM872.488 597.838L872.538 597.645L872.488 597.838ZM1231.84 382.453L1231.82 382.254L1231.82 382.254L1231.84 382.453ZM1244.22 381.252L1244.21 381.052L1244.21 381.052L1244.22 381.252ZM2.73503 582.122C259.606 444.586 380.34 299.063 428.278 202.883L427.92 202.704C380.027 298.794 259.362 444.262 2.54622 581.769L2.73503 582.122ZM428.278 202.883C454.396 150.482 462.698 93.5314 469.624 49.8344C473.089 27.9768 476.207 9.45156 481.03 -3.54808C483.442 -10.0468 486.273 -15.1456 489.771 -18.5871C493.263 -22.0223 497.424 -23.8115 502.521 -23.6886L502.531 -24.0885C497.32 -24.2142 493.055 -22.3791 489.491 -18.8722C485.932 -15.3717 483.076 -10.2107 480.655 -3.68723C475.815 9.3576 472.692 27.9268 469.229 49.7718C462.301 93.4802 454.006 150.368 427.92 202.704L428.278 202.883ZM502.521 -23.6886C509.194 -23.5287 516.165 -20.1046 523.735 -13.3294C531.303 -6.55504 539.45 3.55249 548.472 17.0394C566.514 44.0128 588.028 84.4636 615.384 138.694L615.741 138.514C588.387 84.286 566.862 43.8138 548.804 16.817C539.775 3.31881 531.607 -6.82048 524.002 -13.6274C516.398 -20.4335 509.338 -23.9253 502.531 -24.0885L502.521 -23.6886ZM615.384 138.694C699.111 304.657 743.463 414.327 776.833 485.097C810.193 555.846 832.595 587.763 872.438 598.032L872.538 597.645C832.898 587.428 810.563 555.693 777.195 484.927C743.837 414.184 699.469 304.478 615.741 138.514L615.384 138.694ZM872.438 598.032C901.797 605.599 927.488 597.186 952.359 580.017C977.222 562.854 1001.29 536.923 1027.41 509.422C1079.67 454.403 1140.18 393.065 1231.86 382.651L1231.82 382.254C1139.97 392.686 1079.37 454.137 1027.12 509.147C1000.99 536.66 976.953 562.554 952.132 579.688C927.32 596.816 901.749 605.173 872.538 597.645L872.438 598.032ZM1231.86 382.651C1235.98 382.193 1240.1 381.735 1244.24 381.451L1244.21 381.052C1240.07 381.337 1235.94 381.796 1231.82 382.254L1231.86 382.651ZM1244.24 381.451C1310.48 377.234 1374.29 401.535 1431.89 438.292C1489.5 475.048 1540.89 524.251 1582.28 569.812L1582.58 569.543C1541.17 523.969 1489.76 474.738 1432.11 437.955C1374.46 401.172 1310.57 376.828 1244.21 381.052L1244.24 381.451Z" fill="#242424" mask="url(#path-11-outside-5_3_109)"/>
<mask id="path-13-outside-6_3_109" maskUnits="userSpaceOnUse" x="-5.30078" y="-5.07227" width="1587" height="610" fill="black">
<rect fill="white" x="-5.30078" y="-5.07227" width="1587" height="610"/>
<path d="M-4.30078 566.818C244.397 432.546 370.084 293.04 421.528 203.467C476.269 108.147 458.2 -7.57908 498.945 -3.99085C525.763 -1.62619 556.452 50.7446 609.005 154.895C770.307 474.509 781.718 582.688 860.598 601.765C978.38 630.247 1034.08 392.507 1219.4 365.726C1223.61 365.116 1227.82 364.497 1232.07 364.103C1366.73 351.684 1495.1 460.404 1581.44 553.51"/>
</mask>
<path d="M421.528 203.467L421.702 203.566V203.566L421.528 203.467ZM498.945 -3.99085L498.963 -4.19008L498.963 -4.19008L498.945 -3.99085ZM609.005 154.895L608.827 154.985V154.985L609.005 154.895ZM860.598 601.765L860.551 601.96L860.598 601.765ZM1219.4 365.726L1219.43 365.923H1219.43L1219.4 365.726ZM1232.07 364.103L1232.05 363.904H1232.05L1232.07 364.103ZM-4.20576 566.994C244.516 432.708 370.234 293.179 421.702 203.566L421.355 203.367C369.933 292.9 244.278 432.383 -4.3958 566.642L-4.20576 566.994ZM421.702 203.566C449.092 155.872 458.264 103.076 465.682 62.6837C469.393 42.4773 472.661 25.393 477.542 13.5827C479.982 7.67905 482.818 3.11334 486.296 0.135459C489.767 -2.83629 493.888 -4.23549 498.928 -3.79162L498.963 -4.19008C493.817 -4.64327 489.589 -3.21094 486.036 -0.168387C482.489 2.86804 479.624 7.49943 477.173 13.4299C472.272 25.2878 468.996 42.4198 465.289 62.6114C457.869 103.015 448.705 155.742 421.355 203.367L421.702 203.566ZM498.928 -3.79162C505.57 -3.20593 512.477 0.478735 519.93 7.33371C527.383 14.1877 535.365 24.1954 544.158 37.3933C561.744 63.7889 582.549 102.909 608.827 154.985L609.184 154.805C582.908 102.731 562.092 63.5901 544.491 37.1715C535.69 23.9623 527.688 13.9246 520.201 7.0393C512.716 0.154991 505.729 -3.59345 498.963 -4.19008L498.928 -3.79162ZM608.827 154.985C689.478 314.793 732.646 421.72 765.529 491.117C798.4 560.489 821.008 592.396 860.551 601.96L860.645 601.571C821.309 592.057 798.77 560.336 765.891 490.946C733.022 421.58 689.834 314.612 609.184 154.805L608.827 154.985ZM860.551 601.96C890.075 609.099 915.702 599.548 940.41 580.825C965.111 562.108 988.923 534.205 1014.82 504.601C1066.64 445.372 1126.85 379.302 1219.43 365.923L1219.37 365.528C1126.63 378.93 1066.33 445.12 1014.52 504.337C988.61 533.955 964.829 561.82 940.169 580.506C915.516 599.186 890.012 608.672 860.645 601.571L860.551 601.96ZM1219.43 365.923C1223.64 365.314 1227.85 364.696 1232.09 364.302L1232.05 363.904C1227.8 364.299 1223.58 364.918 1219.37 365.528L1219.43 365.923ZM1232.09 364.302C1299.36 358.098 1365.08 382.151 1424.77 419.404C1484.47 456.657 1538.13 507.099 1581.3 553.646L1581.59 553.374C1538.42 506.814 1484.72 456.344 1424.98 419.065C1365.25 381.786 1299.44 357.689 1232.05 363.904L1232.09 364.302Z" fill="#242424" mask="url(#path-13-outside-6_3_109)"/>
<mask id="path-15-outside-7_3_109" maskUnits="userSpaceOnUse" x="-12.2383" y="14.6611" width="1593" height="594" fill="black">
<rect fill="white" x="-12.2383" y="14.6611" width="1593" height="594"/>
<path d="M-11.2383 551.691C229.305 420.654 359.656 287.527 414.94 204.136C471.817 118.34 455.133 9.74847 495.347 15.9122C522.032 19.9999 552.038 71.3625 602.43 171.182C757.575 478.483 770.423 588.009 848.69 605.689C967.142 632.447 1019.84 381.651 1206.95 348.985C1211.26 348.234 1215.55 347.464 1219.89 346.946C1356.61 330.577 1490.54 442.266 1580.43 537.329"/>
</mask>
<path d="M414.94 204.136L415.107 204.247V204.247L414.94 204.136ZM495.347 15.9122L495.317 16.1099L495.317 16.1099L495.347 15.9122ZM602.43 171.182L602.252 171.272L602.43 171.182ZM848.69 605.689L848.735 605.493L848.69 605.689ZM1206.95 348.985L1206.91 348.788L1206.91 348.788L1206.95 348.985ZM1219.89 346.946L1219.91 347.145H1219.91L1219.89 346.946ZM-11.1426 551.867C229.422 420.818 359.8 287.671 415.107 204.247L414.774 204.026C359.511 287.383 229.189 420.49 -11.334 551.515L-11.1426 551.867ZM415.107 204.247C443.569 161.312 453.623 112.678 461.588 75.581C465.572 57.0217 469.03 41.3704 473.998 30.7414C476.481 25.429 479.332 21.3918 482.797 18.873C486.254 16.3595 490.338 15.3467 495.317 16.1099L495.378 15.7145C490.303 14.9367 486.111 15.9691 482.562 18.5495C479.019 21.1246 476.132 25.2302 473.635 30.572C468.644 41.2514 465.177 56.9545 461.197 75.4971C453.23 112.604 443.188 161.164 414.774 204.026L415.107 204.247ZM495.317 16.1099C501.932 17.1231 508.775 21.07 516.113 28.0058C523.45 34.9406 531.267 44.8494 539.832 57.7583C556.96 83.5761 577.055 121.362 602.252 171.272L602.609 171.092C577.413 121.183 557.309 83.3775 540.165 57.5372C531.593 44.6169 523.756 34.6799 516.388 27.7151C509.02 20.7514 502.105 16.7451 495.378 15.7145L495.317 16.1099ZM602.252 171.272C679.825 324.924 721.812 429.108 754.209 497.129C786.593 565.124 809.407 597.02 848.646 605.884L848.735 605.493C809.707 596.677 786.963 564.971 754.57 496.957C722.19 428.97 680.18 324.741 602.609 171.092L602.252 171.272ZM848.646 605.884C878.342 612.592 903.907 601.896 928.455 581.615C952.995 561.34 976.549 531.458 1002.23 499.747C1053.6 436.302 1113.51 365.501 1206.98 349.182L1206.91 348.788C1113.27 365.136 1053.28 436.064 1001.92 499.495C976.226 531.221 952.702 561.063 928.2 581.307C903.705 601.545 878.264 612.164 848.735 605.493L848.646 605.884ZM1206.98 349.183C1211.3 348.431 1215.58 347.662 1219.91 347.145L1219.87 346.748C1215.52 347.266 1211.23 348.037 1206.91 348.788L1206.98 349.183ZM1219.91 347.145C1288.21 338.968 1355.83 362.774 1417.62 400.521C1479.4 438.267 1535.35 489.941 1580.29 537.466L1580.58 537.191C1535.62 489.654 1479.66 437.952 1417.83 400.18C1356 362.408 1288.29 338.556 1219.87 346.748L1219.91 347.145Z" fill="#242424" mask="url(#path-15-outside-7_3_109)"/>
<mask id="path-17-outside-8_3_109" maskUnits="userSpaceOnUse" x="-19.1797" y="34.2305" width="1599" height="578" fill="black">
<rect fill="white" x="-19.1797" y="34.2305" width="1599" height="578"/>
<path d="M-18.1797 536.563C214.214 408.766 336.031 268.935 408.361 204.805C452.169 118.161 452.061 27.0983 491.758 35.8099C518.309 41.6391 547.634 91.9477 595.868 187.496C744.852 482.483 759.137 593.333 836.792 609.639C955.907 634.646 1005.6 370.753 1194.5 332.268C1198.89 331.374 1203.29 330.457 1207.73 329.807C1346.52 309.528 1486.01 424.127 1579.46 521.17"/>
</mask>
<path d="M408.361 204.805L408.494 204.955L408.522 204.93L408.54 204.895L408.361 204.805ZM491.758 35.8099L491.801 35.6146L491.801 35.6146L491.758 35.8099ZM595.868 187.496L595.69 187.587V187.587L595.868 187.496ZM836.792 609.639L836.751 609.834L836.792 609.639ZM1194.5 332.268L1194.46 332.072L1194.5 332.268ZM1207.73 329.807L1207.7 329.609L1207.73 329.807ZM-18.0833 536.739C214.336 408.927 336.18 269.07 408.494 204.955L408.228 204.656C335.882 268.8 214.092 408.605 -18.2761 536.388L-18.0833 536.739ZM408.54 204.895C430.453 161.554 441.386 117.101 451.792 84.61C456.998 68.3545 462.067 55.1097 468.303 46.4729C471.419 42.1573 474.818 39.004 478.659 37.1975C482.497 35.3927 486.792 34.9248 491.715 36.0053L491.801 35.6146C486.8 34.5172 482.415 34.9893 478.489 36.8355C474.567 38.6799 471.12 41.8885 467.979 46.2387C461.701 54.9336 456.616 68.2362 451.411 84.488C440.995 117.011 430.077 161.411 408.183 204.715L408.54 204.895ZM491.715 36.0053C498.302 37.4514 505.081 41.6613 512.304 48.677C519.526 55.6919 527.179 65.4995 535.515 78.1186C552.187 103.357 571.572 139.811 595.69 187.587L596.047 187.406C571.93 139.633 552.535 103.159 535.849 77.8981C527.505 65.2677 519.834 55.4335 512.583 48.3901C505.332 41.3477 498.489 37.083 491.801 35.6146L491.715 36.0053ZM595.69 187.587C670.184 335.083 710.988 436.516 742.898 503.159C774.795 569.774 797.816 601.659 836.751 609.834L836.833 609.443C798.113 601.313 775.165 569.62 743.259 502.987C711.367 436.382 670.537 334.896 596.047 187.406L595.69 187.587ZM836.751 609.834C866.617 616.105 892.12 604.257 916.505 582.41C940.884 560.569 964.18 528.705 989.636 494.883C1040.57 427.217 1100.17 351.689 1194.54 332.464L1194.46 332.072C1099.92 351.332 1040.24 426.993 989.317 494.643C963.849 528.479 940.581 560.304 916.238 582.112C891.901 603.915 866.524 615.676 836.833 609.443L836.751 609.834ZM1194.54 332.464C1198.93 331.57 1203.32 330.654 1207.76 330.005L1207.7 329.609C1203.25 330.261 1198.85 331.178 1194.46 332.072L1194.54 332.464ZM1207.76 330.005C1277.09 319.875 1346.61 343.431 1410.5 381.665C1474.38 419.897 1532.59 472.793 1579.31 521.309L1579.6 521.031C1532.87 472.504 1474.62 419.58 1410.7 381.321C1346.78 343.064 1277.16 319.46 1207.7 329.609L1207.76 330.005Z" fill="#242424" mask="url(#path-17-outside-8_3_109)"/>
<mask id="path-19-outside-9_3_109" maskUnits="userSpaceOnUse" x="-26.123" y="53.6748" width="1605" height="562" fill="black">
<rect fill="white" x="-26.123" y="53.6748" width="1605" height="562"/>
<path d="M-25.123 521.436C199.125 396.879 324.234 260.774 401.78 205.475C446.141 126.524 448.988 44.4715 488.167 55.7128C514.588 63.2926 543.223 112.538 589.3 203.765C732.106 486.438 747.858 598.599 824.896 613.543C944.68 636.777 991.357 359.75 1182.05 315.505C1186.53 314.464 1191.01 313.401 1195.57 312.622C1336.43 288.467 1481.44 405.957 1578.46 504.966"/>
</mask>
<path d="M401.78 205.475L401.896 205.637L401.933 205.611L401.955 205.573L401.78 205.475ZM488.167 55.7128L488.112 55.9051L488.112 55.9051L488.167 55.7128ZM589.3 203.765L589.122 203.855V203.855L589.3 203.765ZM824.896 613.543L824.857 613.74L824.896 613.543ZM1182.05 315.505L1182.09 315.699V315.699L1182.05 315.505ZM1195.57 312.622L1195.6 312.819L1195.6 312.819L1195.57 312.622ZM-25.0259 521.611C87.1118 459.325 174.461 394.152 243.468 337.638C277.972 309.382 307.89 283.29 334.027 260.809C360.166 238.325 382.518 219.456 401.896 205.637L401.664 205.312C382.269 219.143 359.903 238.024 333.766 260.505C307.627 282.989 277.713 309.077 243.215 337.329C174.22 393.832 86.8905 458.99 -25.2202 521.261L-25.0259 521.611ZM401.955 205.573C424.144 166.081 435.956 125.801 447.103 96.8437C452.681 82.3541 458.086 70.7158 464.529 63.4005C467.747 59.7461 471.218 57.1795 475.09 55.8717C478.96 54.5646 483.247 54.5094 488.112 55.9051L488.222 55.5206C483.292 54.1059 478.92 54.1558 474.962 55.4927C471.006 56.8289 467.479 59.4452 464.229 63.1361C457.733 70.5113 452.307 82.2127 446.73 96.7C435.568 125.696 423.777 165.918 401.606 205.377L401.955 205.573ZM488.112 55.9051C494.672 57.7871 501.387 62.261 508.495 69.3564C515.601 76.451 523.089 86.1556 531.195 98.4811C547.409 123.133 566.083 158.241 589.122 203.855L589.479 203.675C566.44 158.062 547.758 122.934 531.53 98.2613C523.415 85.9246 515.911 76.1949 508.777 69.0733C501.645 61.9526 494.872 57.4284 488.222 55.5206L488.112 55.9051ZM589.122 203.855C660.528 345.198 700.152 443.875 731.581 509.139C762.995 574.372 786.229 606.246 824.857 613.74L824.934 613.347C786.525 605.896 763.364 574.218 731.941 508.966C700.534 443.746 660.879 345.006 589.479 203.675L589.122 203.855ZM824.857 613.74C854.895 619.566 880.335 606.559 904.558 583.143C928.775 559.731 951.812 525.878 977.046 489.944C1027.53 418.052 1086.83 337.803 1182.09 315.699L1182 315.31C1086.57 337.452 1027.19 417.84 976.718 489.714C951.473 525.663 928.463 559.476 904.28 582.855C880.102 606.229 854.788 619.138 824.934 613.347L824.857 613.74ZM1182.09 315.699C1186.57 314.659 1191.05 313.597 1195.6 312.819L1195.54 312.425C1190.97 313.205 1186.48 314.27 1182 315.31L1182.09 315.699ZM1195.6 312.819C1265.97 300.753 1337.38 324.063 1403.35 362.78C1469.32 401.497 1529.81 455.607 1578.32 505.106L1578.6 504.826C1530.09 455.316 1469.56 401.177 1403.55 362.435C1337.55 323.694 1266.03 300.336 1195.54 312.425L1195.6 312.819Z" fill="#242424" mask="url(#path-19-outside-9_3_109)"/>
<mask id="path-21-outside-10_3_109" maskUnits="userSpaceOnUse" x="-33.0645" y="72.9297" width="1611" height="546" fill="black">
<rect fill="white" x="-33.0645" y="72.9297" width="1611" height="546"/>
<path d="M-32.0645 506.308C184.034 384.991 312.434 252.621 395.197 206.143C440.11 134.883 445.917 61.8623 484.578 75.6103C510.865 84.9544 538.818 133.141 582.734 220.052C719.405 490.429 736.585 603.864 812.997 617.461C933.463 638.903 977.103 348.715 1169.6 298.754C1174.17 297.572 1178.75 296.367 1183.41 295.455C1326.33 267.446 1476.89 387.8 1577.47 488.78"/>
</mask>
<path d="M395.197 206.143L395.295 206.318L395.339 206.293L395.366 206.25L395.197 206.143ZM484.578 75.6103L484.511 75.7988V75.7988L484.578 75.6103ZM582.734 220.052L582.556 220.142V220.142L582.734 220.052ZM812.997 617.461L813.032 617.264L812.997 617.461ZM1169.6 298.754L1169.55 298.561V298.561L1169.6 298.754ZM1183.41 295.455L1183.45 295.651V295.651L1183.41 295.455ZM-31.9665 506.483C76.0951 445.817 162.229 382.389 231.69 328.319C301.161 274.241 353.931 229.547 395.295 206.318L395.099 205.969C353.7 229.217 300.888 273.947 231.444 328.003C161.99 382.067 75.8745 445.482 -32.1624 506.134L-31.9665 506.483ZM395.366 206.25C417.831 170.606 430.525 134.504 442.413 109.083C448.362 96.3613 454.102 86.3297 460.752 80.3337C464.073 77.339 467.616 75.3564 471.52 74.545C475.424 73.7337 479.706 74.0902 484.511 75.7988L484.645 75.4219C479.784 73.6935 475.428 73.3245 471.439 74.1534C467.45 74.9822 463.846 77.0054 460.484 80.0366C453.768 86.0921 448 96.1917 442.051 108.914C430.141 134.381 417.475 170.42 395.028 206.037L395.366 206.25ZM484.511 75.7988C491.043 78.1208 497.694 82.8617 504.686 90.0391C511.677 97.2158 519 106.819 526.878 118.853C542.635 142.921 560.597 176.686 582.556 220.142L582.913 219.961C560.955 176.507 542.983 142.723 527.213 118.634C519.327 106.589 511.988 96.9623 504.972 89.76C497.957 82.5584 491.256 77.7719 484.645 75.4219L484.511 75.7988ZM582.556 220.142C616.722 287.733 643.42 345.515 665.443 394.383C687.465 443.247 704.816 483.205 720.283 515.136C751.208 578.982 774.644 610.84 812.962 617.658L813.032 617.264C774.938 610.486 751.578 578.828 720.643 514.962C705.179 483.038 687.833 443.091 665.808 394.218C643.783 345.348 617.082 287.559 582.913 219.961L582.556 220.142ZM812.962 617.658C843.174 623.036 868.552 608.865 892.612 583.874C916.668 558.886 939.444 523.042 964.454 484.994C1014.49 408.872 1073.49 323.906 1169.65 298.948L1169.55 298.561C1073.22 323.563 1014.14 408.672 964.12 484.774C939.099 522.838 916.347 558.642 892.324 583.596C868.304 608.546 843.052 622.608 813.032 617.264L812.962 617.658ZM1169.65 298.948C1174.22 297.765 1178.79 296.562 1183.45 295.651L1183.37 295.259C1178.7 296.172 1174.11 297.379 1169.55 298.561L1169.65 298.948ZM1183.45 295.651C1254.84 281.66 1328.16 304.722 1396.22 343.92C1464.27 383.117 1527.04 438.437 1577.33 488.921L1577.61 488.638C1527.32 438.143 1464.52 382.796 1396.42 343.573C1328.32 304.352 1254.9 281.241 1183.37 295.259L1183.45 295.651Z" fill="#242424" mask="url(#path-21-outside-10_3_109)"/>
<mask id="path-23-outside-11_3_109" maskUnits="userSpaceOnUse" x="-40.002" y="91.959" width="1617" height="531" fill="black">
<rect fill="white" x="-40.002" y="91.959" width="1617" height="531"/>
<path d="M-39.002 491.182C168.951 373.104 300.639 244.464 388.618 206.817C434.082 143.251 442.841 79.2816 480.984 95.5135C507.138 106.64 534.413 153.75 576.172 236.33C706.682 494.38 725.316 609.107 801.098 621.38C922.246 640.998 962.84 337.625 1157.15 282.005C1161.81 280.672 1166.48 279.334 1171.24 278.284C1316.24 246.448 1472.34 369.644 1576.48 472.59"/>
</mask>
<path d="M388.618 206.817L388.696 207.001L388.748 206.979L388.78 206.934L388.618 206.817ZM480.984 95.5135L480.906 95.6975V95.6975L480.984 95.5135ZM576.172 236.33L575.994 236.42V236.42L576.172 236.33ZM801.098 621.38L801.066 621.577L801.098 621.38ZM1157.15 282.005L1157.21 282.198H1157.21L1157.15 282.005ZM1171.24 278.284L1171.2 278.089L1171.2 278.089L1171.24 278.284ZM-38.9032 491.355C65.0843 432.311 150.003 370.625 219.917 318.999C289.842 267.365 344.734 225.813 388.696 207.001L388.539 206.634C344.522 225.469 289.581 267.06 219.679 318.677C149.767 370.302 64.8647 431.975 -39.1007 491.008L-38.9032 491.355ZM388.78 206.934C411.518 175.143 425.096 143.22 437.72 121.341C444.039 110.389 450.111 101.963 456.966 97.2831C460.39 94.9459 464.005 93.5446 467.945 93.2279C471.885 92.9111 476.161 93.6784 480.906 95.6975L481.062 95.3294C476.271 93.2906 471.93 92.5062 467.913 92.8292C463.894 93.1522 460.213 94.5822 456.741 96.9527C449.805 101.688 443.695 110.185 437.373 121.141C424.715 143.08 411.182 174.926 388.455 206.701L388.78 206.934ZM480.906 95.6975C493.922 101.235 507.252 115.747 522.559 139.236C537.86 162.717 555.114 195.13 575.994 236.42L576.351 236.24C555.471 194.95 538.208 162.519 522.894 139.018C507.585 115.525 494.2 100.918 481.062 95.3294L480.906 95.6975ZM575.994 236.42C608.619 300.929 634.253 356.481 655.536 403.715C676.819 450.947 693.754 489.87 708.978 521.109C739.418 583.571 763.061 615.423 801.066 621.577L801.13 621.182C763.353 615.065 739.788 583.417 709.338 520.934C694.117 489.702 677.187 450.791 655.901 403.551C634.617 356.314 608.98 300.756 576.351 236.24L575.994 236.42ZM801.066 621.577C831.453 626.498 856.768 611.155 880.664 584.584C904.558 558.016 927.073 520.175 951.859 480.012C1001.45 399.657 1060.14 309.983 1157.21 282.198L1157.1 281.813C1059.86 309.648 1001.09 399.47 951.518 479.802C926.723 519.982 904.23 557.782 880.367 584.317C856.506 610.849 831.317 626.071 801.13 621.182L801.066 621.577ZM1157.21 282.198C1161.87 280.864 1166.53 279.527 1171.28 278.48L1171.2 278.089C1166.43 279.14 1161.75 280.48 1157.1 281.813L1157.21 282.198ZM1171.28 278.48C1243.72 262.577 1318.94 285.392 1389.08 325.068C1459.23 364.743 1524.27 421.265 1576.34 472.732L1576.62 472.447C1524.54 420.969 1459.47 364.42 1389.28 324.72C1319.09 285.021 1243.77 262.156 1171.2 278.089L1171.28 278.48Z" fill="#242424" mask="url(#path-23-outside-11_3_109)"/>
<mask id="path-25-outside-12_3_109" maskUnits="userSpaceOnUse" x="-46.9453" y="110.703" width="1623" height="516" fill="black">
<rect fill="white" x="-46.9453" y="110.703" width="1623" height="516"/>
<path d="M-45.9453 476.049C153.849 361.221 288.85 236.306 382.041 207.504C428.058 151.632 439.759 96.7271 477.389 115.434C503.4 128.357 530.002 174.367 569.6 252.653C693.953 498.389 714.041 614.372 789.202 625.334C911.04 643.11 948.562 326.544 1144.71 265.296C1149.45 263.816 1154.2 262.336 1159.08 261.172C1306.16 225.528 1467.78 351.537 1575.48 456.453"/>
</mask>
<path d="M382.041 207.504L382.1 207.695L382.157 207.677L382.195 207.631L382.041 207.504ZM477.389 115.434L477.3 115.613L477.3 115.613L477.389 115.434ZM569.6 252.653L569.421 252.743V252.743L569.6 252.653ZM789.202 625.334L789.23 625.136L789.202 625.334ZM1144.71 265.296L1144.65 265.105L1144.65 265.105L1144.71 265.296ZM1159.08 261.172L1159.12 261.366L1159.12 261.366L1159.08 261.172ZM-45.8457 476.222C54.0608 418.803 137.768 358.861 208.139 309.681C278.521 260.492 335.541 222.085 382.1 207.695L381.982 207.313C335.35 221.725 278.274 260.177 207.91 309.353C137.534 358.537 53.843 418.467 -46.045 475.875L-45.8457 476.222ZM382.195 207.631C393.707 193.654 403.071 179.739 411.229 167.024C419.39 154.305 426.336 142.799 433.022 133.62C439.709 124.438 446.113 117.618 453.173 114.251C460.215 110.893 467.937 110.958 477.3 115.613L477.478 115.254C468.025 110.555 460.173 110.47 453 113.89C445.845 117.303 439.392 124.193 432.698 133.384C426.003 142.576 419.044 154.104 410.892 166.808C402.738 179.518 393.383 193.418 381.887 207.377L382.195 207.631ZM477.3 115.613C490.253 122.048 503.382 136.74 518.232 159.641C533.077 182.535 549.623 213.6 569.421 252.743L569.778 252.562C549.98 213.419 533.425 182.337 518.567 159.423C503.714 136.516 490.535 121.742 477.478 115.254L477.3 115.613ZM569.421 252.743C600.508 314.173 625.078 367.495 645.622 413.095C666.165 458.693 682.686 496.576 697.668 527.122C727.624 588.194 751.476 620.034 789.173 625.532L789.23 625.136C751.766 619.672 727.994 588.039 698.027 526.946C683.049 496.408 666.533 458.536 645.987 412.93C625.442 367.328 600.868 314 569.778 252.562L569.421 252.743ZM789.173 625.532C819.736 629.991 844.988 613.473 868.72 585.319C892.45 557.167 914.703 517.329 939.262 475.049C988.397 390.462 1046.78 296.084 1144.77 265.487L1144.65 265.105C1046.49 295.756 988.037 390.285 938.916 474.848C914.347 517.145 892.115 556.943 868.414 585.061C844.713 613.178 819.586 629.565 789.23 625.136L789.173 625.532ZM1144.77 265.487C1149.51 264.007 1154.25 262.528 1159.12 261.366L1159.03 260.977C1154.14 262.143 1149.39 263.625 1144.65 265.105L1144.77 265.487ZM1159.12 261.366C1232.6 243.561 1309.72 266.127 1381.95 306.277C1454.18 346.426 1521.5 404.144 1575.34 456.596L1575.62 456.31C1521.77 403.847 1454.42 346.102 1382.15 305.928C1309.87 265.755 1232.64 243.138 1159.03 260.977L1159.12 261.366Z" fill="#242424" mask="url(#path-25-outside-12_3_109)"/>
<mask id="path-27-outside-13_3_109" maskUnits="userSpaceOnUse" x="-53.8867" y="129.014" width="1629" height="501" fill="black">
<rect fill="white" x="-53.8867" y="129.014" width="1629" height="501"/>
<path d="M-52.8867 460.922C138.762 349.334 277.038 228.15 375.458 208.156C422.027 159.978 436.657 114.16 473.804 135.314C499.664 150.043 525.598 194.953 563.038 268.926C681.252 502.349 702.781 619.574 777.299 629.244C899.827 645.141 934.26 315.353 1132.26 248.538C1137.09 246.907 1141.95 245.293 1146.93 243.978C1296.1 204.567 1463.25 333.34 1574.51 440.245"/>
</mask>
<path d="M375.458 208.156L375.497 208.351L375.558 208.339L375.601 208.295L375.458 208.156ZM473.804 135.314L473.903 135.14V135.14L473.804 135.314ZM563.038 268.926L562.86 269.017L562.86 269.017L563.038 268.926ZM777.299 629.244L777.273 629.442V629.442L777.299 629.244ZM1132.26 248.538L1132.32 248.728L1132.32 248.728L1132.26 248.538ZM1146.93 243.978L1146.98 244.172V244.172L1146.93 243.978ZM-52.7861 461.095C43.0449 405.297 125.535 347.098 196.357 300.358C267.191 253.61 326.332 218.34 375.497 208.351L375.418 207.96C326.163 217.966 266.957 253.285 196.136 300.024C125.302 346.772 42.8307 404.959 -52.9874 460.749L-52.7861 461.095ZM375.601 208.295C387.251 196.243 396.902 184.339 405.404 173.598C413.908 162.854 421.256 153.281 428.309 145.873C435.362 138.465 442.099 133.247 449.369 131.189C456.629 129.133 464.453 130.219 473.705 135.488L473.903 135.14C464.581 129.832 456.647 128.712 449.26 130.804C441.885 132.892 435.088 138.173 428.019 145.598C420.95 153.022 413.587 162.615 405.09 173.35C396.59 184.089 386.949 195.979 375.314 208.016L375.601 208.295ZM473.705 135.488C486.591 142.827 499.517 157.701 513.911 180.012C528.3 202.317 544.14 232.03 562.86 269.017L563.217 268.836C544.496 231.849 528.649 202.12 514.247 179.795C499.848 157.475 486.877 142.53 473.903 135.14L473.705 135.488ZM562.86 269.017C592.411 327.369 615.92 378.459 635.726 422.424C655.531 466.386 671.636 503.231 686.375 533.081C701.113 562.93 714.495 585.805 728.858 601.823C743.227 617.847 758.586 627.017 777.273 629.442L777.324 629.045C758.753 626.635 743.476 617.526 729.156 601.556C714.831 585.581 701.469 562.747 686.734 532.904C671.999 503.062 655.899 466.229 636.091 422.259C616.284 378.292 592.772 327.196 563.217 268.836L562.86 269.017ZM777.273 629.442C808.012 633.43 833.201 615.728 856.766 585.985C880.332 556.242 902.32 514.401 926.653 470.004C950.99 425.598 977.678 378.623 1010.65 338.574C1043.62 298.526 1082.87 265.415 1132.32 248.728L1132.2 248.349C1082.65 265.068 1043.34 298.237 1010.34 338.319C977.343 378.401 950.639 425.406 926.302 469.812C901.96 514.226 879.992 556.028 856.453 585.737C832.913 615.446 807.849 633.006 777.324 629.045L777.273 629.442ZM1132.32 248.728C1137.15 247.096 1142 245.485 1146.98 244.172L1146.88 243.785C1141.89 245.102 1137.02 246.717 1132.2 248.349L1132.32 248.728ZM1146.98 244.172C1221.49 224.485 1300.52 246.8 1374.84 287.419C1449.16 328.036 1518.74 386.942 1574.37 440.389L1574.64 440.101C1519.01 386.643 1449.39 327.71 1375.03 287.068C1300.67 246.427 1221.53 224.061 1146.88 243.785L1146.98 244.172Z" fill="#242424" mask="url(#path-27-outside-13_3_109)"/>
<mask id="path-29-outside-14_3_109" maskUnits="userSpaceOnUse" x="-60.8145" y="146.799" width="1635" height="487" fill="black">
<rect fill="white" x="-60.8145" y="146.799" width="1635" height="487"/>
<path d="M-59.8145 445.794C123.672 337.446 265.239 219.997 368.879 208.833C415.997 168.35 433.548 131.62 470.215 155.216C495.92 171.759 521.194 215.551 556.477 285.213C668.517 506.327 691.517 624.789 765.401 633.171C888.628 647.166 919.946 304.135 1119.81 231.797C1124.73 230.014 1129.68 228.264 1134.75 226.816C1286.02 183.629 1458.68 315.206 1573.53 424.063"/>
</mask>
<path d="M368.879 208.833L368.901 209.032L368.963 209.025L369.01 208.985L368.879 208.833ZM470.215 155.216L470.324 155.048V155.048L470.215 155.216ZM556.477 285.213L556.299 285.303L556.299 285.303L556.477 285.213ZM765.401 633.171L765.423 632.972L765.401 633.171ZM1119.81 231.797L1119.88 231.985L1119.88 231.985L1119.81 231.797ZM1134.75 226.816L1134.81 227.008V227.008L1134.75 226.816ZM-59.7128 445.966C32.0289 391.793 113.313 335.331 184.58 291.039C255.867 246.736 317.132 214.608 368.901 209.032L368.858 208.634C316.986 214.222 255.648 246.401 184.369 290.7C113.071 335.01 31.8283 391.447 -59.9161 445.622L-59.7128 445.966ZM369.01 208.985C380.795 198.859 390.731 188.968 399.575 180.2C408.422 171.43 416.169 163.791 423.587 158.154C431.004 152.518 438.073 148.898 445.558 148.145C453.04 147.393 460.967 149.502 470.107 155.384L470.324 155.048C461.13 149.132 453.113 146.984 445.518 147.747C437.928 148.51 430.789 152.178 423.345 157.836C415.902 163.492 408.135 171.151 399.293 179.916C390.449 188.685 380.522 198.566 368.749 208.682L369.01 208.985ZM470.107 155.384C482.922 163.632 495.648 178.685 509.586 200.403C523.522 222.118 538.657 250.473 556.299 285.303L556.655 285.122C539.014 250.291 523.871 221.92 509.923 200.187C495.977 178.458 483.214 163.344 470.324 155.048L470.107 155.384ZM556.299 285.303C584.307 340.578 606.75 389.437 625.816 431.767C644.881 474.095 660.571 509.9 675.068 539.055C689.565 568.21 702.878 590.734 717.194 606.495C731.515 622.261 746.848 631.267 765.378 633.369L765.423 632.972C747.012 630.883 731.763 621.938 717.49 606.226C703.213 590.508 689.92 568.025 675.427 538.877C660.934 509.73 645.249 473.937 626.181 431.603C607.114 389.271 584.667 340.405 556.655 285.122L556.299 285.303ZM765.378 633.369C796.296 636.881 821.419 617.988 844.818 586.652C868.218 555.314 889.941 511.467 914.044 464.951C938.152 418.425 964.648 369.217 997.602 327.12C1030.56 285.025 1069.96 250.052 1119.88 231.985L1119.74 231.609C1069.73 249.711 1030.27 284.743 997.287 326.874C964.307 369.003 937.797 418.242 913.689 464.767C889.576 511.301 867.873 555.108 844.498 586.413C821.121 617.72 796.119 636.458 765.423 632.972L765.378 633.369ZM1119.88 231.985C1124.8 230.203 1129.74 228.454 1134.81 227.008L1134.7 226.623C1129.62 228.074 1124.66 229.826 1119.74 231.609L1119.88 231.985ZM1134.81 227.008C1210.37 205.435 1291.29 227.507 1367.7 268.599C1444.11 309.69 1515.97 369.785 1573.39 424.208L1573.66 423.918C1516.24 369.485 1444.34 309.362 1367.89 268.247C1291.44 227.133 1210.4 205.009 1134.7 226.623L1134.81 227.008Z" fill="#242424" mask="url(#path-29-outside-14_3_109)"/>
<mask id="path-31-outside-15_3_109" maskUnits="userSpaceOnUse" x="-67.7656" y="163.809" width="1641" height="474" fill="black">
<rect fill="white" x="-67.7656" y="163.809" width="1641" height="474"/>
<path d="M-66.7656 430.667C108.579 325.559 253.443 211.84 362.299 209.498C409.969 176.709 430.427 149.085 466.625 175.128C492.162 193.491 516.788 236.16 549.893 301.513C655.776 510.314 680.234 629.972 753.484 637.103C877.406 649.169 905.596 292.944 1107.34 215.061C1112.35 213.132 1117.4 211.249 1122.57 209.663C1275.94 162.727 1454.11 297.068 1572.49 407.891"/>
</mask>
<path d="M362.299 209.498L362.303 209.698L362.363 209.697L362.413 209.663L362.299 209.498ZM466.625 175.128L466.508 175.29L466.508 175.29L466.625 175.128ZM549.893 301.513L549.714 301.604L549.714 301.604L549.893 301.513ZM753.484 637.103L753.503 636.904L753.484 637.103ZM1107.34 215.061L1107.27 214.875L1107.27 214.875L1107.34 215.061ZM1122.57 209.663L1122.51 209.472L1122.51 209.472L1122.57 209.663ZM-66.6628 430.838C-22.8237 404.56 19.1098 377.743 59.0491 352.265C98.9894 326.786 136.934 302.646 172.801 281.718C244.543 239.856 307.932 210.868 362.303 209.698L362.295 209.298C307.81 210.47 244.34 239.512 172.599 281.372C136.725 302.305 98.7731 326.449 58.834 351.927C18.8937 377.406 -23.035 404.22 -66.8685 430.495L-66.6628 430.838ZM362.413 209.663C374.334 201.463 384.556 193.584 393.739 186.793C402.927 179.999 411.072 174.296 418.853 170.43C426.632 166.565 434.036 164.543 441.742 165.1C449.449 165.657 457.48 168.794 466.508 175.29L466.742 174.966C457.672 168.44 449.571 165.264 441.771 164.701C433.971 164.137 426.495 166.187 418.675 170.072C410.859 173.955 402.688 179.678 393.502 186.472C384.311 193.268 374.099 201.139 362.186 209.333L362.413 209.663ZM466.508 175.29C479.246 184.449 491.77 199.681 505.253 220.807C518.734 241.93 533.162 268.928 549.714 301.604L550.071 301.423C533.519 268.746 519.082 241.732 505.59 220.592C492.099 199.453 479.542 184.169 466.742 174.966L466.508 175.29ZM549.714 301.604C576.183 353.8 597.563 400.425 615.89 441.116C634.216 481.805 649.492 516.566 663.747 545.024C678.002 573.48 691.245 595.652 705.513 611.157C719.786 626.666 735.091 635.513 753.464 637.302L753.503 636.904C735.251 635.127 720.031 626.342 705.808 610.886C691.579 595.424 678.356 573.294 664.105 544.845C649.854 516.397 634.584 481.647 616.255 440.952C597.927 400.259 576.544 353.627 550.071 301.423L549.714 301.604ZM753.464 637.302C784.559 640.329 809.616 620.246 832.847 587.317C856.08 554.384 877.535 508.534 901.409 459.901C925.287 411.259 951.59 359.822 984.528 315.678C1017.46 271.536 1057.03 234.7 1107.42 215.248L1107.27 214.875C1056.79 234.364 1017.17 271.262 984.207 315.439C951.245 359.615 924.928 411.083 901.05 459.725C877.167 508.375 855.73 554.186 832.52 587.086C809.307 619.99 784.37 639.909 753.503 636.904L753.464 637.302ZM1107.42 215.248C1112.42 213.319 1117.46 211.438 1122.63 209.854L1122.51 209.472C1117.33 211.059 1112.28 212.945 1107.27 214.875L1107.42 215.248ZM1122.63 209.854C1199.24 186.409 1282.07 208.234 1360.56 249.794C1439.05 291.353 1513.17 352.63 1572.36 408.037L1572.63 407.745C1513.44 352.329 1439.28 291.024 1360.75 249.441C1282.22 207.859 1199.27 185.981 1122.51 209.472L1122.63 209.854Z" fill="#242424" mask="url(#path-31-outside-15_3_109)"/>
<mask id="path-33-outside-16_3_109" maskUnits="userSpaceOnUse" x="-74.707" y="179.66" width="1647" height="462" fill="black">
<rect fill="white" x="-74.707" y="179.66" width="1647" height="462"/>
<path d="M-73.707 415.54C93.488 313.672 241.644 203.683 355.716 210.168C403.942 185.073 427.291 166.559 463.036 195.017C488.396 215.209 512.38 256.755 543.348 317.796C643.071 514.278 668.987 635.133 741.607 641.021C866.223 651.126 891.264 281.666 1094.92 198.335C1100.01 196.255 1105.15 194.238 1110.45 192.52C1265.91 141.826 1449.58 278.908 1571.52 391.683"/>
</mask>
<path d="M355.716 210.168L355.705 210.367L355.759 210.37L355.808 210.345L355.716 210.168ZM463.036 195.017L463.161 194.861V194.861L463.036 195.017ZM543.348 317.796L543.17 317.887V317.887L543.348 317.796ZM741.607 641.021L741.591 641.221L741.607 641.021ZM1094.92 198.335L1094.84 198.15L1094.84 198.15L1094.92 198.335ZM1110.45 192.52L1110.51 192.71L1110.51 192.71L1110.45 192.52ZM-73.603 415.711C10.0062 364.77 88.8289 311.815 161.021 272.397C233.216 232.978 298.729 207.128 355.705 210.367L355.727 209.968C298.63 206.722 233.03 232.624 160.83 272.046C88.6275 311.469 9.77476 364.442 -73.8111 415.369L-73.603 415.711ZM355.808 210.345C367.875 204.066 378.363 198.211 387.894 193.39C397.42 188.572 405.961 184.802 414.106 182.704C422.249 180.606 429.992 180.179 437.923 182.044C445.857 183.91 453.992 188.072 462.911 195.174L463.161 194.861C454.208 187.733 446.02 183.538 438.015 181.655C430.008 179.772 422.198 180.206 414.007 182.316C405.818 184.426 397.246 188.211 387.713 193.033C378.186 197.852 367.67 203.722 355.624 209.99L355.808 210.345ZM462.911 195.174C475.566 205.249 487.887 220.661 500.92 241.195C513.951 261.727 527.686 287.367 543.17 317.887L543.526 317.706C528.042 287.184 514.3 261.53 501.258 240.981C488.216 220.433 475.866 204.977 463.161 194.861L462.911 195.174ZM543.17 317.887C568.098 367.003 588.415 411.394 606.002 450.445C623.589 489.495 638.449 523.211 652.463 550.971C666.475 578.73 679.65 600.55 693.87 615.8C708.094 631.054 723.374 639.744 741.591 641.221L741.623 640.822C723.53 639.355 708.338 630.729 694.162 615.527C679.982 600.32 666.829 578.542 652.82 550.791C638.811 523.041 623.956 489.336 606.367 450.281C588.779 411.228 568.459 366.83 543.526 317.706L543.17 317.887ZM741.591 641.221C772.862 643.756 797.851 622.473 820.912 587.944C843.976 553.41 865.161 505.552 888.804 454.801C912.451 404.042 938.561 350.378 971.482 304.197C1004.4 258.017 1044.13 219.334 1094.99 198.52L1094.84 198.15C1043.88 219.002 1004.1 257.75 971.157 303.965C938.212 350.179 912.088 403.873 888.442 454.632C864.791 505.4 843.622 553.22 820.579 587.722C797.532 622.229 772.66 643.339 741.623 640.822L741.591 641.221ZM1094.99 198.52C1100.08 196.44 1105.22 194.426 1110.51 192.71L1110.39 192.329C1105.08 194.05 1099.93 196.069 1094.84 198.15L1094.99 198.52ZM1110.51 192.71C1188.16 167.388 1272.89 188.958 1353.46 230.978C1434.03 272.996 1510.42 335.447 1571.38 391.83L1571.66 391.536C1510.68 335.144 1434.26 272.666 1353.65 230.623C1273.03 188.582 1188.19 166.958 1110.39 192.33L1110.51 192.71Z" fill="#242424" mask="url(#path-33-outside-16_3_109)"/>
<mask id="path-35-outside-17_3_109" maskUnits="userSpaceOnUse" x="-81.6484" y="162.212" width="1653" height="484" fill="black">
<rect fill="white" x="-81.6484" y="162.212" width="1653" height="484"/>
<path d="M-80.6484 400.412C78.4011 301.788 229.844 195.544 349.137 210.836C397.889 193.422 424.142 184.041 459.447 214.919C484.617 236.939 507.975 277.353 536.782 334.069C630.348 518.237 657.723 640.269 729.708 644.925C855.019 653.036 876.893 270.365 1082.47 181.553C1087.65 179.316 1092.88 177.172 1098.26 175.316C1255.86 120.947 1445.04 260.76 1570.53 375.519"/>
</mask>
<path d="M349.137 210.836L349.111 211.034L349.159 211.04L349.204 211.024L349.137 210.836ZM459.447 214.919L459.579 214.769V214.769L459.447 214.919ZM536.782 334.069L536.604 334.159V334.159L536.782 334.069ZM729.708 644.925L729.721 644.726H729.721L729.708 644.925ZM1082.47 181.553L1082.39 181.369V181.369L1082.47 181.553ZM1098.26 175.316L1098.33 175.505L1098.26 175.316ZM-80.543 400.582C-1.01072 351.265 76.6002 300.056 149.244 263.084C221.891 226.109 289.528 203.396 349.111 211.034L349.162 210.638C289.453 202.983 221.723 225.746 149.062 262.727C76.3988 299.71 -1.23666 350.935 -80.7538 400.242L-80.543 400.582ZM349.204 211.024C373.591 202.314 392.31 195.629 409.343 194.968C426.353 194.308 441.694 199.658 459.315 215.07L459.579 214.769C441.895 199.302 426.457 193.904 409.327 194.568C392.219 195.232 373.435 201.944 349.07 210.648L349.204 211.024ZM459.315 215.07C484.451 237.06 507.793 277.437 536.604 334.159L536.96 333.978C508.157 277.27 484.783 236.818 459.579 214.769L459.315 215.07ZM536.604 334.159C559.993 380.197 579.246 422.352 596.095 459.763C612.942 497.173 627.388 529.844 641.159 556.905C654.93 583.964 668.035 605.431 682.207 620.426C696.383 635.425 711.635 643.957 729.695 645.125L729.721 644.726C711.788 643.566 696.624 635.098 682.498 620.151C668.367 605.2 655.283 583.775 641.516 556.723C627.75 529.673 613.309 497.014 596.459 459.599C579.61 422.187 560.354 380.024 536.96 333.978L536.604 334.159ZM729.695 645.125C761.143 647.16 786.062 624.672 808.952 588.541C831.847 552.403 852.761 502.535 876.172 449.666C899.587 396.788 925.503 340.897 958.41 292.676C991.316 244.455 1031.2 203.919 1082.55 181.736L1082.39 181.369C1030.95 203.593 991.009 244.195 958.079 292.45C925.15 340.705 899.221 396.627 875.806 449.504C852.388 502.391 831.489 552.221 808.614 588.327C785.735 624.442 760.929 646.746 729.721 644.726L729.695 645.125ZM1082.55 181.736C1087.72 179.501 1092.96 177.358 1098.33 175.505L1098.2 175.127C1092.81 176.985 1087.57 179.132 1082.39 181.369L1082.55 181.736ZM1098.33 175.505C1177.05 148.346 1263.69 169.68 1346.35 212.172C1429 254.662 1507.65 318.291 1570.39 375.666L1570.66 375.371C1507.91 317.987 1429.23 254.33 1346.53 211.816C1263.83 169.304 1177.07 147.916 1098.2 175.127L1098.33 175.505Z" fill="#242424" mask="url(#path-35-outside-17_3_109)"/>
<mask id="path-37-outside-18_3_109" maskUnits="userSpaceOnUse" x="-88.5898" y="143.776" width="1659" height="506" fill="black">
<rect fill="white" x="-88.5898" y="143.776" width="1659" height="506"/>
<path d="M-87.5898 385.267C63.3098 289.883 218.045 187.355 342.554 211.492C391.88 201.781 420.98 201.502 455.849 234.799C480.829 258.629 503.566 297.935 530.212 350.356C617.621 522.206 646.454 645.407 717.805 648.853C843.815 654.957 862.505 259.078 1070.02 164.84C1075.28 162.448 1080.62 160.175 1086.1 158.182C1245.83 100.087 1440.48 242.617 1569.54 359.361"/>
</mask>
<path d="M342.554 211.492L342.515 211.688L342.554 211.696L342.592 211.688L342.554 211.492ZM455.849 234.799L455.711 234.944L455.711 234.944L455.849 234.799ZM530.212 350.356L530.033 350.447V350.447L530.212 350.356ZM717.805 648.853L717.815 648.653H717.815L717.805 648.853ZM1070.02 164.84L1070.1 165.022L1070.1 165.022L1070.02 164.84ZM1086.1 158.182L1086.03 157.994V157.994L1086.1 158.182ZM-87.483 385.436C-12.0285 337.741 64.3679 288.271 137.464 253.74C210.563 219.207 280.325 199.632 342.515 211.688L342.592 211.295C280.273 199.215 210.414 218.835 137.293 253.378C64.1695 287.923 -12.2515 337.409 -87.6967 385.098L-87.483 385.436ZM342.592 211.688C367.254 206.833 386.83 204.343 404.591 207.215C422.342 210.086 438.299 218.317 455.711 234.944L455.987 234.655C438.53 217.984 422.502 209.706 404.655 206.82C386.817 203.935 367.18 206.44 342.515 211.296L342.592 211.688ZM455.711 234.944C480.663 258.747 503.386 298.022 530.033 350.447L530.39 350.265C503.746 297.848 480.996 258.512 455.987 234.655L455.711 234.944ZM530.033 350.447C551.883 393.405 570.073 433.323 586.183 469.093C602.292 504.861 616.323 536.486 629.852 562.847C643.381 589.208 656.417 610.322 670.54 625.064C684.667 639.81 699.893 648.188 717.795 649.053L717.815 648.653C700.042 647.795 684.907 639.481 670.829 624.787C656.747 610.089 643.733 589.017 630.208 562.665C616.684 536.314 602.659 504.702 586.548 468.929C570.437 433.158 552.245 393.232 530.39 350.265L530.033 350.447ZM717.795 649.053C749.42 650.585 774.27 626.89 796.989 589.157C819.713 551.413 840.355 499.537 863.533 444.553C886.714 389.559 912.437 331.446 945.329 281.192C978.221 230.938 1018.27 188.56 1070.1 165.022L1069.94 164.658C1018.01 188.239 977.909 230.685 944.995 280.973C912.081 331.26 886.346 389.404 863.164 444.397C839.979 499.4 819.351 551.238 796.646 588.95C773.935 626.672 749.195 650.173 717.815 648.653L717.795 649.053ZM1070.1 165.022C1075.36 162.631 1080.69 160.361 1086.17 158.37L1086.03 157.994C1080.54 159.989 1075.2 162.265 1069.94 164.658L1070.1 165.022ZM1086.17 158.37C1165.96 129.35 1254.49 150.432 1339.23 193.385C1423.97 236.337 1504.88 301.142 1569.4 359.509L1569.67 359.213C1505.14 300.836 1424.19 236.004 1339.41 193.029C1254.63 150.055 1165.97 128.918 1086.03 157.994L1086.17 158.37Z" fill="#242424" mask="url(#path-37-outside-18_3_109)"/>
<mask id="path-39-outside-19_3_109" maskUnits="userSpaceOnUse" x="-95.5273" y="125.284" width="1665" height="528" fill="black">
<rect fill="white" x="-95.5273" y="125.284" width="1665" height="528"/>
<path d="M-94.5273 370.143C48.2181 278.032 204.61 236.756 335.978 212.179C385.136 202.981 417.814 219.002 452.264 254.72C477.041 280.383 499.165 318.556 523.654 366.665C604.902 526.211 635.189 650.548 705.91 652.798C832.606 656.826 848.099 247.749 1057.58 148.085C1062.92 145.547 1068.36 143.141 1073.94 141.01C1235.81 79.2216 1435.91 224.46 1568.55 343.156"/>
</mask>
<path d="M335.978 212.179L336.015 212.375H336.015L335.978 212.179ZM452.264 254.72L452.12 254.859L452.12 254.859L452.264 254.72ZM523.654 366.665L523.476 366.756V366.756L523.654 366.665ZM705.91 652.798L705.904 652.998L705.91 652.798ZM1057.58 148.085L1057.49 147.905L1057.49 147.905L1057.58 148.085ZM1073.94 141.01L1073.86 140.823L1073.86 140.823L1073.94 141.01ZM-94.4189 370.312C48.2945 278.22 204.657 236.95 336.015 212.375L335.942 211.982C204.563 236.561 48.1418 277.843 -94.6358 369.975L-94.4189 370.312ZM336.015 212.375C360.564 207.782 380.983 209.488 399.563 216.792C418.147 224.098 434.905 237.011 452.12 254.859L452.408 254.581C435.172 236.711 418.367 223.755 399.71 216.42C381.049 209.084 360.551 207.378 335.942 211.982L336.015 212.375ZM452.12 254.859C476.874 280.498 498.987 318.647 523.476 366.756L523.832 366.575C499.344 318.466 477.208 280.268 452.408 254.581L452.12 254.859ZM523.476 366.756C543.785 406.638 560.911 444.32 576.281 478.448C591.649 512.573 605.265 543.149 618.552 568.81C631.839 594.469 644.804 615.229 658.879 629.716C672.958 644.208 688.158 652.433 705.904 652.998L705.917 652.598C688.302 652.038 673.195 643.878 659.166 629.437C645.133 614.993 632.189 594.275 618.907 568.626C605.627 542.977 592.016 512.414 576.645 478.283C561.275 444.155 544.146 406.466 523.832 366.574L523.476 366.756ZM705.904 652.998C737.702 654.009 762.48 629.096 785.024 589.751C807.575 550.394 827.942 496.504 850.886 439.401C873.833 382.289 899.362 321.952 932.241 269.665C965.12 217.379 1005.34 173.159 1057.66 148.266L1057.49 147.905C1005.07 172.843 964.802 217.132 931.902 269.453C899.002 321.773 873.462 382.14 850.515 439.252C827.564 496.373 807.21 550.226 784.677 589.552C762.137 628.89 737.466 653.601 705.917 652.598L705.904 652.998ZM1057.66 148.266C1063 145.729 1068.44 143.325 1074.01 141.197L1073.86 140.823C1068.28 142.956 1062.83 145.364 1057.49 147.905L1057.66 148.266ZM1074.01 141.197C1154.86 110.332 1245.3 131.167 1332.12 174.58C1418.93 217.992 1502.1 283.962 1568.42 343.305L1568.68 343.007C1502.36 283.655 1419.16 217.657 1332.29 174.223C1245.43 130.79 1154.88 109.899 1073.86 140.823L1074.01 141.197Z" fill="#242424" mask="url(#path-39-outside-19_3_109)"/>
<mask id="path-41-outside-20_3_109" maskUnits="userSpaceOnUse" x="-102.469" y="106.895" width="1671" height="551" fill="black">
<rect fill="white" x="-102.469" y="106.895" width="1671" height="551"/>
<path d="M-101.469 355.021C33.1398 266.117 191.477 183.959 329.399 212.839C379.153 223.26 414.63 236.472 448.675 274.613C473.241 302.109 494.757 339.146 517.088 382.948C592.184 530.18 623.916 655.644 694.012 656.712C821.389 658.655 833.673 236.398 1045.12 131.336C1050.56 128.641 1056.1 126.121 1061.77 123.843C1225.91 58.7189 1431.37 206.309 1567.57 326.975"/>
</mask>
<path d="M329.399 212.839L329.44 212.643H329.44L329.399 212.839ZM448.675 274.613L448.526 274.746L448.526 274.747L448.675 274.613ZM517.088 382.948L516.91 383.039V383.039L517.088 382.948ZM694.012 656.712L694.015 656.512L694.012 656.712ZM1045.12 131.336L1045.04 131.157L1045.04 131.157L1045.12 131.336ZM1061.77 123.843L1061.7 123.657L1061.7 123.658L1061.77 123.843ZM-101.359 355.188C-34.0592 310.739 39.1633 267.983 112.794 239.948C186.426 211.913 260.449 198.605 329.358 213.035L329.44 212.643C260.428 198.192 186.321 211.524 112.652 239.574C38.9809 267.624 -34.2698 310.399 -101.579 354.854L-101.359 355.188ZM329.358 213.035C379.092 223.451 414.521 236.65 448.526 274.746L448.824 274.48C414.739 236.293 379.213 223.068 329.44 212.643L329.358 213.035ZM448.526 274.747C473.073 302.222 494.58 339.24 516.91 383.039L517.266 382.857C494.934 339.053 473.408 301.997 448.824 274.48L448.526 274.747ZM516.91 383.039C535.681 419.842 551.743 455.285 566.374 487.769C581.003 520.25 594.203 549.776 607.248 574.734C620.291 599.691 633.187 620.096 647.214 634.331C661.244 648.569 676.417 656.644 694.009 656.912L694.015 656.512C676.558 656.246 661.479 648.238 647.499 634.05C633.514 619.859 620.641 599.496 607.602 574.549C594.565 549.603 581.37 520.09 566.739 487.605C552.108 455.121 536.042 419.67 517.266 382.857L516.91 383.039ZM694.009 656.912C725.979 657.4 750.682 631.268 773.051 590.312C795.427 549.342 815.518 493.441 838.227 434.223C860.939 374.996 886.273 312.44 919.14 258.126C952.007 203.812 992.398 157.757 1045.21 131.515L1045.04 131.157C992.125 157.446 951.686 203.571 918.798 257.919C885.911 312.266 860.566 374.852 837.854 434.079C815.138 493.316 795.059 549.181 772.7 590.12C750.332 631.074 725.733 656.996 694.015 656.512L694.009 656.912ZM1045.21 131.515C1050.64 128.823 1056.18 126.304 1061.85 124.029L1061.7 123.658C1056.02 125.938 1050.47 128.46 1045.04 131.157L1045.21 131.515ZM1061.85 124.029C1143.84 91.4979 1236.17 112.086 1325.06 155.917C1413.94 199.745 1499.34 266.796 1567.44 327.125L1567.7 326.825C1499.6 266.488 1414.17 199.41 1325.24 155.558C1236.31 111.708 1143.85 91.0643 1061.7 123.657L1061.85 124.029Z" fill="#242424" mask="url(#path-41-outside-20_3_109)"/>
<mask id="path-43-outside-21_3_109" maskUnits="userSpaceOnUse" x="-109.412" y="88.3086" width="1677" height="573" fill="black">
<rect fill="white" x="-109.412" y="88.3086" width="1677" height="573"/>
<path d="M-108.412 339.898C18.038 254.234 180.742 169.313 322.819 213.513C373.215 229.195 411.436 253.955 445.084 294.516C469.43 323.845 490.35 359.755 510.52 399.239C579.459 534.162 612.641 661.061 682.111 660.644C810.166 659.874 819.075 224.722 1032.68 114.6C1038.18 111.741 1043.83 109.103 1049.61 106.686C1215.85 37.7122 1426.82 188.157 1566.56 310.789"/>
</mask>
<path d="M322.819 213.513L322.878 213.322V213.322L322.819 213.513ZM445.084 294.516L444.93 294.644L444.93 294.644L445.084 294.516ZM510.52 399.239L510.342 399.33H510.342L510.52 399.239ZM682.111 660.644L682.112 660.844L682.111 660.644ZM1032.68 114.6L1032.77 114.778L1032.77 114.778L1032.68 114.6ZM1049.61 106.686L1049.53 106.501L1049.53 106.502L1049.61 106.686ZM-108.3 340.064C-45.0807 297.236 27.1916 254.6 101.41 228.195C175.629 201.79 251.777 191.621 322.759 213.704L322.878 213.322C251.783 191.204 175.541 201.397 101.276 227.818C27.0112 254.24 -45.2934 296.897 -108.524 339.733L-108.3 340.064ZM322.759 213.704C373.12 229.375 411.308 254.114 444.93 294.644L445.238 294.388C411.564 253.796 373.309 229.015 322.878 213.322L322.759 213.704ZM444.93 294.644C469.262 323.956 490.174 359.85 510.342 399.33L510.698 399.148C490.526 359.66 469.598 323.734 445.238 294.388L444.93 294.644ZM510.342 399.33C527.574 433.056 542.572 466.281 556.463 497.145C570.353 528.007 583.138 556.512 595.94 580.788C608.741 605.062 621.567 625.123 635.546 639.091C649.528 653.062 664.676 660.949 682.112 660.844L682.11 660.444C664.812 660.548 649.76 652.729 635.828 638.808C621.893 624.883 609.089 604.865 596.293 580.601C583.499 556.339 570.72 527.847 556.828 496.981C542.937 466.118 527.935 432.884 510.698 399.148L510.342 399.33ZM682.112 660.844C698.182 660.748 712.374 653.835 725.317 641.623C738.256 629.413 749.955 611.899 761.05 590.578C783.238 547.939 803.038 490.014 825.502 428.698C847.969 367.373 873.104 302.646 905.968 246.37C938.832 190.093 979.415 142.284 1032.77 114.778L1032.58 114.423C979.137 141.977 938.506 189.858 905.622 246.168C872.739 302.478 847.593 367.235 825.126 428.56C802.656 489.894 782.868 547.784 760.695 590.394C749.609 611.697 737.935 629.166 725.042 641.332C712.153 653.494 698.054 660.348 682.11 660.444L682.112 660.844ZM1032.77 114.778C1038.27 111.921 1043.91 109.285 1049.68 106.871L1049.53 106.502C1043.74 108.92 1038.1 111.561 1032.58 114.423L1032.77 114.778ZM1049.68 106.871C1132.72 72.4165 1226.96 92.7562 1317.93 137.065C1408.9 181.372 1496.56 249.628 1566.43 310.939L1566.69 310.639C1496.82 249.318 1409.12 181.036 1318.11 136.705C1227.1 92.3775 1132.73 71.9818 1049.53 106.501L1049.68 106.871Z" fill="#242424" mask="url(#path-43-outside-21_3_109)"/>
<mask id="path-45-outside-22_3_109" maskUnits="userSpaceOnUse" x="-116.354" y="69.6981" width="1683" height="596" fill="black">
<rect fill="white" x="-116.354" y="69.6981" width="1683" height="596"/>
<path d="M-115.354 324.775C2.94672 242.356 170.849 154.758 316.235 214.19C535.406 303.8 554.367 666.679 670.217 664.571C802.28 662.17 804.981 190.086 1037.44 89.528C1205.78 16.7093 1422.29 170.009 1565.57 294.616"/>
</mask>
<path d="M316.235 214.19L316.311 214.005L316.235 214.19ZM670.217 664.571L670.213 664.371L670.217 664.571ZM1037.44 89.528L1037.36 89.3445L1037.44 89.528ZM-115.239 324.939C-56.0963 283.734 15.4363 241.242 90.3465 216.478C165.257 191.714 243.526 184.684 316.16 214.376L316.311 214.005C243.558 184.265 165.184 191.317 90.2209 216.098C15.2583 240.88 -56.3105 283.396 -115.468 324.611L-115.239 324.939ZM316.16 214.376C425.662 259.147 485.168 372.193 531.79 473.858C555.093 524.676 575.182 572.657 596.683 607.794C618.179 642.922 641.14 665.3 670.221 664.771L670.213 664.371C641.369 664.896 618.516 642.705 597.025 607.585C575.539 572.475 555.467 524.531 532.153 473.692C485.539 372.042 425.978 258.844 316.311 214.005L316.16 214.376ZM670.221 664.771C686.795 664.47 701.328 656.798 714.52 643.438C727.71 630.08 739.568 611.027 750.8 587.936C773.263 541.756 793.252 479.36 816.369 413.925C839.489 348.48 865.742 279.984 900.737 221.566C935.733 163.149 979.461 114.828 1037.52 89.7116L1037.36 89.3445C979.195 114.507 935.412 162.906 900.394 221.361C865.376 279.816 839.113 348.345 815.992 413.792C792.868 479.248 772.891 541.608 750.44 587.761C739.216 610.836 727.38 629.845 714.236 643.157C701.094 656.466 686.655 664.072 670.213 664.371L670.221 664.771ZM1037.52 89.7116C1121.61 53.3366 1217.76 73.4285 1310.82 118.218C1403.87 163.005 1493.8 232.468 1565.44 294.767L1565.7 294.466C1494.06 232.158 1404.09 162.667 1310.99 117.857C1217.89 73.0493 1121.61 52.9008 1037.36 89.3445L1037.52 89.7116Z" fill="#242424" mask="url(#path-45-outside-22_3_109)"/>
</g>
</g>
</g>
</svg>
