<svg width="991" height="734" viewBox="0 0 991 734" fill="none" xmlns="http://www.w3.org/2000/svg">
<g opacity="0.5">
<path d="M630.001 721.002C828.824 721.002 990.002 559.824 990.002 361.001C990.002 162.178 828.824 1 630.001 1C431.178 1 270 162.178 270 361.001C270 559.824 431.178 721.002 630.001 721.002Z" stroke="#07242B" stroke-width="0.2" stroke-miterlimit="10"/>
<path d="M630.001 707.09C821.141 707.09 976.09 552.141 976.09 361.001C976.09 169.861 821.141 14.912 630.001 14.912C438.861 14.912 283.912 169.861 283.912 361.001C283.912 552.141 438.861 707.09 630.001 707.09Z" stroke="#07242B" stroke-width="0.2" stroke-miterlimit="10"/>
<path d="M630.001 693.174C813.455 693.174 962.174 544.455 962.174 361.001C962.174 177.547 813.455 28.8281 630.001 28.8281C446.547 28.8281 297.828 177.547 297.828 361.001C297.828 544.455 446.547 693.174 630.001 693.174Z" stroke="#07242B" stroke-width="0.2" stroke-miterlimit="10"/>
<path d="M630.001 679.262C805.772 679.262 948.262 536.772 948.262 361.001C948.262 185.23 805.772 42.7402 630.001 42.7402C454.23 42.7402 311.74 185.23 311.74 361.001C311.74 536.772 454.23 679.262 630.001 679.262Z" stroke="#07242B" stroke-width="0.2" stroke-miterlimit="10"/>
<path d="M630.001 665.35C798.088 665.35 934.35 529.088 934.35 361.001C934.35 192.914 798.088 56.6522 630.001 56.6522C461.914 56.6522 325.652 192.914 325.652 361.001C325.652 529.088 461.914 665.35 630.001 665.35Z" stroke="#07242B" stroke-width="0.2" stroke-miterlimit="10"/>
<path d="M630.001 651.438C790.405 651.438 920.438 521.405 920.438 361.001C920.438 200.597 790.405 70.5645 630.001 70.5645C469.597 70.5645 339.564 200.597 339.564 361.001C339.564 521.405 469.597 651.438 630.001 651.438Z" stroke="#07242B" stroke-width="0.2" stroke-miterlimit="10"/>
<path d="M630.001 637.522C782.719 637.522 906.522 513.719 906.522 361.001C906.522 208.283 782.719 84.4802 630.001 84.4802C477.283 84.4802 353.48 208.283 353.48 361.001C353.48 513.719 477.283 637.522 630.001 637.522Z" stroke="#07242B" stroke-width="0.2" stroke-miterlimit="10"/>
<path d="M630.001 623.61C775.036 623.61 892.61 506.036 892.61 361.001C892.61 215.967 775.036 98.3926 630.001 98.3926C484.967 98.3926 367.393 215.967 367.393 361.001C367.393 506.036 484.967 623.61 630.001 623.61Z" stroke="#07242B" stroke-width="0.2" stroke-miterlimit="10"/>
<path d="M630.001 609.698C767.353 609.698 878.698 498.353 878.698 361.001C878.698 223.65 767.353 112.305 630.001 112.305C492.65 112.305 381.305 223.65 381.305 361.001C381.305 498.353 492.65 609.698 630.001 609.698Z" stroke="#07242B" stroke-width="0.2" stroke-miterlimit="10"/>
<path d="M630.002 595.786C759.67 595.786 864.786 490.67 864.786 361.002C864.786 231.333 759.67 126.217 630.002 126.217C500.333 126.217 395.217 231.333 395.217 361.002C395.217 490.67 500.333 595.786 630.002 595.786Z" stroke="#07242B" stroke-width="0.2" stroke-miterlimit="10"/>
<path d="M630.002 581.87C751.984 581.87 850.87 482.984 850.87 361.002C850.87 239.019 751.984 140.133 630.002 140.133C508.019 140.133 409.133 239.019 409.133 361.002C409.133 482.984 508.019 581.87 630.002 581.87Z" stroke="#07242B" stroke-width="0.2" stroke-miterlimit="10"/>
<path d="M630.002 567.958C744.301 567.958 836.958 475.301 836.958 361.002C836.958 246.703 744.301 154.045 630.002 154.045C515.703 154.045 423.045 246.703 423.045 361.002C423.045 475.301 515.703 567.958 630.002 567.958Z" stroke="#07242B" stroke-width="0.2" stroke-miterlimit="10"/>
<path d="M630.002 554.045C736.617 554.045 823.046 467.616 823.046 361.001C823.046 254.385 736.617 167.956 630.002 167.956C523.386 167.956 436.957 254.385 436.957 361.001C436.957 467.616 523.386 554.045 630.002 554.045Z" stroke="#07242B" stroke-width="0.2" stroke-miterlimit="10"/>
<path d="M630.002 540.133C728.934 540.133 809.134 459.933 809.134 361.001C809.134 262.069 728.934 181.868 630.002 181.868C531.07 181.868 450.869 262.069 450.869 361.001C450.869 459.933 531.07 540.133 630.002 540.133Z" stroke="#07242B" stroke-width="0.2" stroke-miterlimit="10"/>
<path d="M630.002 526.217C721.248 526.217 795.218 452.247 795.218 361.001C795.218 269.754 721.248 195.784 630.002 195.784C538.755 195.784 464.785 269.754 464.785 361.001C464.785 452.247 538.755 526.217 630.002 526.217Z" stroke="#07242B" stroke-width="0.2" stroke-miterlimit="10"/>
<path d="M630.002 512.305C713.565 512.305 781.306 444.564 781.306 361.001C781.306 277.438 713.565 209.696 630.002 209.696C546.439 209.696 478.697 277.438 478.697 361.001C478.697 444.564 546.439 512.305 630.002 512.305Z" stroke="#07242B" stroke-width="0.2" stroke-miterlimit="10"/>
<path d="M630.002 498.393C705.882 498.393 767.394 436.881 767.394 361.001C767.394 285.121 705.882 223.608 630.002 223.608C554.122 223.608 492.609 285.121 492.609 361.001C492.609 436.881 554.122 498.393 630.002 498.393Z" stroke="#07242B" stroke-width="0.2" stroke-miterlimit="10"/>
<path d="M630.002 484.481C698.198 484.481 753.482 429.197 753.482 361.001C753.482 292.805 698.198 237.521 630.002 237.521C561.806 237.521 506.521 292.805 506.521 361.001C506.521 429.197 561.806 484.481 630.002 484.481Z" stroke="#07242B" stroke-width="0.2" stroke-miterlimit="10"/>
<path d="M630.002 470.565C690.513 470.565 739.566 421.512 739.566 361.001C739.566 300.49 690.513 251.437 630.002 251.437C569.491 251.437 520.438 300.49 520.438 361.001C520.438 421.512 569.491 470.565 630.002 470.565Z" stroke="#07242B" stroke-width="0.2" stroke-miterlimit="10"/>
<path d="M630.002 456.653C682.829 456.653 725.654 413.828 725.654 361.001C725.654 308.174 682.829 265.349 630.002 265.349C577.175 265.349 534.35 308.174 534.35 361.001C534.35 413.828 577.175 456.653 630.002 456.653Z" stroke="#07242B" stroke-width="0.2" stroke-miterlimit="10"/>
<path d="M630.002 442.741C675.146 442.741 711.742 406.145 711.742 361.001C711.742 315.857 675.146 279.261 630.002 279.261C584.858 279.261 548.262 315.857 548.262 361.001C548.262 406.145 584.858 442.741 630.002 442.741Z" stroke="#07242B" stroke-width="0.2" stroke-miterlimit="10"/>
<path d="M630.002 428.829C667.463 428.829 697.83 398.462 697.83 361.001C697.83 323.541 667.463 293.173 630.002 293.173C592.542 293.173 562.174 323.541 562.174 361.001C562.174 398.462 592.542 428.829 630.002 428.829Z" stroke="#07242B" stroke-width="0.2" stroke-miterlimit="10"/>
<path d="M630.002 414.913C659.777 414.913 683.914 390.776 683.914 361.001C683.914 331.226 659.777 307.089 630.002 307.089C600.227 307.089 576.09 331.226 576.09 361.001C576.09 390.776 600.227 414.913 630.002 414.913Z" stroke="#07242B" stroke-width="0.2" stroke-miterlimit="10"/>
<path d="M630 401.001C652.092 401.001 670 383.093 670 361.001C670 338.91 652.092 321.001 630 321.001C607.909 321.001 590 338.91 590 361.001C590 383.093 607.909 401.001 630 401.001Z" stroke="#07242B" stroke-width="0.2" stroke-miterlimit="10"/>
</g>
<g opacity="0.5">
<path d="M222.001 733.002C344.057 733.002 443.002 634.057 443.002 512.001C443.002 389.946 344.057 291 222.001 291C99.9456 291 1 389.946 1 512.001C1 634.057 99.9456 733.002 222.001 733.002Z" stroke="#07242B" stroke-width="0.1" stroke-miterlimit="10"/>
<path d="M222.002 724.461C339.34 724.461 434.462 629.339 434.462 512.001C434.462 394.662 339.34 299.54 222.002 299.54C104.663 299.54 9.54102 394.662 9.54102 512.001C9.54102 629.339 104.663 724.461 222.002 724.461Z" stroke="#07242B" stroke-width="0.1" stroke-miterlimit="10"/>
<path d="M222.002 715.918C334.622 715.918 425.919 624.621 425.919 512.001C425.919 399.38 334.622 308.083 222.002 308.083C109.381 308.083 18.084 399.38 18.084 512.001C18.084 624.621 109.381 715.918 222.002 715.918Z" stroke="#07242B" stroke-width="0.1" stroke-miterlimit="10"/>
<path d="M222 707.379C329.904 707.379 417.378 619.905 417.378 512.001C417.378 404.097 329.904 316.624 222 316.624C114.096 316.624 26.623 404.097 26.623 512.001C26.623 619.905 114.096 707.379 222 707.379Z" stroke="#07242B" stroke-width="0.1" stroke-miterlimit="10"/>
<path d="M222.001 698.838C325.188 698.838 408.838 615.188 408.838 512.001C408.838 408.814 325.188 325.164 222.001 325.164C118.814 325.164 35.1641 408.814 35.1641 512.001C35.1641 615.188 118.814 698.838 222.001 698.838Z" stroke="#07242B" stroke-width="0.1" stroke-miterlimit="10"/>
<path d="M222.001 690.298C320.472 690.298 400.298 610.472 400.298 512.001C400.298 413.531 320.472 333.705 222.001 333.705C123.531 333.705 43.7051 413.531 43.7051 512.001C43.7051 610.472 123.531 690.298 222.001 690.298Z" stroke="#07242B" stroke-width="0.1" stroke-miterlimit="10"/>
<path d="M222.001 681.755C315.754 681.755 391.755 605.754 391.755 512.001C391.755 418.249 315.754 342.248 222.001 342.248C128.249 342.248 52.248 418.249 52.248 512.001C52.248 605.754 128.249 681.755 222.001 681.755Z" stroke="#07242B" stroke-width="0.1" stroke-miterlimit="10"/>
<path d="M222.002 673.214C311.037 673.214 383.215 601.036 383.215 512.001C383.215 422.966 311.037 350.788 222.002 350.788C132.967 350.788 60.7891 422.966 60.7891 512.001C60.7891 601.036 132.967 673.214 222.002 673.214Z" stroke="#07242B" stroke-width="0.1" stroke-miterlimit="10"/>
<path d="M222.001 664.674C306.319 664.674 374.673 596.32 374.673 512.002C374.673 427.683 306.319 359.329 222.001 359.329C137.682 359.329 69.3281 427.683 69.3281 512.002C69.3281 596.32 137.682 664.674 222.001 664.674Z" stroke="#07242B" stroke-width="0.1" stroke-miterlimit="10"/>
<path d="M222.001 656.133C301.603 656.133 366.133 591.603 366.133 512.001C366.133 432.399 301.603 367.869 222.001 367.869C142.399 367.869 77.8691 432.399 77.8691 512.001C77.8691 591.603 142.399 656.133 222.001 656.133Z" stroke="#07242B" stroke-width="0.1" stroke-miterlimit="10"/>
<path d="M222.001 647.59C296.885 647.59 357.59 586.885 357.59 512.001C357.59 437.117 296.885 376.412 222.001 376.412C147.117 376.412 86.412 437.117 86.412 512.001C86.412 586.885 147.117 647.59 222.001 647.59Z" stroke="#07242B" stroke-width="0.1" stroke-miterlimit="10"/>
<path d="M222.002 639.049C292.169 639.049 349.05 582.168 349.05 512.001C349.05 441.834 292.169 384.952 222.002 384.952C151.835 384.952 94.9531 441.834 94.9531 512.001C94.9531 582.168 151.835 639.049 222.002 639.049Z" stroke="#07242B" stroke-width="0.1" stroke-miterlimit="10"/>
<path d="M222 630.509C287.451 630.509 340.508 577.452 340.508 512.001C340.508 446.551 287.451 393.493 222 393.493C156.55 393.493 103.492 446.551 103.492 512.001C103.492 577.452 156.55 630.509 222 630.509Z" stroke="#07242B" stroke-width="0.1" stroke-miterlimit="10"/>
<path d="M222.001 621.969C282.735 621.969 331.969 572.735 331.969 512.001C331.969 451.268 282.735 402.033 222.001 402.033C161.268 402.033 112.033 451.268 112.033 512.001C112.033 572.735 161.268 621.969 222.001 621.969Z" stroke="#07242B" stroke-width="0.1" stroke-miterlimit="10"/>
<path d="M222.001 613.426C278.016 613.426 323.426 568.016 323.426 512.001C323.426 455.986 278.016 410.576 222.001 410.576C165.986 410.576 120.576 455.986 120.576 512.001C120.576 568.016 165.986 613.426 222.001 613.426Z" stroke="#07242B" stroke-width="0.1" stroke-miterlimit="10"/>
<path d="M222.001 604.886C273.3 604.886 314.886 563.3 314.886 512.001C314.886 460.703 273.3 419.117 222.001 419.117C170.703 419.117 129.117 460.703 129.117 512.001C129.117 563.3 170.703 604.886 222.001 604.886Z" stroke="#07242B" stroke-width="0.1" stroke-miterlimit="10"/>
<path d="M222.002 596.345C268.584 596.345 306.346 558.583 306.346 512.001C306.346 465.419 268.584 427.657 222.002 427.657C175.42 427.657 137.658 465.419 137.658 512.001C137.658 558.583 175.42 596.345 222.002 596.345Z" stroke="#07242B" stroke-width="0.1" stroke-miterlimit="10"/>
<path d="M222.001 587.804C263.866 587.804 297.804 553.866 297.804 512.001C297.804 470.136 263.866 436.197 222.001 436.197C180.136 436.197 146.197 470.136 146.197 512.001C146.197 553.866 180.136 587.804 222.001 587.804Z" stroke="#07242B" stroke-width="0.1" stroke-miterlimit="10"/>
<path d="M222.001 579.261C259.148 579.261 289.261 549.148 289.261 512.001C289.261 474.854 259.148 444.74 222.001 444.74C184.854 444.74 154.74 474.854 154.74 512.001C154.74 549.148 184.854 579.261 222.001 579.261Z" stroke="#07242B" stroke-width="0.1" stroke-miterlimit="10"/>
<path d="M222.001 570.721C254.431 570.721 280.721 544.431 280.721 512.001C280.721 479.571 254.431 453.281 222.001 453.281C189.571 453.281 163.281 479.571 163.281 512.001C163.281 544.431 189.571 570.721 222.001 570.721Z" stroke="#07242B" stroke-width="0.1" stroke-miterlimit="10"/>
<path d="M222.002 562.18C249.715 562.18 272.181 539.714 272.181 512.001C272.181 484.287 249.715 461.821 222.002 461.821C194.288 461.821 171.822 484.287 171.822 512.001C171.822 539.714 194.288 562.18 222.002 562.18Z" stroke="#07242B" stroke-width="0.1" stroke-miterlimit="10"/>
<path d="M222 553.64C244.997 553.64 263.639 534.998 263.639 512.001C263.639 489.005 244.997 470.362 222 470.362C199.004 470.362 180.361 489.005 180.361 512.001C180.361 534.998 199.004 553.64 222 553.64Z" stroke="#07242B" stroke-width="0.1" stroke-miterlimit="10"/>
<path d="M222 545.098C240.279 545.098 255.097 530.28 255.097 512.001C255.097 493.723 240.279 478.905 222 478.905C203.722 478.905 188.904 493.723 188.904 512.001C188.904 530.28 203.722 545.098 222 545.098Z" stroke="#07242B" stroke-width="0.1" stroke-miterlimit="10"/>
<path d="M222.001 536.557C235.563 536.557 246.557 525.563 246.557 512.001C246.557 498.439 235.563 487.445 222.001 487.445C208.439 487.445 197.445 498.439 197.445 512.001C197.445 525.563 208.439 536.557 222.001 536.557Z" stroke="#07242B" stroke-width="0.1" stroke-miterlimit="10"/>
</g>
<g opacity="0.5">
<path d="M266.001 454.002C388.057 454.002 487.002 355.057 487.002 233.001C487.002 110.946 388.057 12 266.001 12C143.946 12 45 110.946 45 233.001C45 355.057 143.946 454.002 266.001 454.002Z" stroke="#07242B" stroke-width="0.1" stroke-miterlimit="10"/>
<path d="M266.002 445.461C383.34 445.461 478.462 350.339 478.462 233.001C478.462 115.662 383.34 20.54 266.002 20.54C148.663 20.54 53.541 115.662 53.541 233.001C53.541 350.339 148.663 445.461 266.002 445.461Z" stroke="#07242B" stroke-width="0.1" stroke-miterlimit="10"/>
<path d="M266.002 436.918C378.622 436.918 469.919 345.621 469.919 233.001C469.919 120.38 378.622 29.083 266.002 29.083C153.381 29.083 62.084 120.38 62.084 233.001C62.084 345.621 153.381 436.918 266.002 436.918Z" stroke="#07242B" stroke-width="0.1" stroke-miterlimit="10"/>
<path d="M266 428.379C373.904 428.379 461.378 340.905 461.378 233.001C461.378 125.097 373.904 37.624 266 37.624C158.096 37.624 70.623 125.097 70.623 233.001C70.623 340.905 158.096 428.379 266 428.379Z" stroke="#07242B" stroke-width="0.1" stroke-miterlimit="10"/>
<path d="M266.001 419.838C369.188 419.838 452.838 336.188 452.838 233.001C452.838 129.814 369.188 46.1641 266.001 46.1641C162.814 46.1641 79.1641 129.814 79.1641 233.001C79.1641 336.188 162.814 419.838 266.001 419.838Z" stroke="#07242B" stroke-width="0.1" stroke-miterlimit="10"/>
<path d="M266.001 411.298C364.472 411.298 444.298 331.472 444.298 233.001C444.298 134.531 364.472 54.7051 266.001 54.7051C167.531 54.7051 87.7051 134.531 87.7051 233.001C87.7051 331.472 167.531 411.298 266.001 411.298Z" stroke="#07242B" stroke-width="0.1" stroke-miterlimit="10"/>
<path d="M266.001 402.755C359.754 402.755 435.755 326.754 435.755 233.001C435.755 139.249 359.754 63.248 266.001 63.248C172.249 63.248 96.248 139.249 96.248 233.001C96.248 326.754 172.249 402.755 266.001 402.755Z" stroke="#07242B" stroke-width="0.1" stroke-miterlimit="10"/>
<path d="M266.002 394.214C355.037 394.214 427.215 322.036 427.215 233.001C427.215 143.966 355.037 71.7881 266.002 71.7881C176.967 71.7881 104.789 143.966 104.789 233.001C104.789 322.036 176.967 394.214 266.002 394.214Z" stroke="#07242B" stroke-width="0.1" stroke-miterlimit="10"/>
<path d="M266.001 385.674C350.319 385.674 418.673 317.32 418.673 233.002C418.673 148.683 350.319 80.3291 266.001 80.3291C181.682 80.3291 113.328 148.683 113.328 233.002C113.328 317.32 181.682 385.674 266.001 385.674Z" stroke="#07242B" stroke-width="0.1" stroke-miterlimit="10"/>
<path d="M266.001 377.133C345.603 377.133 410.133 312.603 410.133 233.001C410.133 153.399 345.603 88.8691 266.001 88.8691C186.399 88.8691 121.869 153.399 121.869 233.001C121.869 312.603 186.399 377.133 266.001 377.133Z" stroke="#07242B" stroke-width="0.1" stroke-miterlimit="10"/>
<path d="M266.001 368.59C340.885 368.59 401.59 307.885 401.59 233.001C401.59 158.117 340.885 97.412 266.001 97.412C191.117 97.412 130.412 158.117 130.412 233.001C130.412 307.885 191.117 368.59 266.001 368.59Z" stroke="#07242B" stroke-width="0.1" stroke-miterlimit="10"/>
<path d="M266.002 360.049C336.169 360.049 393.05 303.168 393.05 233.001C393.05 162.834 336.169 105.952 266.002 105.952C195.835 105.952 138.953 162.834 138.953 233.001C138.953 303.168 195.835 360.049 266.002 360.049Z" stroke="#07242B" stroke-width="0.1" stroke-miterlimit="10"/>
<path d="M266 351.509C331.451 351.509 384.508 298.452 384.508 233.001C384.508 167.551 331.451 114.493 266 114.493C200.55 114.493 147.492 167.551 147.492 233.001C147.492 298.452 200.55 351.509 266 351.509Z" stroke="#07242B" stroke-width="0.1" stroke-miterlimit="10"/>
<path d="M266.001 342.969C326.735 342.969 375.969 293.735 375.969 233.001C375.969 172.268 326.735 123.033 266.001 123.033C205.268 123.033 156.033 172.268 156.033 233.001C156.033 293.735 205.268 342.969 266.001 342.969Z" stroke="#07242B" stroke-width="0.1" stroke-miterlimit="10"/>
<path d="M266.001 334.426C322.016 334.426 367.426 289.016 367.426 233.001C367.426 176.986 322.016 131.576 266.001 131.576C209.986 131.576 164.576 176.986 164.576 233.001C164.576 289.016 209.986 334.426 266.001 334.426Z" stroke="#07242B" stroke-width="0.1" stroke-miterlimit="10"/>
<path d="M266.001 325.886C317.3 325.886 358.886 284.3 358.886 233.001C358.886 181.703 317.3 140.117 266.001 140.117C214.703 140.117 173.117 181.703 173.117 233.001C173.117 284.3 214.703 325.886 266.001 325.886Z" stroke="#07242B" stroke-width="0.1" stroke-miterlimit="10"/>
<path d="M266.002 317.345C312.584 317.345 350.346 279.583 350.346 233.001C350.346 186.419 312.584 148.657 266.002 148.657C219.42 148.657 181.658 186.419 181.658 233.001C181.658 279.583 219.42 317.345 266.002 317.345Z" stroke="#07242B" stroke-width="0.1" stroke-miterlimit="10"/>
<path d="M266.001 308.804C307.866 308.804 341.804 274.866 341.804 233.001C341.804 191.136 307.866 157.197 266.001 157.197C224.136 157.197 190.197 191.136 190.197 233.001C190.197 274.866 224.136 308.804 266.001 308.804Z" stroke="#07242B" stroke-width="0.1" stroke-miterlimit="10"/>
<path d="M266.001 300.261C303.148 300.261 333.261 270.148 333.261 233.001C333.261 195.854 303.148 165.74 266.001 165.74C228.854 165.74 198.74 195.854 198.74 233.001C198.74 270.148 228.854 300.261 266.001 300.261Z" stroke="#07242B" stroke-width="0.1" stroke-miterlimit="10"/>
<path d="M266.001 291.721C298.431 291.721 324.721 265.431 324.721 233.001C324.721 200.571 298.431 174.281 266.001 174.281C233.571 174.281 207.281 200.571 207.281 233.001C207.281 265.431 233.571 291.721 266.001 291.721Z" stroke="#07242B" stroke-width="0.1" stroke-miterlimit="10"/>
<path d="M266.002 283.18C293.715 283.18 316.181 260.714 316.181 233.001C316.181 205.287 293.715 182.821 266.002 182.821C238.288 182.821 215.822 205.287 215.822 233.001C215.822 260.714 238.288 283.18 266.002 283.18Z" stroke="#07242B" stroke-width="0.1" stroke-miterlimit="10"/>
<path d="M266 274.64C288.997 274.64 307.639 255.998 307.639 233.001C307.639 210.005 288.997 191.362 266 191.362C243.004 191.362 224.361 210.005 224.361 233.001C224.361 255.998 243.004 274.64 266 274.64Z" stroke="#07242B" stroke-width="0.1" stroke-miterlimit="10"/>
<path d="M266 266.098C284.279 266.098 299.097 251.28 299.097 233.001C299.097 214.723 284.279 199.905 266 199.905C247.722 199.905 232.904 214.723 232.904 233.001C232.904 251.28 247.722 266.098 266 266.098Z" stroke="#07242B" stroke-width="0.1" stroke-miterlimit="10"/>
<path d="M266.001 257.557C279.563 257.557 290.557 246.563 290.557 233.001C290.557 219.439 279.563 208.445 266.001 208.445C252.439 208.445 241.445 219.439 241.445 233.001C241.445 246.563 252.439 257.557 266.001 257.557Z" stroke="#07242B" stroke-width="0.1" stroke-miterlimit="10"/>
</g>
</svg>
