<svg width="32" height="29" viewBox="0 0 32 29" fill="none" xmlns="http://www.w3.org/2000/svg">
<path d="M5.33779 28.9749C3.92212 28.9749 2.56443 28.4334 1.5634 27.4694C0.562373 26.5054 0 25.198 0 23.8348C0 22.4716 0.562373 21.1641 1.5634 20.2002C2.56443 19.2362 3.92212 18.6947 5.33779 18.6947C6.75347 18.6947 8.11115 19.2362 9.11219 20.2002C10.1132 21.1641 10.6756 22.4716 10.6756 23.8348C10.6756 25.198 10.1132 26.5054 9.11219 27.4694C8.11115 28.4334 6.75347 28.9749 5.33779 28.9749ZM31.3115 21.2635L20.6359 3.45681C19.9281 2.2759 18.7621 1.41413 17.3944 1.06108C16.0268 0.708034 14.5695 0.892624 13.3432 1.57425C12.1168 2.25587 11.2219 3.37869 10.8553 4.69569C10.4887 6.0127 10.6803 7.41602 11.3882 8.59693L22.0651 26.4036C22.7809 27.5692 23.9454 28.4159 25.3056 28.7596C26.6658 29.1034 28.1119 28.9165 29.3299 28.2395C30.5479 27.5625 31.4393 26.4502 31.8106 25.144C32.1818 23.8378 32.0016 22.4434 31.3115 21.2635ZM10.027 5.73388L2.08708 18.9748C3.05619 18.3731 4.18471 18.0528 5.33779 18.0522C8.75398 18.0419 11.5096 20.8253 11.3348 24.1111L15.6277 16.9496L10.8104 8.91819C10.2334 7.95262 9.96123 6.84607 10.027 5.73388Z" fill="#242424"/>
</svg>
