<svg width="20" height="20" viewBox="0 0 20 20" fill="none" xmlns="http://www.w3.org/2000/svg">
<path d="M0.59 9.58L9.59 0.58C9.95 0.22 10.45 0 11 0H18C19.11 0 20 0.89 20 2V9C20 9.55 19.78 10.05 19.41 10.41L10.42 19.41C10.05 19.77 9.55 20 9 20C8.45 20 7.95 19.77 7.59 19.41L7.17 19C10.4 18.9 13 16.26 13 13C13 9.69 10.31 7 7 7C3.74 7 1.1 9.6 1 12.83L0.59 12.41C0.219999 12.05 0 11.55 0 11C0 10.44 0.23 9.94 0.59 9.58ZM16.5 5C17.33 5 18 4.33 18 3.5C18 2.67 17.33 2 16.5 2C15.67 2 15 2.67 15 3.5C15 4.33 15.67 5 16.5 5ZM6.89 8.61C4.39 8.61 2.39 10.61 2.39 13.11C2.39 14 2.64 14.82 3.08 15.5L0 18.61L1.39 20L4.5 16.93C5.2 17.36 6 17.61 6.89 17.61C9.39 17.61 11.39 15.61 11.39 13.11C11.39 10.61 9.39 8.61 6.89 8.61ZM6.89 10.61C7.38445 10.61 7.8678 10.7566 8.27893 11.0313C8.69005 11.306 9.01048 11.6965 9.1997 12.1533C9.38892 12.6101 9.43843 13.1128 9.34196 13.5977C9.2455 14.0827 9.0074 14.5281 8.65777 14.8778C8.30814 15.2274 7.86268 15.4655 7.37773 15.562C6.89277 15.6584 6.39011 15.6089 5.93329 15.4197C5.47647 15.2305 5.08603 14.91 4.81133 14.4989C4.53662 14.0878 4.39 13.6045 4.39 13.11C4.39 11.72 5.5 10.61 6.89 10.61Z" fill="#242424"/>
</svg>
