<svg width="29" height="29" viewBox="0 0 29 29" fill="none" xmlns="http://www.w3.org/2000/svg">
<path d="M21.3684 3.69466C20.9636 3.69466 20.5754 3.54669 20.2892 3.2833C20.0029 3.01992 19.8421 2.66269 19.8421 2.2902C19.8421 1.91772 20.0029 1.56049 20.2892 1.2971C20.5754 1.03371 20.9636 0.885742 21.3684 0.885742H27.4737C27.8785 0.885742 28.2667 1.03371 28.553 1.2971C28.8392 1.56049 29 1.91772 29 2.2902V7.90804C29 8.28052 28.8392 8.63775 28.553 8.90114C28.2667 9.16452 27.8785 9.31249 27.4737 9.31249C27.0689 9.31249 26.6807 9.16452 26.3944 8.90114C26.1082 8.63775 25.9474 8.28052 25.9474 7.90804V5.68056L17.1054 13.8166C16.8192 14.0799 16.431 14.2278 16.0263 14.2278C15.6216 14.2278 15.2334 14.0799 14.9472 13.8166L10.6842 9.89394L2.60542 17.3277C2.31755 17.5836 1.932 17.7251 1.53181 17.7219C1.13161 17.7187 0.748795 17.571 0.465803 17.3106C0.182812 17.0502 0.022291 16.698 0.0188134 16.3297C0.0153358 15.9615 0.16918 15.6067 0.447211 15.3418L9.60511 6.91508C9.89133 6.65179 10.2795 6.50388 10.6842 6.50388C11.0889 6.50388 11.4771 6.65179 11.7633 6.91508L16.0263 10.8377L23.7892 3.69466H21.3684ZM3.05263 23.3571V27.5705C3.05263 27.9429 2.89182 28.3002 2.60558 28.5636C2.31934 28.8269 1.93112 28.9749 1.52632 28.9749C1.12151 28.9749 0.733287 28.8269 0.447047 28.5636C0.160808 28.3002 0 27.9429 0 27.5705V23.3571C0 22.9846 0.160808 22.6274 0.447047 22.364C0.733287 22.1006 1.12151 21.9526 1.52632 21.9526C1.93112 21.9526 2.31934 22.1006 2.60558 22.364C2.89182 22.6274 3.05263 22.9846 3.05263 23.3571ZM10.6842 17.7392C10.6842 17.3668 10.5234 17.0095 10.2372 16.7461C9.95092 16.4828 9.5627 16.3348 9.1579 16.3348C8.75309 16.3348 8.36487 16.4828 8.07863 16.7461C7.79239 17.0095 7.63158 17.3668 7.63158 17.7392V27.5705C7.63158 27.9429 7.79239 28.3002 8.07863 28.5636C8.36487 28.8269 8.75309 28.9749 9.1579 28.9749C9.5627 28.9749 9.95092 28.8269 10.2372 28.5636C10.5234 28.3002 10.6842 27.9429 10.6842 27.5705V17.7392ZM16.7895 19.1437C17.1943 19.1437 17.5825 19.2917 17.8687 19.5551C18.155 19.8184 18.3158 20.1757 18.3158 20.5482V27.5705C18.3158 27.9429 18.155 28.3002 17.8687 28.5636C17.5825 28.8269 17.1943 28.9749 16.7895 28.9749C16.3847 28.9749 15.9964 28.8269 15.7102 28.5636C15.424 28.3002 15.2632 27.9429 15.2632 27.5705V20.5482C15.2632 20.1757 15.424 19.8184 15.7102 19.5551C15.9964 19.2917 16.3847 19.1437 16.7895 19.1437ZM25.9474 13.5259C25.9474 13.1534 25.7866 12.7962 25.5003 12.5328C25.2141 12.2694 24.8259 12.1214 24.4211 12.1214C24.0162 12.1214 23.628 12.2694 23.3418 12.5328C23.0555 12.7962 22.8947 13.1534 22.8947 13.5259V27.5705C22.8947 27.9429 23.0555 28.3002 23.3418 28.5636C23.628 28.8269 24.0162 28.9749 24.4211 28.9749C24.8259 28.9749 25.2141 28.8269 25.5003 28.5636C25.7866 28.3002 25.9474 27.9429 25.9474 27.5705V13.5259Z" fill="#242424"/>
</svg>
