<svg width="452" height="456" viewBox="0 0 452 456" fill="none" xmlns="http://www.w3.org/2000/svg">
<g filter="url(#filter0_d_221_243)">
<circle cx="107.961" cy="103.961" r="96.9608" fill="white" shape-rendering="crispEdges"/>
<circle cx="107.961" cy="103.961" r="97.4608" stroke="#07242B" stroke-opacity="0.4" shape-rendering="crispEdges"/>
</g>
<g filter="url(#filter1_d_221_243)">
<circle cx="344.039" cy="103.961" r="96.9608" fill="white" shape-rendering="crispEdges"/>
<circle cx="344.039" cy="103.961" r="97.4608" stroke="#07242B" stroke-opacity="0.4" shape-rendering="crispEdges"/>
</g>
<line x1="226.203" y1="439.107" x2="226.203" y2="10.5127" stroke="#242424" stroke-dasharray="2 2"/>
<path d="M317.575 125.35C316.208 125.35 315.025 125.108 314.025 124.625C313.042 124.142 312.283 123.458 311.75 122.575C311.217 121.692 310.95 120.667 310.95 119.5V119.25H314.2V119.475C314.2 120.308 314.475 121.025 315.025 121.625C315.592 122.208 316.425 122.5 317.525 122.5C318.625 122.5 319.467 122.208 320.05 121.625C320.65 121.025 320.95 120.25 320.95 119.3V119.05C320.95 118.117 320.65 117.375 320.05 116.825C319.467 116.275 318.733 116 317.85 116C317.367 116 316.967 116.067 316.65 116.2C316.333 116.333 316.075 116.5 315.875 116.7C315.675 116.9 315.508 117.1 315.375 117.3H311.5V107.5H323.45V110.4H314.7V114.675H315.15C315.317 114.458 315.542 114.25 315.825 114.05C316.108 113.85 316.475 113.683 316.925 113.55C317.375 113.417 317.908 113.35 318.525 113.35C319.558 113.35 320.5 113.567 321.35 114C322.2 114.433 322.875 115.075 323.375 115.925C323.892 116.758 324.15 117.792 324.15 119.025V119.325C324.15 120.558 323.883 121.625 323.35 122.525C322.833 123.425 322.083 124.125 321.1 124.625C320.117 125.108 318.942 125.35 317.575 125.35ZM333.09 125.35C331.024 125.35 329.365 124.783 328.115 123.65C326.865 122.5 326.24 120.767 326.24 118.45V114.05C326.24 111.8 326.865 110.092 328.115 108.925C329.365 107.742 331.024 107.15 333.09 107.15C335.174 107.15 336.832 107.742 338.065 108.925C339.315 110.092 339.94 111.8 339.94 114.05V118.45C339.94 120.767 339.315 122.5 338.065 123.65C336.832 124.783 335.174 125.35 333.09 125.35ZM333.09 122.5C334.34 122.5 335.257 122.158 335.84 121.475C336.44 120.792 336.74 119.817 336.74 118.55V113.9C336.74 112.617 336.407 111.65 335.74 111C335.09 110.333 334.207 110 333.09 110C331.94 110 331.04 110.342 330.39 111.025C329.757 111.708 329.44 112.667 329.44 113.9V118.55C329.44 119.867 329.74 120.858 330.34 121.525C330.957 122.175 331.874 122.5 333.09 122.5ZM349.301 125.35C347.235 125.35 345.576 124.783 344.326 123.65C343.076 122.5 342.451 120.767 342.451 118.45V114.05C342.451 111.8 343.076 110.092 344.326 108.925C345.576 107.742 347.235 107.15 349.301 107.15C351.385 107.15 353.043 107.742 354.276 108.925C355.526 110.092 356.151 111.8 356.151 114.05V118.45C356.151 120.767 355.526 122.5 354.276 123.65C353.043 124.783 351.385 125.35 349.301 125.35ZM349.301 122.5C350.551 122.5 351.468 122.158 352.051 121.475C352.651 120.792 352.951 119.817 352.951 118.55V113.9C352.951 112.617 352.618 111.65 351.951 111C351.301 110.333 350.418 110 349.301 110C348.151 110 347.251 110.342 346.601 111.025C345.968 111.708 345.651 112.667 345.651 113.9V118.55C345.651 119.867 345.951 120.858 346.551 121.525C347.168 122.175 348.085 122.5 349.301 122.5ZM365.512 125.35C363.445 125.35 361.787 124.783 360.537 123.65C359.287 122.5 358.662 120.767 358.662 118.45V114.05C358.662 111.8 359.287 110.092 360.537 108.925C361.787 107.742 363.445 107.15 365.512 107.15C367.595 107.15 369.254 107.742 370.487 108.925C371.737 110.092 372.362 111.8 372.362 114.05V118.45C372.362 120.767 371.737 122.5 370.487 123.65C369.254 124.783 367.595 125.35 365.512 125.35ZM365.512 122.5C366.762 122.5 367.679 122.158 368.262 121.475C368.862 120.792 369.162 119.817 369.162 118.55V113.9C369.162 112.617 368.829 111.65 368.162 111C367.512 110.333 366.629 110 365.512 110C364.362 110 363.462 110.342 362.812 111.025C362.179 111.708 361.862 112.667 361.862 113.9V118.55C361.862 119.867 362.162 120.858 362.762 121.525C363.379 122.175 364.295 122.5 365.512 122.5ZM379.898 121.475V117.675H376.148V114.825H379.898V111.025H382.848V114.825H386.598V117.675H382.848V121.475H379.898Z" fill="black"/>
<path d="M308.849 141V133.665H310.004V134.91H310.214C310.374 134.56 310.644 134.245 311.024 133.965C311.414 133.675 311.984 133.53 312.734 133.53C313.284 133.53 313.774 133.645 314.204 133.875C314.644 134.105 314.994 134.445 315.254 134.895C315.514 135.345 315.644 135.9 315.644 136.56V141H314.459V136.65C314.459 135.92 314.274 135.39 313.904 135.06C313.544 134.73 313.054 134.565 312.434 134.565C311.724 134.565 311.144 134.795 310.694 135.255C310.254 135.715 310.034 136.4 310.034 137.31V141H308.849ZM321.408 141.21C320.668 141.21 320.018 141.055 319.458 140.745C318.898 140.425 318.463 139.98 318.153 139.41C317.843 138.84 317.688 138.18 317.688 137.43V137.25C317.688 136.49 317.843 135.825 318.153 135.255C318.463 134.685 318.893 134.245 319.443 133.935C319.993 133.615 320.623 133.455 321.333 133.455C322.023 133.455 322.633 133.605 323.163 133.905C323.693 134.195 324.108 134.615 324.408 135.165C324.708 135.715 324.858 136.36 324.858 137.1V137.64H318.873C318.903 138.43 319.158 139.05 319.638 139.5C320.118 139.94 320.718 140.16 321.438 140.16C322.068 140.16 322.553 140.015 322.893 139.725C323.233 139.435 323.493 139.09 323.673 138.69L324.693 139.185C324.543 139.495 324.333 139.805 324.063 140.115C323.803 140.425 323.458 140.685 323.028 140.895C322.608 141.105 322.068 141.21 321.408 141.21ZM318.888 136.665H323.658C323.618 135.985 323.383 135.455 322.953 135.075C322.533 134.695 321.993 134.505 321.333 134.505C320.663 134.505 320.113 134.695 319.683 135.075C319.253 135.455 318.988 135.985 318.888 136.665ZM327.798 141L326.328 133.665H327.528L328.743 140.205H328.953L330.558 133.665H332.523L334.128 140.205H334.338L335.553 133.665H336.753L335.283 141H333.258L331.638 134.46H331.443L329.823 141H327.798ZM346.017 141.21C345.307 141.21 344.667 141.06 344.097 140.76C343.537 140.45 343.092 140.01 342.762 139.44C342.442 138.87 342.282 138.195 342.282 137.415V137.25C342.282 136.46 342.442 135.785 342.762 135.225C343.092 134.655 343.537 134.22 344.097 133.92C344.667 133.61 345.307 133.455 346.017 133.455C346.717 133.455 347.312 133.585 347.802 133.845C348.302 134.105 348.692 134.45 348.972 134.88C349.262 135.31 349.447 135.77 349.527 136.26L348.372 136.5C348.322 136.14 348.202 135.81 348.012 135.51C347.832 135.21 347.577 134.97 347.247 134.79C346.917 134.61 346.512 134.52 346.032 134.52C345.542 134.52 345.102 134.63 344.712 134.85C344.332 135.07 344.027 135.385 343.797 135.795C343.577 136.205 343.467 136.695 343.467 137.265V137.4C343.467 137.97 343.577 138.46 343.797 138.87C344.027 139.28 344.332 139.595 344.712 139.815C345.102 140.035 345.542 140.145 346.032 140.145C346.762 140.145 347.317 139.955 347.697 139.575C348.087 139.195 348.327 138.725 348.417 138.165L349.587 138.42C349.477 138.9 349.277 139.355 348.987 139.785C348.697 140.215 348.302 140.56 347.802 140.82C347.312 141.08 346.717 141.21 346.017 141.21ZM351.607 141V130.5H352.792V141H351.607ZM355.284 141V133.665H356.469V141H355.284ZM355.884 132.525C355.624 132.525 355.404 132.44 355.224 132.27C355.054 132.1 354.969 131.885 354.969 131.625C354.969 131.355 355.054 131.135 355.224 130.965C355.404 130.795 355.624 130.71 355.884 130.71C356.144 130.71 356.359 130.795 356.529 130.965C356.699 131.135 356.784 131.355 356.784 131.625C356.784 131.885 356.699 132.1 356.529 132.27C356.359 132.44 356.144 132.525 355.884 132.525ZM362.321 141.21C361.581 141.21 360.931 141.055 360.371 140.745C359.811 140.425 359.376 139.98 359.066 139.41C358.756 138.84 358.601 138.18 358.601 137.43V137.25C358.601 136.49 358.756 135.825 359.066 135.255C359.376 134.685 359.806 134.245 360.356 133.935C360.906 133.615 361.536 133.455 362.246 133.455C362.936 133.455 363.546 133.605 364.076 133.905C364.606 134.195 365.021 134.615 365.321 135.165C365.621 135.715 365.771 136.36 365.771 137.1V137.64H359.786C359.816 138.43 360.071 139.05 360.551 139.5C361.031 139.94 361.631 140.16 362.351 140.16C362.981 140.16 363.466 140.015 363.806 139.725C364.146 139.435 364.406 139.09 364.586 138.69L365.606 139.185C365.456 139.495 365.246 139.805 364.976 140.115C364.716 140.425 364.371 140.685 363.941 140.895C363.521 141.105 362.981 141.21 362.321 141.21ZM359.801 136.665H364.571C364.531 135.985 364.296 135.455 363.866 135.075C363.446 134.695 362.906 134.505 362.246 134.505C361.576 134.505 361.026 134.695 360.596 135.075C360.166 135.455 359.901 135.985 359.801 136.665ZM367.838 141V133.665H368.993V134.91H369.203C369.363 134.56 369.633 134.245 370.013 133.965C370.403 133.675 370.973 133.53 371.723 133.53C372.273 133.53 372.763 133.645 373.193 133.875C373.633 134.105 373.983 134.445 374.243 134.895C374.503 135.345 374.633 135.9 374.633 136.56V141H373.448V136.65C373.448 135.92 373.263 135.39 372.893 135.06C372.533 134.73 372.043 134.565 371.423 134.565C370.713 134.565 370.133 134.795 369.683 135.255C369.243 135.715 369.023 136.4 369.023 137.31V141H367.838ZM379.532 141C379.112 141 378.787 140.885 378.557 140.655C378.337 140.425 378.227 140.11 378.227 139.71V134.7H376.022V133.665H378.227V131.055H379.412V133.665H381.812V134.7H379.412V139.53C379.412 139.83 379.557 139.98 379.847 139.98H381.482V141H379.532ZM386.686 141.21C385.776 141.21 385.006 141 384.376 140.58C383.756 140.16 383.381 139.495 383.251 138.585L384.376 138.33C384.456 138.81 384.606 139.19 384.826 139.47C385.046 139.74 385.316 139.935 385.636 140.055C385.966 140.165 386.316 140.22 386.686 140.22C387.236 140.22 387.671 140.11 387.991 139.89C388.311 139.67 388.471 139.375 388.471 139.005C388.471 138.625 388.316 138.36 388.006 138.21C387.706 138.05 387.291 137.92 386.761 137.82L386.146 137.715C385.676 137.635 385.246 137.51 384.856 137.34C384.466 137.17 384.156 136.94 383.926 136.65C383.696 136.36 383.581 135.995 383.581 135.555C383.581 134.895 383.836 134.38 384.346 134.01C384.856 133.64 385.531 133.455 386.371 133.455C387.201 133.455 387.871 133.645 388.381 134.025C388.901 134.395 389.236 134.92 389.386 135.6L388.276 135.885C388.186 135.355 387.971 134.985 387.631 134.775C387.291 134.555 386.871 134.445 386.371 134.445C385.871 134.445 385.476 134.54 385.186 134.73C384.896 134.91 384.751 135.18 384.751 135.54C384.751 135.89 384.886 136.15 385.156 136.32C385.436 136.48 385.806 136.6 386.266 136.68L386.881 136.785C387.401 136.875 387.866 137 388.276 137.16C388.696 137.31 389.026 137.53 389.266 137.82C389.516 138.11 389.641 138.49 389.641 138.96C389.641 139.68 389.371 140.235 388.831 140.625C388.301 141.015 387.586 141.21 386.686 141.21Z" fill="black"/>
<rect x="314.881" y="49.6172" width="58.8548" height="46.8436" rx="5" fill="#07242B"/>
<path d="M86.45 128V112.85H86L83.65 118.4H80.3L83.875 110.5H89.65V128H86.45ZM99.4037 128.35C97.337 128.35 95.6787 127.783 94.4287 126.65C93.1787 125.5 92.5537 123.767 92.5537 121.45V117.05C92.5537 114.8 93.1787 113.092 94.4287 111.925C95.6787 110.742 97.337 110.15 99.4037 110.15C101.487 110.15 103.145 110.742 104.379 111.925C105.629 113.092 106.254 114.8 106.254 117.05V121.45C106.254 123.767 105.629 125.5 104.379 126.65C103.145 127.783 101.487 128.35 99.4037 128.35ZM99.4037 125.5C100.654 125.5 101.57 125.158 102.154 124.475C102.754 123.792 103.054 122.817 103.054 121.55V116.9C103.054 115.617 102.72 114.65 102.054 114C101.404 113.333 100.52 113 99.4037 113C98.2537 113 97.3537 113.342 96.7037 114.025C96.0704 114.708 95.7537 115.667 95.7537 116.9V121.55C95.7537 122.867 96.0537 123.858 96.6537 124.525C97.2704 125.175 98.187 125.5 99.4037 125.5ZM115.615 128.35C113.548 128.35 111.89 127.783 110.64 126.65C109.39 125.5 108.765 123.767 108.765 121.45V117.05C108.765 114.8 109.39 113.092 110.64 111.925C111.89 110.742 113.548 110.15 115.615 110.15C117.698 110.15 119.356 110.742 120.59 111.925C121.84 113.092 122.465 114.8 122.465 117.05V121.45C122.465 123.767 121.84 125.5 120.59 126.65C119.356 127.783 117.698 128.35 115.615 128.35ZM115.615 125.5C116.865 125.5 117.781 125.158 118.365 124.475C118.965 123.792 119.265 122.817 119.265 121.55V116.9C119.265 115.617 118.931 114.65 118.265 114C117.615 113.333 116.731 113 115.615 113C114.465 113 113.565 113.342 112.915 114.025C112.281 114.708 111.965 115.667 111.965 116.9V121.55C111.965 122.867 112.265 123.858 112.865 124.525C113.481 125.175 114.398 125.5 115.615 125.5ZM130.001 124.475V120.675H126.251V117.825H130.001V114.025H132.951V117.825H136.701V120.675H132.951V124.475H130.001Z" fill="black"/>
<path d="M72.245 156.611V146.111H73.43V156.611H72.245ZM79.2818 156.821C78.5418 156.821 77.8918 156.666 77.3318 156.356C76.7718 156.036 76.3368 155.591 76.0268 155.021C75.7168 154.451 75.5618 153.791 75.5618 153.041V152.861C75.5618 152.101 75.7168 151.436 76.0268 150.866C76.3368 150.296 76.7668 149.856 77.3168 149.546C77.8668 149.226 78.4968 149.066 79.2068 149.066C79.8968 149.066 80.5068 149.216 81.0368 149.516C81.5668 149.806 81.9818 150.226 82.2818 150.776C82.5818 151.326 82.7318 151.971 82.7318 152.711V153.251H76.7468C76.7768 154.041 77.0318 154.661 77.5118 155.111C77.9918 155.551 78.5918 155.771 79.3118 155.771C79.9418 155.771 80.4268 155.626 80.7668 155.336C81.1068 155.046 81.3668 154.701 81.5468 154.301L82.5668 154.796C82.4168 155.106 82.2068 155.416 81.9368 155.726C81.6768 156.036 81.3318 156.296 80.9018 156.506C80.4818 156.716 79.9418 156.821 79.2818 156.821ZM76.7618 152.276H81.5318C81.4918 151.596 81.2568 151.066 80.8268 150.686C80.4068 150.306 79.8668 150.116 79.2068 150.116C78.5368 150.116 77.9868 150.306 77.5568 150.686C77.1268 151.066 76.8618 151.596 76.7618 152.276ZM87.0487 156.821C86.5387 156.821 86.0737 156.731 85.6537 156.551C85.2337 156.371 84.9037 156.111 84.6637 155.771C84.4237 155.431 84.3037 155.016 84.3037 154.526C84.3037 154.026 84.4237 153.616 84.6637 153.296C84.9037 152.966 85.2337 152.721 85.6537 152.561C86.0737 152.391 86.5437 152.306 87.0637 152.306H89.5387V151.766C89.5387 151.246 89.3837 150.836 89.0737 150.536C88.7737 150.236 88.3237 150.086 87.7237 150.086C87.1337 150.086 86.6737 150.231 86.3437 150.521C86.0137 150.801 85.7887 151.181 85.6687 151.661L84.5587 151.301C84.6787 150.891 84.8687 150.521 85.1287 150.191C85.3887 149.851 85.7337 149.581 86.1637 149.381C86.6037 149.171 87.1287 149.066 87.7387 149.066C88.6787 149.066 89.4087 149.311 89.9287 149.801C90.4487 150.281 90.7087 150.961 90.7087 151.841V155.156C90.7087 155.456 90.8487 155.606 91.1287 155.606H91.8037V156.611H90.7687C90.4387 156.611 90.1737 156.521 89.9737 156.341C89.7737 156.151 89.6737 155.901 89.6737 155.591V155.516H89.4937C89.3837 155.706 89.2337 155.906 89.0437 156.116C88.8637 156.316 88.6137 156.481 88.2937 156.611C87.9737 156.751 87.5587 156.821 87.0487 156.821ZM87.1837 155.801C87.8837 155.801 88.4487 155.596 88.8787 155.186C89.3187 154.766 89.5387 154.181 89.5387 153.431V153.266H87.1087C86.6387 153.266 86.2487 153.371 85.9387 153.581C85.6387 153.781 85.4887 154.086 85.4887 154.496C85.4887 154.906 85.6437 155.226 85.9537 155.456C86.2737 155.686 86.6837 155.801 87.1837 155.801ZM96.3266 156.821C95.6966 156.821 95.1166 156.671 94.5866 156.371C94.0566 156.071 93.6366 155.636 93.3266 155.066C93.0166 154.496 92.8616 153.821 92.8616 153.041V152.846C92.8616 152.066 93.0166 151.396 93.3266 150.836C93.6366 150.266 94.0516 149.831 94.5716 149.531C95.1016 149.221 95.6866 149.066 96.3266 149.066C96.8366 149.066 97.2666 149.136 97.6166 149.276C97.9766 149.406 98.2666 149.576 98.4866 149.786C98.7066 149.986 98.8766 150.201 98.9966 150.431H99.2066V146.111H100.392V156.611H99.2366V155.396H99.0266C98.8266 155.766 98.5166 156.096 98.0966 156.386C97.6766 156.676 97.0866 156.821 96.3266 156.821ZM96.6416 155.771C97.4016 155.771 98.0166 155.531 98.4866 155.051C98.9666 154.561 99.2066 153.881 99.2066 153.011V152.876C99.2066 152.006 98.9666 151.331 98.4866 150.851C98.0166 150.361 97.4016 150.116 96.6416 150.116C95.8916 150.116 95.2716 150.361 94.7816 150.851C94.3016 151.331 94.0616 152.006 94.0616 152.876V153.011C94.0616 153.881 94.3016 154.561 94.7816 155.051C95.2716 155.531 95.8916 155.771 96.6416 155.771ZM105.83 156.821C104.92 156.821 104.15 156.611 103.52 156.191C102.9 155.771 102.525 155.106 102.395 154.196L103.52 153.941C103.6 154.421 103.75 154.801 103.97 155.081C104.19 155.351 104.46 155.546 104.78 155.666C105.11 155.776 105.46 155.831 105.83 155.831C106.38 155.831 106.815 155.721 107.135 155.501C107.455 155.281 107.615 154.986 107.615 154.616C107.615 154.236 107.46 153.971 107.15 153.821C106.85 153.661 106.435 153.531 105.905 153.431L105.29 153.326C104.82 153.246 104.39 153.121 104 152.951C103.61 152.781 103.3 152.551 103.07 152.261C102.84 151.971 102.725 151.606 102.725 151.166C102.725 150.506 102.98 149.991 103.49 149.621C104 149.251 104.675 149.066 105.515 149.066C106.345 149.066 107.015 149.256 107.525 149.636C108.045 150.006 108.38 150.531 108.53 151.211L107.42 151.496C107.33 150.966 107.115 150.596 106.775 150.386C106.435 150.166 106.015 150.056 105.515 150.056C105.015 150.056 104.62 150.151 104.33 150.341C104.04 150.521 103.895 150.791 103.895 151.151C103.895 151.501 104.03 151.761 104.3 151.931C104.58 152.091 104.95 152.211 105.41 152.291L106.025 152.396C106.545 152.486 107.01 152.611 107.42 152.771C107.84 152.921 108.17 153.141 108.41 153.431C108.66 153.721 108.785 154.101 108.785 154.571C108.785 155.291 108.515 155.846 107.975 156.236C107.445 156.626 106.73 156.821 105.83 156.821ZM117.743 156.821C117.113 156.821 116.533 156.671 116.003 156.371C115.473 156.071 115.053 155.636 114.743 155.066C114.433 154.496 114.278 153.821 114.278 153.041V152.846C114.278 152.066 114.433 151.396 114.743 150.836C115.053 150.266 115.468 149.831 115.988 149.531C116.518 149.221 117.103 149.066 117.743 149.066C118.253 149.066 118.683 149.136 119.033 149.276C119.393 149.406 119.683 149.576 119.903 149.786C120.123 149.986 120.293 150.201 120.413 150.431H120.623V146.111H121.808V156.611H120.653V155.396H120.443C120.243 155.766 119.933 156.096 119.513 156.386C119.093 156.676 118.503 156.821 117.743 156.821ZM118.058 155.771C118.818 155.771 119.433 155.531 119.903 155.051C120.383 154.561 120.623 153.881 120.623 153.011V152.876C120.623 152.006 120.383 151.331 119.903 150.851C119.433 150.361 118.818 150.116 118.058 150.116C117.308 150.116 116.688 150.361 116.198 150.851C115.718 151.331 115.478 152.006 115.478 152.876V153.011C115.478 153.881 115.718 154.561 116.198 155.051C116.688 155.531 117.308 155.771 118.058 155.771ZM126.541 156.821C126.031 156.821 125.566 156.731 125.146 156.551C124.726 156.371 124.396 156.111 124.156 155.771C123.916 155.431 123.796 155.016 123.796 154.526C123.796 154.026 123.916 153.616 124.156 153.296C124.396 152.966 124.726 152.721 125.146 152.561C125.566 152.391 126.036 152.306 126.556 152.306H129.031V151.766C129.031 151.246 128.876 150.836 128.566 150.536C128.266 150.236 127.816 150.086 127.216 150.086C126.626 150.086 126.166 150.231 125.836 150.521C125.506 150.801 125.281 151.181 125.161 151.661L124.051 151.301C124.171 150.891 124.361 150.521 124.621 150.191C124.881 149.851 125.226 149.581 125.656 149.381C126.096 149.171 126.621 149.066 127.231 149.066C128.171 149.066 128.901 149.311 129.421 149.801C129.941 150.281 130.201 150.961 130.201 151.841V155.156C130.201 155.456 130.341 155.606 130.621 155.606H131.296V156.611H130.261C129.931 156.611 129.666 156.521 129.466 156.341C129.266 156.151 129.166 155.901 129.166 155.591V155.516H128.986C128.876 155.706 128.726 155.906 128.536 156.116C128.356 156.316 128.106 156.481 127.786 156.611C127.466 156.751 127.051 156.821 126.541 156.821ZM126.676 155.801C127.376 155.801 127.941 155.596 128.371 155.186C128.811 154.766 129.031 154.181 129.031 153.431V153.266H126.601C126.131 153.266 125.741 153.371 125.431 153.581C125.131 153.781 124.981 154.086 124.981 154.496C124.981 154.906 125.136 155.226 125.446 155.456C125.766 155.686 126.176 155.801 126.676 155.801ZM132.919 156.611V149.276H134.104V156.611H132.919ZM133.519 148.136C133.259 148.136 133.039 148.051 132.859 147.881C132.689 147.711 132.604 147.496 132.604 147.236C132.604 146.966 132.689 146.746 132.859 146.576C133.039 146.406 133.259 146.321 133.519 146.321C133.779 146.321 133.994 146.406 134.164 146.576C134.334 146.746 134.419 146.966 134.419 147.236C134.419 147.496 134.334 147.711 134.164 147.881C133.994 148.051 133.779 148.136 133.519 148.136ZM136.596 156.611V146.111H137.781V156.611H136.596ZM141.157 159.611V158.561H145.357C145.647 158.561 145.792 158.411 145.792 158.111V155.441H145.582C145.482 155.651 145.327 155.861 145.117 156.071C144.917 156.271 144.652 156.436 144.322 156.566C143.992 156.686 143.577 156.746 143.077 156.746C142.547 156.746 142.057 156.631 141.607 156.401C141.167 156.171 140.817 155.831 140.557 155.381C140.307 154.931 140.182 154.381 140.182 153.731V149.276H141.367V153.641C141.367 154.361 141.547 154.886 141.907 155.216C142.277 155.546 142.772 155.711 143.392 155.711C144.092 155.711 144.667 155.481 145.117 155.021C145.567 154.561 145.792 153.876 145.792 152.966V149.276H146.977V158.321C146.977 158.721 146.862 159.036 146.632 159.266C146.412 159.496 146.087 159.611 145.657 159.611H141.157Z" fill="black"/>
<rect x="78.4512" y="49.8604" width="58.8548" height="46.8436" rx="5" fill="#07242B"/>
<path d="M346.797 80.1344L346.297 80.5997C346.297 80.5997 345.107 81.7039 341.86 78.6879C338.613 75.6719 339.803 74.5677 339.803 74.5677L340.118 74.274C340.894 73.5527 340.968 72.3951 340.29 71.5498L338.905 69.8212C338.066 68.7742 336.445 68.6365 335.483 69.5294L333.759 71.13C333.283 71.573 332.965 72.146 333.003 72.7829C333.102 74.4116 333.891 77.9143 338.291 82.0025C342.958 86.336 347.337 86.5086 349.127 86.3525C349.694 86.304 350.186 86.0336 350.583 85.6652L352.143 84.2148C353.198 83.2357 352.901 81.5585 351.552 80.8741L349.453 79.8077C348.567 79.3588 347.489 79.4907 346.797 80.1334" fill="white"/>
<line x1="12.4063" y1="224.311" x2="441.001" y2="224.311" stroke="#242424" stroke-dasharray="2 2"/>
<g filter="url(#filter2_d_221_243)">
<circle cx="107.961" cy="343.553" r="96.9608" fill="white" shape-rendering="crispEdges"/>
<circle cx="107.961" cy="343.553" r="97.4608" stroke="#07242B" stroke-opacity="0.4" shape-rendering="crispEdges"/>
</g>
<g filter="url(#filter3_d_221_243)">
<circle cx="343.961" cy="343.553" r="96.9608" fill="white" shape-rendering="crispEdges"/>
<circle cx="343.961" cy="343.553" r="97.4608" stroke="#07242B" stroke-opacity="0.4" shape-rendering="crispEdges"/>
</g>
<path d="M319.575 363.35C318.208 363.35 317.025 363.108 316.025 362.625C315.042 362.142 314.283 361.458 313.75 360.575C313.217 359.692 312.95 358.667 312.95 357.5V357.25H316.2V357.475C316.2 358.308 316.475 359.025 317.025 359.625C317.592 360.208 318.425 360.5 319.525 360.5C320.625 360.5 321.467 360.208 322.05 359.625C322.65 359.025 322.95 358.25 322.95 357.3V357.05C322.95 356.117 322.65 355.375 322.05 354.825C321.467 354.275 320.733 354 319.85 354C319.367 354 318.967 354.067 318.65 354.2C318.333 354.333 318.075 354.5 317.875 354.7C317.675 354.9 317.508 355.1 317.375 355.3H313.5V345.5H325.45V348.4H316.7V352.675H317.15C317.317 352.458 317.542 352.25 317.825 352.05C318.108 351.85 318.475 351.683 318.925 351.55C319.375 351.417 319.908 351.35 320.525 351.35C321.558 351.35 322.5 351.567 323.35 352C324.2 352.433 324.875 353.075 325.375 353.925C325.892 354.758 326.15 355.792 326.15 357.025V357.325C326.15 358.558 325.883 359.625 325.35 360.525C324.833 361.425 324.083 362.125 323.1 362.625C322.117 363.108 320.942 363.35 319.575 363.35ZM335.09 363.35C333.024 363.35 331.365 362.783 330.115 361.65C328.865 360.5 328.24 358.767 328.24 356.45V352.05C328.24 349.8 328.865 348.092 330.115 346.925C331.365 345.742 333.024 345.15 335.09 345.15C337.174 345.15 338.832 345.742 340.065 346.925C341.315 348.092 341.94 349.8 341.94 352.05V356.45C341.94 358.767 341.315 360.5 340.065 361.65C338.832 362.783 337.174 363.35 335.09 363.35ZM335.09 360.5C336.34 360.5 337.257 360.158 337.84 359.475C338.44 358.792 338.74 357.817 338.74 356.55V351.9C338.74 350.617 338.407 349.65 337.74 349C337.09 348.333 336.207 348 335.09 348C333.94 348 333.04 348.342 332.39 349.025C331.757 349.708 331.44 350.667 331.44 351.9V356.55C331.44 357.867 331.74 358.858 332.34 359.525C332.957 360.175 333.874 360.5 335.09 360.5ZM351.301 363.35C349.235 363.35 347.576 362.783 346.326 361.65C345.076 360.5 344.451 358.767 344.451 356.45V352.05C344.451 349.8 345.076 348.092 346.326 346.925C347.576 345.742 349.235 345.15 351.301 345.15C353.385 345.15 355.043 345.742 356.276 346.925C357.526 348.092 358.151 349.8 358.151 352.05V356.45C358.151 358.767 357.526 360.5 356.276 361.65C355.043 362.783 353.385 363.35 351.301 363.35ZM351.301 360.5C352.551 360.5 353.468 360.158 354.051 359.475C354.651 358.792 354.951 357.817 354.951 356.55V351.9C354.951 350.617 354.618 349.65 353.951 349C353.301 348.333 352.418 348 351.301 348C350.151 348 349.251 348.342 348.601 349.025C347.968 349.708 347.651 350.667 347.651 351.9V356.55C347.651 357.867 347.951 358.858 348.551 359.525C349.168 360.175 350.085 360.5 351.301 360.5ZM365.687 359.475V355.675H361.937V352.825H365.687V349.025H368.637V352.825H372.387V355.675H368.637V359.475H365.687Z" fill="black"/>
<path d="M328.925 380.21C328.165 380.21 327.485 380.075 326.885 379.805C326.285 379.535 325.81 379.13 325.46 378.59C325.12 378.04 324.95 377.355 324.95 376.535V376.22H326.195V376.535C326.195 377.405 326.45 378.055 326.96 378.485C327.47 378.905 328.125 379.115 328.925 379.115C329.745 379.115 330.37 378.93 330.8 378.56C331.23 378.19 331.445 377.725 331.445 377.165C331.445 376.775 331.345 376.465 331.145 376.235C330.955 376.005 330.685 375.82 330.335 375.68C329.985 375.53 329.575 375.4 329.105 375.29L328.325 375.095C327.715 374.935 327.175 374.74 326.705 374.51C326.235 374.28 325.865 373.98 325.595 373.61C325.335 373.23 325.205 372.745 325.205 372.155C325.205 371.565 325.35 371.055 325.64 370.625C325.94 370.195 326.355 369.865 326.885 369.635C327.425 369.405 328.045 369.29 328.745 369.29C329.455 369.29 330.09 369.415 330.65 369.665C331.22 369.905 331.665 370.265 331.985 370.745C332.315 371.215 332.48 371.81 332.48 372.53V373.16H331.235V372.53C331.235 372.02 331.125 371.61 330.905 371.3C330.695 370.99 330.4 370.76 330.02 370.61C329.65 370.46 329.225 370.385 328.745 370.385C328.055 370.385 327.5 370.54 327.08 370.85C326.66 371.15 326.45 371.58 326.45 372.14C326.45 372.51 326.54 372.81 326.72 373.04C326.9 373.27 327.155 373.46 327.485 373.61C327.815 373.75 328.21 373.875 328.67 373.985L329.45 374.18C330.06 374.31 330.605 374.49 331.085 374.72C331.575 374.94 331.965 375.245 332.255 375.635C332.545 376.015 332.69 376.515 332.69 377.135C332.69 377.755 332.535 378.295 332.225 378.755C331.915 379.215 331.475 379.575 330.905 379.835C330.345 380.085 329.685 380.21 328.925 380.21ZM334.629 380V369.5H337.029L339.819 379.205H340.014L342.804 369.5H345.204V380H343.989V370.325H343.779L341.004 380H338.829L336.054 370.325H335.844V380H334.629ZM347.608 380V369.5H354.073V370.64H348.868V374.15H353.653V375.29H348.868V378.86H354.148V380H347.608ZM359.06 380.21C358.15 380.21 357.38 380 356.75 379.58C356.13 379.16 355.755 378.495 355.625 377.585L356.75 377.33C356.83 377.81 356.98 378.19 357.2 378.47C357.42 378.74 357.69 378.935 358.01 379.055C358.34 379.165 358.69 379.22 359.06 379.22C359.61 379.22 360.045 379.11 360.365 378.89C360.685 378.67 360.845 378.375 360.845 378.005C360.845 377.625 360.69 377.36 360.38 377.21C360.08 377.05 359.665 376.92 359.135 376.82L358.52 376.715C358.05 376.635 357.62 376.51 357.23 376.34C356.84 376.17 356.53 375.94 356.3 375.65C356.07 375.36 355.955 374.995 355.955 374.555C355.955 373.895 356.21 373.38 356.72 373.01C357.23 372.64 357.905 372.455 358.745 372.455C359.575 372.455 360.245 372.645 360.755 373.025C361.275 373.395 361.61 373.92 361.76 374.6L360.65 374.885C360.56 374.355 360.345 373.985 360.005 373.775C359.665 373.555 359.245 373.445 358.745 373.445C358.245 373.445 357.85 373.54 357.56 373.73C357.27 373.91 357.125 374.18 357.125 374.54C357.125 374.89 357.26 375.15 357.53 375.32C357.81 375.48 358.18 375.6 358.64 375.68L359.255 375.785C359.775 375.875 360.24 376 360.65 376.16C361.07 376.31 361.4 376.53 361.64 376.82C361.89 377.11 362.015 377.49 362.015 377.96C362.015 378.68 361.745 379.235 361.205 379.625C360.675 380.015 359.96 380.21 359.06 380.21ZM319.777 399V388.5H320.962V392.835H321.172C321.272 392.615 321.422 392.41 321.622 392.22C321.832 392.02 322.097 391.855 322.417 391.725C322.747 391.595 323.162 391.53 323.662 391.53C324.212 391.53 324.702 391.65 325.132 391.89C325.572 392.12 325.922 392.46 326.182 392.91C326.442 393.35 326.572 393.9 326.572 394.56V399H325.387V394.65C325.387 393.92 325.202 393.39 324.832 393.06C324.472 392.73 323.982 392.565 323.362 392.565C322.652 392.565 322.072 392.795 321.622 393.255C321.182 393.715 320.962 394.4 320.962 395.31V399H319.777ZM332.336 399.21C331.596 399.21 330.946 399.055 330.386 398.745C329.826 398.425 329.391 397.98 329.081 397.41C328.771 396.84 328.616 396.18 328.616 395.43V395.25C328.616 394.49 328.771 393.825 329.081 393.255C329.391 392.685 329.821 392.245 330.371 391.935C330.921 391.615 331.551 391.455 332.261 391.455C332.951 391.455 333.561 391.605 334.091 391.905C334.621 392.195 335.036 392.615 335.336 393.165C335.636 393.715 335.786 394.36 335.786 395.1V395.64H329.801C329.831 396.43 330.086 397.05 330.566 397.5C331.046 397.94 331.646 398.16 332.366 398.16C332.996 398.16 333.481 398.015 333.821 397.725C334.161 397.435 334.421 397.09 334.601 396.69L335.621 397.185C335.471 397.495 335.261 397.805 334.991 398.115C334.731 398.425 334.386 398.685 333.956 398.895C333.536 399.105 332.996 399.21 332.336 399.21ZM329.816 394.665H334.586C334.546 393.985 334.311 393.455 333.881 393.075C333.461 392.695 332.921 392.505 332.261 392.505C331.591 392.505 331.041 392.695 330.611 393.075C330.181 393.455 329.916 393.985 329.816 394.665ZM337.853 399V388.5H339.038V399H337.853ZM341.53 402V391.665H342.685V392.88H342.895C343.085 392.51 343.39 392.18 343.81 391.89C344.24 391.6 344.835 391.455 345.595 391.455C346.225 391.455 346.8 391.61 347.32 391.92C347.85 392.22 348.27 392.65 348.58 393.21C348.9 393.77 349.06 394.445 349.06 395.235V395.43C349.06 396.21 348.905 396.885 348.595 397.455C348.285 398.025 347.865 398.46 347.335 398.76C346.815 399.06 346.235 399.21 345.595 399.21C345.085 399.21 344.65 399.14 344.29 399C343.94 398.87 343.655 398.7 343.435 398.49C343.215 398.28 343.045 398.065 342.925 397.845H342.715V402H341.53ZM345.28 398.16C346.04 398.16 346.655 397.92 347.125 397.44C347.605 396.95 347.845 396.27 347.845 395.4V395.265C347.845 394.395 347.605 393.72 347.125 393.24C346.655 392.75 346.04 392.505 345.28 392.505C344.53 392.505 343.91 392.75 343.42 393.24C342.94 393.72 342.7 394.395 342.7 395.265V395.4C342.7 396.27 342.94 396.95 343.42 397.44C343.91 397.92 344.53 398.16 345.28 398.16ZM354.543 399.21C353.803 399.21 353.153 399.055 352.593 398.745C352.033 398.425 351.598 397.98 351.288 397.41C350.978 396.84 350.823 396.18 350.823 395.43V395.25C350.823 394.49 350.978 393.825 351.288 393.255C351.598 392.685 352.028 392.245 352.578 391.935C353.128 391.615 353.758 391.455 354.468 391.455C355.158 391.455 355.768 391.605 356.298 391.905C356.828 392.195 357.243 392.615 357.543 393.165C357.843 393.715 357.993 394.36 357.993 395.1V395.64H352.008C352.038 396.43 352.293 397.05 352.773 397.5C353.253 397.94 353.853 398.16 354.573 398.16C355.203 398.16 355.688 398.015 356.028 397.725C356.368 397.435 356.628 397.09 356.808 396.69L357.828 397.185C357.678 397.495 357.468 397.805 357.198 398.115C356.938 398.425 356.593 398.685 356.163 398.895C355.743 399.105 355.203 399.21 354.543 399.21ZM352.023 394.665H356.793C356.753 393.985 356.518 393.455 356.088 393.075C355.668 392.695 355.128 392.505 354.468 392.505C353.798 392.505 353.248 392.695 352.818 393.075C352.388 393.455 352.123 393.985 352.023 394.665ZM363.165 399.21C362.535 399.21 361.955 399.06 361.425 398.76C360.895 398.46 360.475 398.025 360.165 397.455C359.855 396.885 359.7 396.21 359.7 395.43V395.235C359.7 394.455 359.855 393.785 360.165 393.225C360.475 392.655 360.89 392.22 361.41 391.92C361.94 391.61 362.525 391.455 363.165 391.455C363.675 391.455 364.105 391.525 364.455 391.665C364.815 391.795 365.105 391.965 365.325 392.175C365.545 392.375 365.715 392.59 365.835 392.82H366.045V388.5H367.23V399H366.075V397.785H365.865C365.665 398.155 365.355 398.485 364.935 398.775C364.515 399.065 363.925 399.21 363.165 399.21ZM363.48 398.16C364.24 398.16 364.855 397.92 365.325 397.44C365.805 396.95 366.045 396.27 366.045 395.4V395.265C366.045 394.395 365.805 393.72 365.325 393.24C364.855 392.75 364.24 392.505 363.48 392.505C362.73 392.505 362.11 392.75 361.62 393.24C361.14 393.72 360.9 394.395 360.9 395.265V395.4C360.9 396.27 361.14 396.95 361.62 397.44C362.11 397.92 362.73 398.16 363.48 398.16ZM318.203 418.21C317.693 418.21 317.228 418.12 316.808 417.94C316.388 417.76 316.058 417.5 315.818 417.16C315.578 416.82 315.458 416.405 315.458 415.915C315.458 415.415 315.578 415.005 315.818 414.685C316.058 414.355 316.388 414.11 316.808 413.95C317.228 413.78 317.698 413.695 318.218 413.695H320.693V413.155C320.693 412.635 320.538 412.225 320.228 411.925C319.928 411.625 319.478 411.475 318.878 411.475C318.288 411.475 317.828 411.62 317.498 411.91C317.168 412.19 316.943 412.57 316.823 413.05L315.713 412.69C315.833 412.28 316.023 411.91 316.283 411.58C316.543 411.24 316.888 410.97 317.318 410.77C317.758 410.56 318.283 410.455 318.893 410.455C319.833 410.455 320.563 410.7 321.083 411.19C321.603 411.67 321.863 412.35 321.863 413.23V416.545C321.863 416.845 322.003 416.995 322.283 416.995H322.958V418H321.923C321.593 418 321.328 417.91 321.128 417.73C320.928 417.54 320.828 417.29 320.828 416.98V416.905H320.648C320.538 417.095 320.388 417.295 320.198 417.505C320.018 417.705 319.768 417.87 319.448 418C319.128 418.14 318.713 418.21 318.203 418.21ZM318.338 417.19C319.038 417.19 319.603 416.985 320.033 416.575C320.473 416.155 320.693 415.57 320.693 414.82V414.655H318.263C317.793 414.655 317.403 414.76 317.093 414.97C316.793 415.17 316.643 415.475 316.643 415.885C316.643 416.295 316.798 416.615 317.108 416.845C317.428 417.075 317.838 417.19 318.338 417.19ZM324.581 418V410.665H325.736V411.91H325.946C326.106 411.56 326.376 411.245 326.756 410.965C327.146 410.675 327.716 410.53 328.466 410.53C329.016 410.53 329.506 410.645 329.936 410.875C330.376 411.105 330.726 411.445 330.986 411.895C331.246 412.345 331.376 412.9 331.376 413.56V418H330.191V413.65C330.191 412.92 330.006 412.39 329.636 412.06C329.276 411.73 328.786 411.565 328.166 411.565C327.456 411.565 326.876 411.795 326.426 412.255C325.986 412.715 325.766 413.4 325.766 414.31V418H324.581ZM333.781 418V410.665H334.936V411.91H335.146C335.306 411.56 335.576 411.245 335.956 410.965C336.346 410.675 336.916 410.53 337.666 410.53C338.216 410.53 338.706 410.645 339.136 410.875C339.576 411.105 339.926 411.445 340.186 411.895C340.446 412.345 340.576 412.9 340.576 413.56V418H339.391V413.65C339.391 412.92 339.206 412.39 338.836 412.06C338.476 411.73 337.986 411.565 337.366 411.565C336.656 411.565 336.076 411.795 335.626 412.255C335.186 412.715 334.966 413.4 334.966 414.31V418H333.781ZM345.668 418.135C345.138 418.135 344.648 418.02 344.198 417.79C343.758 417.56 343.408 417.22 343.148 416.77C342.898 416.31 342.773 415.755 342.773 415.105V410.665H343.958V415.015C343.958 415.745 344.138 416.275 344.498 416.605C344.868 416.935 345.363 417.1 345.983 417.1C346.683 417.1 347.258 416.87 347.708 416.41C348.158 415.95 348.383 415.265 348.383 414.355V410.665H349.568V418H348.413V416.755H348.203C348.043 417.105 347.768 417.425 347.378 417.715C346.988 417.995 346.418 418.135 345.668 418.135ZM354.297 418.21C353.787 418.21 353.322 418.12 352.902 417.94C352.482 417.76 352.152 417.5 351.912 417.16C351.672 416.82 351.552 416.405 351.552 415.915C351.552 415.415 351.672 415.005 351.912 414.685C352.152 414.355 352.482 414.11 352.902 413.95C353.322 413.78 353.792 413.695 354.312 413.695H356.787V413.155C356.787 412.635 356.632 412.225 356.322 411.925C356.022 411.625 355.572 411.475 354.972 411.475C354.382 411.475 353.922 411.62 353.592 411.91C353.262 412.19 353.037 412.57 352.917 413.05L351.807 412.69C351.927 412.28 352.117 411.91 352.377 411.58C352.637 411.24 352.982 410.97 353.412 410.77C353.852 410.56 354.377 410.455 354.987 410.455C355.927 410.455 356.657 410.7 357.177 411.19C357.697 411.67 357.957 412.35 357.957 413.23V416.545C357.957 416.845 358.097 416.995 358.377 416.995H359.052V418H358.017C357.687 418 357.422 417.91 357.222 417.73C357.022 417.54 356.922 417.29 356.922 416.98V416.905H356.742C356.632 417.095 356.482 417.295 356.292 417.505C356.112 417.705 355.862 417.87 355.542 418C355.222 418.14 354.807 418.21 354.297 418.21ZM354.432 417.19C355.132 417.19 355.697 416.985 356.127 416.575C356.567 416.155 356.787 415.57 356.787 414.82V414.655H354.357C353.887 414.655 353.497 414.76 353.187 414.97C352.887 415.17 352.737 415.475 352.737 415.885C352.737 416.295 352.892 416.615 353.202 416.845C353.522 417.075 353.932 417.19 354.432 417.19ZM360.675 418V407.5H361.86V418H360.675ZM365.237 421V419.95H369.437C369.727 419.95 369.872 419.8 369.872 419.5V416.83H369.662C369.562 417.04 369.407 417.25 369.197 417.46C368.997 417.66 368.732 417.825 368.402 417.955C368.072 418.075 367.657 418.135 367.157 418.135C366.627 418.135 366.137 418.02 365.687 417.79C365.247 417.56 364.897 417.22 364.637 416.77C364.387 416.32 364.262 415.77 364.262 415.12V410.665H365.447V415.03C365.447 415.75 365.627 416.275 365.987 416.605C366.357 416.935 366.852 417.1 367.472 417.1C368.172 417.1 368.747 416.87 369.197 416.41C369.647 415.95 369.872 415.265 369.872 414.355V410.665H371.057V419.71C371.057 420.11 370.942 420.425 370.712 420.655C370.492 420.885 370.167 421 369.737 421H365.237Z" fill="black"/>
<rect x="315" y="284.451" width="58.8548" height="46.8436" rx="5" fill="#07242B"/>
<path d="M84.45 369V353.85H84L81.65 359.4H78.3L81.875 351.5H87.65V369H84.45ZM97.4037 369.35C95.337 369.35 93.6787 368.783 92.4287 367.65C91.1787 366.5 90.5537 364.767 90.5537 362.45V358.05C90.5537 355.8 91.1787 354.092 92.4287 352.925C93.6787 351.742 95.337 351.15 97.4037 351.15C99.487 351.15 101.145 351.742 102.379 352.925C103.629 354.092 104.254 355.8 104.254 358.05V362.45C104.254 364.767 103.629 366.5 102.379 367.65C101.145 368.783 99.487 369.35 97.4037 369.35ZM97.4037 366.5C98.6537 366.5 99.5704 366.158 100.154 365.475C100.754 364.792 101.054 363.817 101.054 362.55V357.9C101.054 356.617 100.72 355.65 100.054 355C99.4037 354.333 98.5204 354 97.4037 354C96.2537 354 95.3537 354.342 94.7037 355.025C94.0704 355.708 93.7537 356.667 93.7537 357.9V362.55C93.7537 363.867 94.0537 364.858 94.6537 365.525C95.2704 366.175 96.187 366.5 97.4037 366.5ZM113.615 369.35C111.548 369.35 109.89 368.783 108.64 367.65C107.39 366.5 106.765 364.767 106.765 362.45V358.05C106.765 355.8 107.39 354.092 108.64 352.925C109.89 351.742 111.548 351.15 113.615 351.15C115.698 351.15 117.356 351.742 118.59 352.925C119.84 354.092 120.465 355.8 120.465 358.05V362.45C120.465 364.767 119.84 366.5 118.59 367.65C117.356 368.783 115.698 369.35 113.615 369.35ZM113.615 366.5C114.865 366.5 115.781 366.158 116.365 365.475C116.965 364.792 117.265 363.817 117.265 362.55V357.9C117.265 356.617 116.931 355.65 116.265 355C115.615 354.333 114.731 354 113.615 354C112.465 354 111.565 354.342 110.915 355.025C110.281 355.708 109.965 356.667 109.965 357.9V362.55C109.965 363.867 110.265 364.858 110.865 365.525C111.481 366.175 112.398 366.5 113.615 366.5ZM128.001 365.475V361.675H124.251V358.825H128.001V355.025H130.951V358.825H134.701V361.675H130.951V365.475H128.001Z" fill="black"/>
<rect x="78.8633" y="289.451" width="58.8548" height="46.8436" rx="5" fill="#07242B"/>
<path d="M53.2 390.722C52.29 390.722 51.52 390.512 50.89 390.092C50.27 389.672 49.895 389.007 49.765 388.097L50.89 387.842C50.97 388.322 51.12 388.702 51.34 388.982C51.56 389.252 51.83 389.447 52.15 389.567C52.48 389.677 52.83 389.732 53.2 389.732C53.75 389.732 54.185 389.622 54.505 389.402C54.825 389.182 54.985 388.887 54.985 388.517C54.985 388.137 54.83 387.872 54.52 387.722C54.22 387.562 53.805 387.432 53.275 387.332L52.66 387.227C52.19 387.147 51.76 387.022 51.37 386.852C50.98 386.682 50.67 386.452 50.44 386.162C50.21 385.872 50.095 385.507 50.095 385.067C50.095 384.407 50.35 383.892 50.86 383.522C51.37 383.152 52.045 382.967 52.885 382.967C53.715 382.967 54.385 383.157 54.895 383.537C55.415 383.907 55.75 384.432 55.9 385.112L54.79 385.397C54.7 384.867 54.485 384.497 54.145 384.287C53.805 384.067 53.385 383.957 52.885 383.957C52.385 383.957 51.99 384.052 51.7 384.242C51.41 384.422 51.265 384.692 51.265 385.052C51.265 385.402 51.4 385.662 51.67 385.832C51.95 385.992 52.32 386.112 52.78 386.192L53.395 386.297C53.915 386.387 54.38 386.512 54.79 386.672C55.21 386.822 55.54 387.042 55.78 387.332C56.03 387.622 56.155 388.002 56.155 388.472C56.155 389.192 55.885 389.747 55.345 390.137C54.815 390.527 54.1 390.722 53.2 390.722ZM61.5152 390.722C60.7752 390.722 60.1252 390.567 59.5652 390.257C59.0052 389.937 58.5702 389.492 58.2602 388.922C57.9502 388.352 57.7952 387.692 57.7952 386.942V386.762C57.7952 386.002 57.9502 385.337 58.2602 384.767C58.5702 384.197 59.0002 383.757 59.5502 383.447C60.1002 383.127 60.7302 382.967 61.4402 382.967C62.1302 382.967 62.7402 383.117 63.2702 383.417C63.8002 383.707 64.2152 384.127 64.5152 384.677C64.8152 385.227 64.9652 385.872 64.9652 386.612V387.152H58.9802C59.0102 387.942 59.2652 388.562 59.7452 389.012C60.2252 389.452 60.8252 389.672 61.5452 389.672C62.1752 389.672 62.6602 389.527 63.0002 389.237C63.3402 388.947 63.6002 388.602 63.7802 388.202L64.8002 388.697C64.6502 389.007 64.4402 389.317 64.1702 389.627C63.9102 389.937 63.5652 390.197 63.1352 390.407C62.7152 390.617 62.1752 390.722 61.5152 390.722ZM58.9952 386.177H63.7652C63.7252 385.497 63.4902 384.967 63.0602 384.587C62.6402 384.207 62.1002 384.017 61.4402 384.017C60.7702 384.017 60.2202 384.207 59.7902 384.587C59.3602 384.967 59.0952 385.497 58.9952 386.177ZM67.0321 390.512V383.177H68.1871V384.077H68.3971C68.5271 383.757 68.7271 383.522 68.9971 383.372C69.2671 383.222 69.6221 383.147 70.0621 383.147H70.9321V384.227H69.9871C69.4571 384.227 69.0271 384.377 68.6971 384.677C68.3771 384.967 68.2171 385.422 68.2171 386.042V390.512H67.0321ZM74.5464 390.512L71.9214 383.177H73.1814L75.3864 389.627H75.5964L77.8014 383.177H79.0614L76.4364 390.512H74.5464ZM80.7723 390.512V383.177H81.9573V390.512H80.7723ZM81.3723 382.037C81.1123 382.037 80.8923 381.952 80.7123 381.782C80.5423 381.612 80.4573 381.397 80.4573 381.137C80.4573 380.867 80.5423 380.647 80.7123 380.477C80.8923 380.307 81.1123 380.222 81.3723 380.222C81.6323 380.222 81.8473 380.307 82.0173 380.477C82.1873 380.647 82.2723 380.867 82.2723 381.137C82.2723 381.397 82.1873 381.612 82.0173 381.782C81.8473 381.952 81.6323 382.037 81.3723 382.037ZM87.8241 390.722C87.1141 390.722 86.4741 390.572 85.9041 390.272C85.3441 389.962 84.8991 389.522 84.5691 388.952C84.2491 388.382 84.0891 387.707 84.0891 386.927V386.762C84.0891 385.972 84.2491 385.297 84.5691 384.737C84.8991 384.167 85.3441 383.732 85.9041 383.432C86.4741 383.122 87.1141 382.967 87.8241 382.967C88.5241 382.967 89.1191 383.097 89.6091 383.357C90.1091 383.617 90.4991 383.962 90.7791 384.392C91.0691 384.822 91.2541 385.282 91.3341 385.772L90.1791 386.012C90.1291 385.652 90.0091 385.322 89.8191 385.022C89.6391 384.722 89.3841 384.482 89.0541 384.302C88.7241 384.122 88.3191 384.032 87.8391 384.032C87.3491 384.032 86.9091 384.142 86.5191 384.362C86.1391 384.582 85.8341 384.897 85.6041 385.307C85.3841 385.717 85.2741 386.207 85.2741 386.777V386.912C85.2741 387.482 85.3841 387.972 85.6041 388.382C85.8341 388.792 86.1391 389.107 86.5191 389.327C86.9091 389.547 87.3491 389.657 87.8391 389.657C88.5691 389.657 89.1241 389.467 89.5041 389.087C89.8941 388.707 90.1341 388.237 90.2241 387.677L91.3941 387.932C91.2841 388.412 91.0841 388.867 90.7941 389.297C90.5041 389.727 90.1091 390.072 89.6091 390.332C89.1191 390.592 88.5241 390.722 87.8241 390.722ZM96.7739 390.722C96.0339 390.722 95.3839 390.567 94.8239 390.257C94.2639 389.937 93.8289 389.492 93.5189 388.922C93.2089 388.352 93.0539 387.692 93.0539 386.942V386.762C93.0539 386.002 93.2089 385.337 93.5189 384.767C93.8289 384.197 94.2589 383.757 94.8089 383.447C95.3589 383.127 95.9889 382.967 96.6989 382.967C97.3889 382.967 97.9989 383.117 98.5289 383.417C99.0589 383.707 99.4739 384.127 99.7739 384.677C100.074 385.227 100.224 385.872 100.224 386.612V387.152H94.2389C94.2689 387.942 94.5239 388.562 95.0039 389.012C95.4839 389.452 96.0839 389.672 96.8039 389.672C97.4339 389.672 97.9189 389.527 98.2589 389.237C98.5989 388.947 98.8589 388.602 99.0389 388.202L100.059 388.697C99.9089 389.007 99.6989 389.317 99.4289 389.627C99.1689 389.937 98.8239 390.197 98.3939 390.407C97.9739 390.617 97.4339 390.722 96.7739 390.722ZM94.2539 386.177H99.0239C98.9839 385.497 98.7489 384.967 98.3189 384.587C97.8989 384.207 97.3589 384.017 96.6989 384.017C96.0289 384.017 95.4789 384.207 95.0489 384.587C94.6189 384.967 94.3539 385.497 94.2539 386.177ZM105.246 390.722C104.336 390.722 103.566 390.512 102.936 390.092C102.316 389.672 101.941 389.007 101.811 388.097L102.936 387.842C103.016 388.322 103.166 388.702 103.386 388.982C103.606 389.252 103.876 389.447 104.196 389.567C104.526 389.677 104.876 389.732 105.246 389.732C105.796 389.732 106.231 389.622 106.551 389.402C106.871 389.182 107.031 388.887 107.031 388.517C107.031 388.137 106.876 387.872 106.566 387.722C106.266 387.562 105.851 387.432 105.321 387.332L104.706 387.227C104.236 387.147 103.806 387.022 103.416 386.852C103.026 386.682 102.716 386.452 102.486 386.162C102.256 385.872 102.141 385.507 102.141 385.067C102.141 384.407 102.396 383.892 102.906 383.522C103.416 383.152 104.091 382.967 104.931 382.967C105.761 382.967 106.431 383.157 106.941 383.537C107.461 383.907 107.796 384.432 107.946 385.112L106.836 385.397C106.746 384.867 106.531 384.497 106.191 384.287C105.851 384.067 105.431 383.957 104.931 383.957C104.431 383.957 104.036 384.052 103.746 384.242C103.456 384.422 103.311 384.692 103.311 385.052C103.311 385.402 103.446 385.662 103.716 385.832C103.996 385.992 104.366 386.112 104.826 386.192L105.441 386.297C105.961 386.387 106.426 386.512 106.836 386.672C107.256 386.822 107.586 387.042 107.826 387.332C108.076 387.622 108.201 388.002 108.201 388.472C108.201 389.192 107.931 389.747 107.391 390.137C106.861 390.527 106.146 390.722 105.246 390.722ZM117.444 390.722C116.704 390.722 116.049 390.567 115.479 390.257C114.919 389.947 114.479 389.512 114.159 388.952C113.849 388.382 113.694 387.712 113.694 386.942V386.747C113.694 385.987 113.849 385.322 114.159 384.752C114.479 384.182 114.919 383.742 115.479 383.432C116.049 383.122 116.704 382.967 117.444 382.967C118.184 382.967 118.834 383.122 119.394 383.432C119.964 383.742 120.404 384.182 120.714 384.752C121.034 385.322 121.194 385.987 121.194 386.747V386.942C121.194 387.712 121.034 388.382 120.714 388.952C120.404 389.512 119.964 389.947 119.394 390.257C118.834 390.567 118.184 390.722 117.444 390.722ZM117.444 389.657C118.224 389.657 118.844 389.412 119.304 388.922C119.774 388.422 120.009 387.752 120.009 386.912V386.777C120.009 385.937 119.774 385.272 119.304 384.782C118.844 384.282 118.224 384.032 117.444 384.032C116.674 384.032 116.054 384.282 115.584 384.782C115.114 385.272 114.879 385.937 114.879 386.777V386.912C114.879 387.752 115.114 388.422 115.584 388.922C116.054 389.412 116.674 389.657 117.444 389.657ZM124.458 390.512V384.212H122.208V383.177H124.458V381.302C124.458 380.902 124.568 380.587 124.788 380.357C125.018 380.127 125.343 380.012 125.763 380.012H127.608V381.032H126.093C125.793 381.032 125.643 381.182 125.643 381.482V383.177H127.488V384.212H125.643V390.512H124.458ZM129.288 390.512V384.212H127.488V383.177H129.288V381.302C129.288 380.902 129.398 380.587 129.618 380.357C129.848 380.127 130.173 380.012 130.593 380.012H132.438V381.032H130.908C130.618 381.032 130.473 381.182 130.473 381.482V383.177H132.783V384.212H130.473V390.512H129.288ZM137.453 390.722C136.713 390.722 136.063 390.567 135.503 390.257C134.943 389.937 134.508 389.492 134.198 388.922C133.888 388.352 133.733 387.692 133.733 386.942V386.762C133.733 386.002 133.888 385.337 134.198 384.767C134.508 384.197 134.938 383.757 135.488 383.447C136.038 383.127 136.668 382.967 137.378 382.967C138.068 382.967 138.678 383.117 139.208 383.417C139.738 383.707 140.153 384.127 140.453 384.677C140.753 385.227 140.903 385.872 140.903 386.612V387.152H134.918C134.948 387.942 135.203 388.562 135.683 389.012C136.163 389.452 136.763 389.672 137.483 389.672C138.113 389.672 138.598 389.527 138.938 389.237C139.278 388.947 139.538 388.602 139.718 388.202L140.738 388.697C140.588 389.007 140.378 389.317 140.108 389.627C139.848 389.937 139.503 390.197 139.073 390.407C138.653 390.617 138.113 390.722 137.453 390.722ZM134.933 386.177H139.703C139.663 385.497 139.428 384.967 138.998 384.587C138.578 384.207 138.038 384.017 137.378 384.017C136.708 384.017 136.158 384.207 135.728 384.587C135.298 384.967 135.033 385.497 134.933 386.177ZM142.97 390.512V383.177H144.125V384.077H144.335C144.465 383.757 144.665 383.522 144.935 383.372C145.205 383.222 145.56 383.147 146 383.147H146.87V384.227H145.925C145.395 384.227 144.965 384.377 144.635 384.677C144.315 384.967 144.155 385.422 144.155 386.042V390.512H142.97ZM151.72 390.722C150.98 390.722 150.33 390.567 149.77 390.257C149.21 389.937 148.775 389.492 148.465 388.922C148.155 388.352 148 387.692 148 386.942V386.762C148 386.002 148.155 385.337 148.465 384.767C148.775 384.197 149.205 383.757 149.755 383.447C150.305 383.127 150.935 382.967 151.645 382.967C152.335 382.967 152.945 383.117 153.475 383.417C154.005 383.707 154.42 384.127 154.72 384.677C155.02 385.227 155.17 385.872 155.17 386.612V387.152H149.185C149.215 387.942 149.47 388.562 149.95 389.012C150.43 389.452 151.03 389.672 151.75 389.672C152.38 389.672 152.865 389.527 153.205 389.237C153.545 388.947 153.805 388.602 153.985 388.202L155.005 388.697C154.855 389.007 154.645 389.317 154.375 389.627C154.115 389.937 153.77 390.197 153.34 390.407C152.92 390.617 152.38 390.722 151.72 390.722ZM149.2 386.177H153.97C153.93 385.497 153.695 384.967 153.265 384.587C152.845 384.207 152.305 384.017 151.645 384.017C150.975 384.017 150.425 384.207 149.995 384.587C149.565 384.967 149.3 385.497 149.2 386.177ZM160.342 390.722C159.712 390.722 159.132 390.572 158.602 390.272C158.072 389.972 157.652 389.537 157.342 388.967C157.032 388.397 156.877 387.722 156.877 386.942V386.747C156.877 385.967 157.032 385.297 157.342 384.737C157.652 384.167 158.067 383.732 158.587 383.432C159.117 383.122 159.702 382.967 160.342 382.967C160.852 382.967 161.282 383.037 161.632 383.177C161.992 383.307 162.282 383.477 162.502 383.687C162.722 383.887 162.892 384.102 163.012 384.332H163.222V380.012H164.407V390.512H163.252V389.297H163.042C162.842 389.667 162.532 389.997 162.112 390.287C161.692 390.577 161.102 390.722 160.342 390.722ZM160.657 389.672C161.417 389.672 162.032 389.432 162.502 388.952C162.982 388.462 163.222 387.782 163.222 386.912V386.777C163.222 385.907 162.982 385.232 162.502 384.752C162.032 384.262 161.417 384.017 160.657 384.017C159.907 384.017 159.287 384.262 158.797 384.752C158.317 385.232 158.077 385.907 158.077 386.777V386.912C158.077 387.782 158.317 388.462 158.797 388.952C159.287 389.432 159.907 389.672 160.657 389.672Z" fill="black"/>
<defs>
<filter id="filter0_d_221_243" x="0" y="0" width="215.921" height="215.922" filterUnits="userSpaceOnUse" color-interpolation-filters="sRGB">
<feFlood flood-opacity="0" result="BackgroundImageFix"/>
<feColorMatrix in="SourceAlpha" type="matrix" values="0 0 0 0 0 0 0 0 0 0 0 0 0 0 0 0 0 0 127 0" result="hardAlpha"/>
<feOffset dy="4"/>
<feGaussianBlur stdDeviation="5"/>
<feComposite in2="hardAlpha" operator="out"/>
<feColorMatrix type="matrix" values="0 0 0 0 0 0 0 0 0 0 0 0 0 0 0 0 0 0 0.15 0"/>
<feBlend mode="normal" in2="BackgroundImageFix" result="effect1_dropShadow_221_243"/>
<feBlend mode="normal" in="SourceGraphic" in2="effect1_dropShadow_221_243" result="shape"/>
</filter>
<filter id="filter1_d_221_243" x="236.078" y="0" width="215.921" height="215.922" filterUnits="userSpaceOnUse" color-interpolation-filters="sRGB">
<feFlood flood-opacity="0" result="BackgroundImageFix"/>
<feColorMatrix in="SourceAlpha" type="matrix" values="0 0 0 0 0 0 0 0 0 0 0 0 0 0 0 0 0 0 127 0" result="hardAlpha"/>
<feOffset dy="4"/>
<feGaussianBlur stdDeviation="5"/>
<feComposite in2="hardAlpha" operator="out"/>
<feColorMatrix type="matrix" values="0 0 0 0 0 0 0 0 0 0 0 0 0 0 0 0 0 0 0.15 0"/>
<feBlend mode="normal" in2="BackgroundImageFix" result="effect1_dropShadow_221_243"/>
<feBlend mode="normal" in="SourceGraphic" in2="effect1_dropShadow_221_243" result="shape"/>
</filter>
<filter id="filter2_d_221_243" x="0" y="239.592" width="215.921" height="215.922" filterUnits="userSpaceOnUse" color-interpolation-filters="sRGB">
<feFlood flood-opacity="0" result="BackgroundImageFix"/>
<feColorMatrix in="SourceAlpha" type="matrix" values="0 0 0 0 0 0 0 0 0 0 0 0 0 0 0 0 0 0 127 0" result="hardAlpha"/>
<feOffset dy="4"/>
<feGaussianBlur stdDeviation="5"/>
<feComposite in2="hardAlpha" operator="out"/>
<feColorMatrix type="matrix" values="0 0 0 0 0 0 0 0 0 0 0 0 0 0 0 0 0 0 0.15 0"/>
<feBlend mode="normal" in2="BackgroundImageFix" result="effect1_dropShadow_221_243"/>
<feBlend mode="normal" in="SourceGraphic" in2="effect1_dropShadow_221_243" result="shape"/>
</filter>
<filter id="filter3_d_221_243" x="236" y="239.592" width="215.921" height="215.922" filterUnits="userSpaceOnUse" color-interpolation-filters="sRGB">
<feFlood flood-opacity="0" result="BackgroundImageFix"/>
<feColorMatrix in="SourceAlpha" type="matrix" values="0 0 0 0 0 0 0 0 0 0 0 0 0 0 0 0 0 0 127 0" result="hardAlpha"/>
<feOffset dy="4"/>
<feGaussianBlur stdDeviation="5"/>
<feComposite in2="hardAlpha" operator="out"/>
<feColorMatrix type="matrix" values="0 0 0 0 0 0 0 0 0 0 0 0 0 0 0 0 0 0 0.15 0"/>
<feBlend mode="normal" in2="BackgroundImageFix" result="effect1_dropShadow_221_243"/>
<feBlend mode="normal" in="SourceGraphic" in2="effect1_dropShadow_221_243" result="shape"/>
</filter>
</defs>
</svg>
