<svg width="17" height="17" viewBox="0 0 17 17" fill="none" xmlns="http://www.w3.org/2000/svg">
<path fill-rule="evenodd" clip-rule="evenodd" d="M3.57124 0.257203C6.66509 -0.0857342 9.78738 -0.0857342 12.8812 0.257203C14.5942 0.449203 15.9762 1.7982 16.1772 3.5172C16.5442 6.65518 16.5442 9.82523 16.1772 12.9632C15.9762 14.6822 14.5942 16.0312 12.8812 16.2232C9.78738 16.5662 6.66509 16.5662 3.57124 16.2232C1.85824 16.0312 0.476236 14.6822 0.275236 12.9632C-0.0917452 9.82556 -0.0917452 6.65584 0.275236 3.5182C0.376903 2.68307 0.757615 1.90675 1.35567 1.31505C1.95372 0.723347 2.73407 0.350947 3.57024 0.258203M8.22624 3.2472C8.42515 3.2472 8.61591 3.32622 8.75657 3.46687C8.89722 3.60752 8.97624 3.79829 8.97624 3.9972V7.4902H12.4692C12.6681 7.4902 12.8589 7.56922 12.9996 7.70987C13.1402 7.85052 13.2192 8.04129 13.2192 8.2402C13.2192 8.43912 13.1402 8.62988 12.9996 8.77053C12.8589 8.91119 12.6681 8.9902 12.4692 8.9902H8.97624V12.4832C8.97624 12.6821 8.89722 12.8729 8.75657 13.0135C8.61591 13.1542 8.42515 13.2332 8.22624 13.2332C8.02732 13.2332 7.83656 13.1542 7.69591 13.0135C7.55525 12.8729 7.47624 12.6821 7.47624 12.4832V8.9902H3.98324C3.78432 8.9902 3.59356 8.91119 3.45291 8.77053C3.31225 8.62988 3.23324 8.43912 3.23324 8.2402C3.23324 8.04129 3.31225 7.85052 3.45291 7.70987C3.59356 7.56922 3.78432 7.4902 3.98324 7.4902H7.47624V3.9972C7.47624 3.79829 7.55525 3.60752 7.69591 3.46687C7.83656 3.32622 8.02732 3.2472 8.22624 3.2472Z" fill="#07242B"/>
</svg>
