<svg width="18" height="22" viewBox="0 0 18 22" fill="none" xmlns="http://www.w3.org/2000/svg">
<path d="M4.71742 21.0711C4.30312 20.7964 3.93538 20.4566 3.6328 20.0656C3.29299 19.6653 2.99042 19.237 2.70181 18.7995C2.03149 17.8219 1.51013 16.7559 1.14704 15.6248C0.709474 14.3167 0.5 13.0599 0.5 11.8356C0.5 10.467 0.797919 9.2707 1.37514 8.26522C1.8034 7.48319 2.43647 6.82218 3.20455 6.36599C3.94934 5.90049 4.81051 5.64912 5.681 5.63516C5.98823 5.63516 6.31873 5.68171 6.66785 5.7655C6.91922 5.83532 7.22645 5.94704 7.60351 6.09135C8.07831 6.27289 8.34365 6.38927 8.43209 6.4172C8.71139 6.51961 8.94414 6.5615 9.13034 6.5615C9.26999 6.5615 9.47015 6.51495 9.69359 6.44978C9.81928 6.40323 10.0567 6.32875 10.4012 6.17979C10.741 6.05876 11.0063 5.9517 11.2158 5.87256C11.5416 5.77481 11.8535 5.69102 12.1328 5.64447C12.4726 5.59326 12.8124 5.57464 13.1336 5.60257C13.7527 5.64447 14.3206 5.77481 14.828 5.96566C15.7171 6.3241 16.434 6.88269 16.9693 7.6787C16.7412 7.81835 16.5318 7.97662 16.3363 8.15816C15.908 8.53521 15.5542 8.97744 15.261 9.47087C14.8839 10.1412 14.693 10.9046 14.6977 11.668C14.7117 12.613 14.9537 13.4416 15.4285 14.1631C15.7683 14.6891 16.2199 15.136 16.7692 15.5037C17.0438 15.6853 17.2766 15.8156 17.5 15.8994C17.3929 16.2252 17.2812 16.5418 17.1509 16.8583C16.8483 17.5659 16.4852 18.2362 16.0616 18.8739C15.6846 19.4232 15.3866 19.8329 15.1632 20.1028C14.8141 20.5171 14.4743 20.8337 14.1344 21.0571C13.7574 21.3038 13.3152 21.4388 12.8683 21.4388C12.5611 21.4528 12.2585 21.4109 11.9652 21.3318C11.7139 21.248 11.4625 21.1549 11.2204 21.0478C10.9644 20.9314 10.7037 20.829 10.4337 20.7499C10.0986 20.6614 9.75876 20.6196 9.41895 20.6196C9.06983 20.6196 8.72536 20.6661 8.40882 20.7452C8.13417 20.8244 7.87349 20.9175 7.61281 21.0292C7.24973 21.1828 7.00767 21.2852 6.86802 21.3271C6.58872 21.4109 6.30011 21.4621 6.00685 21.4761C5.55531 21.4761 5.13171 21.3457 4.71276 21.0851L4.71742 21.0711ZM10.6944 4.96484C10.1032 5.26276 9.53532 5.38845 8.97207 5.34655C8.88363 4.77864 8.97207 4.20142 9.20482 3.56835C9.41429 3.02837 9.69359 2.53959 10.0753 2.10203C10.4756 1.65049 10.9551 1.27344 11.4951 1.00345C12.0723 0.705531 12.6216 0.547262 13.1429 0.523987C13.2128 1.11517 13.1429 1.7017 12.9242 2.33012C12.724 2.88872 12.4261 3.40542 12.0537 3.86161C11.672 4.31314 11.2018 4.6902 10.6711 4.96019L10.6944 4.96484Z" fill="white"/>
</svg>
