<svg width="143" height="49" viewBox="0 0 143 49" fill="none" xmlns="http://www.w3.org/2000/svg">
<path d="M131.716 0.896973H9.84064C9.00913 0.896973 8.29641 1.01576 7.46491 1.13455C6.75219 1.25333 5.92068 1.49091 5.20796 1.84727C4.49524 2.20363 3.90131 2.67877 3.30737 3.27271C2.71344 3.86664 2.23829 4.46057 1.88193 5.17329C1.52557 5.88601 1.288 6.71752 1.16921 7.43024C1.05043 8.26174 0.931641 9.09325 0.931641 9.80597V39.3838C0.931641 40.2154 1.05043 40.9281 1.16921 41.7596C1.288 42.5911 1.52557 43.3038 1.88193 44.0165C2.23829 44.848 2.71344 45.442 3.30737 46.0359C3.90131 46.6298 4.49524 47.105 5.20796 47.4613C5.92068 47.8177 6.6334 48.0553 7.46491 48.1741C8.29641 48.2928 9.00913 48.4116 9.84064 48.4116H134.091C134.923 48.4116 135.636 48.2928 136.467 48.1741C137.299 48.0553 138.011 47.8177 138.724 47.4613C139.437 47.105 140.031 46.6298 140.625 46.0359C141.219 45.442 141.694 44.848 142.05 44.1353C142.407 43.4226 142.644 42.7099 142.763 41.8784C142.882 41.0469 143 40.3341 143 39.5026V38.4336V12.1817V10.8751V9.80597C143 8.97446 142.882 8.26174 142.763 7.43024C142.644 6.59873 142.407 5.88601 142.05 5.17329C141.337 3.74785 140.15 2.55999 138.724 1.84727C138.011 1.49091 137.299 1.25333 136.467 1.13455C135.636 1.01576 134.923 0.896973 134.091 0.896973L131.716 0.896973Z" fill="#A6A6A6"/>
<path d="M10.9096 47.3431H9.84054C9.12782 47.3431 8.29632 47.2243 7.5836 47.1055C6.87088 46.9867 6.27694 46.7491 5.56422 46.5116C4.97029 46.1552 4.37636 45.7988 3.90121 45.3237C3.42606 44.8485 2.95092 44.2546 2.71334 43.6607C2.35698 43.0667 2.2382 42.354 2.11941 41.6413C2.00062 40.9286 1.88184 40.2159 1.88184 39.3844V10.8756V9.80647C1.88184 9.09375 2.00062 8.26225 2.11941 7.54953C2.2382 6.95559 2.47577 6.24287 2.83213 5.64894C3.18849 5.05501 3.54485 4.46107 4.02 3.98593C4.49514 3.51078 5.08908 3.15442 5.68301 2.79806C6.27694 2.4417 6.98966 2.32291 7.70238 2.20413C8.4151 2.08534 9.12782 1.96655 9.95933 1.96655H134.21C134.923 1.96655 135.636 2.08534 136.467 2.20413C137.18 2.32291 137.774 2.56049 138.487 2.79806C139.674 3.39199 140.743 4.46107 141.337 5.64894C141.694 6.24287 141.813 6.95559 141.931 7.54953C142.05 8.26225 142.169 9.09375 142.169 9.80647V39.3844C142.169 40.0971 142.05 40.8098 141.931 41.6413C141.813 42.354 141.575 42.9479 141.337 43.6607C140.981 44.2546 140.625 44.8485 140.15 45.3237C139.674 45.7988 139.08 46.274 138.487 46.5116C137.893 46.8679 137.18 47.1055 136.467 47.1055C135.754 47.2243 135.042 47.3431 134.21 47.3431H10.9096Z" fill="black"/>
<path d="M30.3905 25.0107C30.3905 22.9913 31.4596 21.0907 33.2414 20.0217C32.1723 18.4774 30.3905 17.5271 28.4899 17.4084C26.4706 17.1708 24.57 18.5962 23.5009 18.5962C22.4318 18.5962 20.8876 17.4084 19.2246 17.4084C16.9676 17.5271 14.9483 18.715 13.8792 20.6156C11.6222 24.5356 13.2853 30.4749 15.5422 33.6821C16.6113 35.2264 17.9179 37.0082 19.5809 37.0082C21.244 36.8894 21.8379 35.9391 23.8573 35.9391C25.8766 35.9391 26.3518 37.0082 28.1336 37.0082C29.9154 37.0082 30.9845 35.4639 32.0535 33.8009C32.8851 32.7318 33.479 31.4252 33.8353 30.1185C31.6972 29.4058 30.3905 27.2676 30.3905 25.0107ZM27.0645 15.389C28.0148 14.2011 28.4899 12.7757 28.3712 11.2314C26.9457 11.3502 25.5203 12.063 24.57 13.2508C23.6197 14.3199 23.1445 15.7453 23.2633 17.2896C24.8076 17.2896 26.1142 16.5768 27.0645 15.389ZM51.1782 33.0882H45.5952L44.2886 37.1269H41.9128L47.2582 22.3974H49.634L54.9794 37.1269H52.6036L51.1782 33.0882ZM46.1892 31.3064H50.7031L48.4461 24.7731H48.3273L46.1892 31.3064ZM66.5017 31.7815C66.5017 35.1076 64.7199 37.2457 61.9878 37.2457C60.5623 37.3645 59.2557 36.533 58.6618 35.3451V40.6905H56.4048V26.4361H58.543V28.2179C59.2557 27.0301 60.5623 26.3174 61.9878 26.3174C64.6011 26.1986 66.5017 28.4555 66.5017 31.7815ZM64.1259 31.7815C64.1259 29.6434 63.0569 28.2179 61.2751 28.2179C59.612 28.2179 58.4242 29.6434 58.4242 31.7815C58.4242 33.9197 59.612 35.3451 61.2751 35.3451C63.0569 35.3451 64.1259 33.9197 64.1259 31.7815ZM78.2616 31.7815C78.2616 35.1076 76.4798 37.2457 73.7477 37.2457C72.3222 37.3645 71.0156 36.533 70.4216 35.3451V40.6905H68.1647V26.4361H70.3028V28.2179C71.0156 27.0301 72.3222 26.3174 73.7477 26.3174C76.4798 26.1986 78.2616 28.4555 78.2616 31.7815ZM76.0046 31.7815C76.0046 29.6434 74.9355 28.2179 73.1537 28.2179C71.4907 28.2179 70.3028 29.6434 70.3028 31.7815C70.3028 33.9197 71.4907 35.3451 73.1537 35.3451C74.9355 35.3451 76.0046 33.9197 76.0046 31.7815ZM86.1015 32.9694C86.2203 34.3948 87.6457 35.3451 89.6651 35.3451C91.5657 35.3451 92.8723 34.3948 92.8723 33.0882C92.8723 31.9003 92.0408 31.3064 90.1402 30.8312L88.2396 30.3561C85.5075 29.7622 84.3197 28.4555 84.3197 26.4361C84.3197 23.9416 86.5766 22.1598 89.6651 22.1598C92.7535 22.1598 94.8917 23.9416 95.0105 26.4361H92.7535C92.6347 25.0107 91.4469 24.0604 89.6651 24.0604C87.8833 24.0604 86.6954 25.0107 86.6954 26.3174C86.6954 27.3864 87.5269 27.9804 89.4275 28.4555L91.0905 28.8119C94.0602 29.5246 95.3668 30.7125 95.3668 32.8506C95.3668 35.5827 93.2287 37.3645 89.6651 37.3645C86.339 37.3645 84.2009 35.7015 84.0821 32.9694H86.1015ZM99.8807 23.8228V26.3174H101.9V28.0991H99.8807V34.0385C99.8807 34.9888 100.237 35.3451 101.187 35.3451H101.9V37.1269C101.544 37.2457 101.069 37.2457 100.712 37.2457C98.5741 37.2457 97.7426 36.4142 97.7426 34.3948V28.2179H96.1983V26.4361H97.7426V23.9416H99.8807V23.8228ZM103.207 31.7815C103.207 28.4555 105.226 26.3174 108.315 26.3174C111.403 26.3174 113.422 28.4555 113.422 31.7815C113.422 35.2263 111.403 37.2457 108.315 37.2457C105.107 37.2457 103.207 35.1076 103.207 31.7815ZM111.165 31.7815C111.165 29.4058 110.096 28.0991 108.315 28.0991C106.533 28.0991 105.464 29.4058 105.464 31.7815C105.464 34.1573 106.533 35.4639 108.315 35.4639C110.096 35.4639 111.165 34.0385 111.165 31.7815ZM115.204 26.3174H117.342V28.2179C117.58 27.0301 118.768 26.1986 119.956 26.3174C120.193 26.3174 120.431 26.3174 120.668 26.4361V28.4555C120.312 28.3367 119.956 28.3367 119.718 28.3367C118.53 28.3367 117.461 29.287 117.461 30.4749V37.2457H115.204V26.3174ZM130.884 33.9197C130.646 35.8203 128.746 37.2457 126.251 37.2457C123.163 37.2457 121.144 35.1076 121.144 31.7815C121.144 28.4555 123.044 26.1986 126.133 26.1986C129.102 26.1986 131.003 28.2179 131.003 31.544V32.2567H123.4V32.3755C123.282 33.9197 124.351 35.2264 125.895 35.4639H126.251C127.32 35.5827 128.39 34.9888 128.746 33.9197H130.884ZM123.4 30.7125H128.746C128.865 29.287 127.677 28.0991 126.251 27.9804H126.014C124.588 27.9804 123.4 29.1682 123.4 30.7125Z" fill="white"/>
<path d="M45.833 11.2318C47.6148 11.1131 49.0403 12.4197 49.1591 14.0827V14.6767C49.1591 16.9336 47.9712 18.2403 45.833 18.2403H43.2197V11.1131L45.833 11.2318ZM44.4076 17.4088H45.7142C46.9021 17.5275 47.9712 16.5772 48.09 15.2706V14.7954C48.2088 13.6076 47.3773 12.4197 46.1894 12.3009H44.4076V17.4088ZM50.4657 15.627C50.3469 14.2015 51.416 13.0136 52.7227 12.8949C54.1481 12.7761 55.336 13.8452 55.4548 15.1518V15.627C55.5735 17.0524 54.6232 18.2403 53.1978 18.359C51.7724 18.4778 50.5845 17.5275 50.4657 16.1021V15.627ZM54.3857 15.627C54.3857 14.4391 53.9105 13.8452 52.9602 13.8452C52.0099 13.8452 51.5348 14.5579 51.5348 15.627C51.5348 16.8148 52.0099 17.5275 52.9602 17.5275C53.9105 17.5275 54.3857 16.8148 54.3857 15.627ZM62.2256 18.359H61.1565L60.0874 14.4391H59.9686L58.8996 18.359H57.8305L56.405 13.0136H57.4741L58.4244 17.0524H58.5432L59.6123 13.0136H60.6814L61.7505 17.0524H61.8692L62.8195 13.0136H63.8886L62.2256 18.359ZM64.9577 13.0136H66.0268V13.8452H66.1456C66.3831 13.2512 67.0958 12.8949 67.6898 12.8949C68.6401 12.7761 69.4716 13.4888 69.5904 14.5579V18.359H68.5213V15.1518C68.5213 14.3203 68.1649 13.8452 67.3334 13.8452C66.6207 13.8452 66.0268 14.3203 66.0268 15.033V18.359H64.9577V13.0136ZM71.1346 10.8755H72.2037V18.359H71.1346V10.8755ZM73.6291 15.627C73.5103 14.2015 74.4606 13.0136 75.8861 12.8949C77.3115 12.7761 78.4994 13.7264 78.6182 15.1518V15.627C78.7369 17.0524 77.7866 18.2403 76.3612 18.359C74.9358 18.4778 73.7479 17.5275 73.6291 16.1021V15.627ZM77.6679 15.627C77.6679 14.4391 77.1927 13.8452 76.2424 13.8452C75.2921 13.8452 74.817 14.5579 74.817 15.627C74.817 16.8148 75.2921 17.5275 76.2424 17.5275C77.0739 17.5275 77.6679 16.8148 77.6679 15.627ZM79.806 16.8148C79.806 15.8645 80.5187 15.2706 81.8254 15.2706L83.2508 15.1518V14.6767C83.2508 14.0827 82.8945 13.8452 82.1818 13.8452C81.5878 13.8452 81.2315 14.0827 81.1127 14.4391H80.0436C80.1624 13.4888 80.9939 12.8949 82.1818 12.8949C83.4884 12.8949 84.3199 13.6076 84.3199 14.6767V18.359H83.2508V17.6463H83.132C82.7757 18.2403 82.1818 18.4778 81.469 18.4778C80.6375 18.5966 79.806 17.8839 79.6872 17.0524C79.806 16.9336 79.806 16.9336 79.806 16.8148ZM83.2508 16.3397V15.8645L81.9442 15.9833C81.2315 15.9833 80.8751 16.3397 80.8751 16.696C80.8751 17.1712 81.3502 17.4088 81.8254 17.4088C82.5381 17.6463 83.1321 17.1712 83.2508 16.3397C83.2508 16.4585 83.2508 16.4585 83.2508 16.3397ZM85.6266 15.627C85.6266 13.9639 86.4581 12.8949 87.8835 12.8949C88.5962 12.8949 89.1902 13.2512 89.5465 13.8452H89.6653V10.8755H90.7344V18.359H89.6653V17.5275H89.5465C89.1902 18.1215 88.5962 18.4778 87.8835 18.4778C86.5769 18.4778 85.6266 17.4088 85.6266 15.627ZM86.8144 15.627C86.8144 16.8148 87.2896 17.4088 88.2399 17.4088C89.1902 17.4088 89.6653 16.696 89.6653 15.627C89.6653 14.5579 89.0714 13.8452 88.2399 13.8452C87.2896 13.8452 86.8144 14.5579 86.8144 15.627ZM95.0107 15.627C94.8919 14.2015 95.8422 13.0136 97.2677 12.8949C98.6931 12.7761 99.881 13.7264 99.9998 15.1518V15.627C100.119 17.0524 99.1683 18.2403 97.7428 18.359C96.3174 18.4778 95.1295 17.5275 95.0107 16.1021V15.627ZM99.0495 15.627C99.0495 14.4391 98.5743 13.8452 97.624 13.8452C96.6737 13.8452 96.1986 14.5579 96.1986 15.627C96.1986 16.8148 96.6737 17.5275 97.624 17.5275C98.4555 17.5275 99.0495 16.8148 99.0495 15.627ZM101.544 13.0136H102.613V13.8452H102.732C102.969 13.2512 103.682 12.8949 104.276 12.8949C105.226 12.7761 106.058 13.4888 106.177 14.5579V18.359H105.108V15.1518C105.108 14.3203 104.751 13.8452 103.92 13.8452C103.207 13.8452 102.613 14.3203 102.613 15.033V18.359H101.544V13.0136ZM111.997 11.707V13.0136H113.185V13.9639H111.997V16.696C111.997 17.29 112.235 17.5275 112.71 17.5275H113.066V18.359H112.472C111.284 18.359 110.809 18.0027 110.809 16.9336V13.9639H109.978V13.1324H110.809V11.707H111.997ZM114.611 10.8755H115.68V13.8452H115.798C116.036 13.2512 116.749 12.7761 117.461 12.8949C118.412 12.8949 119.243 13.6076 119.362 14.5579V18.359H118.293V15.1518C118.293 14.3203 117.937 13.8452 117.105 13.8452C116.392 13.8452 115.798 14.3203 115.798 15.033V18.359H114.729V10.8755H114.611ZM125.42 16.9336C125.183 17.8839 124.113 18.5966 123.163 18.4778C121.857 18.4778 120.669 17.4088 120.669 16.1021V15.7457C120.431 14.4391 121.381 13.1324 122.807 13.0136H123.163C124.707 13.0136 125.539 14.0827 125.539 15.7457V16.1021H121.738V16.2209C121.619 17.0524 122.213 17.6463 123.044 17.7651H123.163C123.638 17.8839 124.232 17.5275 124.47 17.1712H125.42V16.9336ZM121.619 15.1518H124.351C124.351 14.4391 123.876 13.8452 123.163 13.7264H123.044C122.332 13.8452 121.619 14.4391 121.619 15.1518Z" fill="white"/>
</svg>
