<svg width="12" height="11" viewBox="0 0 12 11" fill="none" xmlns="http://www.w3.org/2000/svg">
<path fill-rule="evenodd" clip-rule="evenodd" d="M0.999822 10.9368C0.802065 10.9368 0.60876 10.8451 0.444344 10.6734C0.279928 10.5017 0.151784 10.2577 0.0761115 9.97226C0.000438751 9.6868 -0.0193652 9.37269 0.0192037 9.06965C0.0577727 8.76661 0.152983 8.48824 0.292797 8.26973L5.29297 0.457465C5.48051 0.164551 5.73483 2.74161e-07 6 2.86838e-07C6.26517 2.99515e-07 6.51949 0.164551 6.70703 0.457465L11.7072 8.26973C11.847 8.48824 11.9422 8.76661 11.9808 9.06965C12.0194 9.37269 11.9996 9.6868 11.9239 9.97226C11.8482 10.2577 11.7201 10.5017 11.5557 10.6734C11.3912 10.8451 11.1979 10.9368 11.0002 10.9368L0.999822 10.9368Z" fill="#ACACAC"/>
</svg>
