<svg width="23" height="23" viewBox="0 0 23 23" fill="none" xmlns="http://www.w3.org/2000/svg">
<circle cx="11.5" cy="11.5" r="11.5" fill="#07242B"/>
<path d="M5.1936 10.379C4.77939 10.379 4.4436 10.7148 4.4436 11.129C4.4436 11.5432 4.77939 11.879 5.1936 11.879L5.1936 10.379ZM18.3368 11.6594C18.6297 11.3665 18.6297 10.8916 18.3368 10.5987L13.5639 5.82573C13.271 5.53283 12.7961 5.53283 12.5032 5.82573C12.2103 6.11862 12.2103 6.59349 12.5032 6.88639L16.7458 11.129L12.5032 15.3717C12.2103 15.6646 12.2103 16.1394 12.5032 16.4323C12.7961 16.7252 13.271 16.7252 13.5639 16.4323L18.3368 11.6594ZM5.1936 11.879L17.8065 11.879L17.8065 10.379L5.1936 10.379L5.1936 11.879Z" fill="white"/>
</svg>
