<svg width="10" height="12" viewBox="0 0 10 12" fill="none" xmlns="http://www.w3.org/2000/svg">
<path fill-rule="evenodd" clip-rule="evenodd" d="M8.74073e-08 11.0002C6.11053e-05 11.1979 0.0838795 11.3912 0.240862 11.5557C0.397844 11.7201 0.620942 11.8482 0.881949 11.9239C1.14296 11.9996 1.43016 12.0194 1.70724 11.9808C1.98432 11.9422 2.23885 11.847 2.43865 11.7072L9.58172 6.70703C9.84955 6.51949 10 6.26517 10 6C10 5.73483 9.84955 5.48051 9.58172 5.29297L2.43865 0.292795C2.23885 0.152981 1.98432 0.0577719 1.70724 0.0192034C1.43016 -0.0193661 1.14296 0.000437916 0.88195 0.076111C0.620943 0.151783 0.397845 0.279927 0.240863 0.444344C0.0838805 0.608759 6.20141e-05 0.802064 9.61666e-07 0.999821L8.74073e-08 11.0002Z" fill="#07242B"/>
</svg>
