<svg width="14" height="12" viewBox="0 0 14 12" fill="none" xmlns="http://www.w3.org/2000/svg">
<path d="M5.6 8.66667V8H0.707L0.7 10.6667C0.7 11.4067 1.323 12 2.1 12H11.9C12.677 12 13.3 11.4067 13.3 10.6667V8H8.4V8.66667H5.6ZM12.6 2.66667H9.793V1.33333L8.393 0H5.593L4.193 1.33333V2.66667H1.4C0.63 2.66667 0 3.26667 0 4V6C0 6.74 0.623 7.33333 1.4 7.33333H5.6V6H8.4V7.33333H12.6C13.37 7.33333 14 6.73333 14 6V4C14 3.26667 13.37 2.66667 12.6 2.66667ZM8.4 2.66667H5.6V1.33333H8.4V2.66667Z" fill="#FFBE00"/>
</svg>
