<svg width="15" height="15" viewBox="0 0 15 15" fill="none" xmlns="http://www.w3.org/2000/svg">
<path d="M11.5625 6.375C13.1848 6.375 14.5 5.05984 14.5 3.4375C14.5 1.81516 13.1848 0.5 11.5625 0.5C9.94016 0.5 8.625 1.81516 8.625 3.4375C8.625 5.05984 9.94016 6.375 11.5625 6.375Z" stroke="white" stroke-linecap="round" stroke-linejoin="round"/>
<path d="M3.4375 14.5C5.05984 14.5 6.375 13.1848 6.375 11.5625C6.375 9.94016 5.05984 8.625 3.4375 8.625C1.81516 8.625 0.5 9.94016 0.5 11.5625C0.5 13.1848 1.81516 14.5 3.4375 14.5Z" stroke="white" stroke-linecap="round" stroke-linejoin="round"/>
<path d="M9.125 8.625C8.84886 8.625 8.625 8.84886 8.625 9.125V13.1875C8.625 13.5356 8.76328 13.8694 9.00942 14.1156C9.25556 14.3617 9.5894 14.5 9.9375 14.5H13.1875C13.5356 14.5 13.8694 14.3617 14.1156 14.1156C14.3617 13.8694 14.5 13.5356 14.5 13.1875V9.125C14.5 8.84886 14.2761 8.625 14 8.625H9.125ZM1 0.5C0.723858 0.5 0.5 0.723858 0.5 1V5.0625C0.5 5.4106 0.638281 5.74444 0.884422 5.99058C1.13056 6.23672 1.4644 6.375 1.8125 6.375H5.0625C5.4106 6.375 5.74444 6.23672 5.99058 5.99058C6.23672 5.74444 6.375 5.4106 6.375 5.0625V1C6.375 0.723858 6.15114 0.5 5.875 0.5H1Z" stroke="white" stroke-linecap="round" stroke-linejoin="round"/>
</svg>

