<svg width="14" height="20" viewBox="0 0 14 20" fill="none" xmlns="http://www.w3.org/2000/svg">
<path fill-rule="evenodd" clip-rule="evenodd" d="M5.8526 10.5073L0.64542 0.713033C0.615505 0.65677 0.596964 0.595166 0.590857 0.531738C0.58475 0.46831 0.591195 0.4043 0.609825 0.343363C0.647451 0.220296 0.732424 0.117215 0.846051 0.0567982C0.959678 -0.00361864 1.09265 -0.0164226 1.21572 0.0212029C1.27666 0.0398332 1.33333 0.0702835 1.3825 0.110815C1.43167 0.151347 1.47237 0.201166 1.50229 0.257429L6.70995 10.0517L7.44842 9.65868C7.6735 9.53903 7.91994 9.46488 8.17368 9.44047C8.42741 9.41607 8.68347 9.44189 8.92723 9.51646C9.17098 9.59103 9.39766 9.71288 9.59432 9.87507C9.79097 10.0373 9.95375 10.2366 10.0734 10.4617L10.3878 11.0532L13.7211 15.9314L9.48142 18.1851L8.01271 15.2822L7.14711 15.7203L8.62455 18.6412L6.80699 19.6072L4.62601 14.1157L4.31208 13.5248C4.19241 13.2997 4.11823 13.0533 4.0938 12.7996C4.06936 12.5459 4.09514 12.2898 4.16966 12.0461C4.24418 11.8023 4.36599 11.5756 4.52812 11.379C4.69026 11.1823 4.88955 11.0195 5.11461 10.8998L5.8526 10.5073ZM7.90354 10.516L5.56973 11.7567C5.4572 11.8165 5.35755 11.8979 5.27648 11.9963C5.19542 12.0946 5.13451 12.2079 5.09725 12.3298C5.05999 12.4517 5.0471 12.5797 5.05932 12.7066C5.07154 12.8334 5.10863 12.9566 5.16847 13.0692L5.48239 13.6601L9.53042 11.5078L9.21601 10.9173C9.15619 10.8048 9.07478 10.7051 8.97644 10.6241C8.87811 10.543 8.76476 10.4821 8.64289 10.4448C8.52101 10.4076 8.39299 10.3947 8.26613 10.4069C8.13927 10.4191 8.01607 10.4562 7.90354 10.516Z" fill="#FFBE00"/>
</svg>
