<svg width="15" height="15" viewBox="0 0 15 15" fill="none" xmlns="http://www.w3.org/2000/svg">
<path d="M1 7.65118C3.24991 7.65118 5.38463 7.02506 6.93314 5.47655C8.48105 3.92864 8.70991 1.72801 10.8988 1.63852C8.1361 -0.138249 5.16786 2.24922 3.51051 5.10468" stroke="#FFBE00" stroke-linecap="round" stroke-linejoin="round"/>
<path d="M6.70277 1C3.42042 1 1 4.36791 1 7.65147M11.3547 2.18572C12.3009 2.73233 13.7167 4.04714 14 5.10468C12.4137 5.52975 10.4214 5.65128 8.52701 4.55747" stroke="#FFBE00" stroke-linecap="round" stroke-linejoin="round"/>
<path d="M10.1657 3.00351C10.4214 3.07184 11.2525 3.45156 11.446 3.64535M14.0001 7.34854C11.7505 7.34854 9.61544 7.97496 8.06723 9.52317C6.51872 11.0714 6.29046 13.272 4.10132 13.3615C6.86427 15.1383 9.83221 12.7508 11.4896 9.89533" stroke="#FFBE00" stroke-linecap="round" stroke-linejoin="round"/>
<path d="M8.29724 14C11.5796 14 14 10.6321 14 7.34854M3.64535 12.8143C2.69907 12.2677 1.28358 10.9526 1 9.89533C2.5863 9.47026 4.57863 9.34873 6.473 10.4425" stroke="#FFBE00" stroke-linecap="round" stroke-linejoin="round"/>
<path d="M4.8343 11.9965C4.57854 11.9279 3.74744 11.5485 3.55396 11.3547" stroke="#FFBE00" stroke-linecap="round" stroke-linejoin="round"/>
</svg>
