<svg width="24" height="24" viewBox="0 0 24 24" fill="none" xmlns="http://www.w3.org/2000/svg">
<path d="M12 24C18.6274 24 24 18.6274 24 12C24 5.37257 18.6274 0 12 0C5.37257 0 0 5.37257 0 12C0 18.6274 5.37257 24 12 24Z" fill="#F9C23C"/>
<path opacity="0.53" d="M21.4275 12.0008C21.4275 17.208 17.206 21.4294 11.9989 21.4294C6.79174 21.4294 2.57031 17.208 2.57031 12.0008C2.57031 6.79369 6.79174 2.57227 11.9989 2.57227C17.206 2.57227 21.4275 6.79369 21.4275 12.0008ZM17.416 15.3351C17.3859 15.2429 17.3274 15.1627 17.2489 15.1057C17.1704 15.0487 17.0759 15.018 16.9789 15.018H17.0046V8.36655C17.3732 8.12655 17.4417 7.53512 16.996 7.26941L12.376 4.47512C12.2759 4.4121 12.16 4.37866 12.0417 4.37866C11.9234 4.37866 11.8076 4.4121 11.7075 4.47512L7.07888 7.26941C6.63317 7.53512 6.70174 8.12655 7.06174 8.36655V15.0266H6.96746C6.76174 15.0266 6.58174 15.1637 6.53031 15.3608L6.23031 16.4323C6.1446 16.7237 6.36746 17.0151 6.66746 17.0151H17.3389C17.6389 17.0066 17.8617 16.7066 17.7675 16.4066L17.416 15.3351ZM8.4846 8.46941V15.018H9.90746V8.46941H8.4846ZM11.3217 8.46941V15.018H12.7703V8.46941H11.3217ZM14.1932 8.46941V15.018H15.5817V8.46941H14.1932Z" fill="#D3883E"/>
</svg>
