<svg width="21" height="14" viewBox="0 0 21 14" fill="none" xmlns="http://www.w3.org/2000/svg">
<path d="M10.8741 1.03795e-05C9.28884 -0.0025984 7.30284 0.486547 5.34356 1.48223C3.38739 2.47791 1.83689 3.7823 0.926714 5.05625C0.0160936 6.32585 -0.230152 7.5085 0.217811 8.352C0.666219 9.19116 1.79993 9.67378 3.38918 9.67378C4.97842 9.67813 6.96442 9.18681 8.91925 8.19548C10.8785 7.19979 12.4281 5.89106 13.3365 4.62145C14.2494 3.35185 14.4898 2.16921 14.0446 1.3257C13.5948 0.486547 12.4638 1.03795e-05 10.8741 1.03795e-05ZM14.9663 3.05619C14.8105 3.72143 14.472 4.40406 13.9956 5.06929C12.9892 6.47369 11.3461 7.84329 9.28884 8.8868C7.23159 9.93466 5.14318 10.4608 3.38873 10.4608C2.56049 10.4608 1.79281 10.339 1.1458 10.0825L1.61736 10.9695C2.06621 11.813 3.19681 12.2956 4.78694 12.2956C6.37663 12.2956 8.36263 11.8086 10.3175 10.8129C12.2767 9.82161 13.8264 8.51288 14.7348 7.23893C15.6431 5.96932 15.8925 4.78668 15.4428 3.94752L14.9663 3.05619ZM16.2487 3.78665C16.7475 4.94755 16.3467 6.36064 15.3938 7.68676C14.5522 8.86506 13.2653 10.0086 11.6711 10.9651C12.1654 11.0173 12.682 11.0434 13.2074 11.0434C15.4116 11.0434 17.4065 10.5825 18.8136 9.86509C20.2252 9.14768 21 8.20852 21 7.26067C21 6.31281 20.2252 5.37365 18.8136 4.65624C18.0967 4.29101 17.2239 3.991 16.2487 3.78665ZM21 9.2129C20.5458 9.73031 19.9224 10.1868 19.1877 10.5608C17.6291 11.3521 15.5274 11.826 13.2074 11.826C12.2634 11.826 11.355 11.7478 10.5045 11.5999C9.47141 12.1086 8.43388 12.4869 7.43643 12.7347C7.48986 12.7652 7.5433 12.7913 7.60119 12.8217C9.00831 13.5391 11.0032 14 13.2074 14C15.4116 14 17.4065 13.5391 18.8136 12.8217C20.2252 12.1043 21 11.1651 21 10.2173V9.2129Z" fill="#FFBE00"/>
</svg>
