<svg width="55" height="55" viewBox="0 0 55 55" fill="none" xmlns="http://www.w3.org/2000/svg">
<circle cx="27.5" cy="27.5" r="27.5" fill="black" fill-opacity="0.3"/>
<mask id="mask0_1884_20724" style="mask-type:luminance" maskUnits="userSpaceOnUse" x="16" y="16" width="24" height="24">
<path d="M40 16H16V40H40V16Z" fill="white"/>
</mask>
<g mask="url(#mask0_1884_20724)">
<path d="M25.5 19H30.5C30.8978 19 31.2794 19.158 31.5607 19.4393C31.842 19.7206 32 20.1022 32 20.5C32 21.4283 31.6313 22.3185 30.9749 22.9749C30.3185 23.6313 29.4283 24 28.5 24H27.5C26.5717 24 25.6815 23.6313 25.0251 22.9749C24.3688 22.3185 24 21.4283 24 20.5C24 20.1022 24.158 19.7206 24.4393 19.4393C24.7206 19.158 25.1022 19 25.5 19Z" stroke="white" stroke-width="2" stroke-linecap="round" stroke-linejoin="round"/>
<path d="M20 33V32C20 29.8783 20.8429 27.8434 22.3432 26.3431C23.8434 24.8428 25.8783 24 28 24C30.1217 24 32.1566 24.8428 33.6569 26.3431C35.1571 27.8434 36 29.8783 36 32V33C36 34.0609 35.5786 35.0783 34.8284 35.8284C34.0783 36.5786 33.0609 37 32 37H24C22.9391 37 21.9217 36.5786 21.1716 35.8284C20.4214 35.0783 20 34.0609 20 33Z" stroke="#FFBE00" stroke-width="2" stroke-linecap="round" stroke-linejoin="round"/>
</g>
</svg>
