<svg width="152" height="152" viewBox="0 0 152 152" fill="none" xmlns="http://www.w3.org/2000/svg">
<path fill-rule="evenodd" clip-rule="evenodd" d="M75.9988 152C89.7274 152.001 103.2 148.283 114.985 141.241C126.77 134.199 136.428 124.095 142.931 112.004C149.435 99.9126 152.542 86.2853 151.923 72.5697C151.303 58.8541 146.98 45.5625 139.412 34.1071L78.9964 101.24C76.1744 104.377 72.2807 106.343 68.0816 106.753C63.8826 107.162 59.6824 105.985 56.3078 103.453L28.7133 82.7556C26.9217 81.4118 25.7373 79.4113 25.4206 77.1942C25.1039 74.9771 25.6808 72.725 27.0245 70.9333C28.3682 69.1416 30.3685 67.9572 32.5854 67.6404C34.8024 67.3237 37.0543 67.9007 38.8459 69.2444L66.4404 89.9418L128.469 21.0267C119.483 12.448 108.531 6.2033 96.5723 2.83921C84.6135 -0.524877 72.0123 -0.905717 59.8722 1.73003C47.732 4.36578 36.4231 9.93775 26.9356 17.9581C17.4481 25.9784 10.0713 36.2024 5.4511 47.7351C0.830931 59.2678 -0.891729 71.7573 0.433955 84.1102C1.75964 96.463 6.09324 108.303 13.0553 118.592C20.0174 128.882 29.3956 137.307 40.3689 143.131C51.3422 148.956 63.5759 152.001 75.9988 152Z" fill="#FFBE00"/>
</svg>
