<svg width="14" height="14" viewBox="0 0 14 14" fill="none" xmlns="http://www.w3.org/2000/svg">
<path d="M12.7273 10.1818V4.45455H3.81818V10.1818H12.7273ZM12.7273 1.27273C13.0648 1.27273 13.3885 1.40682 13.6272 1.6455C13.8659 1.88418 14 2.20791 14 2.54545V10.1818C14 10.5194 13.8659 10.8431 13.6272 11.0818C13.3885 11.3205 13.0648 11.4545 12.7273 11.4545H3.81818C3.48063 11.4545 3.15691 11.3205 2.91823 11.0818C2.67954 10.8431 2.54545 10.5194 2.54545 10.1818V2.54545C2.54545 2.20791 2.67954 1.88418 2.91823 1.6455C3.15691 1.40682 3.48063 1.27273 3.81818 1.27273H4.45455V0H5.72727V1.27273H10.8182V0H12.0909V1.27273H12.7273ZM10.5191 6.40182L7.69364 9.22727L5.98818 7.52182L6.66273 6.84727L7.69364 7.87818L9.84454 5.72727L10.5191 6.40182ZM1.27273 12.7273H10.1818V14H1.27273C0.935179 14 0.611456 13.8659 0.372773 13.6272C0.134091 13.3885 0 13.0648 0 12.7273V5.09091H1.27273V12.7273Z" fill="#FFBE00"/>
</svg>
