<svg width="14" height="14" viewBox="0 0 14 14" fill="none" xmlns="http://www.w3.org/2000/svg">
<path d="M9.01474 0L7.02766 1.99105C6.487 2.53982 6.487 3.43333 7.02766 3.9821L8.01769 4.97411L4.82291 8.17527L2.84285 6.18422L1.8458 7.16919C-1.62984 10.6869 0.869811 13.1494 0.869811 13.1494C0.869811 13.1494 3.32733 15.6118 6.83808 12.1574L7.82811 11.1654L5.86209 9.19542L9.04985 6.0013L10.0258 6.97923C10.5735 7.52097 11.4652 7.52097 12.0129 6.97923L14 4.98818L9.01474 0ZM11.0018 5.95908L10.0329 4.98818L9.02176 3.97507L8.03875 2.99009L9.02878 1.99809L11.9989 4.97411L11.0018 5.95908Z" fill="#FFBE00"/>
</svg>
