<svg width="21" height="22" viewBox="0 0 21 22" fill="none" xmlns="http://www.w3.org/2000/svg">
<path d="M15.5039 0.875H4.74609C2.1249 0.875 0 2.9999 0 5.62109V16.3789C0 19.0001 2.1249 21.125 4.74609 21.125H15.5039C18.1251 21.125 20.25 19.0001 20.25 16.3789V5.62109C20.25 2.9999 18.1251 0.875 15.5039 0.875Z" fill="white"/>
<path d="M3.29347 16.9357H5.81033V10.8233L2.21484 8.12671V15.8571C2.21484 16.4539 2.69847 16.9357 3.29347 16.9357Z" fill="#4285F4"/>
<path d="M14.4395 16.9357H16.9564C17.5532 16.9357 18.035 16.4521 18.035 15.8571V8.12665L14.4395 10.8233" fill="#34A853"/>
<path d="M14.4395 6.1491V10.8233L18.035 8.12671V6.68833C18.035 5.35444 16.5123 4.59396 15.4463 5.39399" fill="#FBBC04"/>
<path d="M5.81055 10.8233V6.14914L10.1251 9.38495L14.4397 6.14899V10.8232L10.1251 14.0592" fill="#EA4335"/>
<path d="M2.21484 6.68839V8.12662L5.81033 10.8233V6.14916L4.8036 5.39405C3.73573 4.59402 2.21484 5.3545 2.21484 6.68839Z" fill="#C5221F"/>
</svg>
