<svg width="14" height="12" viewBox="0 0 14 12" fill="none" xmlns="http://www.w3.org/2000/svg">
<path d="M10.2845 0C10.7999 0 11.2835 0.0936977 11.7351 0.281093C12.1867 0.468489 12.579 0.727273 12.912 1.05745C13.245 1.38762 13.5096 1.77356 13.7058 2.21528C13.9019 2.657 14 3.12995 14 3.63413C14 3.89292 13.9726 4.14947 13.9179 4.40379C13.8631 4.65812 13.781 4.90351 13.6716 5.13999H10.5034L9.18964 3.80145L7 5.94311L3.93451 2.94479L1.74487 5.13999H0.328446C0.218964 4.90351 0.136852 4.65812 0.0821114 4.40379C0.0273705 4.14947 0 3.89292 0 3.63413C0 3.12995 0.0957967 2.657 0.28739 2.21528C0.478983 1.77356 0.743565 1.38985 1.08113 1.06414C1.4187 0.738427 1.81329 0.479643 2.26491 0.287786C2.71652 0.0959286 3.20007 0 3.71554 0C4.21277 0 4.68719 0.0914668 5.13881 0.2744C5.59042 0.457334 5.99413 0.72058 6.34995 1.06414L7 1.70664L7.65005 1.06414C8.0013 0.72058 8.40274 0.457334 8.85435 0.2744C9.30596 0.0914668 9.78267 0 10.2845 0ZM9.62757 5.99665H13.1173L13.0215 6.10374C12.9896 6.13943 12.9554 6.17736 12.9189 6.21751L7 12L1.08113 6.21751C1.04464 6.18182 1.01043 6.14612 0.978495 6.11043C0.946562 6.07474 0.91463 6.03681 0.882698 5.99665H2.62072L3.93451 4.7652L7 7.76353L9.18964 5.62186L9.62757 5.99665Z" fill="#FFBE00"/>
</svg>
