<svg width="20" height="20" viewBox="0 0 20 20" fill="none" xmlns="http://www.w3.org/2000/svg">
<path d="M10 -0.0012207C15.523 -0.0012207 20 4.47578 20 9.99878C20 15.5218 15.523 19.9988 10 19.9988C8.38224 20.0009 6.78829 19.609 5.35601 18.8568L1.06601 19.9738C0.922665 20.0111 0.772053 20.0103 0.629099 19.9715C0.486146 19.9327 0.355815 19.8572 0.251024 19.7526C0.146232 19.6479 0.070618 19.5176 0.0316754 19.3747C-0.00726729 19.2318 -0.00818641 19.0812 0.0290091 18.9378L1.14501 14.6488C0.390847 13.215 -0.0021797 11.6188 9.09221e-06 9.99878C9.09221e-06 4.47578 4.47701 -0.0012207 10 -0.0012207ZM10 13.4988C9.73479 13.4988 9.48044 13.6041 9.2929 13.7917C9.10537 13.9792 9.00001 14.2336 9.00001 14.4988C9.00001 14.764 9.10537 15.0184 9.2929 15.2059C9.48044 15.3934 9.73479 15.4988 10 15.4988C10.2652 15.4988 10.5196 15.3934 10.7071 15.2059C10.8947 15.0184 11 14.764 11 14.4988C11 14.2336 10.8947 13.9792 10.7071 13.7917C10.5196 13.6041 10.2652 13.4988 10 13.4988ZM10 4.74878C9.27066 4.74878 8.57119 5.03851 8.05547 5.55424C7.53974 6.06996 7.25001 6.76943 7.25001 7.49878C7.25007 7.6888 7.32225 7.87172 7.45198 8.01057C7.58171 8.14942 7.75931 8.23385 7.94889 8.24681C8.13847 8.25976 8.3259 8.20026 8.47331 8.08035C8.62072 7.96043 8.71711 7.78903 8.74301 7.60078L8.75701 7.37078C8.79078 7.05284 8.9451 6.75993 9.18823 6.55229C9.43136 6.34465 9.74481 6.23807 10.0641 6.25446C10.3834 6.27086 10.6843 6.40898 10.9049 6.64043C11.1255 6.87188 11.249 7.17905 11.25 7.49878C11.25 8.03778 11.115 8.30378 10.605 8.83078L10.301 9.14078C9.54701 9.92478 9.25001 10.4878 9.25001 11.4988C9.25001 11.6977 9.32903 11.8885 9.46968 12.0291C9.61033 12.1698 9.8011 12.2488 10 12.2488C10.1989 12.2488 10.3897 12.1698 10.5303 12.0291C10.671 11.8885 10.75 11.6977 10.75 11.4988C10.75 10.9598 10.885 10.6938 11.395 10.1668L11.699 9.85678C12.453 9.07278 12.75 8.50978 12.75 7.49878C12.75 6.76943 12.4603 6.06996 11.9446 5.55424C11.4288 5.03851 10.7294 4.74878 10 4.74878Z" fill="white"/>
</svg>
