<svg width="21" height="22" viewBox="0 0 21 22" fill="none" xmlns="http://www.w3.org/2000/svg">
<path d="M7.89 4.82L6.25 3.16C6.61716 2.2286 7.256 1.42917 8.08348 0.865621C8.91097 0.302074 9.88884 0.000466917 10.89 0C13.65 0 15.89 2.24 15.89 5V7H16.89C17.4204 7 17.9291 7.21071 18.3042 7.58579C18.6793 7.96086 18.89 8.46957 18.89 9V15.8L10.09 7H13.89V5C13.89 3.34 12.55 2 10.89 2C9.3 2 8 3.25 7.89 4.82ZM21 20.46L19.73 21.73L18.35 20.35C17.99 20.75 17.47 21 16.89 21H4.89C3.78 21 2.89 20.11 2.89 19V9C2.89 8.46957 3.10071 7.96086 3.47579 7.58579C3.85086 7.21071 4.35957 7 4.89 7H5L0 2L1.28 0.73L21 20.46ZM12.74 14.74L10.15 12.15C9.39 12.44 8.89 13.16 8.89 14C8.89 14.5304 9.10071 15.0391 9.47579 15.4142C9.85086 15.7893 10.3596 16 10.89 16C11.73 16 12.45 15.5 12.74 14.74Z" fill="#242424"/>
</svg>
