<svg width="14" height="14" viewBox="0 0 14 14" fill="none" xmlns="http://www.w3.org/2000/svg">
<path d="M7.49473 0.204953L13.7936 6.50502C14.2345 6.94603 13.9223 7.69993 13.2988 7.69993H12.5989V11.9C12.5989 12.4569 12.3777 12.9911 11.9839 13.3849C11.5902 13.7787 11.0561 14 10.4993 14H9.79941V9.09995C9.79944 8.56429 9.59482 8.04888 9.22741 7.65915C8.86001 7.26942 8.3576 7.03485 7.82297 7.00343L7.6998 6.99993H6.30006C5.7432 6.99993 5.20916 7.22118 4.81541 7.61501C4.42165 8.00884 4.20044 8.54299 4.20044 9.09995V14H3.50057C2.94372 14 2.40968 13.7787 2.01593 13.3849C1.62217 12.9911 1.40096 12.4569 1.40096 11.9V7.69993H0.701093C0.078209 7.69993 -0.234633 6.94603 0.206285 6.50502L6.50512 0.204953C6.63636 0.0737215 6.81435 0 6.99993 0C7.18551 0 7.36349 0.0737215 7.49473 0.204953ZM7.6998 8.39994C7.88541 8.39994 8.06343 8.47369 8.19468 8.60497C8.32593 8.73624 8.39967 8.91429 8.39967 9.09995V14H5.60019V9.09995C5.60021 8.92849 5.66314 8.76301 5.77705 8.63488C5.89096 8.50676 6.04793 8.4249 6.21817 8.40484L6.30006 8.39994H7.6998Z" fill="#FFBE00"/>
</svg>
