<svg width="17" height="18" viewBox="0 0 17 18" fill="none" xmlns="http://www.w3.org/2000/svg">
<path d="M1.616 17.488C1.156 17.488 0.771667 17.334 0.463 17.026C0.154333 16.718 0 16.334 0 15.874V13.285C0 13.0903 0.0353333 12.8987 0.106 12.71C0.176667 12.5213 0.282333 12.3547 0.423 12.21L2.165 10.268C2.259 10.154 2.378 10.096 2.522 10.094C2.66667 10.092 2.794 10.146 2.904 10.256C2.99733 10.3493 3.046 10.459 3.05 10.585C3.054 10.711 3.00933 10.829 2.916 10.939L1.041 13.027H15.421L13.558 10.95C13.4647 10.84 13.423 10.719 13.433 10.587C13.443 10.455 13.495 10.3423 13.589 10.249C13.699 10.1383 13.823 10.0873 13.961 10.096C14.099 10.1047 14.2147 10.1657 14.308 10.279L16.038 12.21C16.1793 12.3547 16.2853 12.5213 16.356 12.71C16.4267 12.8987 16.462 13.0903 16.462 13.285V15.874C16.462 16.334 16.3077 16.718 15.999 17.026C15.6903 17.334 15.3063 17.4883 14.847 17.489L1.616 17.488ZM7.12 10.178L4.145 7.152C3.825 6.83333 3.66833 6.45133 3.675 6.006C3.68167 5.56067 3.84467 5.17867 4.164 4.86L8.544 0.48C8.864 0.16 9.243 0 9.681 0C10.119 0 10.498 0.16 10.818 0.48L13.823 3.474C14.143 3.79267 14.3037 4.17033 14.305 4.607C14.3063 5.04367 14.1477 5.42167 13.829 5.741L9.387 10.183C9.06767 10.5023 8.68967 10.661 8.253 10.659C7.81633 10.657 7.43867 10.4973 7.12 10.178ZM13.097 5.047C13.199 4.94367 13.25 4.796 13.25 4.604C13.25 4.412 13.199 4.26467 13.097 4.162L10.123 1.2C10.021 1.098 9.87367 1.047 9.681 1.047C9.48833 1.047 9.341 1.098 9.239 1.2L4.847 5.593C4.74433 5.695 4.693 5.84233 4.693 6.035C4.693 6.22767 4.74433 6.375 4.847 6.477L7.82 9.439C7.922 9.54167 8.06933 9.593 8.262 9.593C8.45467 9.593 8.602 9.54167 8.704 9.439L13.097 5.047Z" fill="black"/>
</svg>
