<svg width="18" height="18" viewBox="0 0 18 18" fill="none" xmlns="http://www.w3.org/2000/svg">
<path d="M8.9996 6.00429C7.3411 6.00429 6.00402 7.35429 6.00402 9C6.00402 10.6457 7.35396 11.9957 8.9996 11.9957C10.6452 11.9957 11.9952 10.6457 11.9952 9C11.9952 7.35429 10.6452 6.00429 8.9996 6.00429ZM17.9992 9C17.9992 7.75286 17.9992 6.53143 17.9349 5.28429C17.8706 3.84429 17.5364 2.55857 16.4821 1.51714C15.4279 0.462857 14.1551 0.128571 12.7151 0.0642857C11.4681 -6.22656e-08 10.2467 0 8.9996 0C7.75251 0 6.53114 -6.22656e-08 5.28405 0.0642857C3.84411 0.128571 2.55846 0.462857 1.51708 1.51714C0.462837 2.57143 0.128566 3.84429 0.0642828 5.28429C-6.22628e-08 6.53143 0 7.75286 0 9C0 10.2471 -6.22628e-08 11.4686 0.0642828 12.7157C0.128566 14.1557 0.462837 15.4414 1.51708 16.4829C2.57131 17.5371 3.84411 17.8714 5.28405 17.9357C6.53114 18 7.75251 18 8.9996 18C10.2467 18 11.4681 18 12.7151 17.9357C14.1551 17.8714 15.4407 17.5371 16.4821 16.4829C17.5364 15.4286 17.8706 14.1557 17.9349 12.7157C18.0121 11.4814 17.9992 10.2471 17.9992 9ZM8.9996 13.6157C6.44114 13.6157 4.38409 11.5586 4.38409 9C4.38409 6.44143 6.44114 4.38429 8.9996 4.38429C11.5581 4.38429 13.6151 6.44143 13.6151 9C13.6151 11.5586 11.5581 13.6157 8.9996 13.6157ZM13.808 5.27143C13.2166 5.27143 12.728 4.79571 12.728 4.19143C12.728 3.58714 13.2037 3.11143 13.808 3.11143C14.4122 3.11143 14.8879 3.58714 14.8879 4.19143C14.8912 4.33226 14.8655 4.47226 14.8124 4.60275C14.7593 4.73324 14.68 4.85143 14.5793 4.95C14.4808 5.05064 14.3626 5.12996 14.2321 5.18303C14.1016 5.23611 13.9616 5.26183 13.8208 5.25857L13.808 5.27143Z" fill="white"/>
</svg>
