<svg width="14" height="10" viewBox="0 0 14 10" fill="none" xmlns="http://www.w3.org/2000/svg">
<path d="M7 10C5.76333 10 4.6872 9.59214 3.7716 8.77643C2.856 7.96071 2.3163 6.94 2.1525 5.71429H0.700002C0.501669 5.71429 0.335536 5.64571 0.201602 5.50857C0.0676691 5.37143 0.00046908 5.2019 2.41379e-06 5C-0.000464253 4.7981 0.0667358 4.62857 0.201602 4.49143C0.336469 4.35429 0.502602 4.28571 0.700002 4.28571H2.1525C2.31583 3.05952 2.85553 2.03857 3.7716 1.22286C4.68767 0.407143 5.7638 -0.000475774 7 4.16736e-07C8.2362 0.000476607 9.31257 0.408334 10.2291 1.22357C11.1456 2.03881 11.6851 3.05952 11.8475 4.28571H13.3C13.4983 4.28571 13.6647 4.35429 13.7991 4.49143C13.9335 4.62857 14.0005 4.7981 14 5C13.9995 5.2019 13.9323 5.37167 13.7984 5.50929C13.6645 5.6469 13.4983 5.71524 13.3 5.71429H11.8475C11.6842 6.94048 11.1447 7.96143 10.2291 8.77714C9.3135 9.59286 8.23713 10.0005 7 10ZM5.6 7.5H8.4C8.59833 7.5 8.7647 7.43143 8.8991 7.29429C9.0335 7.15714 9.10047 6.98762 9.1 6.78571V4.64286C9.1 4.44048 9.0328 4.27095 8.8984 4.13429C8.764 3.99762 8.59787 3.92905 8.4 3.92857V3.28571C8.4 2.86905 8.26583 2.515 7.9975 2.22357C7.72917 1.93214 7.39667 1.78619 7 1.78571C6.615 1.78571 6.28553 1.92571 6.0116 2.20571C5.73767 2.48571 5.60047 2.8219 5.6 3.21429V3.92857C5.40167 3.92857 5.23553 3.99714 5.1016 4.13429C4.96767 4.27143 4.90047 4.44095 4.9 4.64286V6.78571C4.9 6.9881 4.9672 7.15786 5.1016 7.295C5.236 7.43214 5.40213 7.50048 5.6 7.5ZM7 6.25C6.84833 6.25 6.72303 6.19929 6.6241 6.09786C6.52517 5.99643 6.47547 5.86857 6.475 5.71429C6.47453 5.56 6.52423 5.43214 6.6241 5.33071C6.72397 5.22929 6.84927 5.17857 7 5.17857C7.15073 5.17857 7.27627 5.22929 7.3766 5.33071C7.47693 5.43214 7.5264 5.56 7.525 5.71429C7.5236 5.86857 7.4739 5.99667 7.3759 6.09857C7.2779 6.20048 7.1526 6.25095 7 6.25ZM6.3 3.92857V3.21429C6.3 3.0119 6.3672 2.84238 6.5016 2.70571C6.636 2.56905 6.80213 2.50048 7 2.5C7.19787 2.49952 7.36423 2.5681 7.4991 2.70571C7.63397 2.84333 7.70093 3.01286 7.7 3.21429V3.92857H6.3Z" fill="#FFBE00"/>
</svg>
