<svg width="14" height="15" viewBox="0 0 14 15" fill="none" xmlns="http://www.w3.org/2000/svg">
<path d="M2.8 1.42857V6.42857L4.55 5.35714L6.3 6.42857V1.42857H2.8ZM10.5 15C9.53166 15 8.70636 14.6517 8.0241 13.955C7.34183 13.2583 7.00046 12.4162 7 11.4286C6.99953 10.441 7.3409 9.59881 8.0241 8.90214C8.7073 8.20548 9.5326 7.85714 10.5 7.85714C11.4674 7.85714 12.2929 8.20548 12.9766 8.90214C13.6603 9.59881 14.0014 10.441 14 11.4286C13.9986 12.4162 13.6572 13.2586 12.9759 13.9557C12.2946 14.6529 11.4693 15.001 10.5 15ZM9.625 13.2143L12.425 11.4286L9.625 9.64286V13.2143ZM5.6 11.4236C5.6 11.9388 5.67887 12.4376 5.8366 12.92C5.99433 13.4024 6.20713 13.8576 6.475 14.2857H1.4C1.015 14.2857 0.685533 14.146 0.4116 13.8664C0.137667 13.5869 0.000466667 13.2505 0 12.8571V1.42857C0 1.03571 0.1372 0.699524 0.4116 0.42C0.686 0.140476 1.01547 0.00047619 1.4 0H9.8C10.185 0 10.5147 0.14 10.7891 0.42C11.0635 0.7 11.2005 1.03619 11.2 1.42857V6.46429C11.0829 6.45238 10.9655 6.44333 10.8479 6.43714C10.7303 6.43095 10.6127 6.42809 10.4951 6.42857C9.13336 6.42857 7.9772 6.91381 7.0266 7.88429C6.076 8.85476 5.60047 10.0345 5.6 11.4236Z" fill="#FFBE00"/>
</svg>
