<svg width="18" height="20" viewBox="0 0 18 20" fill="none" xmlns="http://www.w3.org/2000/svg">
<path fill-rule="evenodd" clip-rule="evenodd" d="M14.5533 14.106C14.7723 13.9964 15.0239 13.9711 15.2604 14.0346C15.4969 14.0982 15.7018 14.2464 15.8363 14.451L15.8943 14.553L17.8943 18.553C17.9657 18.6956 18.0019 18.8533 17.9999 19.0128C17.9979 19.1723 17.9578 19.329 17.883 19.4698C17.8081 19.6106 17.7006 19.7315 17.5695 19.8224C17.4384 19.9132 17.2875 19.9714 17.1293 19.992L17.0003 20H1.00032C0.840792 20.0001 0.683565 19.9619 0.541769 19.8888C0.399974 19.8157 0.277725 19.7098 0.185231 19.5798C0.0927381 19.4498 0.0326845 19.2996 0.0100851 19.1417C-0.0125143 18.9837 0.00299652 18.8227 0.0553224 18.672L0.105322 18.552L2.10532 14.552C2.21742 14.3203 2.41455 14.1407 2.65568 14.0507C2.89681 13.9606 3.16338 13.967 3.39991 14.0686C3.63644 14.1701 3.82472 14.3589 3.92557 14.5957C4.02641 14.8325 4.03205 15.0991 3.94132 15.34L3.89432 15.447L2.61832 18H15.3823L14.1063 15.447C13.9879 15.2099 13.9685 14.9354 14.0523 14.684C14.1361 14.4325 14.3163 14.2246 14.5533 14.106ZM9.00032 0C10.8568 0 12.6373 0.737498 13.9501 2.05025C15.2628 3.36301 16.0003 5.14348 16.0003 7C16.0003 9.382 14.7113 11.317 13.3773 12.69C12.6404 13.4384 11.8304 14.1111 10.9593 14.698L10.5863 14.944L10.2543 15.153C10.2023 15.184 10.1523 15.213 10.1053 15.243L9.84832 15.391C9.32032 15.691 8.68032 15.691 8.15232 15.391L7.89532 15.242L7.58532 15.053C7.52811 15.017 7.47111 14.9807 7.41432 14.944L7.04132 14.698C6.17027 14.1111 5.36022 13.4384 4.62332 12.69C3.28932 11.317 2.00032 9.382 2.00032 7C2.00032 5.14348 2.73782 3.36301 4.05057 2.05025C5.36333 0.737498 7.14381 0 9.00032 0ZM9.00032 5C8.46989 5 7.96118 5.21071 7.58611 5.58579C7.21104 5.96086 7.00032 6.46957 7.00032 7C7.00032 7.53043 7.21104 8.03914 7.58611 8.41421C7.96118 8.78929 8.46989 9 9.00032 9C9.53076 9 10.0395 8.78929 10.4145 8.41421C10.7896 8.03914 11.0003 7.53043 11.0003 7C11.0003 6.46957 10.7896 5.96086 10.4145 5.58579C10.0395 5.21071 9.53076 5 9.00032 5Z" fill="#242424"/>
</svg>
