<svg width="14" height="15" viewBox="0 0 14 15" fill="none" xmlns="http://www.w3.org/2000/svg">
<path fill-rule="evenodd" clip-rule="evenodd" d="M0 5.47333V9.52667C0 11.4383 9.81724e-08 12.3933 0.594588 12.9875C1.134 13.5267 1.97318 13.5758 3.556 13.5808C3.47282 13.0183 3.45553 12.3475 3.45059 11.5575C3.45059 11.4771 3.46625 11.3975 3.49668 11.3232C3.52711 11.249 3.57171 11.1815 3.62792 11.1247C3.68414 11.0679 3.75088 11.0228 3.82431 10.9922C3.89774 10.9615 3.97643 10.9457 4.05588 10.9458C4.13537 10.9448 4.21428 10.9597 4.28809 10.9896C4.3619 11.0194 4.42918 11.0637 4.48607 11.1199C4.54297 11.1761 4.58837 11.2431 4.61969 11.317C4.651 11.3909 4.66762 11.4704 4.66859 11.5508C4.67353 12.4375 4.69576 13.0658 4.78388 13.5425C4.86871 14.0025 5.00376 14.2675 5.20141 14.4658C5.42624 14.6908 5.74165 14.8367 6.33788 14.9158C6.95059 14.9992 7.76259 15 8.92788 15H9.73906C10.9044 15 11.7164 14.9983 12.3299 14.9167C12.9253 14.8367 13.2407 14.69 13.4647 14.4658C13.6895 14.2408 13.8361 13.9258 13.916 13.3308C13.9984 12.7192 14 11.9067 14 10.7433V4.25667C14 3.0925 13.9984 2.28167 13.916 1.66917C13.8361 1.07417 13.6895 0.758333 13.4655 0.534167C13.2407 0.309167 12.9253 0.163333 12.3291 0.0841667C11.7172 5.58794e-08 10.9052 0 9.73988 0H8.92871C7.76341 0 6.95141 0.00166659 6.33788 0.0833333C5.74247 0.163333 5.42706 0.31 5.20224 0.534167C5.00459 0.731667 4.86953 0.9975 4.78471 1.4575C4.69659 1.93417 4.67435 2.5625 4.66941 3.44917C4.66844 3.5296 4.65183 3.60906 4.62051 3.683C4.5892 3.75693 4.54379 3.82391 4.4869 3.88009C4.43 3.93627 4.36273 3.98056 4.28891 4.01043C4.2151 4.04029 4.1362 4.05516 4.05671 4.05417C3.97726 4.05428 3.89856 4.03854 3.82513 4.00785C3.7517 3.97716 3.68497 3.93212 3.62875 3.87531C3.57253 3.8185 3.52793 3.75103 3.4975 3.67677C3.46707 3.6025 3.45141 3.5229 3.45141 3.4425C3.45635 2.6525 3.47365 1.98167 3.55682 1.41917C1.974 1.42417 1.13565 1.47333 0.595412 2.0125C0.000823568 2.60667 0 3.5625 0 5.47333ZM2.00529 7.93C1.94882 7.87391 1.90396 7.807 1.87334 7.73317C1.84272 7.65934 1.82694 7.58007 1.82694 7.5C1.82694 7.41993 1.84272 7.34066 1.87334 7.26683C1.90396 7.193 1.94882 7.12609 2.00529 7.07L3.62765 5.44833C3.74255 5.33403 3.89723 5.26997 4.05835 5.26997C4.21948 5.26997 4.37416 5.33403 4.48906 5.44833C4.54553 5.50442 4.59039 5.57133 4.62101 5.64516C4.65164 5.719 4.66741 5.79826 4.66741 5.87833C4.66741 5.9584 4.65164 6.03767 4.62101 6.1115C4.59039 6.18533 4.54553 6.25225 4.48906 6.30833L3.90435 6.89167H9.73988C10.0759 6.89167 10.3493 7.16417 10.3493 7.5C10.3493 7.83583 10.0759 8.10833 9.73988 8.10833H3.90353L4.48823 8.69167C4.54471 8.74775 4.58957 8.81467 4.62019 8.8885C4.65081 8.96233 4.66659 9.0416 4.66659 9.12167C4.66659 9.20174 4.65081 9.281 4.62019 9.35484C4.58957 9.42867 4.54471 9.49558 4.48823 9.55167C4.37334 9.66597 4.21866 9.73003 4.05753 9.73003C3.8964 9.73003 3.74172 9.66597 3.62682 9.55167L2.00529 7.93Z" fill="#FFBE00"/>
</svg>
