<svg width="14" height="14" viewBox="0 0 14 14" fill="none" xmlns="http://www.w3.org/2000/svg">
<path d="M5.2 1H1.6C1.44087 1 1.28826 1.06321 1.17574 1.17574C1.06321 1.28826 1 1.44087 1 1.6V5.2C1 5.35913 1.06321 5.51174 1.17574 5.62426C1.28826 5.73679 1.44087 5.8 1.6 5.8H5.2C5.35913 5.8 5.51174 5.73679 5.62426 5.62426C5.73679 5.51174 5.8 5.35913 5.8 5.2V1.6C5.8 1.44087 5.73679 1.28826 5.62426 1.17574C5.51174 1.06321 5.35913 1 5.2 1ZM5.2 8.2H1.6C1.44087 8.2 1.28826 8.26321 1.17574 8.37574C1.06321 8.48826 1 8.64087 1 8.8V12.4C1 12.5591 1.06321 12.7117 1.17574 12.8243C1.28826 12.9368 1.44087 13 1.6 13H5.2C5.35913 13 5.51174 12.9368 5.62426 12.8243C5.73679 12.7117 5.8 12.5591 5.8 12.4V8.8C5.8 8.64087 5.73679 8.48826 5.62426 8.37574C5.51174 8.26321 5.35913 8.2 5.2 8.2ZM12.4 1H8.8C8.64087 1 8.48826 1.06321 8.37574 1.17574C8.26321 1.28826 8.2 1.44087 8.2 1.6V5.2C8.2 5.35913 8.26321 5.51174 8.37574 5.62426C8.48826 5.73679 8.64087 5.8 8.8 5.8H12.4C12.5591 5.8 12.7117 5.73679 12.8243 5.62426C12.9368 5.51174 13 5.35913 13 5.2V1.6C13 1.44087 12.9368 1.28826 12.8243 1.17574C12.7117 1.06321 12.5591 1 12.4 1Z" stroke="#FFBE00" stroke-linejoin="round"/>
<path d="M8.20007 8.20001H13.0001M10.6001 10.6H13.0001M8.20007 13H13.0001" stroke="#FFBE00" stroke-linecap="round" stroke-linejoin="round"/>
</svg>
