<svg width="14" height="15" viewBox="0 0 14 15" fill="none" xmlns="http://www.w3.org/2000/svg">
<path d="M7 0C5.54605 0 4.15166 0.582235 3.12356 1.61862C2.09547 2.65501 1.51789 4.06065 1.51789 5.52632V8.31158C1.518 8.43405 1.48985 8.55486 1.43566 8.66447L0.0909739 11.3747C0.0252876 11.5071 -0.00572891 11.6543 0.000870315 11.8022C0.00746954 11.9501 0.0514653 12.0938 0.128679 12.2197C0.205893 12.3457 0.313761 12.4496 0.442038 12.5217C0.570315 12.5938 0.714743 12.6316 0.861602 12.6316H13.1384C13.2853 12.6316 13.4297 12.5938 13.558 12.5217C13.6862 12.4496 13.7941 12.3457 13.8713 12.2197C13.9485 12.0938 13.9925 11.9501 13.9991 11.8022C14.0057 11.6543 13.9747 11.5071 13.909 11.3747L12.5651 8.66447C12.5107 8.55493 12.4822 8.43411 12.4821 8.31158V5.52632C12.4821 4.06065 11.9045 2.65501 10.8764 1.61862C9.84834 0.582235 8.45395 0 7 0ZM7 15C6.51396 15.0001 6.03983 14.8484 5.6429 14.5656C5.24598 14.2828 4.94578 13.883 4.78366 13.4211H9.21634C9.05422 13.883 8.75402 14.2828 8.3571 14.5656C7.96017 14.8484 7.48604 15.0001 7 15Z" fill="#FFBE00"/>
</svg>
