<svg width="146" height="55" viewBox="0 0 146 55" fill="none" xmlns="http://www.w3.org/2000/svg">
<path d="M37.3451 51.5313H36.0841V54.2473H34.7988V46.9965H37.9756C39.4063 46.9965 40.3521 47.9423 40.3521 49.276C40.3521 50.5613 39.5033 51.2645 38.6303 51.41L40.4006 54.2473H38.9213L37.3451 51.5313ZM37.8058 48.112H36.0598V50.4158H37.8058C38.5333 50.4158 39.0426 49.955 39.0426 49.2518C39.0668 48.5728 38.5333 48.112 37.8058 48.112Z" fill="white"/>
<path d="M42.7529 46.9965H47.7242V48.112H44.0382V50.0035H47.6514V51.119H44.0382V53.1318H47.7242V54.2473H42.7529V46.9965Z" fill="white"/>
<path d="M54.8778 52.8407H51.4343L50.9008 54.223H49.5186L52.3558 46.9722H53.9321L56.7693 54.223H55.4113L54.8778 52.8407ZM51.7981 51.7252H54.5141L53.1561 48.0635L51.7981 51.7252Z" fill="white"/>
<path d="M58.7334 46.9965H59.9944V53.1318H63.1954V54.2473H58.7334V46.9965Z" fill="white"/>
<path d="M69.3066 46.9965H74.2779V48.112H70.5919V50.0035H74.2051V51.119H70.5919V53.1318H74.2779V54.2473H69.3066V46.9965Z" fill="white"/>
<path d="M76.9212 52.2345C77.4304 52.768 78.2064 53.2287 79.2249 53.2287C80.2677 53.2287 80.6799 52.7195 80.6799 52.2345C80.6799 51.5797 79.9039 51.3857 79.0309 51.1675C77.8427 50.8765 76.4604 50.537 76.4604 48.985C76.4604 47.7967 77.5032 46.8752 79.1037 46.8752C80.2434 46.8752 81.1407 47.239 81.8197 47.8937L81.0922 48.8395C80.5344 48.2817 79.7584 48.015 79.0067 48.015C78.2549 48.015 77.7699 48.3787 77.7699 48.9122C77.7699 49.47 78.4974 49.664 79.3704 49.8822C80.5587 50.1975 81.9894 50.5612 81.9894 52.1375C81.9894 53.35 81.1407 54.3685 79.1764 54.3685C77.8427 54.3685 76.8727 53.9077 76.2422 53.2045L76.9212 52.2345Z" fill="white"/>
<path d="M85.9665 48.112H83.7598V46.9965H89.4343V48.112H87.2275V54.2473H85.9665V48.112Z" fill="white"/>
<path d="M95.3514 52.8407H91.9079L91.3744 54.223H89.9922L92.8294 46.9722H94.4057L97.2429 54.223H95.8607L95.3514 52.8407ZM92.2959 51.7252H95.0119L93.6539 48.0635L92.2959 51.7252Z" fill="white"/>
<path d="M100.08 48.112H97.873V46.9965H103.548V48.112H101.341V54.2473H100.08V48.112Z" fill="white"/>
<path d="M105.608 46.9965H110.555V48.112H106.869V50.0035H110.483V51.119H106.869V53.1318H110.555V54.2473H105.608V46.9965Z" fill="white"/>
<path d="M12.9253 23.7407L8.46325 40.0367H5.74725L0 19.8365H2.78875L7.275 36.666L11.8825 19.8365H13.9922L18.624 36.666L23.0618 19.8365H25.8505L20.1033 40.0367H17.363L12.9253 23.7407Z" fill="white"/>
<path d="M26.6992 21.4127C26.6992 20.564 27.4025 19.9092 28.2027 19.9092C29.0515 19.9092 29.7547 20.564 29.7547 21.4127C29.7547 22.2615 29.0515 22.9647 28.2027 22.9647C27.4025 22.9647 26.6992 22.2615 26.6992 21.4127ZM27.0872 25.414H29.3667V40.0367H27.0872V25.414Z" fill="white"/>
<path d="M41.977 30.458C41.977 27.8875 40.6675 27.063 38.7033 27.063C36.9088 27.063 35.2113 28.1542 34.3625 29.3425V40.0367H32.083V25.414H34.3625V27.5237C35.381 26.3112 37.3938 25.0502 39.5763 25.0502C42.6318 25.0502 44.2323 26.6022 44.2323 29.779V40.0367H41.9528V30.458H41.977Z" fill="white"/>
<path d="M57.6425 37.8542C56.5512 39.3335 54.7567 40.4005 52.7197 40.4005C48.9125 40.4005 46.2207 37.4905 46.2207 32.7375C46.2207 28.0815 48.8882 25.0502 52.7197 25.0502C54.684 25.0502 56.4785 26.0202 57.6425 27.6207V19.8365H59.922V40.0125H57.6425V37.8542ZM57.6425 29.4395C56.818 28.1785 55.072 27.0872 53.2532 27.0872C50.319 27.0872 48.573 29.5122 48.573 32.7375C48.573 35.987 50.319 38.3635 53.2532 38.3635C55.072 38.3635 56.818 37.345 57.6425 36.0597V29.4395Z" fill="white"/>
<path d="M69.0636 25.0502C73.4771 25.0502 76.0961 28.4937 76.0961 32.883V33.465H64.2621C64.4318 36.2295 66.3718 38.509 69.5243 38.509C71.1976 38.509 72.8951 37.8542 74.0348 36.666L75.1261 38.1452C73.6711 39.6002 71.7068 40.3762 69.3061 40.3762C64.9653 40.3762 61.8613 37.248 61.8613 32.689C61.8613 28.4695 64.8926 25.0502 69.0636 25.0502ZM64.2621 31.7917H73.8651C73.8408 29.6092 72.3858 26.9175 69.0636 26.9175C65.9353 26.9175 64.3833 29.5607 64.2621 31.7917Z" fill="white"/>
<path d="M77.9883 25.414H80.2678V27.7663C81.456 26.2143 83.1535 25.0988 85.142 25.0988V27.4268C84.8753 27.3783 84.6085 27.3298 84.2448 27.3298C82.8625 27.3298 80.9468 28.4695 80.2678 29.6578V40.0125H77.9883V25.414Z" fill="white"/>
<path d="M103.863 30.0942C103.863 28.2512 103.038 27.063 101.171 27.063C99.6676 27.063 98.0428 28.1542 97.2911 29.294V40.0125H95.0116V30.0942C95.0116 28.2512 94.2356 27.063 92.3198 27.063C90.8406 27.063 89.2643 28.1542 88.4641 29.3425V40.0367H86.1846V25.414H88.4641V27.5237C89.0703 26.578 91.0346 25.0502 93.1928 25.0502C95.4238 25.0502 96.7091 26.2627 97.1213 27.7662C97.9458 26.4325 99.9101 25.0502 102.02 25.0502C104.687 25.0502 106.094 26.5295 106.094 29.4637V40.0367H103.814V30.0942H103.863Z" fill="white"/>
<path d="M115.284 25.0502C119.698 25.0502 122.317 28.4937 122.317 32.883V33.465H110.458C110.652 36.2295 112.568 38.509 115.721 38.509C117.394 38.509 119.091 37.8542 120.231 36.666L121.322 38.1452C119.867 39.6002 117.903 40.3762 115.502 40.3762C111.186 40.3762 108.058 37.248 108.058 32.689C108.082 28.4695 111.113 25.0502 115.284 25.0502ZM110.458 31.7917H120.061C120.037 29.6092 118.582 26.9175 115.26 26.9175C112.132 26.9175 110.58 29.5607 110.458 31.7917Z" fill="white"/>
<path d="M124.185 25.414H126.464V27.7663C127.652 26.2143 129.35 25.0988 131.338 25.0988V27.4268C131.072 27.3783 130.805 27.3298 130.441 27.3298C129.059 27.3298 127.143 28.4695 126.464 29.6578V40.0125H124.185V25.414Z" fill="white"/>
<path d="M138.468 25.0502C142.881 25.0502 145.5 28.4937 145.5 32.883V33.465H133.666C133.836 36.2295 135.776 38.509 138.929 38.509C140.602 38.509 142.299 37.8542 143.439 36.666L144.53 38.1452C143.075 39.6002 141.111 40.3762 138.71 40.3762C134.37 40.3762 131.266 37.248 131.266 32.689C131.266 28.4695 134.297 25.0502 138.468 25.0502ZM133.666 31.7917H143.269C143.245 29.6092 141.79 26.9175 138.468 26.9175C135.34 26.9175 133.788 29.5607 133.666 31.7917Z" fill="white"/>
<path d="M88.0519 6.42625L77.1636 17.3145L66.2754 6.42625L69.7916 2.88575L71.7074 4.82575L70.1311 6.42625L77.1636 13.4588L84.1961 6.42625L79.7099 1.94L81.6499 0L88.0519 6.42625Z" fill="white"/>
<path d="M69.7916 11.8582L71.7316 13.7982L68.2154 17.3145L57.3271 6.42625L63.7534 0L65.6934 1.94L61.2071 6.42625L68.2396 13.4588L69.7916 11.8582ZM72.6774 0L70.7374 1.94L75.2237 6.42625L73.6474 8.0025L75.5874 9.9425L79.1037 6.42625L72.6774 0Z" fill="white"/>
</svg>
