<svg width="230" height="54" viewBox="0 0 230 54" fill="none" xmlns="http://www.w3.org/2000/svg">
<path d="M52.8125 54H0.5V0H52.8125V54Z" fill="#00A770"/>
<path d="M41.2896 14.098C38.0179 16.0216 37.0165 16.1827 33.4585 18.3121C35.5302 16.0633 36.2496 15.1066 37.5315 13.2262C34.2527 13.3988 29.4847 13.7945 26.082 14.5484C29.0444 12.9657 34.9173 11.2076 38.0178 10.7875C37.2999 9.79618 31.4802 6.64389 30.0328 6.03674C34.6397 6.39499 40.2709 8.11573 43.0002 9.78611C44.0735 9.44945 45.1899 9.43363 47.1898 9.25522C46.6805 10.13 46.6589 10.6364 44.6979 11.9356C45.2403 13.3901 43.9426 21.3795 42.8707 23.4944C42.8319 20.1522 42.5398 15.931 41.2896 14.098Z" fill="white"/>
<path d="M17.3327 42.7627C15.4522 42.0649 14.0984 41.2534 12.6079 39.8593C13.0539 38.6277 13.5632 37.6652 14.3948 36.4322C12.8654 36.6596 11.7388 36.8322 10.421 37.0811C9.35054 35.2049 8.86286 33.3965 8.31757 30.8744C8.02551 33.5447 7.9147 35.4539 8.29165 37.5775C7.08167 37.9141 6.22705 38.2076 5.23145 38.6565C6.62559 39.5083 7.75213 40.1657 9.30741 40.8909C10.1448 42.6835 11.008 43.8964 12.4122 45.279C12.0828 44.1021 11.9964 43.1655 12.1302 41.9297C13.8682 42.4361 15.3587 42.7023 17.3327 42.7627Z" fill="white"/>
<path d="M22.228 16.1874C21.6424 16.9471 20.9634 18.3657 20.7792 19.0246C25.6249 19.6807 29.5138 22.1683 29.5138 22.1683C25.2753 21.4172 23.0424 21.5107 21.4612 21.6532C19.8901 21.8014 19.5678 21.9855 19.5678 21.9855C18.4255 24.4904 17.7392 28.7922 17.7392 28.7922C16.968 26.9348 15.8544 23.2113 15.8544 23.2113C13.7165 24.3537 8.79883 28.9792 8.79883 28.9792C11.5022 23.5638 14.2459 21.1007 14.2459 21.1007C13.3021 20.144 10.826 19.6663 9.01464 19.5872C9.95558 19.203 12.3669 18.7556 14.22 18.6707C16.0746 18.616 17.1968 18.7211 17.1968 18.7211C18.8513 17.4162 21.3619 16.3155 22.228 16.1874Z" fill="white"/>
<path d="M27.3679 39.4061C26.5133 40.5657 25.7767 41.4765 24.8272 42.5382C23.1985 42.9943 21.8964 43.1655 20.3066 43.1655C21.2821 43.6691 22.2273 43.9698 23.2459 44.1828C22.2273 45.1064 21.367 45.761 20.3786 46.3898C22.036 45.997 24.2142 45.2948 25.8357 44.3352C26.6831 44.3682 27.4744 44.3136 28.0557 44.1986C27.9046 43.7065 27.8125 43.3411 27.6888 42.7023C29.2153 41.5196 30.3246 40.4492 31.595 39.163C30.2426 40.1053 29.0757 40.8103 27.5104 41.5498C27.4428 40.8276 27.4039 40.2176 27.3679 39.4061Z" fill="white"/>
<path d="M72.1475 35.4375C73.9637 35.4375 75.9456 36.1142 75.9456 37.8409C75.9456 38.7809 75.165 39.6275 74.0022 40.0408C75.5457 40.621 76.4375 41.5425 76.4375 42.7442C76.4375 44.8491 73.9637 45.5625 71.638 45.5625H66.3125C66.4399 44.2475 66.4739 42.3508 66.4739 40.2474C66.4739 38.8574 66.4576 36.7525 66.3288 35.4375H72.1475ZM70.6558 36.7142C70.1847 36.7142 69.7092 36.7524 69.4737 36.7907C69.4203 38.1057 69.401 38.7456 69.401 40.2474C69.401 42.0691 69.401 42.7442 69.4737 44.1924H70.8914C72.5653 44.1924 73.3637 43.6841 73.3637 42.6325C73.3637 41.469 72.3297 40.924 70.9654 40.924H70.1477L70.7106 39.4024H71.3106C72.0009 39.4024 72.9282 39.0258 72.9282 38.1058C72.9282 37.1291 72.0734 36.7142 70.6558 36.7142Z" fill="white"/>
<path d="M86.5625 35.4375C86.4776 36.5841 86.4269 39.2508 86.4269 40.2474C86.4269 41.1674 86.4461 44.174 86.5625 45.5625H84.4285L80.9973 39.9091C80.7138 39.4575 80.5111 39.0258 80.4275 38.5176V41.7308C80.4275 42.9508 80.4617 44.6807 80.5604 45.5625H78.125C78.2757 44.0225 78.2935 41.1307 78.2935 40.2474C78.2935 39.2906 78.2414 36.5841 78.1756 35.4375H80.948L83.8395 40.699C83.9915 40.9608 84.0422 41.0924 84.1066 41.319V35.4375H86.5625Z" fill="white"/>
<path d="M94.2359 35.4375C96.114 35.4375 98.375 36.059 98.375 38.4058C98.375 40.4725 96.7701 41.5058 93.5132 41.5058C93.3224 41.5058 92.7918 41.5058 92.6494 41.4874C92.7108 42.8942 92.6964 44.6042 92.7761 45.5625H89.9375C90.0499 44.174 90.0826 41.8823 90.0826 40.2474C90.0826 38.8007 90.0499 36.3943 89.9375 35.4375H94.2359ZM92.6807 36.8459C92.6807 37.5057 92.6494 38.1823 92.6494 38.8391C92.6494 39.3243 92.6638 39.6994 92.6807 40.0607C92.7761 40.076 93.2257 40.076 93.5132 40.076C94.4281 40.076 95.6958 39.7775 95.6958 38.4058C95.6958 37.0709 94.3967 36.826 93.4191 36.826C93.2884 36.826 92.8088 36.8261 92.6807 36.8459Z" fill="white"/>
<path d="M108.595 35.4375C110.849 35.4375 113.562 36.059 113.562 38.4058C113.562 40.4725 111.638 41.5058 107.729 41.5058C107.499 41.5058 106.865 41.5058 106.692 41.4874C106.769 42.8942 106.749 44.6042 106.844 45.5625H103.438C103.571 44.174 103.61 41.8823 103.61 40.2474C103.61 38.8007 103.571 36.3943 103.438 35.4375H108.595ZM106.728 36.8459C106.728 37.5057 106.692 38.1823 106.692 38.8391C106.692 39.3243 106.709 39.6994 106.728 40.0607C106.844 40.076 107.384 40.076 107.729 40.076C108.827 40.076 110.349 39.7775 110.349 38.4058C110.349 37.0709 108.788 36.826 107.616 36.826C107.461 36.826 106.884 36.8261 106.728 36.8459Z" fill="white"/>
<path d="M117.993 35.4375C118.328 36.6392 121.311 43.929 122 45.5624H119.033C118.915 45.169 118.68 44.624 118.244 43.3458C117.791 43.3259 117.322 43.3259 116.703 43.3259C116.098 43.3259 115.662 43.3458 115.174 43.3657C114.908 44.1924 114.672 44.8491 114.454 45.5625H111.875C112.378 44.3057 115.342 37.0541 115.881 35.4376L117.993 35.4375ZM117.741 41.8073C117.39 40.8275 116.903 39.609 116.669 38.764C116.418 39.6274 115.881 40.9607 115.613 41.8073C115.948 41.824 116.4 41.844 116.703 41.844C117.121 41.844 117.34 41.824 117.741 41.8073Z" fill="white"/>
<path d="M128.44 35.4376C130.526 35.4376 133.018 36.2275 133.018 38.5758C133.018 39.8341 132.135 40.7358 130.755 41.319C131.038 41.8441 133.353 45.0374 133.812 45.5625H130.402C129.8 44.3424 128.653 42.2391 127.522 40.4526C128.882 40.6394 130.067 39.9458 130.067 38.5574C130.067 37.2225 128.617 36.8261 127.91 36.8261C127.593 36.8261 126.992 36.8261 126.779 36.8459C126.727 38.0859 126.707 39.5708 126.707 40.2474C126.707 41.1307 126.707 44.0224 126.867 45.5624H123.688C123.847 44.0607 123.882 42.2758 123.882 40.2474C123.882 38.5375 123.863 36.4708 123.722 35.4375L128.44 35.4376Z" fill="white"/>
<path d="M138.875 35.4375C138.801 36.5841 138.741 39.2906 138.741 40.2627C138.741 41.1674 138.741 44.174 138.875 45.5625H135.5C135.67 44.0225 135.69 41.1307 135.69 40.2627C135.69 39.309 135.631 36.5841 135.557 35.4375H138.875Z" fill="white"/>
<path d="M146.398 35.4375C148.213 35.4375 150.197 36.1142 150.197 37.8409C150.197 38.7809 149.415 39.6275 148.25 40.0408C149.797 40.621 150.688 41.5425 150.688 42.7442C150.688 44.8491 148.213 45.5625 145.886 45.5625H140.562C140.69 44.2475 140.725 42.3508 140.725 40.2474C140.725 38.8574 140.708 36.7525 140.58 35.4375H146.398ZM144.908 36.7142C144.433 36.7142 143.962 36.7524 143.725 36.7907C143.671 38.1057 143.651 38.7456 143.651 40.2474C143.651 42.0691 143.651 42.7442 143.725 44.1924H145.142C146.816 44.1924 147.614 43.6841 147.614 42.6325C147.614 41.469 146.579 40.924 145.215 40.924H144.399L144.96 39.4024H145.561C146.25 39.4024 147.177 39.0258 147.177 38.1058C147.177 37.1291 146.326 36.7142 144.908 36.7142Z" fill="white"/>
<path d="M156.806 35.4375C157.142 36.6392 160.125 43.929 160.812 45.5624H157.847C157.728 45.169 157.492 44.624 157.057 43.3458C156.605 43.3259 156.135 43.3259 155.514 43.3259C154.911 43.3259 154.475 43.3458 153.989 43.3657C153.721 44.1924 153.487 44.8491 153.268 45.5625H150.688C151.19 44.3057 154.157 37.0541 154.694 35.4376L156.806 35.4375ZM156.553 41.8073C156.202 40.8275 155.716 39.609 155.481 38.764C155.231 39.6274 154.694 40.9607 154.426 41.8073C154.76 41.824 155.213 41.844 155.514 41.844C155.933 41.844 156.153 41.824 156.553 41.8073Z" fill="white"/>
<path d="M165.962 35.4375C166.967 35.4375 167.94 35.6165 168.553 35.8478V38.2969C167.695 37.6886 166.85 37.172 165.73 37.172C164.842 37.172 164.785 37.5984 164.785 37.92C164.785 39.5454 169.25 39.5614 169.25 42.4731C169.25 44.3677 167.81 45.5625 165.41 45.5625C164.334 45.5625 163.315 45.2947 162.617 44.9906V42.6522C164.261 43.5966 165.134 43.9007 165.89 43.9007C166.501 43.9007 166.952 43.5631 166.952 42.9199C166.952 41.082 162.5 41.2596 162.5 38.1339C162.5 36.4197 163.897 35.4375 165.962 35.4375Z" fill="white"/>
<path d="M186.125 40.6324C186.072 41.5797 186.02 43.5805 185.982 44.7243C184.959 45.2598 183.349 45.5625 181.795 45.5625C178.261 45.5625 176 43.3114 176 40.5451C176 37.6333 178.366 35.4375 182.235 35.4375C183.12 35.4375 184.446 35.5801 185.383 35.8114L184.695 37.7076C184.038 37.2943 182.944 36.9553 182.202 36.9553C179.975 36.9553 179.178 38.9546 179.178 40.5625C179.178 43.2589 180.611 44.1321 182.22 44.1321C182.414 44.1321 183.033 44.1175 183.226 44.0608C183.226 42.901 183.209 41.4197 183.12 40.6324H186.125Z" fill="white"/>
<path d="M192.566 35.4376C194.65 35.4376 197.141 36.2275 197.141 38.5758C197.141 39.8341 196.257 40.7358 194.879 41.319C195.164 41.8441 197.477 45.0374 197.938 45.5625H194.526C193.926 44.3424 192.776 42.2391 191.645 40.4526C193.007 40.6394 194.19 39.9458 194.19 38.5574C194.19 37.2225 192.742 36.8261 192.036 36.8261C191.718 36.8261 191.115 36.8261 190.903 36.8459C190.851 38.0859 190.834 39.5708 190.834 40.2474C190.834 41.1307 190.834 44.0224 190.991 45.5624H187.812C187.969 44.0607 188.004 42.2758 188.004 40.2474C188.004 38.5375 187.987 36.4708 187.847 35.4375L192.566 35.4376Z" fill="white"/>
<path d="M203.008 45.5625C200.109 45.5625 197.938 43.5116 197.938 40.5007C197.938 37.4709 200.109 35.4375 203.008 35.4375C205.889 35.4375 208.062 37.4709 208.062 40.5007C208.062 43.5116 205.889 45.5625 203.008 45.5625ZM203.008 36.6677C201.663 36.6677 200.818 38.0228 200.818 40.5007C200.818 42.9771 201.663 44.2959 203.008 44.2959C204.336 44.2959 205.164 42.9771 205.164 40.5007C205.164 38.0228 204.336 36.6677 203.008 36.6677Z" fill="white"/>
<path d="M212.562 35.4375C212.513 36.097 212.498 36.7759 212.498 37.4697V42.1756C212.498 43.4588 212.852 44.2078 213.959 44.2078C214.924 44.2078 215.874 43.7691 215.874 41.7533V36.9728C215.874 35.9702 215.857 35.8597 215.794 35.4375H218.188C218.093 36.2984 218.093 37.9083 218.093 39.5033V42.3039C218.093 44.5733 216.693 45.5625 213.929 45.5625C211.422 45.5625 209.877 44.9583 209.877 42.1562V38.5499C209.877 37.6353 209.844 36.1328 209.75 35.4375H212.562Z" fill="white"/>
<path d="M225.033 35.4375C227.286 35.4375 230 36.059 230 38.4058C230 40.4725 228.075 41.5058 224.167 41.5058C223.937 41.5058 223.3 41.5058 223.127 41.4874C223.206 42.8942 223.187 44.6042 223.281 45.5625H219.875C220.01 44.174 220.048 41.8823 220.048 40.2474C220.048 38.8007 220.01 36.3943 219.875 35.4375H225.033ZM223.166 36.8459C223.166 37.5057 223.127 38.1823 223.127 38.8391C223.127 39.3243 223.148 39.6994 223.166 40.0607C223.281 40.076 223.82 40.076 224.167 40.076C225.264 40.076 226.786 39.7775 226.786 38.4058C226.786 37.0709 225.226 36.826 224.05 36.826C223.896 36.826 223.318 36.8261 223.166 36.8459Z" fill="white"/>
<path d="M82.8433 12.3888C81.6424 11.7483 80.1671 11.2209 78.2577 11.2209C72.6563 11.2209 70.7186 15.2842 70.7186 18.7041C70.7186 23.4619 73.9496 25.9081 78.289 25.9081C80.9965 25.9081 83.0282 24.7686 84.8436 23.3216L84.875 27.4374C83.0283 28.1049 80.7519 28.6875 77.3359 28.6875C69.5178 28.6875 64.625 24.2413 64.625 18.6488C64.625 12.7516 69.7938 8.4375 78.319 8.4375C80.3208 8.4375 82.2586 8.71667 84.1366 9.13338L82.8433 12.3888Z" fill="white"/>
<path d="M100.494 8.4375C101.337 10.5199 108.505 25.3319 110.188 28.6875H104.174C103.831 27.762 103.113 26.0849 102.177 23.9156C100.93 23.8875 99.6538 23.8553 97.8757 23.8553C96.2246 23.8553 94.9783 23.8875 93.5432 23.9156C92.8604 25.6207 92.2984 27.1829 91.7999 28.6875H86.5625C87.8088 26.169 95.1354 11.4173 96.288 8.4375H100.494ZM101.025 21.2541C99.5919 18.0724 98.3425 15.3506 97.9075 14.3971C96.9104 16.3645 95.8198 18.6782 94.6656 21.2541C95.6022 21.2822 96.8802 21.3116 97.9075 21.3116C98.906 21.3116 99.9635 21.282 101.025 21.2541Z" fill="white"/>
<path d="M121.735 8.4375C126.457 8.4375 132.078 9.62519 132.078 14.3101C132.078 16.9422 130.373 18.7076 127.004 19.6331C127.483 20.5011 132.914 27.9331 133.812 28.6875H127.1C125.623 26.169 122.282 21.0802 119.84 17.7835C120.258 17.869 120.87 17.9266 121.575 17.9266C123.535 17.9266 126.297 16.6533 126.297 14.3101C126.297 11.3878 122.377 10.8662 120.42 10.8662C119.423 10.8662 118.458 10.9265 117.978 10.984C117.849 13.4997 117.784 16.6533 117.784 18.0724C117.784 19.8645 117.784 25.8521 118.137 28.6875H111.875C112.194 25.8816 112.258 22.2651 112.258 18.0724C112.258 14.5401 112.228 10.3165 111.939 8.4375H121.735Z" fill="white"/>
<path d="M143.583 8.4375C152.38 8.4375 155.75 12.9219 155.75 18.5323C155.75 24.3194 152.469 28.6875 143.254 28.6875H135.5C135.799 25.9671 135.799 22.2357 135.799 18.1005C135.799 16.1331 135.799 11.0709 135.5 8.4375H143.583ZM141.136 10.984C141.017 12.3134 140.987 15.7559 140.987 18.1005C140.987 21.0508 140.987 23.3645 141.107 26.1129C141.406 26.141 141.882 26.1999 142.597 26.1999C147.638 26.1999 150.264 24.6686 150.264 18.4468C150.264 12.518 147.579 10.8382 142.477 10.9546L141.136 10.984Z" fill="white"/>
<path d="M165.875 8.4375C165.667 10.7807 165.529 16.1023 165.529 18.1005C165.529 19.8645 165.563 25.8816 165.875 28.6875H159.125C159.468 25.8816 159.505 19.8645 159.505 18.1005C159.505 16.1331 159.365 10.7807 159.192 8.4375H165.875Z" fill="white"/>
<path d="M186.125 8.4375V11.3584C184.568 11.2728 180.692 11.1551 179.394 11.1551C178.431 11.1551 177.356 11.1551 176.252 11.2434C176.197 13.2108 176.197 15.6129 176.169 17.1736L183.071 17.0586V20.2123L176.169 19.922C176.197 22.4966 176.225 26.4874 176.48 28.6875H170.938C171.273 25.8816 171.273 19.8645 171.273 18.1005C171.273 16.1331 171.135 10.7807 170.962 8.43757L186.125 8.4375Z" fill="white"/>
</svg>
