<svg width="145" height="55" viewBox="0 0 145 55" fill="none" xmlns="http://www.w3.org/2000/svg">
<path d="M136.267 50.698C136.267 51.382 136.267 51.944 136.302 52.242C136.324 52.449 136.367 52.604 136.58 52.634C136.679 52.648 136.836 52.661 136.898 52.661C136.942 52.661 136.957 52.683 136.957 52.704C136.957 52.741 136.922 52.762 136.843 52.762C136.451 52.762 136.003 52.741 135.968 52.741C135.933 52.741 135.485 52.762 135.272 52.762C135.194 52.762 135.159 52.747 135.159 52.704C135.159 52.683 135.172 52.661 135.215 52.661C135.278 52.661 135.364 52.647 135.427 52.634C135.572 52.605 135.607 52.449 135.635 52.242C135.67 51.944 135.67 51.382 135.67 50.698V47.688L134.617 47.704C134.177 47.711 134.005 47.761 133.893 47.931C133.812 48.052 133.791 48.103 133.769 48.152C133.748 48.209 133.729 48.224 133.698 48.224C133.678 48.224 133.663 48.203 133.663 48.16C133.663 48.09 133.808 47.476 133.82 47.42C133.835 47.377 133.863 47.285 133.893 47.285C133.941 47.285 134.012 47.355 134.205 47.37C134.41 47.392 134.681 47.406 134.767 47.406H137.434C137.664 47.406 137.827 47.392 137.941 47.37C138.046 47.355 138.11 47.335 138.138 47.335C138.175 47.335 138.175 47.377 138.175 47.42C138.175 47.633 138.153 48.124 138.153 48.203C138.153 48.266 138.132 48.295 138.105 48.295C138.067 48.295 138.054 48.274 138.046 48.175L138.039 48.096C138.018 47.883 137.847 47.719 137.163 47.705L136.267 47.689V50.698Z" fill="white"/>
<path d="M129.188 49.446C129.188 48.337 129.188 48.137 129.172 47.909C129.159 47.668 129.102 47.554 128.868 47.504C128.81 47.489 128.688 47.483 128.626 47.483C128.598 47.483 128.567 47.468 128.567 47.44C128.567 47.397 128.605 47.383 128.681 47.383C128.845 47.383 129.037 47.383 129.195 47.391L129.486 47.405C129.536 47.405 130.951 47.405 131.115 47.397C131.25 47.391 131.363 47.376 131.422 47.362C131.457 47.354 131.485 47.327 131.521 47.327C131.542 47.327 131.548 47.354 131.548 47.391C131.548 47.44 131.513 47.526 131.492 47.725C131.485 47.795 131.472 48.108 131.457 48.194C131.449 48.229 131.435 48.273 131.406 48.273C131.363 48.273 131.35 48.237 131.35 48.18C131.35 48.13 131.343 48.008 131.307 47.923C131.256 47.811 131.186 47.725 130.801 47.682C130.68 47.667 129.905 47.661 129.826 47.661C129.799 47.661 129.783 47.682 129.783 47.731V49.696C129.783 49.745 129.791 49.766 129.826 49.766C129.92 49.766 130.793 49.766 130.958 49.752C131.13 49.738 131.229 49.723 131.292 49.652C131.343 49.595 131.37 49.558 131.4 49.558C131.421 49.558 131.433 49.573 131.433 49.615C131.433 49.658 131.4 49.78 131.377 50.015C131.361 50.157 131.349 50.419 131.349 50.469C131.349 50.527 131.349 50.604 131.299 50.604C131.263 50.604 131.248 50.577 131.248 50.541C131.248 50.47 131.248 50.398 131.22 50.307C131.193 50.207 131.129 50.086 130.851 50.059C130.659 50.036 129.955 50.022 129.833 50.022C129.798 50.022 129.782 50.043 129.782 50.073V50.698C129.782 50.941 129.777 51.766 129.782 51.915C129.805 52.407 129.911 52.499 130.607 52.499C130.792 52.499 131.106 52.499 131.291 52.421C131.476 52.341 131.562 52.199 131.612 51.907C131.625 51.829 131.639 51.802 131.675 51.802C131.718 51.802 131.718 51.859 131.718 51.907C131.718 51.964 131.659 52.449 131.624 52.598C131.576 52.784 131.518 52.784 131.242 52.784C130.708 52.784 130.315 52.768 130.037 52.762C129.762 52.747 129.589 52.741 129.483 52.741C129.47 52.741 129.348 52.741 129.199 52.747C129.055 52.747 128.893 52.762 128.787 52.762C128.709 52.762 128.673 52.747 128.673 52.704C128.673 52.683 128.686 52.661 128.729 52.661C128.792 52.661 128.878 52.647 128.942 52.634C129.087 52.605 129.122 52.449 129.149 52.242C129.185 51.944 129.185 51.382 129.185 50.698V49.446H129.188Z" fill="white"/>
<path d="M123.625 49.446C123.625 48.337 123.625 48.137 123.61 47.909C123.594 47.668 123.539 47.554 123.303 47.504C123.247 47.489 123.126 47.483 123.063 47.483C123.035 47.483 123.004 47.468 123.004 47.44C123.004 47.397 123.039 47.383 123.118 47.383C123.282 47.383 123.474 47.383 123.632 47.391L123.923 47.405C123.974 47.405 125.388 47.405 125.55 47.397C125.687 47.391 125.801 47.376 125.857 47.362C125.894 47.354 125.922 47.327 125.958 47.327C125.979 47.327 125.986 47.354 125.986 47.391C125.986 47.44 125.95 47.526 125.927 47.725C125.922 47.795 125.906 48.108 125.894 48.194C125.884 48.229 125.872 48.273 125.844 48.273C125.801 48.273 125.788 48.237 125.788 48.18C125.788 48.13 125.777 48.008 125.745 47.923C125.694 47.811 125.623 47.725 125.238 47.682C125.117 47.667 124.342 47.661 124.261 47.661C124.234 47.661 124.221 47.682 124.221 47.731V49.696C124.221 49.745 124.228 49.766 124.261 49.766C124.355 49.766 125.231 49.766 125.395 49.752C125.565 49.738 125.664 49.723 125.729 49.652C125.777 49.595 125.807 49.558 125.835 49.558C125.856 49.558 125.87 49.573 125.87 49.615C125.87 49.658 125.835 49.78 125.814 50.015C125.799 50.157 125.787 50.419 125.787 50.469C125.787 50.527 125.787 50.604 125.736 50.604C125.701 50.604 125.685 50.577 125.685 50.541C125.685 50.47 125.685 50.398 125.657 50.307C125.63 50.207 125.564 50.086 125.286 50.059C125.096 50.036 124.39 50.022 124.27 50.022C124.233 50.022 124.22 50.043 124.22 50.073V50.698C124.22 50.941 124.212 51.766 124.22 51.915C124.24 52.407 124.346 52.499 125.044 52.499C125.23 52.499 125.543 52.499 125.728 52.421C125.913 52.341 125.999 52.199 126.047 51.907C126.062 51.829 126.077 51.802 126.112 51.802C126.152 51.802 126.152 51.859 126.152 51.907C126.152 51.964 126.096 52.449 126.061 52.598C126.01 52.784 125.955 52.784 125.676 52.784C125.142 52.784 124.75 52.768 124.474 52.762C124.196 52.747 124.027 52.741 123.92 52.741C123.904 52.741 123.786 52.741 123.634 52.747C123.492 52.747 123.327 52.762 123.222 52.762C123.146 52.762 123.108 52.747 123.108 52.704C123.108 52.683 123.124 52.661 123.167 52.661C123.23 52.661 123.316 52.647 123.379 52.634C123.521 52.605 123.557 52.449 123.587 52.242C123.622 51.944 123.622 51.382 123.622 50.698V49.446H123.625Z" fill="white"/>
<path d="M120.224 51.845C120.252 52.099 120.303 52.499 120.609 52.599C120.817 52.662 120.999 52.662 121.07 52.662C121.108 52.662 121.128 52.671 121.128 52.699C121.128 52.742 121.065 52.762 120.98 52.762C120.823 52.762 120.053 52.741 119.792 52.719C119.625 52.704 119.593 52.684 119.593 52.648C119.593 52.62 119.606 52.605 119.641 52.599C119.676 52.591 119.684 52.47 119.671 52.341L119.329 48.671H119.308L117.562 52.37C117.416 52.683 117.393 52.747 117.33 52.747C117.279 52.747 117.244 52.677 117.109 52.421C116.922 52.071 116.312 50.841 116.274 50.771C116.211 50.642 115.414 48.935 115.338 48.743H115.31L115.024 52.045C115.016 52.157 115.016 52.285 115.016 52.408C115.016 52.513 115.095 52.605 115.202 52.628C115.323 52.656 115.43 52.662 115.473 52.662C115.5 52.662 115.532 52.678 115.532 52.699C115.532 52.748 115.488 52.762 115.402 52.762C115.139 52.762 114.798 52.741 114.742 52.741C114.677 52.741 114.335 52.762 114.142 52.762C114.071 52.762 114.023 52.747 114.023 52.699C114.023 52.678 114.056 52.662 114.094 52.662C114.15 52.662 114.199 52.662 114.306 52.641C114.541 52.599 114.562 52.322 114.59 52.05L115.104 47.412C115.111 47.334 115.139 47.284 115.182 47.284C115.225 47.284 115.252 47.311 115.288 47.391L117.464 51.865L119.557 47.397C119.585 47.334 119.613 47.284 119.663 47.284C119.711 47.284 119.734 47.341 119.749 47.475L120.224 51.845Z" fill="white"/>
<path d="M105.659 52.67C105.56 52.619 105.554 52.591 105.554 52.399C105.554 52.044 105.581 51.758 105.591 51.645C105.597 51.567 105.612 51.53 105.647 51.53C105.688 51.53 105.696 51.552 105.696 51.609C105.696 51.672 105.696 51.772 105.718 51.872C105.824 52.399 106.295 52.599 106.771 52.599C107.455 52.599 107.789 52.108 107.789 51.653C107.789 51.162 107.581 50.877 106.972 50.371L106.651 50.109C105.896 49.49 105.727 49.048 105.727 48.565C105.727 47.803 106.296 47.285 107.197 47.285C107.475 47.285 107.683 47.312 107.86 47.355C107.995 47.384 108.052 47.392 108.108 47.392C108.167 47.392 108.179 47.406 108.179 47.441C108.179 47.476 108.151 47.712 108.151 48.195C108.151 48.309 108.138 48.359 108.103 48.359C108.06 48.359 108.052 48.323 108.044 48.265C108.037 48.181 107.994 47.989 107.951 47.91C107.908 47.832 107.718 47.533 107.062 47.533C106.571 47.533 106.189 47.84 106.189 48.359C106.189 48.763 106.372 49.02 107.057 49.554L107.254 49.71C108.094 50.37 108.294 50.814 108.294 51.382C108.294 51.673 108.178 52.214 107.687 52.563C107.383 52.776 106.999 52.862 106.614 52.862C106.279 52.861 105.95 52.812 105.659 52.67Z" fill="white"/>
<path d="M98.3474 51.795C98.3624 52.378 98.4334 52.563 98.6254 52.619C98.7594 52.655 98.9164 52.661 98.9814 52.661C99.0164 52.661 99.0374 52.677 99.0374 52.704C99.0374 52.747 98.9944 52.762 98.9104 52.762C98.5034 52.762 98.2204 52.741 98.1564 52.741C98.0914 52.741 97.7924 52.762 97.4734 52.762C97.4024 52.762 97.3594 52.755 97.3594 52.704C97.3594 52.677 97.3804 52.661 97.4154 52.661C97.4744 52.661 97.6004 52.655 97.7064 52.619C97.8864 52.569 97.9194 52.364 97.9194 51.716L97.9294 47.64C97.9294 47.363 97.9504 47.285 98.0054 47.285C98.0634 47.285 98.1854 47.441 98.2554 47.512C98.3614 47.633 99.4224 48.779 100.518 49.952C101.221 50.707 101.998 51.574 102.223 51.808L102.148 48.195C102.14 47.732 102.089 47.576 101.87 47.519C101.741 47.49 101.579 47.484 101.52 47.484C101.469 47.484 101.464 47.461 101.464 47.435C101.464 47.392 101.52 47.384 101.606 47.384C101.927 47.384 102.267 47.405 102.345 47.405C102.423 47.405 102.658 47.384 102.952 47.384C103.027 47.384 103.078 47.392 103.078 47.435C103.078 47.46 103.048 47.484 103 47.484C102.965 47.484 102.914 47.484 102.828 47.505C102.595 47.555 102.564 47.712 102.564 48.139L102.551 52.308C102.551 52.777 102.536 52.813 102.486 52.813C102.43 52.813 102.344 52.735 101.967 52.358C101.888 52.286 100.866 51.241 100.112 50.429C99.2884 49.541 98.4834 48.644 98.2554 48.387L98.3474 51.795Z" fill="white"/>
<path d="M92.7753 52.591C93.4163 52.591 94.7403 52.222 94.7403 50.151C94.7403 48.444 93.7023 47.527 92.5753 47.527C91.3883 47.527 90.5013 48.309 90.5013 49.867C90.5013 51.524 91.4953 52.591 92.7753 52.591ZM92.6263 47.284C94.2293 47.284 95.4243 48.294 95.4243 49.951C95.4243 51.545 94.2993 52.861 92.5833 52.861C90.6353 52.861 89.8223 51.346 89.8223 50.065C89.8223 48.913 90.6623 47.284 92.6263 47.284Z" fill="white"/>
<path d="M87.0568 50.698C87.0568 51.382 87.0568 51.944 87.0918 52.242C87.1128 52.449 87.1548 52.604 87.3698 52.634C87.4688 52.648 87.6258 52.661 87.6888 52.661C87.7318 52.661 87.7468 52.683 87.7468 52.704C87.7468 52.741 87.7088 52.762 87.6338 52.762C87.2408 52.762 86.7928 52.741 86.7578 52.741C86.7228 52.741 86.2748 52.762 86.0598 52.762C85.9808 52.762 85.9488 52.747 85.9488 52.704C85.9488 52.683 85.9618 52.661 86.0048 52.661C86.0678 52.661 86.1538 52.647 86.2168 52.634C86.3598 52.605 86.3968 52.449 86.4248 52.242C86.4598 51.944 86.4598 51.382 86.4598 50.698V49.446C86.4598 48.337 86.4598 48.137 86.4448 47.909C86.4318 47.668 86.3588 47.547 86.2018 47.511C86.1258 47.49 86.0318 47.484 85.9808 47.484C85.9538 47.484 85.9248 47.469 85.9248 47.441C85.9248 47.398 85.9608 47.384 86.0388 47.384C86.2738 47.384 86.7228 47.405 86.7578 47.405C86.7928 47.405 87.2408 47.384 87.4558 47.384C87.5318 47.384 87.5668 47.398 87.5668 47.441C87.5668 47.469 87.5398 47.484 87.5108 47.484C87.4598 47.484 87.4168 47.49 87.3308 47.505C87.1418 47.541 87.0828 47.662 87.0678 47.91C87.0548 48.139 87.0548 48.338 87.0548 49.447V50.698H87.0568Z" fill="white"/>
<path d="M81.8334 50.698C81.8334 51.382 81.8334 51.944 81.8714 52.242C81.8924 52.449 81.9344 52.604 82.1474 52.634C82.2464 52.648 82.4024 52.661 82.4684 52.661C82.5114 52.661 82.5244 52.683 82.5244 52.704C82.5244 52.741 82.4884 52.762 82.4104 52.762C82.0204 52.762 81.5724 52.741 81.5354 52.741C81.5004 52.741 81.0524 52.762 80.8384 52.762C80.7614 52.762 80.7254 52.747 80.7254 52.704C80.7254 52.683 80.7394 52.661 80.7824 52.661C80.8464 52.661 80.9324 52.647 80.9964 52.634C81.1394 52.605 81.1734 52.449 81.2024 52.242C81.2374 51.944 81.2374 51.382 81.2374 50.698V47.688L80.1844 47.704C79.7454 47.711 79.5744 47.761 79.4584 47.931C79.3814 48.052 79.3594 48.103 79.3384 48.152C79.3174 48.209 79.2954 48.224 79.2674 48.224C79.2464 48.224 79.2324 48.203 79.2324 48.16C79.2324 48.09 79.3744 47.476 79.3874 47.42C79.4014 47.377 79.4304 47.285 79.4584 47.285C79.5094 47.285 79.5794 47.355 79.7714 47.37C79.9774 47.392 80.2494 47.406 80.3334 47.406H83.0004C83.2284 47.406 83.3934 47.392 83.5064 47.37C83.6124 47.355 83.6784 47.335 83.7064 47.335C83.7414 47.335 83.7414 47.377 83.7414 47.42C83.7414 47.633 83.7194 48.124 83.7194 48.203C83.7194 48.266 83.6984 48.295 83.6714 48.295C83.6354 48.295 83.6204 48.274 83.6124 48.175L83.6044 48.096C83.5844 47.883 83.4154 47.719 82.7314 47.705L81.8334 47.689V50.698Z" fill="white"/>
<path d="M76.3773 50.407C76.4123 50.407 76.4123 50.386 76.4063 50.356L75.7293 48.436C75.6953 48.329 75.6583 48.329 75.6233 48.436L74.9963 50.356C74.9823 50.393 74.9963 50.407 75.0173 50.407H76.3773ZM75.6393 47.561C75.7223 47.328 75.7513 47.285 75.7943 47.285C75.8363 47.285 75.8653 47.32 75.9513 47.541C76.0563 47.812 77.1743 50.749 77.6073 51.83C77.8633 52.465 78.0703 52.577 78.2213 52.62C78.3263 52.656 78.4323 52.662 78.5043 52.662C78.5473 52.662 78.5743 52.671 78.5743 52.705C78.5743 52.748 78.5113 52.763 78.4313 52.763C78.3263 52.763 77.8053 52.763 77.3153 52.748C77.1793 52.742 77.1023 52.742 77.1023 52.699C77.1023 52.671 77.1223 52.656 77.1513 52.648C77.1943 52.634 77.2363 52.57 77.1943 52.457L76.5323 50.707C76.5183 50.678 76.5043 50.664 76.4683 50.664H74.9393C74.9043 50.664 74.8843 50.685 74.8693 50.721L74.4423 51.981C74.3783 52.158 74.3413 52.329 74.3413 52.458C74.3413 52.601 74.4923 52.663 74.6123 52.663H74.6823C74.7323 52.663 74.7533 52.679 74.7533 52.706C74.7533 52.749 74.7113 52.764 74.6463 52.764C74.4773 52.764 74.1713 52.743 74.0923 52.743C74.0143 52.743 73.6223 52.764 73.2883 52.764C73.1953 52.764 73.1523 52.749 73.1523 52.706C73.1523 52.679 73.1793 52.663 73.2163 52.663C73.2653 52.663 73.3653 52.657 73.4233 52.649C73.7493 52.606 73.8913 52.336 74.0203 51.981L75.6393 47.561Z" fill="white"/>
<path d="M68.5581 50.065C68.5581 50.1 68.5721 50.129 68.6091 50.15C68.7141 50.213 69.0431 50.264 69.3551 50.264C69.5251 50.264 69.7251 50.243 69.8881 50.129C70.1381 49.958 70.3221 49.573 70.3221 49.033C70.3221 48.144 69.8541 47.61 69.0921 47.61C68.8781 47.61 68.6871 47.631 68.6151 47.653C68.5801 47.667 68.5581 47.695 68.5581 47.738V50.065ZM67.9901 49.446C67.9901 48.337 67.9901 48.137 67.9751 47.909C67.9611 47.668 67.9031 47.554 67.6691 47.504C67.6111 47.489 67.4911 47.483 67.4271 47.483C67.3981 47.483 67.3701 47.468 67.3701 47.44C67.3701 47.397 67.4051 47.383 67.4831 47.383C67.8031 47.383 68.2521 47.404 68.2881 47.404C68.3661 47.404 68.9051 47.383 69.1281 47.383C69.5731 47.383 70.0511 47.425 70.4291 47.696C70.6091 47.825 70.9191 48.174 70.9191 48.665C70.9191 49.19 70.6981 49.717 70.0591 50.308C70.6421 51.054 71.1251 51.688 71.5391 52.128C71.9231 52.533 72.2291 52.612 72.4071 52.641C72.5411 52.662 72.6411 52.662 72.6841 52.662C72.7191 52.662 72.7471 52.684 72.7471 52.705C72.7471 52.748 72.7041 52.763 72.5771 52.763H72.0731C71.6731 52.763 71.4961 52.728 71.3111 52.628C71.0041 52.465 70.7551 52.115 70.3501 51.582C70.0501 51.191 69.7161 50.714 69.5731 50.529C69.5461 50.5 69.5241 50.486 69.4831 50.486L68.6081 50.471C68.5711 50.471 68.5571 50.493 68.5571 50.529V50.699C68.5571 51.383 68.5571 51.945 68.5921 52.243C68.6131 52.45 68.6561 52.605 68.8691 52.635C68.9691 52.649 69.1271 52.662 69.1891 52.662C69.2321 52.662 69.2461 52.684 69.2461 52.705C69.2461 52.742 69.2111 52.763 69.1331 52.763C68.7421 52.763 68.2941 52.742 68.2581 52.742C68.2511 52.742 67.8031 52.763 67.5891 52.763C67.5111 52.763 67.4771 52.748 67.4771 52.705C67.4771 52.684 67.4911 52.662 67.5341 52.662C67.5971 52.662 67.6821 52.648 67.7451 52.635C67.8891 52.606 67.9251 52.45 67.9531 52.243C67.9891 51.945 67.9891 51.383 67.9891 50.699L67.9901 49.446Z" fill="white"/>
<path d="M62.4247 49.446C62.4247 48.337 62.4247 48.137 62.4107 47.909C62.3957 47.668 62.3387 47.554 62.1047 47.504C62.0477 47.489 61.9277 47.483 61.8647 47.483C61.8357 47.483 61.8057 47.468 61.8057 47.44C61.8057 47.397 61.8417 47.383 61.9207 47.383C62.0847 47.383 62.2747 47.383 62.4317 47.391L62.7237 47.405C62.7717 47.405 64.1887 47.405 64.3517 47.397C64.4877 47.391 64.6007 47.376 64.6567 47.362C64.6927 47.354 64.7217 47.327 64.7577 47.327C64.7797 47.327 64.7867 47.354 64.7867 47.391C64.7867 47.44 64.7507 47.526 64.7287 47.725C64.7217 47.795 64.7077 48.108 64.6927 48.194C64.6857 48.229 64.6717 48.273 64.6427 48.273C64.6007 48.273 64.5847 48.237 64.5847 48.18C64.5847 48.13 64.5787 48.008 64.5437 47.923C64.4927 47.811 64.4227 47.725 64.0387 47.682C63.9167 47.667 63.1417 47.661 63.0637 47.661C63.0347 47.661 63.0207 47.682 63.0207 47.731V49.696C63.0207 49.745 63.0267 49.766 63.0637 49.766C63.1567 49.766 64.0307 49.766 64.1947 49.752C64.3637 49.738 64.4647 49.723 64.5287 49.652C64.5777 49.595 64.6047 49.558 64.6337 49.558C64.6547 49.558 64.6687 49.573 64.6687 49.615C64.6687 49.658 64.6337 49.78 64.6137 50.015C64.5977 50.157 64.5827 50.419 64.5827 50.469C64.5827 50.527 64.5827 50.604 64.5337 50.604C64.4987 50.604 64.4847 50.577 64.4847 50.541C64.4847 50.47 64.4847 50.398 64.4567 50.307C64.4277 50.207 64.3627 50.086 64.0857 50.059C63.8937 50.036 63.1887 50.022 63.0677 50.022C63.0327 50.022 63.0187 50.043 63.0187 50.073V50.698C63.0187 50.941 63.0117 51.766 63.0187 51.915C63.0397 52.407 63.1447 52.499 63.8437 52.499C64.0287 52.499 64.3417 52.499 64.5277 52.421C64.7117 52.341 64.7977 52.199 64.8477 51.907C64.8617 51.829 64.8747 51.802 64.9107 51.802C64.9537 51.802 64.9537 51.859 64.9537 51.907C64.9537 51.964 64.8967 52.449 64.8617 52.598C64.8107 52.784 64.7547 52.784 64.4767 52.784C63.9427 52.784 63.5517 52.768 63.2747 52.762C62.9977 52.747 62.8267 52.741 62.7207 52.741C62.7057 52.741 62.5847 52.741 62.4347 52.747C62.2937 52.747 62.1297 52.762 62.0237 52.762C61.9437 52.762 61.9087 52.747 61.9087 52.704C61.9087 52.683 61.9237 52.661 61.9667 52.661C62.0297 52.661 62.1147 52.647 62.1797 52.634C62.3227 52.605 62.3577 52.449 62.3857 52.242C62.4217 51.944 62.4217 51.382 62.4217 50.698V49.446H62.4247Z" fill="white"/>
<path d="M54.657 51.795C54.671 52.378 54.741 52.563 54.934 52.619C55.069 52.655 55.226 52.661 55.289 52.661C55.325 52.661 55.346 52.677 55.346 52.704C55.346 52.747 55.303 52.762 55.218 52.762C54.812 52.762 54.529 52.741 54.464 52.741C54.399 52.741 54.101 52.762 53.78 52.762C53.709 52.762 53.666 52.755 53.666 52.704C53.666 52.677 53.687 52.661 53.723 52.661C53.78 52.661 53.908 52.655 54.014 52.619C54.192 52.569 54.228 52.364 54.228 51.716L54.235 47.64C54.235 47.363 54.256 47.285 54.314 47.285C54.372 47.285 54.491 47.441 54.562 47.512C54.669 47.633 55.73 48.779 56.824 49.952C57.529 50.707 58.305 51.574 58.532 51.808L58.454 48.195C58.446 47.732 58.397 47.576 58.177 47.519C58.049 47.49 57.885 47.484 57.828 47.484C57.779 47.484 57.772 47.461 57.772 47.435C57.772 47.392 57.828 47.384 57.913 47.384C58.233 47.384 58.576 47.405 58.653 47.405C58.733 47.405 58.966 47.384 59.257 47.384C59.336 47.384 59.386 47.392 59.386 47.435C59.386 47.46 59.357 47.484 59.306 47.484C59.272 47.484 59.223 47.484 59.137 47.505C58.903 47.555 58.874 47.712 58.874 48.139L58.86 52.308C58.86 52.777 58.846 52.813 58.796 52.813C58.739 52.813 58.653 52.735 58.276 52.358C58.199 52.286 57.173 51.241 56.42 50.429C55.594 49.541 54.792 48.644 54.563 48.387L54.657 51.795Z" fill="white"/>
<path d="M48.9022 49.446C48.9022 48.337 48.9022 48.137 48.8872 47.909C48.8732 47.668 48.8162 47.554 48.5822 47.504C48.5252 47.489 48.4022 47.483 48.3392 47.483C48.3102 47.483 48.2822 47.468 48.2822 47.44C48.2822 47.397 48.3172 47.383 48.3962 47.383C48.5592 47.383 48.7512 47.383 48.9082 47.391L49.1992 47.405C49.2502 47.405 50.6652 47.405 50.8292 47.397C50.9642 47.391 51.0782 47.376 51.1352 47.362C51.1692 47.354 51.1982 47.327 51.2352 47.327C51.2552 47.327 51.2632 47.354 51.2632 47.391C51.2632 47.44 51.2272 47.526 51.2062 47.725C51.1992 47.795 51.1852 48.108 51.1692 48.194C51.1632 48.229 51.1492 48.273 51.1212 48.273C51.0782 48.273 51.0632 48.237 51.0632 48.18C51.0632 48.13 51.0562 48.008 51.0212 47.923C50.9702 47.811 50.9012 47.725 50.5152 47.682C50.3952 47.667 49.6192 47.661 49.5402 47.661C49.5122 47.661 49.4982 47.682 49.4982 47.731V49.696C49.4982 49.745 49.5042 49.766 49.5402 49.766C49.6332 49.766 50.5082 49.766 50.6722 49.752C50.8422 49.738 50.9432 49.723 51.0072 49.652C51.0552 49.595 51.0842 49.558 51.1122 49.558C51.1352 49.558 51.1492 49.573 51.1492 49.615C51.1492 49.658 51.1122 49.78 51.0922 50.015C51.0782 50.157 51.0632 50.419 51.0632 50.469C51.0632 50.527 51.0632 50.604 51.0142 50.604C50.9792 50.604 50.9652 50.577 50.9652 50.541C50.9652 50.47 50.9652 50.398 50.9362 50.307C50.9082 50.207 50.8432 50.086 50.5662 50.059C50.3742 50.036 49.6702 50.022 49.5472 50.022C49.5132 50.022 49.4992 50.043 49.4992 50.073V50.698C49.4992 50.941 49.4902 51.766 49.4992 51.915C49.5202 52.407 49.6272 52.499 50.3252 52.499C50.5102 52.499 50.8222 52.499 51.0082 52.421C51.1932 52.341 51.2792 52.199 51.3272 51.907C51.3422 51.829 51.3562 51.802 51.3912 51.802C51.4332 51.802 51.4332 51.859 51.4332 51.907C51.4332 51.964 51.3762 52.449 51.3422 52.598C51.2932 52.784 51.2362 52.784 50.9592 52.784C50.4252 52.784 50.0332 52.768 49.7562 52.762C49.4772 52.747 49.3082 52.741 49.2002 52.741C49.1862 52.741 49.0652 52.741 48.9172 52.747C48.7742 52.747 48.6112 52.762 48.5032 52.762C48.4262 52.762 48.3892 52.747 48.3892 52.704C48.3892 52.683 48.4032 52.661 48.4462 52.661C48.5102 52.661 48.5962 52.647 48.6602 52.634C48.8032 52.605 48.8372 52.449 48.8662 52.242C48.9032 51.944 48.9032 51.382 48.9032 50.698L48.9022 49.446Z" fill="white"/>
<path d="M44.9244 50.948C44.9244 50.37 44.8894 50.294 44.6044 50.214C44.5474 50.2 44.4274 50.194 44.3624 50.194C44.3344 50.194 44.3054 50.178 44.3054 50.15C44.3054 50.108 44.3414 50.093 44.4184 50.093C44.7394 50.093 45.1874 50.115 45.2234 50.115C45.2584 50.115 45.7064 50.093 45.9204 50.093C45.9984 50.093 46.0344 50.108 46.0344 50.15C46.0344 50.178 46.0064 50.194 45.9774 50.194C45.9274 50.194 45.8864 50.2 45.8004 50.214C45.6074 50.251 45.5504 50.37 45.5364 50.62C45.5234 50.848 45.5234 51.061 45.5234 51.36V52.156C45.5234 52.477 45.5154 52.492 45.4294 52.542C44.9754 52.784 44.3354 52.861 43.9214 52.861C43.3814 52.861 42.3714 52.79 41.5824 52.098C41.1474 51.723 40.7344 50.961 40.7344 50.073C40.7344 48.934 41.2894 48.131 41.9224 47.731C42.5624 47.334 43.2674 47.284 43.8154 47.284C44.2644 47.284 44.7684 47.376 44.9034 47.405C45.0524 47.44 45.3024 47.468 45.4804 47.475C45.5494 47.483 45.5654 47.51 45.5654 47.539C45.5654 47.639 45.5154 47.838 45.5154 48.55C45.5154 48.664 45.5014 48.698 45.4524 48.698C45.4154 48.698 45.4094 48.656 45.4014 48.592C45.3954 48.492 45.3584 48.293 45.2524 48.122C45.0754 47.852 44.4984 47.546 43.5814 47.546C43.1334 47.546 42.5994 47.588 42.0594 48.016C41.6454 48.344 41.3544 48.991 41.3544 49.824C41.3544 50.827 41.8594 51.553 42.1084 51.795C42.6704 52.341 43.3164 52.556 43.9724 52.556C44.2274 52.556 44.5984 52.513 44.7824 52.408C44.8764 52.357 44.9254 52.279 44.9254 52.157L44.9244 50.948Z" fill="white"/>
<path d="M32.4462 49.446C32.4462 48.337 32.4462 48.137 32.4312 47.909C32.4172 47.668 32.3602 47.554 32.1262 47.504C32.0692 47.489 31.9462 47.483 31.8832 47.483C31.8552 47.483 31.8262 47.468 31.8262 47.44C31.8262 47.397 31.8612 47.383 31.9402 47.383C32.1032 47.383 32.2952 47.383 32.4522 47.391L32.7432 47.405C32.7942 47.405 34.2092 47.405 34.3732 47.397C34.5082 47.391 34.6232 47.376 34.6792 47.362C34.7152 47.354 34.7422 47.327 34.7792 47.327C34.7992 47.327 34.8072 47.354 34.8072 47.391C34.8072 47.44 34.7712 47.526 34.7502 47.725C34.7432 47.795 34.7292 48.108 34.7152 48.194C34.7092 48.229 34.6942 48.273 34.6662 48.273C34.6232 48.273 34.6092 48.237 34.6092 48.18C34.6092 48.13 34.6012 48.008 34.5662 47.923C34.5152 47.811 34.4462 47.725 34.0612 47.682C33.9392 47.667 33.1642 47.661 33.0862 47.661C33.0572 47.661 33.0432 47.682 33.0432 47.731V49.696C33.0432 49.745 33.0492 49.766 33.0862 49.766C33.1772 49.766 34.0532 49.766 34.2162 49.752C34.3882 49.738 34.4872 49.723 34.5512 49.652C34.6002 49.595 34.6282 49.558 34.6572 49.558C34.6782 49.558 34.6932 49.573 34.6932 49.615C34.6932 49.658 34.6572 49.78 34.6362 50.015C34.6222 50.157 34.6082 50.419 34.6082 50.469C34.6082 50.527 34.6082 50.604 34.5572 50.604C34.5222 50.604 34.5082 50.577 34.5082 50.541C34.5082 50.47 34.5082 50.398 34.4792 50.307C34.4512 50.207 34.3882 50.086 34.1092 50.059C33.9172 50.036 33.2132 50.022 33.0912 50.022C33.0552 50.022 33.0422 50.043 33.0422 50.073V50.698C33.0422 50.941 33.0342 51.766 33.0422 51.915C33.0622 52.407 33.1692 52.499 33.8672 52.499C34.0522 52.499 34.3642 52.499 34.5502 52.421C34.7352 52.341 34.8212 52.199 34.8702 51.907C34.8842 51.829 34.8982 51.802 34.9332 51.802C34.9762 51.802 34.9762 51.859 34.9762 51.907C34.9762 51.964 34.9172 52.449 34.8842 52.598C34.8342 52.784 34.7782 52.784 34.5002 52.784C33.9662 52.784 33.5752 52.768 33.2982 52.762C33.0182 52.747 32.8492 52.741 32.7412 52.741C32.7272 52.741 32.6072 52.741 32.4582 52.747C32.3152 52.747 32.1522 52.762 32.0442 52.762C31.9672 52.762 31.9302 52.747 31.9302 52.704C31.9302 52.683 31.9442 52.661 31.9872 52.661C32.0512 52.661 32.1372 52.647 32.2012 52.634C32.3442 52.605 32.3782 52.449 32.4072 52.242C32.4442 51.944 32.4442 51.382 32.4442 50.698V49.446H32.4462Z" fill="white"/>
<path d="M26.4263 50.0651C26.4263 50.1001 26.4403 50.1291 26.4773 50.1501C26.5833 50.2131 26.9113 50.2641 27.2243 50.2641C27.3943 50.2641 27.5953 50.2431 27.7583 50.1291C28.0063 49.9581 28.1923 49.5731 28.1923 49.0331C28.1923 48.1441 27.7233 47.6101 26.9613 47.6101C26.7483 47.6101 26.5563 47.6311 26.4843 47.6531C26.4503 47.6671 26.4273 47.6951 26.4273 47.7381L26.4263 50.0651ZM25.8583 49.4461C25.8583 48.3371 25.8583 48.1371 25.8423 47.9091C25.8283 47.6681 25.7713 47.5541 25.5373 47.5041C25.4803 47.4891 25.3593 47.4831 25.2943 47.4831C25.2663 47.4831 25.2383 47.4681 25.2383 47.4401C25.2383 47.3971 25.2743 47.3831 25.3513 47.3831C25.6723 47.3831 26.1213 47.4041 26.1563 47.4041C26.2353 47.4041 26.7763 47.3831 26.9963 47.3831C27.4443 47.3831 27.9213 47.4251 28.2983 47.6961C28.4753 47.8251 28.7883 48.1741 28.7883 48.6651C28.7883 49.1901 28.5683 49.7171 27.9283 50.3081C28.5113 51.0541 28.9963 51.6881 29.4073 52.1281C29.7933 52.5331 30.0983 52.6121 30.2753 52.6411C30.4103 52.6621 30.5103 52.6621 30.5533 52.6621C30.5883 52.6621 30.6173 52.6841 30.6173 52.7051C30.6173 52.7481 30.5743 52.7631 30.4463 52.7631H29.9403C29.5413 52.7631 29.3643 52.7281 29.1783 52.6281C28.8733 52.4651 28.6243 52.1151 28.2183 51.5821C27.9213 51.1911 27.5853 50.7141 27.4443 50.5291C27.4163 50.5001 27.3933 50.4861 27.3503 50.4861L26.4763 50.4711C26.4393 50.4711 26.4253 50.4931 26.4253 50.5291V50.6991C26.4253 51.3831 26.4253 51.9451 26.4623 52.2431C26.4833 52.4501 26.5253 52.6051 26.7393 52.6351C26.8393 52.6491 26.9963 52.6621 27.0593 52.6621C27.1023 52.6621 27.1163 52.6841 27.1163 52.7051C27.1163 52.7421 27.0803 52.7631 27.0023 52.7631C26.6113 52.7631 26.1623 52.7421 26.1273 52.7421C26.1203 52.7421 25.6713 52.7631 25.4583 52.7631C25.3803 52.7631 25.3443 52.7481 25.3443 52.7051C25.3443 52.6841 25.3583 52.6621 25.4013 52.6621C25.4643 52.6621 25.5503 52.6481 25.6153 52.6351C25.7573 52.6061 25.7923 52.4501 25.8213 52.2431C25.8573 51.9451 25.8573 51.3831 25.8573 50.6991L25.8583 49.4461Z" fill="white"/>
<path d="M20.2948 49.446C20.2948 48.337 20.2948 48.137 20.2798 47.909C20.2658 47.668 20.2088 47.554 19.9738 47.504C19.9178 47.489 19.7958 47.483 19.7318 47.483C19.7038 47.483 19.6748 47.468 19.6748 47.44C19.6748 47.397 19.7108 47.383 19.7888 47.383C19.9518 47.383 20.1438 47.383 20.3008 47.391L20.5918 47.405C20.6428 47.405 22.0568 47.405 22.2218 47.397C22.3568 47.391 22.4708 47.376 22.5278 47.362C22.5628 47.354 22.5908 47.327 22.6268 47.327C22.6478 47.327 22.6548 47.354 22.6548 47.391C22.6548 47.44 22.6208 47.526 22.5988 47.725C22.5908 47.795 22.5778 48.108 22.5628 48.194C22.5568 48.229 22.5418 48.273 22.5138 48.273C22.4708 48.273 22.4568 48.237 22.4568 48.18C22.4568 48.13 22.4478 48.008 22.4138 47.923C22.3628 47.811 22.2918 47.725 21.9088 47.682C21.7868 47.667 21.0118 47.661 20.9328 47.661C20.9048 47.661 20.8908 47.682 20.8908 47.731V49.696C20.8908 49.745 20.8968 49.766 20.9328 49.766C21.0248 49.766 21.8998 49.766 22.0638 49.752C22.2348 49.738 22.3338 49.723 22.3988 49.652C22.4468 49.595 22.4758 49.558 22.5048 49.558C22.5258 49.558 22.5398 49.573 22.5398 49.615C22.5398 49.658 22.5048 49.78 22.4828 50.015C22.4688 50.157 22.4548 50.419 22.4548 50.469C22.4548 50.527 22.4548 50.604 22.4038 50.604C22.3688 50.604 22.3548 50.577 22.3548 50.541C22.3548 50.47 22.3548 50.398 22.3258 50.307C22.2978 50.207 22.2338 50.086 21.9548 50.059C21.7638 50.036 21.0598 50.022 20.9388 50.022C20.9038 50.022 20.8898 50.043 20.8898 50.073V50.698C20.8898 50.941 20.8828 51.766 20.8898 51.915C20.9108 52.407 21.0178 52.499 21.7148 52.499C21.8988 52.499 22.2118 52.499 22.3978 52.421C22.5828 52.341 22.6678 52.199 22.7178 51.907C22.7318 51.829 22.7458 51.802 22.7808 51.802C22.8228 51.802 22.8228 51.859 22.8228 51.907C22.8228 51.964 22.7658 52.449 22.7318 52.598C22.6818 52.784 22.6248 52.784 22.3468 52.784C21.8148 52.784 21.4238 52.768 21.1438 52.762C20.8668 52.747 20.6958 52.741 20.5898 52.741C20.5758 52.741 20.4558 52.741 20.3068 52.747C20.1638 52.747 19.9988 52.762 19.8928 52.762C19.8158 52.762 19.7788 52.747 19.7788 52.704C19.7788 52.683 19.7928 52.661 19.8358 52.661C19.8998 52.661 19.9848 52.647 20.0498 52.634C20.1928 52.605 20.2268 52.449 20.2558 52.242C20.2928 51.944 20.2928 51.382 20.2928 50.698V49.446H20.2948Z" fill="white"/>
<path d="M16.5371 50.6981C16.5371 51.3821 16.5371 51.9441 16.5741 52.2421C16.5951 52.4491 16.6371 52.6041 16.8511 52.6341C16.9511 52.6481 17.1081 52.6611 17.1711 52.6611C17.2141 52.6611 17.2281 52.6831 17.2281 52.7041C17.2281 52.7411 17.1921 52.7621 17.1141 52.7621C16.7211 52.7621 16.2731 52.7411 16.2381 52.7411C16.2021 52.7411 15.7551 52.7621 15.5421 52.7621C15.4621 52.7621 15.4271 52.7471 15.4271 52.7041C15.4271 52.6831 15.4431 52.6611 15.4841 52.6611C15.5481 52.6611 15.6331 52.6471 15.6981 52.6341C15.8401 52.6051 15.8761 52.4491 15.9041 52.2421C15.9401 51.9441 15.9401 51.3821 15.9401 50.6981V49.9511C15.9401 49.9231 15.9191 49.9081 15.8971 49.9081H12.8801C12.8601 49.9081 12.8371 49.9171 12.8371 49.9511V50.6981C12.8371 51.3821 12.8371 51.9441 12.8741 52.2421C12.8951 52.4491 12.9371 52.6041 13.1511 52.6341C13.2511 52.6481 13.4081 52.6611 13.4711 52.6611C13.5141 52.6611 13.5281 52.6831 13.5281 52.7041C13.5281 52.7411 13.4921 52.7621 13.4141 52.7621C13.0231 52.7621 12.5751 52.7411 12.5391 52.7411C12.5021 52.7411 12.0551 52.7621 11.8421 52.7621C11.7641 52.7621 11.7281 52.7471 11.7281 52.7041C11.7281 52.6831 11.7421 52.6611 11.7851 52.6611C11.8481 52.6611 11.9341 52.6471 11.9971 52.6341C12.1401 52.6051 12.1751 52.4491 12.2051 52.2421C12.2391 51.9441 12.2391 51.3821 12.2391 50.6981V49.4461C12.2391 48.3371 12.2391 48.1371 12.2251 47.9091C12.2111 47.6681 12.1541 47.5541 11.9201 47.5041C11.8621 47.4891 11.7421 47.4831 11.6771 47.4831C11.6481 47.4831 11.6201 47.4681 11.6201 47.4401C11.6201 47.3971 11.6571 47.3831 11.7341 47.3831C12.0541 47.3831 12.5021 47.4041 12.5391 47.4041C12.5751 47.4041 13.0221 47.3831 13.2361 47.3831C13.3131 47.3831 13.3501 47.3971 13.3501 47.4401C13.3501 47.4681 13.3211 47.4831 13.2931 47.4831C13.2421 47.4831 13.1991 47.4891 13.1141 47.5041C12.9221 47.5401 12.8651 47.6611 12.8511 47.9091C12.8361 48.1381 12.8361 48.3371 12.8361 49.4461V49.5961C12.8361 49.6311 12.8591 49.6381 12.8791 49.6381H15.8961C15.9181 49.6381 15.9391 49.6311 15.9391 49.5961V49.4461C15.9391 48.3371 15.9391 48.1371 15.9251 47.9091C15.9101 47.6681 15.8531 47.5541 15.6191 47.5041C15.5621 47.4891 15.4421 47.4831 15.3771 47.4831C15.3481 47.4831 15.3211 47.4681 15.3211 47.4401C15.3211 47.3971 15.3551 47.3831 15.4341 47.3831C15.7541 47.3831 16.2021 47.4041 16.2381 47.4041C16.2731 47.4041 16.7211 47.3831 16.9351 47.3831C17.0141 47.3831 17.0511 47.3971 17.0511 47.4401C17.0511 47.4681 17.0221 47.4831 16.9921 47.4831C16.9411 47.4831 16.9001 47.4891 16.8151 47.5041C16.6231 47.5401 16.5661 47.6611 16.5511 47.9091C16.5371 48.1381 16.5371 48.3371 16.5371 49.4461V50.6981Z" fill="white"/>
<path d="M7.60068 51.78H7.62968C7.82168 51.125 8.47768 49.062 8.72568 48.151C8.79768 47.887 8.80468 47.789 8.80468 47.696C8.80468 47.568 8.72568 47.483 8.39868 47.483C8.36468 47.483 8.33568 47.46 8.33568 47.434C8.33568 47.397 8.37168 47.383 8.45568 47.383C8.81868 47.383 9.11968 47.404 9.18268 47.404C9.23268 47.404 9.53768 47.383 9.75868 47.383C9.82268 47.383 9.85868 47.397 9.85868 47.425C9.85868 47.459 9.83768 47.483 9.79368 47.483C9.76568 47.483 9.63068 47.489 9.55368 47.518C9.33968 47.596 9.22568 47.896 9.09068 48.288C8.77668 49.19 8.05868 51.452 7.78068 52.249C7.59568 52.775 7.56068 52.861 7.48168 52.861C7.41068 52.861 7.36768 52.768 7.26768 52.492L5.87368 48.536H5.85768C5.60068 49.22 4.62668 51.822 4.37068 52.484C4.25868 52.784 4.22168 52.861 4.13568 52.861C4.06468 52.861 4.02968 52.784 3.88768 52.299L2.62168 48.08C2.50768 47.703 2.41368 47.596 2.23068 47.525C2.13668 47.488 1.95968 47.482 1.91068 47.482C1.87368 47.482 1.84668 47.474 1.84668 47.433C1.84668 47.396 1.88968 47.382 1.96068 47.382C2.33068 47.382 2.72268 47.403 2.80068 47.403C2.86368 47.403 3.17768 47.382 3.53168 47.382C3.63168 47.382 3.66068 47.403 3.66068 47.433C3.66068 47.474 3.62468 47.482 3.58868 47.482C3.53168 47.482 3.39768 47.482 3.31168 47.525C3.26868 47.546 3.21968 47.602 3.21968 47.695C3.21968 47.788 3.28368 48.037 3.35468 48.35C3.46168 48.804 4.20268 51.415 4.30868 51.793H4.32268L5.83068 47.737C5.93668 47.446 5.96468 47.41 6.00768 47.41C6.05768 47.41 6.10168 47.502 6.18568 47.744L7.60068 51.78Z" fill="white"/>
<path d="M142.264 40.229C142.274 40.317 142.291 40.458 142.399 40.492C142.471 40.514 142.536 40.514 142.559 40.514C142.573 40.514 142.58 40.517 142.58 40.527C142.58 40.543 142.557 40.55 142.527 40.55C142.472 40.55 142.205 40.542 142.111 40.534C142.054 40.529 142.043 40.521 142.043 40.509C142.043 40.499 142.047 40.494 142.061 40.491C142.073 40.49 142.075 40.447 142.069 40.401L141.952 39.12H141.944L141.335 40.413C141.282 40.521 141.274 40.544 141.253 40.544C141.235 40.544 141.224 40.52 141.175 40.43C141.111 40.307 140.896 39.876 140.884 39.853C140.863 39.808 140.583 39.211 140.556 39.144H140.546L140.446 40.299C140.444 40.337 140.444 40.383 140.444 40.426C140.444 40.461 140.471 40.494 140.508 40.501C140.549 40.512 140.588 40.514 140.604 40.514C140.612 40.514 140.622 40.52 140.622 40.527C140.622 40.545 140.608 40.55 140.579 40.55C140.487 40.55 140.366 40.542 140.347 40.542C140.326 40.542 140.206 40.55 140.138 40.55C140.115 40.55 140.097 40.544 140.097 40.527C140.097 40.52 140.109 40.514 140.12 40.514C140.14 40.514 140.159 40.514 140.194 40.507C140.276 40.491 140.284 40.396 140.296 40.302L140.476 38.68C140.478 38.652 140.488 38.634 140.501 38.634C140.514 38.634 140.526 38.644 140.54 38.671L141.3 40.235L142.03 38.672C142.042 38.651 142.051 38.633 142.067 38.633C142.085 38.633 142.094 38.654 142.098 38.7L142.264 40.229Z" fill="white"/>
<path d="M139.326 39.829C139.326 40.067 139.326 40.265 139.34 40.368C139.346 40.44 139.361 40.495 139.436 40.505C139.471 40.51 139.526 40.515 139.547 40.515C139.565 40.515 139.568 40.523 139.568 40.531C139.568 40.544 139.556 40.552 139.529 40.552C139.392 40.552 139.234 40.544 139.222 40.544C139.208 40.544 139.052 40.552 138.978 40.552C138.949 40.552 138.939 40.546 138.939 40.531C138.939 40.523 138.943 40.515 138.959 40.515C138.98 40.515 139.012 40.51 139.033 40.505C139.084 40.495 139.096 40.441 139.105 40.368C139.117 40.264 139.117 40.067 139.117 39.829V38.776L138.75 38.781C138.596 38.784 138.537 38.802 138.496 38.86C138.469 38.903 138.461 38.921 138.453 38.938C138.447 38.959 138.439 38.963 138.43 38.963C138.422 38.963 138.416 38.955 138.416 38.941C138.416 38.916 138.465 38.702 138.473 38.682C138.477 38.667 138.487 38.634 138.496 38.634C138.512 38.634 138.539 38.659 138.605 38.664C138.677 38.671 138.771 38.676 138.802 38.676H139.734C139.812 38.676 139.869 38.671 139.91 38.664C139.949 38.659 139.971 38.651 139.98 38.651C139.994 38.651 139.994 38.667 139.994 38.681C139.994 38.756 139.986 38.927 139.986 38.954C139.986 38.975 139.978 38.985 139.966 38.985C139.956 38.985 139.95 38.978 139.948 38.942L139.944 38.916C139.936 38.843 139.878 38.784 139.639 38.779L139.325 38.774V39.829H139.326Z" fill="white"/>
<path d="M133.568 40.551C133.492 40.551 133.492 40.318 133.607 40.28C134.378 40.205 134.453 40.088 134.722 39.971C134.952 39.82 135.105 39.471 135.105 35.621V34.39H128.445V35.621C128.445 39.471 128.636 39.819 128.869 39.971C129.101 40.087 129.248 40.204 130.017 40.28C130.091 40.318 130.091 40.551 130.056 40.551H125.38C125.306 40.551 125.306 40.318 125.38 40.28C126.15 40.205 126.364 40.088 126.595 39.971C126.866 39.82 127.019 39.471 127.019 35.621V32.731C127.019 28.844 126.867 28.498 126.595 28.382C126.365 28.229 126.325 28.113 125.554 28.035C125.478 28.035 125.478 27.804 125.554 27.804H129.88C129.915 27.804 129.915 28.035 129.841 28.035C129.07 28.113 129.101 28.228 128.868 28.382C128.636 28.497 128.444 28.844 128.444 32.731V33.657H135.104V32.731C135.104 28.844 134.952 28.498 134.721 28.382C134.451 28.229 134.551 28.113 133.782 28.035C133.665 28.035 133.665 27.804 133.741 27.804H137.966C138.044 27.804 138.044 28.035 137.925 28.035C137.155 28.113 137.224 28.228 136.954 28.382C136.724 28.497 136.571 28.844 136.571 32.731V35.621C136.571 39.471 136.723 39.819 136.954 39.971C137.224 40.087 137.333 40.204 138.102 40.28C138.219 40.318 138.219 40.551 138.139 40.551H133.568Z" fill="white"/>
<path d="M123.427 39.819C123.156 40.204 122.364 40.743 120.019 40.743C115.667 40.743 113.062 37.893 113.062 34.312C113.062 30.961 115.433 27.613 119.822 27.613C122.056 27.613 122.463 28.342 123.156 28.19C123.232 28.19 123.271 28.229 123.271 28.266C123.31 28.961 123.347 30.037 123.347 31.116C123.31 31.191 123.077 31.191 123.077 31.078C123.001 30.539 122.731 29.884 122.307 29.501C121.612 28.806 120.938 28.23 119.59 28.23C116.047 28.23 114.797 31.057 114.797 33.866C114.797 37.064 116.899 40.052 120.053 40.052C121.481 40.052 122.055 39.666 122.709 38.856C123.129 38.317 123.342 37.738 123.496 37.123C123.496 37.046 123.822 37.123 123.822 37.2C123.747 38.238 123.618 39.548 123.427 39.819Z" fill="white"/>
<path d="M113.48 40.608C113.517 40.608 113.517 40.341 113.441 40.341H112.863C111.478 40.341 110.027 38.54 107.408 34.613C108.795 33.764 110.058 32.495 110.058 30.915C110.058 29.416 108.712 27.797 105.785 27.797C104.9 27.797 103.828 27.835 103.096 27.835C102.364 27.835 101.27 27.797 100.426 27.797C100.348 27.797 100.385 28.064 100.461 28.064C101.231 28.143 101.713 28.257 101.945 28.411C102.215 28.526 102.5 28.839 102.5 32.724V35.614C102.5 39.464 102.346 39.754 102.074 39.906C101.845 40.023 101.363 40.139 100.594 40.217C100.516 40.253 100.516 40.543 100.594 40.543H105.602C105.639 40.543 105.639 40.253 105.561 40.217C104.715 40.14 104.444 40.064 104.213 39.906C103.983 39.754 103.789 39.464 103.789 35.614V35.038C104.519 35.075 105.137 35.113 106.1 35.075C107.717 37.77 108.805 39.42 109.805 40.115C110.576 40.612 111.016 40.725 112.209 40.725C112.672 40.727 113.057 40.688 113.48 40.608ZM108.561 31.554C108.561 33.093 107.254 34.459 105.637 34.459C104.711 34.459 104.174 34.345 103.944 34.15C103.868 34.034 103.79 33.92 103.79 32.725C103.79 29.878 103.847 28.724 103.962 28.568C104.04 28.455 105.093 28.378 105.747 28.378C107.633 28.378 108.561 29.666 108.561 31.554Z" fill="white"/>
<path d="M100.746 40.544C100.785 40.544 100.814 40.26 100.74 40.219C100.174 40.181 99.5845 40.103 99.2485 39.905C98.9825 39.711 98.7275 39.445 97.2155 35.519L96.1215 32.572C95.4415 30.725 94.9165 29.163 94.3505 27.435C94.3135 27.278 93.4095 27.371 93.3795 27.529C93.1435 28.845 92.5805 30.994 92.0355 32.667L91.0335 35.688C90.2635 38.261 89.4985 39.703 89.3125 39.86C89.0095 40.057 88.8965 40.176 88.2925 40.214C88.2195 40.253 88.2475 40.545 88.2865 40.545H91.9005C91.9745 40.545 91.9845 40.253 91.9085 40.214C91.0785 40.135 90.8145 39.98 90.8145 39.585C90.8145 39.192 91.0335 38.269 91.9395 35.675H95.8185C96.9145 38.542 97.1345 39.395 97.1345 39.749C97.1345 40.063 96.7925 40.182 96.1895 40.22C96.1135 40.261 96.1215 40.545 96.1975 40.545L100.746 40.544ZM95.5185 34.849H92.2055L93.7405 29.884L95.5185 34.849Z" fill="white"/>
<path d="M87.2999 40.219C87.1449 40.452 86.9149 40.605 86.4119 40.605C85.2189 40.605 84.1349 40.512 82.4779 40.512C81.2079 40.512 80.5539 40.512 79.1689 40.551C79.1279 40.551 79.1009 40.262 79.1779 40.224C79.9489 40.146 80.2949 40.032 80.5269 39.915C80.7579 39.764 80.9779 39.471 80.9779 35.621V32.731C80.9779 28.844 80.7849 28.544 80.5539 28.428C80.3239 28.274 79.9749 28.159 79.2059 28.081C79.1279 28.081 79.1279 27.804 79.1689 27.804C80.7079 27.804 83.2299 27.841 84.4989 27.841C86.1549 27.841 86.9969 27.804 87.6139 27.73C87.6899 27.73 87.5789 27.767 87.5789 27.805C87.5009 28.498 87.4639 29.27 87.3489 30.347C87.3489 30.423 87.0789 30.385 87.0789 30.269C87.0789 29.77 87.0389 29.345 86.7309 29.039C86.4239 28.692 85.8089 28.499 84.4199 28.499C83.6499 28.499 82.6689 28.538 82.4769 28.538C82.4399 28.73 82.4009 29.539 82.4009 30.771V33.424H84.0199C85.9069 33.424 86.1369 33.195 86.2519 32.502C86.2889 32.425 86.5209 32.425 86.5209 32.502C86.4829 33.578 86.4439 34.235 86.4439 35.35C86.4439 35.427 86.1739 35.427 86.1739 35.35C86.1739 34.965 86.0609 34.58 85.8669 34.387C85.6739 34.195 85.3669 34.078 83.9799 34.078H82.3999V35.427C82.3999 37.929 82.5929 39.201 82.8229 39.471C83.0559 39.742 83.3729 39.875 84.5259 39.875C85.7589 39.875 86.5319 39.604 86.8789 39.256C87.1489 38.948 87.3419 38.486 87.5329 37.87C87.5329 37.755 87.8029 37.832 87.7619 37.949C87.6879 38.987 87.4529 39.949 87.2999 40.219Z" fill="white"/>
<path d="M72.47 41.115C69.999 41.133 68.86 39.877 68.807 39.804C68.78 39.733 68.698 37.664 68.782 36.414C68.751 36.293 69.136 36.276 69.142 36.425C69.24 37.348 69.485 38.305 69.852 38.798C70.618 39.835 71.405 40.529 72.847 40.464C74.983 40.362 76.157 39.014 76.067 37.209C75.878 33.575 70.328 33.873 69.408 30.27C68.637 27.244 70.824 25.442 73.344 25.384C75.204 25.341 75.552 25.926 76.42 25.661C76.517 25.632 76.569 25.678 76.571 25.725C76.616 26.578 76.614 27.722 76.631 29.017C76.613 29.115 76.368 29.128 76.339 29.008C76.247 28.232 75.906 27.297 75.39 26.811C74.798 26.254 74.109 25.951 73.228 25.977C71.268 26.037 70.152 27.601 70.709 29.556C71.382 31.916 77.388 32.424 77.544 36.17C77.707 40.06 75.326 41.092 72.47 41.115Z" fill="white"/>
<path d="M75.0657 10.587C75.7687 10.668 75.5587 11.603 74.9367 11.501C74.3927 11.408 74.8437 10.753 75.0657 10.587Z" fill="white"/>
<path d="M52.719 7.38098C53.392 7.50498 53.129 8.43198 52.518 8.29198C51.982 8.16698 52.492 7.51698 52.719 7.38098Z" fill="white"/>
<path d="M66.7528 5.60797C67.0058 5.92497 66.7958 6.76597 66.3048 6.49497C65.7858 6.20697 66.2888 5.50797 66.7528 5.60797Z" fill="white"/>
<path d="M47.6958 12.475C48.3678 12.574 48.1598 13.491 47.5408 13.389C46.9798 13.3 47.4608 12.628 47.6958 12.475Z" fill="white"/>
<path d="M56.1909 11.782C56.6879 11.824 57.0189 12.536 56.5199 12.728C55.9759 12.936 55.8439 12.067 56.1909 11.782Z" fill="white"/>
<path d="M60.2834 12.943C60.7824 12.981 61.1124 13.694 60.6134 13.888C60.0694 14.095 59.9384 13.227 60.2834 12.943Z" fill="white"/>
<path d="M64.9498 16.528C65.6238 16.629 65.4148 17.544 64.7918 17.445C64.2408 17.357 64.7128 16.68 64.9498 16.528Z" fill="white"/>
<path d="M72.8512 16.233C73.0322 16.623 72.6222 17.348 72.1882 16.975C71.7462 16.598 72.4372 16.059 72.8512 16.233Z" fill="white"/>
<path d="M72.7591 18.883C73.3831 19.042 73.1761 19.917 72.5621 19.812C71.9931 19.713 72.5181 19.018 72.7591 18.883Z" fill="white"/>
<path d="M67.8357 22.206C68.3377 22.263 68.6087 23.031 68.1137 23.163C67.5517 23.309 67.4577 22.462 67.8357 22.206Z" fill="white"/>
<path d="M64.8505 24.106C65.5365 24.186 65.3925 25.075 64.7615 25.023C64.1985 24.969 64.6165 24.286 64.8505 24.106Z" fill="white"/>
<path d="M65.4737 14.463C65.8697 14.521 66.2727 15.289 65.7327 15.423C65.1407 15.573 65.0957 14.722 65.4737 14.463Z" fill="white"/>
<path d="M73.109 22.0179C73.734 22.1799 73.525 23.0529 72.91 22.9459C72.331 22.8429 72.867 22.1559 73.109 22.0179Z" fill="white"/>
<path d="M46.749 21.992C47.473 21.536 47.799 23.06 47.264 23.051C47.229 23.05 46.212 22.33 46.749 21.992Z" fill="white"/>
<path d="M56.7447 14.811C56.1647 15.195 55.7527 14.003 56.2867 14.014C56.3217 14.014 57.2707 14.46 56.7447 14.811Z" fill="white"/>
<path d="M48.2115 15.808C48.7305 15.849 49.0065 16.594 48.5005 16.762C47.9575 16.939 47.8735 16.066 48.2115 15.808Z" fill="white"/>
<path d="M43.5693 15.456C43.9973 15.492 44.4213 16.22 43.8753 16.408C43.3313 16.594 43.2223 15.593 43.5693 15.456Z" fill="white"/>
<path d="M38.5809 17.825C38.7569 18.114 37.7419 18.735 37.6829 18.144C37.6149 17.486 38.4039 17.538 38.5809 17.825Z" fill="white"/>
<path d="M44.0087 20.267C44.4047 20.325 44.8097 21.092 44.2667 21.227C43.6927 21.373 43.6007 20.514 44.0087 20.267Z" fill="white"/>
<path d="M59.9358 19.839C59.3568 20.221 58.9438 19.032 59.4778 19.042C59.5138 19.042 60.4618 19.488 59.9358 19.839Z" fill="white"/>
<path d="M59.3432 22.203C60.0452 22.284 59.8352 23.219 59.2132 23.117C58.6672 23.025 59.1192 22.368 59.3432 22.203Z" fill="white"/>
<path d="M56.4679 20.0699C56.9529 20.1229 57.2269 20.9009 56.7449 21.0269C56.1739 21.1759 56.0869 20.3299 56.4679 20.0699Z" fill="white"/>
<path d="M46.7358 21.9979C47.4608 21.5409 47.7878 23.0659 47.2528 23.0559C47.2168 23.0559 46.1998 22.3339 46.7358 21.9979Z" fill="white"/>
<path d="M77.1696 17.28C77.8086 17.445 77.5406 18.367 76.9406 18.202C76.3926 18.053 76.9276 17.42 77.1696 17.28Z" fill="white"/>
<path d="M83.4137 16.666C82.9627 16.211 81.0917 16.151 80.6937 16.258C80.7157 16.254 80.3957 16.279 80.3957 16.279L80.2437 16.289C80.2337 16.289 79.5367 16.365 79.5367 16.365C79.5327 16.365 79.2317 16.39 79.2317 16.39C78.5537 16.463 77.4097 16.354 77.2567 16.204C77.2317 16.18 77.2217 16.153 77.2217 16.119C77.2217 16.112 77.2217 16.106 77.2227 16.099C77.2407 15.996 77.4077 15.977 77.7507 15.962L78.0127 15.945C78.3287 15.906 78.4807 15.883 78.5597 15.86C78.5577 15.864 78.5487 15.874 78.5487 15.874L79.3357 15.758C80.4667 15.602 81.7527 15.425 82.5257 14.695C82.5217 14.7 82.6797 14.573 82.6797 14.573C82.6897 14.562 82.9427 14.302 82.9427 14.302C83.0217 14.144 83.0487 13.954 82.9687 13.834C82.9397 13.786 82.8777 13.725 82.7557 13.724C82.0097 13.711 81.0957 14.336 80.4897 14.75C80.4177 14.798 80.3747 14.827 80.3437 14.854L80.3467 14.848C80.0887 15.036 79.8527 15.19 79.5737 15.205C79.5347 15.205 79.5347 15.205 79.5137 15.16C79.5027 15.139 79.4967 15.117 79.4967 15.089C79.4967 15.023 79.5237 14.944 79.5697 14.886C79.7147 14.729 79.8647 14.613 80.0667 14.499C80.2367 14.4 80.3207 14.35 80.3637 14.317C80.3617 14.318 80.3577 14.326 80.3577 14.326C80.8747 13.994 81.4637 13.567 81.9297 12.938C82.0137 12.822 82.1997 12.566 82.0427 12.407C81.9667 12.328 81.8587 12.301 81.7247 12.32C80.9977 12.419 79.5017 13.95 79.2867 14.348C79.2887 14.343 79.1167 14.63 79.1167 14.63C79.0077 14.826 78.8967 15.027 78.7317 15.14C78.5637 15.283 77.9037 15.591 77.7137 15.405C77.6207 15.313 77.7397 15.132 77.8597 14.966C79.2447 13.308 79.2447 13.308 79.2487 13.3C79.2307 13.321 79.9127 12.693 79.9127 12.693L80.4757 12.281C80.4857 12.273 80.8217 11.981 80.8217 11.981C80.8197 11.982 81.3157 11.6 81.3157 11.6C82.1007 11.013 82.6577 10.574 82.6447 10.246C82.6397 10.161 82.6047 10.094 82.5377 10.046C82.1307 9.75297 80.6087 10.934 80.1617 11.498C79.8277 11.912 79.4877 12.342 79.3977 12.339C79.3347 12.339 79.2937 12.321 79.2817 12.288C79.2297 12.174 79.4227 11.866 79.5447 11.725C79.7597 11.481 81.0827 9.50397 80.5617 9.03697C80.5187 9.00297 80.4517 8.96597 80.3537 8.99497C79.9577 9.09897 79.4087 10.15 79.3477 10.336C79.3507 10.329 79.3107 10.426 79.3107 10.426L79.0877 10.982C79.0757 11.005 78.8827 11.838 78.8827 11.838C78.7617 12.438 78.6077 13.166 78.3687 13.252C78.3077 13.224 78.2107 13.18 78.2107 13.18C78.1717 13.126 78.1537 13.017 78.1537 12.885C78.1537 12.642 78.2067 12.316 78.2437 12.091C78.2437 12.087 78.2857 11.757 78.2857 11.757C78.3077 11.611 78.3197 11.476 78.3197 11.352C78.3197 10.998 78.2297 10.743 78.0627 10.658C78.0017 10.629 77.8797 10.6 77.7497 10.729C77.5407 10.939 77.5037 11.297 77.5017 11.493L77.5247 11.829L77.6297 12.435C77.7427 13.007 77.8427 13.545 77.8427 13.875C77.8427 13.885 77.8407 13.894 77.8407 13.904L77.8037 14.124C77.8007 14.129 77.7177 14.278 77.7157 14.278C77.7157 14.276 77.0727 15.107 77.0727 15.107C76.6017 15.695 76.0217 16.421 75.8667 16.723C75.8697 16.715 75.1747 17.905 75.1747 17.905C75.1727 17.905 74.5437 18.725 74.5437 18.725C74.5397 18.725 73.7907 19.564 73.7907 19.564C73.7907 19.564 73.1577 20.09 73.1537 20.093L72.8867 20.246L72.6087 20.418C72.2957 20.685 71.7687 20.868 71.5727 20.815C71.5157 20.801 71.5027 20.775 71.4977 20.754L71.4297 20.462C71.4017 20.334 71.3887 20.159 71.3887 19.967C71.3887 19.527 71.4597 19.004 71.6087 18.828C71.8717 18.515 72.2657 18.377 72.6147 18.284C72.6197 18.284 73.1217 18.127 73.1217 18.127C73.2037 18.093 74.8437 17.388 75.1957 16.498C75.2227 16.426 75.2367 16.361 75.2367 16.306C75.2367 16.235 75.2157 16.177 75.1687 16.135C75.0227 15.998 74.7217 16.097 74.4927 16.204C74.2997 16.266 73.5897 16.872 73.1857 17.226L71.6707 18.175C71.6337 18.196 71.5317 18.243 71.4737 18.165C71.4327 18.109 71.4187 18.011 71.4187 17.902C71.4187 17.786 71.4327 17.655 71.4437 17.548C71.4447 17.546 71.4687 17.295 71.4687 17.295C71.4687 17.271 71.4577 17.002 71.4577 17.002C71.4527 16.908 71.4457 16.817 71.4457 16.729C71.4457 16.586 71.4597 16.453 71.5127 16.342C71.6397 16.066 72.0037 15.935 72.2957 15.827L72.5207 15.74C72.5387 15.731 73.0337 15.431 73.0357 15.428C73.0357 15.43 73.5337 15.208 73.5337 15.208C73.5367 15.208 74.1767 15.108 74.1767 15.108C74.1847 15.104 74.6807 15.003 74.6807 15.003C75.2587 14.892 75.9147 14.765 76.3307 14.408C76.3467 14.396 76.7157 14.072 76.6737 13.832C76.6667 13.779 76.6317 13.708 76.5207 13.664C76.3587 13.601 76.0877 13.689 75.6967 13.935C75.6937 13.936 75.2297 14.241 75.2297 14.241C74.7437 14.584 74.0267 14.785 73.8797 14.621C73.8577 14.597 73.8707 14.553 73.8877 14.497C73.9817 14.219 74.3567 13.78 74.9557 13.452C75.5107 13.151 76.7307 12.336 76.7507 11.879L76.6057 11.519L76.5767 11.541C76.3987 11.492 75.6927 11.857 75.1497 12.285C74.2377 13.015 73.6797 13.677 73.3417 14.43C73.3357 14.444 73.1837 14.689 73.1557 14.732C73.1437 14.687 73.1217 14.594 73.1217 14.594C73.1187 14.565 73.1187 14.536 73.1187 14.507C73.1187 14.122 73.3347 13.641 73.6127 13.064L73.7217 12.834C74.0087 12.234 74.0917 11.918 74.0917 11.741C74.0917 11.635 74.0637 11.579 74.0247 11.545C73.9507 11.466 73.8117 11.476 73.6147 11.568C72.9427 11.885 72.6907 13.798 72.6647 14.254C72.6417 14.638 72.5657 15.02 72.4987 15.07L72.1057 15.282C72.1057 15.282 71.8577 15.384 71.8557 15.384L71.5687 15.442L71.5707 15.44C71.5707 15.434 71.4997 15.398 71.4997 15.398L71.4467 15.269C71.4547 14.739 71.6937 14.321 71.9237 13.917C71.9277 13.912 72.1627 13.479 72.1627 13.479C72.1677 13.472 72.5627 12.574 72.5627 12.574C72.8977 11.78 73.2757 10.88 73.7677 10.327C73.7747 10.327 74.1527 10.065 74.1527 10.065L74.1987 10.034C74.6077 9.87897 75.0417 9.97597 75.4617 10.07C75.4637 10.072 75.7727 10.138 75.7727 10.138C76.5687 10.282 77.2257 10.273 77.7897 10.108C77.7867 10.109 77.9407 10.067 77.9407 10.067C78.1397 10.014 78.3277 9.96597 78.4937 9.81697C78.6067 9.71297 78.8847 9.37197 78.7927 9.18397C78.7457 9.08897 78.6227 9.05797 78.4177 9.08997C78.4377 9.08897 77.9687 9.25197 77.9687 9.25197C77.5447 9.42897 76.9067 9.69497 76.4887 9.66297C76.3637 9.66097 76.1217 9.60597 76.0777 9.50997C76.0587 9.46697 76.0837 9.42097 76.1127 9.38797C76.1957 9.28697 76.5507 9.08697 76.9297 8.87697C77.8697 8.34797 78.6527 7.88097 78.7177 7.49997C78.7287 7.41397 78.7067 7.33797 78.6507 7.26997C78.4687 7.07097 78.1247 7.21197 77.9957 7.26497C77.2387 7.56797 76.8497 7.97997 76.4337 8.41497L75.6197 9.19097C75.2247 9.43497 74.8937 9.37697 74.7517 9.35297C74.5887 9.34097 74.5587 9.27597 74.5487 9.25297C74.5197 9.19197 74.5427 9.10897 74.5797 9.06197C74.6537 8.95997 74.8997 8.75797 75.2087 8.50097C76.2417 7.65297 77.2197 6.79997 77.2407 6.24897C77.2457 6.12997 77.2087 6.02597 77.1207 5.94497C76.9647 5.79597 76.7167 5.96797 76.5687 6.07097L76.5227 6.10097C75.7847 6.59497 75.0407 7.68197 74.5477 8.40097C74.2937 8.77097 74.0527 9.11897 73.9777 9.14797C73.9747 9.14197 73.9347 9.12197 73.8957 9.10297C73.8807 9.03597 73.8467 8.88797 73.8467 8.88797C73.9037 8.55597 74.1177 8.23997 74.3217 7.93497C74.5817 7.49997 74.6847 7.31897 74.7127 7.23097C74.7157 7.23897 74.7227 7.25797 74.7227 7.25797L75.1247 6.18697C75.1207 6.19497 75.2227 5.81797 75.2227 5.81797L75.1997 5.66597C75.1687 5.62497 75.1037 5.55697 75.1037 5.55697L75.0697 5.52297L75.0097 5.49997C74.1037 5.48497 73.3767 8.89097 73.3707 8.92397C73.3707 8.93397 73.2777 9.80997 73.2777 9.80997C73.2627 10.023 73.0897 10.31 72.9077 10.61C72.8947 10.633 72.6577 11.031 72.6577 11.031C72.6447 11.048 72.5067 11.302 72.5067 11.302C72.4007 11.462 72.0297 12.288 71.9687 12.522C71.8277 12.88 71.3877 13.759 71.2137 13.826C71.1467 13.763 71.0827 13.548 71.0797 13.344C71.0767 13.318 70.8837 12.582 70.8837 12.582C70.8647 12.421 70.8557 12.265 70.8557 12.111C70.8557 11.798 70.8927 11.504 70.9627 11.234C71.0437 10.936 71.2627 10.692 71.4697 10.46C71.4747 10.458 71.7607 10.115 71.7607 10.115C72.1307 9.60997 72.6177 8.94197 72.8227 8.27297L72.8697 8.11497C72.9607 7.81897 73.0397 7.52997 73.0397 7.30697C73.0397 7.14197 72.9977 7.01397 72.8897 6.94497L72.7097 6.91097L72.4797 7.09697C72.2717 7.40297 72.0877 7.93097 71.8927 8.48997C71.6357 9.23297 71.3447 10.066 70.9907 10.317C70.9847 10.318 70.9457 10.338 70.9457 10.338C70.9477 10.332 70.9247 10.336 70.9037 10.276C70.8757 9.93697 70.8717 9.53297 71.0577 9.04497C71.0597 9.03697 71.2417 8.45297 71.2417 8.45297C71.7917 6.75397 72.6047 3.84097 71.8537 3.42997C71.8197 3.41697 71.6517 3.46197 71.6517 3.46197C71.3477 3.68497 71.1727 4.71197 71.1607 4.90597C71.1287 6.66697 70.9067 8.36497 70.6897 8.47397C70.6137 8.49197 70.5647 8.41097 70.4877 8.23297C70.1567 7.53197 70.1747 6.66397 70.1927 5.89597L70.1947 5.70797C70.2277 3.78697 70.0127 2.26097 69.6537 1.91097C69.6207 1.88997 69.4837 1.82797 69.4837 1.82797L69.4587 1.81397L69.4337 1.81597C69.3477 1.81897 69.2807 1.85297 69.2267 1.91997C68.9847 2.22497 69.1637 3.19697 69.3937 4.20397L69.4567 4.49297C69.5757 5.07297 69.7647 6.75397 69.6087 6.92497C69.5577 6.94397 69.3907 6.85897 68.9627 5.98997L68.9267 5.92397C68.8697 5.80997 68.8057 5.48397 68.7347 5.13697C68.5927 4.43897 68.1967 3.33297 68.0027 3.09497C67.9587 3.03897 67.8697 2.98497 67.7037 3.04697C67.4827 3.12697 67.4097 3.43197 67.4097 3.68997C67.4097 3.75097 67.4147 3.80597 67.4197 3.85897C67.5397 4.74597 68.3597 6.38597 68.9507 7.10597C68.9547 7.11097 69.3977 7.57297 69.3977 7.57297C69.5927 7.76397 69.8317 8.12897 70.0717 8.60397C70.3947 9.23697 70.4227 9.80097 70.4297 10.655C70.4297 10.658 70.4377 10.79 70.4377 10.79C70.4397 10.838 70.4417 10.884 70.4417 10.927C70.4417 11.017 70.4297 11.099 70.3937 11.174H70.3917C70.2597 11.092 70.1807 10.707 70.1147 10.399C70.1127 10.391 69.9327 9.74897 69.9327 9.74897C69.6757 8.95897 69.2287 8.21597 68.6447 7.60597C68.6397 7.59997 68.0877 7.08797 68.0877 7.08797L67.9537 6.96797C67.7667 6.84497 67.6327 6.81397 67.5407 6.85897C67.4267 6.91497 67.4137 7.05797 67.4067 7.11997V7.14697C67.4067 7.93997 68.0457 8.53597 68.6627 9.11097C68.9677 9.39797 69.2427 9.65697 69.4357 9.92297C69.4357 9.92797 69.6257 10.353 69.6257 10.353C69.6317 10.376 69.6367 10.396 69.6367 10.416C69.6367 10.479 69.5847 10.53 69.5137 10.573C69.3847 10.555 69.1807 10.421 69.0107 10.306C68.9927 10.292 68.7627 10.144 68.7627 10.144C67.9227 9.72297 66.7907 9.15797 66.4087 9.79797C66.3767 9.84697 66.3747 9.90397 66.3967 9.95997C66.4737 10.16 66.7687 10.385 67.0537 10.463C67.0617 10.466 67.8787 10.636 67.8787 10.636C68.5737 10.726 69.2827 10.816 69.7877 11.313C70.0997 11.617 70.1457 11.942 70.2067 12.353L70.2507 12.63C70.2517 12.636 70.3647 13.147 70.3647 13.147C70.3647 13.145 70.5207 13.955 70.5207 13.955V13.957C70.5207 13.996 70.5457 14.806 70.5457 14.806L70.5787 15.72C70.5797 15.737 70.6317 16.029 70.6317 16.029C70.6897 16.329 70.8027 16.929 70.8027 17.269C70.8027 17.387 70.7887 17.473 70.7547 17.507C70.7537 17.505 70.7387 17.502 70.7387 17.502C70.4617 17.409 69.6027 16.325 69.5717 16.095C69.5757 16.093 69.6627 15.507 69.6627 15.507C69.6627 15.499 69.7047 15.028 69.7047 15.028C69.7047 15.034 69.7427 14.285 69.7427 14.285C69.7507 13.809 69.7187 13.405 69.6477 13.083C69.6477 13.085 69.5367 12.564 69.5367 12.564C69.4617 12.356 69.2657 11.805 68.8947 11.797C68.8187 11.797 68.7567 11.823 68.7067 11.879C68.4907 12.15 68.6737 12.963 68.9537 14.085C69.1217 14.757 69.1987 15.245 69.1647 15.429C69.1587 15.438 69.1267 15.472 69.1157 15.472C69.1157 15.472 69.0697 15.467 68.9927 15.335C68.9927 15.33 68.6057 14.325 68.6057 14.325C68.1657 13.257 67.7457 12.371 67.1187 11.519C67.0097 11.372 66.8087 11.096 66.5977 11.229C66.2997 11.42 66.5287 12.003 66.5787 12.119L66.7027 12.424C66.8607 12.815 67.0237 13.215 67.2757 13.568C67.2817 13.577 67.7127 14.073 67.7127 14.073C68.0327 14.419 68.3257 14.754 68.4367 15.119L68.4527 15.252C68.4337 15.265 68.3427 15.252 68.2677 15.219C68.1157 15.165 67.7367 14.928 67.3277 14.402L67.2087 14.25C66.6797 13.563 66.2117 12.992 65.8547 12.959L65.6117 13.037C65.5717 13.073 65.5307 13.135 65.5307 13.233C65.5307 13.25 65.5327 13.267 65.5347 13.286C65.6097 13.832 66.9727 15.111 67.8077 15.527C68.2077 15.731 68.5737 15.917 68.8357 16.127C68.8357 16.132 69.1227 16.506 69.1227 16.506C69.1227 16.508 69.2817 16.756 69.2817 16.756C69.2907 16.771 69.6577 17.199 69.6577 17.199C70.0977 17.701 70.4467 18.099 70.6147 18.93C70.6117 18.933 70.5497 19.674 70.5497 19.674C70.5497 19.692 70.5717 20.269 70.5717 20.269L70.5887 20.359C70.6137 20.455 70.6647 20.644 70.6647 20.892C70.6647 21.069 70.6397 21.277 70.5607 21.503C70.3877 22 69.9647 22.42 68.9677 23.328C68.9537 23.347 68.8647 23.466 68.8647 23.466L68.5747 23.752L68.3397 23.925C68.3317 23.931 68.2737 23.983 68.2737 23.983C68.1777 24.074 68.0057 24.222 67.8767 24.246C67.8127 24.183 67.6617 24.034 67.6617 24.034C67.5887 23.848 67.4207 23.686 67.2477 23.516C66.9977 23.268 66.8977 23.17 66.8767 22.835C66.8767 22.829 66.8617 22.698 66.8617 22.698C66.8677 22.398 67.2757 21.866 67.5427 21.652C67.5387 21.655 68.1657 21.2 68.1657 21.2C68.5057 20.953 69.7507 19.807 69.7627 19.082L69.6957 18.811C69.6337 18.715 69.5537 18.707 69.5107 18.712C68.9927 18.722 67.8487 20.716 67.8397 20.736C67.8497 20.721 67.6737 20.944 67.6737 20.944C67.6157 20.987 67.5727 20.974 67.5517 20.962C67.5167 20.941 67.4897 20.881 67.4897 20.804C67.4897 20.783 67.4927 20.76 67.4957 20.736L67.6607 20.101L67.9917 19.215C68.2197 18.766 68.4607 17.706 68.4607 17.154C68.4607 17.139 68.4597 17.122 68.4597 17.107C68.4647 17.083 68.4657 17.056 68.4657 17.032C68.4657 16.851 68.3407 16.752 68.2917 16.711C68.1617 16.636 68.0577 16.628 67.9607 16.675C67.5967 16.847 67.3877 17.958 67.1687 19.695L67.1247 20.031C67.1257 20.029 67.0557 20.494 67.0557 20.494L67.0397 20.58L67.0267 20.675C67.0177 20.758 67.0007 20.899 66.9537 20.925C66.9387 20.925 66.8647 20.899 66.7887 20.73C66.5647 20.222 66.6087 19.581 66.6927 18.964C66.7227 18.735 66.8647 17.561 66.7377 17.03C66.7057 16.891 66.5687 16.744 66.4487 16.724C66.3457 16.703 66.0887 16.706 65.9487 17.112C65.9437 17.128 65.8597 17.576 65.8597 17.576C65.8587 17.581 65.8157 18.372 65.8157 18.372C65.8037 19.036 65.9217 20.013 66.1597 20.52C66.1627 20.525 66.3317 20.844 66.3317 20.844C66.4757 21.098 66.6227 21.359 66.6567 21.627L66.6627 21.726C66.6587 21.906 66.5887 22.05 66.4747 22.111C66.3967 22.152 66.3257 22.154 66.2507 22.119C65.8047 21.911 65.5037 20.466 65.3757 19.849L65.3087 19.55C65.2567 19.358 64.9837 18.412 64.5837 18.277C64.4777 18.24 64.3707 18.262 64.2677 18.338C63.8907 18.626 64.3337 19.451 64.7607 20.251C65.0297 20.751 65.3327 21.314 65.1977 21.418C65.1287 21.474 65.0247 21.466 64.9597 21.4L64.3977 20.726C63.9507 20.139 63.4447 19.469 62.7937 19.409C62.6227 19.442 62.5397 19.555 62.5397 19.719C62.5397 19.738 62.5397 19.76 62.5427 19.781C62.6187 20.358 63.3757 20.797 63.9297 21.118C64.1637 21.261 64.2687 21.321 64.3407 21.349C64.3347 21.349 64.3177 21.354 64.3177 21.354C64.4047 21.419 64.4827 21.511 64.4967 21.552C64.3797 21.648 63.8597 21.556 63.3917 21.47C62.7377 21.351 61.9957 21.214 61.5487 21.344C61.2597 21.432 61.0907 21.579 61.0967 21.744C61.1017 21.848 61.1837 22.036 61.6887 22.149C62.3187 22.29 62.9927 22.197 63.6437 22.106C63.6457 22.106 64.6787 22 64.6787 22C64.9227 21.99 65.2847 21.99 65.4997 22.08C65.6397 22.14 65.7327 22.264 65.8327 22.395C65.8377 22.402 66.0277 22.629 66.0277 22.629C66.0907 22.701 66.2027 22.82 66.2027 22.906C66.2027 22.913 66.2017 22.919 66.2007 22.924C66.1837 23.006 66.1207 23.043 65.9697 23.055C65.9687 23.053 65.6607 23.022 65.6607 23.022C65.6607 23.02 65.3567 22.954 65.3567 22.954C64.6077 22.786 63.4767 22.53 62.9147 22.793C62.6197 22.939 62.4787 23.08 62.4957 23.219C62.4907 23.367 62.6347 23.432 62.9017 23.5C63.4197 23.629 64.0097 23.565 64.4167 23.491L64.9167 23.408C65.8227 23.425 66.1607 23.662 66.5517 23.937L66.7827 24.097C66.8357 24.134 66.8657 24.282 66.8657 24.467C66.8657 24.545 66.8597 24.63 66.8477 24.715C66.7797 25.194 66.2577 26.638 65.9007 26.818C65.8897 26.813 65.6647 26.836 65.6647 26.836L65.4147 26.861C65.3907 26.863 65.1967 27.108 65.1967 27.108C65.2197 27.081 65.0207 27.249 65.0207 27.249C65.0027 27.269 64.9207 27.461 64.9207 27.461L64.9127 27.575C64.8887 27.759 64.8637 27.939 64.7877 28.073L64.6267 28.383C64.5157 28.611 64.3887 28.869 64.2407 29.007C63.9987 29.227 63.7527 29.453 63.5977 29.717C63.5857 29.745 63.5257 29.972 63.5257 29.972L63.4167 30.382C63.4037 30.839 62.5267 32.132 62.3257 32.193C62.0487 32.187 61.7757 31.57 61.5557 31.074L61.2687 30.471C61.1627 30.28 60.9777 30.183 60.8447 30.112L60.6947 30.017C60.6907 30.008 60.4237 29.681 60.4237 29.681C60.4237 29.674 60.1607 29.11 60.1607 29.11C60.1647 29.115 59.7757 28.485 59.7757 28.485C59.7807 28.495 59.6417 28.243 59.6417 28.243L59.4817 27.91L59.4367 27.506C59.4457 27.352 59.4547 27.209 59.2267 27.046C59.0117 26.895 58.4677 26.644 58.2497 26.641C58.2407 26.641 57.5067 26.591 57.1287 25.746L57.0947 25.554L57.1227 25.226C57.1227 25.221 57.1147 24.4 57.1147 24.371C57.1677 23.885 57.2487 23.518 57.4917 23.189C57.7027 22.779 57.8017 22.584 57.8427 22.481C57.8427 22.485 57.8437 22.498 57.8437 22.498L57.9927 22.316C58.3137 21.925 58.6667 21.496 59.0577 21.292C59.1327 21.253 59.3597 21.211 60.0247 21.224C60.2597 21.229 60.5037 21.236 60.6777 21.124C60.7027 21.101 61.0547 20.682 61.0547 20.682C61.0507 20.686 61.9897 19.724 61.9897 19.724L62.6417 19.222C63.0527 18.935 63.4447 18.659 63.6997 18.229C63.7147 18.188 63.8997 16.804 63.8997 16.804C63.8977 16.814 64.1477 15.394 64.1477 15.394L64.3947 14.726L64.6137 14.131C64.6227 14.107 64.6837 13.395 64.6837 13.395L64.6877 12.79C64.6877 12.79 64.7527 12.12 64.7597 12.056C64.7977 12.011 65.3017 11.378 65.3017 11.378C65.6377 10.766 66.0277 9.96597 66.1717 9.05797C66.1717 9.05497 66.2337 8.42697 66.2337 8.42697C66.2347 8.40997 66.2347 8.39497 66.2347 8.37997C66.2347 8.11297 66.1897 7.93197 66.1017 7.82697C65.9987 7.70197 65.8897 7.65097 65.7787 7.67797C65.5507 7.73297 65.4197 8.08697 65.3777 8.28697C65.3767 8.29197 65.1987 9.39797 65.1987 9.39797C65.1967 9.40397 65.1487 9.86397 65.1487 9.86397C65.0827 10.517 65.0037 11.317 64.7427 11.426L64.7047 11.414C64.6407 11.375 64.6097 11.253 64.6167 11.074C64.6257 10.836 64.5547 10.629 64.4787 10.408C64.3907 10.151 64.3097 9.91197 64.3527 9.63897C64.4437 9.05897 64.6477 8.62397 64.8467 8.20497C65.0297 7.81197 65.2217 7.40697 65.3287 6.88297C65.4427 6.32597 65.4387 5.40997 65.3777 4.82797C65.3777 4.82997 65.3737 4.77297 65.3737 4.77297C65.3417 4.48497 65.3067 4.16897 65.1357 4.04397C65.0627 3.98397 64.9827 3.94197 64.8427 4.00997C64.7577 3.99997 64.6797 4.12297 64.5937 4.82197C64.5777 4.93097 64.5707 4.99597 64.5697 5.04497L64.5647 5.03697L64.4577 6.29997C64.4107 7.04997 64.3647 7.81597 64.1817 8.48697C64.1797 8.49197 64.1617 8.56997 64.1617 8.56997C64.1137 8.81897 64.0627 8.85697 63.9907 8.84297C63.8947 8.82497 63.8577 8.62597 63.8337 8.50697C63.8337 8.50497 63.8167 8.42797 63.8167 8.42797C63.7457 8.14497 63.7807 7.82997 63.8157 7.52697C63.8167 7.51097 63.8527 6.79797 63.8527 6.79797C63.7697 5.66697 63.4157 4.19397 63.1147 3.18697C63.1107 3.17397 62.9077 2.65497 62.6037 2.64997C62.4937 2.64897 62.4067 2.69097 62.3387 2.77397C62.0407 3.15297 62.5057 4.89897 62.5097 4.91597C62.5137 4.92597 62.8177 5.75697 62.8177 5.75697C63.2587 6.88297 63.2557 7.25997 63.2337 7.37197C63.2327 7.37697 63.2287 7.38497 63.2027 7.39497C62.7797 7.50397 62.3637 6.46897 61.9967 5.55497C61.6207 4.62097 61.4197 4.17997 61.1867 4.14897C61.1117 4.13997 61.0427 4.17797 60.9787 4.26097C60.8027 4.49797 60.9607 5.08497 60.9927 5.19997C61.2007 5.82697 61.5727 6.64897 61.9887 7.08297C61.9937 7.08797 62.5167 7.57397 62.5167 7.57397L62.9647 7.99097C63.1497 8.19297 63.9597 10.081 63.8457 10.31C63.8137 10.339 63.7467 10.328 63.7127 10.308C63.3237 10.081 62.8967 9.55497 62.5197 9.08897C62.5187 9.08697 62.0087 8.48497 62.0087 8.48497C61.6277 8.05297 61.3257 7.87297 61.1107 7.94797C60.9567 8.00097 60.9057 8.17997 60.9047 8.23597V8.24797C60.9047 9.17697 62.8257 10.622 64.0927 10.868C64.1777 10.911 64.1867 11.324 64.1927 11.597C64.1927 11.597 64.1967 11.788 64.1967 11.802C64.1967 12.296 63.9017 14.199 63.6987 14.407C63.6927 14.408 63.6527 14.439 63.6527 14.439C63.6707 14.418 63.6197 14.416 63.5667 14.31C63.5687 14.316 63.1287 13.29 63.1287 13.29V13.286C63.1287 13.222 63.0847 12.399 63.0847 12.399C62.9777 11.455 62.6437 10.732 62.0307 10.111C61.9127 10.045 61.8427 10.042 61.7867 10.076C61.7157 10.111 61.6957 10.202 61.6857 10.293V10.314C61.6857 10.772 61.9517 11.298 62.1877 11.765C62.3757 12.143 62.5567 12.503 62.5567 12.744C62.5567 12.77 62.5517 12.796 62.5467 12.821C62.3097 12.765 61.9247 12.202 61.5497 11.642C60.9547 10.757 60.5407 10.184 60.2137 10.264C60.1077 10.288 60.0367 10.348 60.0037 10.445C59.9907 10.482 59.9857 10.525 59.9857 10.569C59.9857 11.071 60.6887 11.966 60.6967 11.975C61.0067 12.343 61.3397 12.586 61.6597 12.822C62.1167 13.156 62.5737 13.492 62.9437 14.155C63.1697 14.557 63.2677 15.084 63.2677 15.635C63.2677 16.62 62.9537 17.685 62.4877 18.275C62.2627 18.559 61.9767 18.728 61.7007 18.89C61.6967 18.891 61.2667 19.166 61.2667 19.166C61.2497 19.18 60.8497 19.561 60.8497 19.561C60.8437 19.569 60.7197 19.711 60.7197 19.711C60.5697 19.897 60.4227 20.073 60.1187 20.16C60.1117 20.16 60.0657 20.163 60.0657 20.163C60.0637 20.165 59.5647 20.205 59.5647 20.205L59.2937 20.206C59.0267 20.277 58.8997 20.307 58.8187 20.253C58.7387 20.194 58.6907 20.026 58.6587 19.672L58.6497 19.581C58.6497 19.576 58.6307 19.277 58.6307 19.277L58.7047 18.952C58.8997 18.581 59.5747 18.59 60.2897 18.599C61.1737 18.609 61.8267 18.538 62.1457 18.156C62.2247 18.062 62.2197 17.983 62.2017 17.93C62.1567 17.801 61.9897 17.741 61.8577 17.714C61.5387 17.643 60.3867 17.91 60.1487 17.987C59.8267 18.093 59.2877 18.269 59.2217 18.192C59.1607 18.122 59.2117 17.983 59.2877 17.876C59.7097 17.272 60.3617 17.044 61.0557 16.805L61.1217 16.783C61.7747 16.556 62.3907 16.344 62.9397 15.688C63.0387 15.569 63.0667 15.402 63.0117 15.267C62.9737 15.172 62.8977 15.11 62.8097 15.101C62.5367 15.055 61.9897 15.439 61.3557 15.906L61.2077 16.015C61.2117 16.015 60.6017 16.432 60.6017 16.432C60.5587 16.452 60.4247 16.522 60.3557 16.493C60.3367 16.486 60.3257 16.472 60.3177 16.448C60.2837 16.339 60.6237 15.965 60.9227 15.633C61.5687 14.922 62.3697 14.036 61.9387 13.551C61.8777 13.488 61.7707 13.439 61.5857 13.552C60.8617 13.991 60.4377 14.955 60.0637 15.804C60.0627 15.809 59.6187 16.744 59.6187 16.744C59.6167 16.744 58.9217 17.561 58.9217 17.561C58.9067 17.582 58.7647 17.856 58.7647 17.856C58.7067 17.981 58.5927 18.223 58.5347 18.233L58.5327 18.231C58.4497 18.194 58.3077 17.92 58.2227 17.674C58.0927 17.299 58.0367 16.966 58.0367 16.662C58.0367 15.946 58.3407 15.381 58.6767 14.756C58.6817 14.748 59.1787 13.734 59.1787 13.734C59.4637 13.03 59.6357 11.993 59.6357 11.007V10.933L59.6447 10.744C59.6507 10.662 59.6577 10.572 59.6577 10.482C59.6577 10.255 59.6177 10.041 59.4277 10.003C59.2987 9.97497 59.1797 10.001 59.0787 10.084C58.7277 10.37 58.6597 11.258 58.6597 12.255C58.6597 12.471 58.6617 12.694 58.6677 12.917L58.6627 13.649C58.6307 13.895 58.4267 14.361 58.2747 14.383C58.2317 14.388 58.1887 14.342 58.1487 14.248V14.243C58.1487 14.171 58.0937 13.41 58.0937 13.41L57.9587 11.675C57.9597 11.686 57.9217 11.087 57.9217 11.087C57.8977 10.792 58.3507 9.07397 58.8547 8.53497C59.1757 8.19197 59.4627 7.88297 59.5887 7.67997C59.8467 7.26297 60.1727 6.69397 60.2717 6.34497C60.3047 6.22497 60.3807 5.94897 60.1947 5.80297C60.1497 5.76897 60.0967 5.75997 60.0367 5.77597C59.6787 5.86597 58.9887 6.80197 58.8157 7.20497C58.8157 7.20997 58.7857 7.28197 58.7857 7.28197C58.6187 7.72597 58.4467 8.18197 58.2087 8.56897C57.9457 9.01697 57.8357 9.02797 57.8077 9.02097C57.7807 9.01297 57.7137 8.95797 57.7077 8.59497C57.6947 7.74697 58.2647 6.97497 58.8147 6.22897C59.3497 5.50097 59.9037 4.74897 59.9797 3.88797L59.9837 3.83797C60.0017 3.65297 60.0437 3.21997 59.7107 3.16697C59.6717 3.16697 59.5537 3.18797 59.5537 3.18797C59.0957 3.40997 58.7327 4.49797 58.3717 5.69197C58.2387 6.11697 58.1377 6.44597 58.0437 6.62097C58.0017 6.70297 57.8977 6.91397 57.8117 6.92097C57.7927 6.92197 57.7717 6.90697 57.7497 6.87697C57.6667 6.75797 57.7407 6.52097 57.8107 6.28997C57.8167 6.27297 57.8967 5.94297 57.8967 5.94297C57.9257 5.13597 57.6247 1.02797 56.8157 0.883972C56.7717 0.885972 56.6587 0.910972 56.6587 0.910972C56.4797 1.03097 56.4507 1.24697 56.4457 1.31197C56.4407 1.36797 56.4387 1.42597 56.4387 1.48397C56.4387 2.02797 56.6507 2.67597 56.8597 3.30497L57.0307 3.84297C57.0307 3.84297 57.4057 5.47497 57.4057 5.47797C57.4057 5.49897 57.4117 5.65297 57.4117 5.65497C57.4107 5.64697 57.3907 5.69597 57.3777 5.72197C57.1277 5.61697 56.5817 4.73397 56.4707 4.51597C56.4537 4.49197 56.3597 4.31797 56.3597 4.31797L55.9367 3.55797C55.5347 2.86897 54.9137 2.08897 54.7967 1.98797C54.6807 1.88397 54.5687 1.83997 54.4607 1.85397C54.3577 1.86697 54.2857 1.91297 54.2447 1.99297C54.1067 2.26197 54.3717 2.84597 54.6197 3.28697C55.3257 4.31997 55.9247 5.12397 56.3117 5.55797L56.7987 5.99797C57.2047 6.31897 57.4517 6.51197 57.2117 7.36697C57.2067 7.38197 57.1937 7.38497 57.1887 7.38597C57.0427 7.41197 56.5637 6.89597 56.2147 6.51897C56.2117 6.51597 55.6417 5.94697 55.6417 5.94697C55.6277 5.93697 55.3227 5.69197 55.3227 5.69197C55.1557 5.54497 54.9957 5.40797 54.7347 5.29497C54.7297 5.29297 54.0857 5.01397 53.8827 5.27497C53.7587 5.43197 53.8547 5.65897 53.9477 5.77497C54.2237 6.10297 54.5727 6.36097 55.0517 6.58597C55.0497 6.58497 55.5537 6.83597 55.5537 6.83597C55.8917 7.03097 57.0957 7.94097 57.1167 8.18797L57.1307 8.95397C57.2187 9.48397 57.3047 10.345 57.3047 10.81C57.3047 10.967 57.2947 11.078 57.2707 11.119C57.1967 11.154 57.0697 11.046 56.9257 10.907C56.9177 10.901 56.6427 10.684 56.6427 10.684L56.3437 10.446C56.3437 10.425 56.1197 9.90397 56.1197 9.90197L56.0417 9.65497C55.7297 8.95897 55.3147 8.20597 54.5457 7.79897C54.4077 7.72297 54.1747 7.59397 54.0187 7.77397C53.9977 7.80997 53.9417 7.96897 53.9417 7.96897C53.9657 8.37397 54.4137 8.86497 54.8247 9.20397C55.3747 9.65597 55.6917 10.067 55.6917 10.33C55.6917 10.353 55.6887 10.375 55.6827 10.396C55.6827 10.396 55.6777 10.403 55.6737 10.41C55.6437 10.41 55.5577 10.384 55.4467 10.32C55.4467 10.318 55.0407 9.95597 55.0407 9.95597C54.3197 9.27897 53.5867 8.62697 53.1857 8.68997L52.9937 8.80897C52.9757 8.85097 52.9487 8.98897 52.9487 8.98897C53.0317 9.94397 54.1547 10.38 55.2397 10.8C56.1427 11.148 57.0707 11.505 57.3857 12.122C57.4477 12.241 57.4567 12.395 57.4567 12.552C57.4567 12.59 57.4567 12.663 57.4567 12.663C57.4567 12.671 57.4567 12.878 57.4567 12.878C57.4567 12.886 57.5507 14.153 57.5507 14.153C57.5477 14.154 57.4167 14.991 57.4167 14.991C57.4177 14.986 57.3607 15.272 57.3607 15.272C57.3617 15.259 57.3307 15.549 57.3307 15.549C57.3097 15.843 57.2777 16.193 57.0657 16.303C56.9987 16.292 56.7917 16.259 56.7917 16.259C56.2907 16.051 55.6527 14.546 55.4447 14.049L55.4207 13.996C55.2867 13.662 55.2047 12.787 55.1777 12.499C55.1777 12.496 55.1627 12.378 55.1627 12.378C55.1647 12.387 54.9057 10.857 54.1637 10.777L54.1197 10.775L54.0377 10.82L53.9937 10.852L53.9647 10.879C53.8687 11.018 53.8497 11.147 53.8467 11.324C53.8367 11.887 54.2227 12.585 54.5627 13.201C54.8047 13.639 55.0097 14.009 55.0047 14.212L54.9647 14.316C54.9047 14.369 54.8207 14.29 54.7977 14.263C54.7967 14.259 54.7137 14.142 54.7137 14.142C54.3427 13.504 53.5397 12.492 52.9177 12.793C52.7827 12.859 52.7097 13.005 52.7307 13.169C52.7657 13.474 53.2447 13.819 54.0257 14.352C54.8077 14.881 55.6787 15.47 55.5617 15.921C55.5307 15.982 55.0357 15.769 54.7997 15.668C54.7977 15.668 54.5717 15.574 54.5717 15.574C54.5887 15.579 54.2577 15.417 54.2577 15.417C53.4617 15.011 52.6837 14.634 52.4077 14.641C52.3297 14.647 52.1287 14.696 52.0447 14.851C52.0447 14.853 52.0047 14.998 52.0047 14.998L52.0667 15.231C52.3417 15.755 54.1447 16.103 54.4887 16.151L55.3997 16.376C56.8817 16.73 57.1387 17.264 57.4317 18.107C57.4317 18.109 57.5507 18.434 57.5507 18.434C57.6927 18.813 57.7437 19.031 57.7437 19.246V19.27L57.6947 19.719C57.6947 19.722 57.6477 20.063 57.6477 20.066C57.6477 20.097 57.6567 20.251 57.6567 20.251C57.6577 20.269 57.6657 20.413 57.6657 20.413L57.6327 20.544L57.5407 20.65C57.5357 20.655 57.4217 20.802 57.4217 20.802L57.4077 20.83L57.2107 21.47C56.8917 22.1 56.5767 22.508 56.3597 22.574L56.2367 22.564C56.2157 22.557 56.1327 22.529 56.1327 22.529C55.1797 22.087 55.4317 21.317 55.7837 20.251L55.9037 19.874L56.0787 19.378C56.2167 19.011 56.3157 18.747 56.2737 18.357C56.2537 18.168 56.2057 17.733 55.9057 17.7L55.8777 17.697L55.7287 17.758C55.2087 18.221 54.9307 19.991 54.9477 20.59C54.9537 20.797 54.9347 20.887 54.7917 20.906C54.8007 20.893 54.7387 20.858 54.7387 20.858C54.6557 20.736 54.6637 20.677 54.6827 20.537L54.7037 20.208C54.7027 20.228 54.7477 19.907 54.7477 19.907C54.7487 19.886 54.7407 19.565 54.7407 19.565C54.7267 19.048 54.7127 18.46 54.6387 18.009C54.6047 17.813 54.5137 17.677 54.3707 17.611C54.3477 17.597 54.2797 17.571 54.1797 17.625C53.9697 17.734 53.9337 18.007 53.9047 18.228L53.8867 18.342L53.8327 18.947C53.8327 18.982 53.8317 19.015 53.8317 19.05C53.8317 19.97 54.0567 20.499 54.3917 21.286C54.3947 21.296 54.6667 21.8 54.6667 21.8C54.6667 21.806 54.8617 22.458 54.8617 22.458C54.8777 22.494 55.1057 22.817 55.1057 22.817C55.1257 22.838 55.9667 23.525 56.1527 23.68C56.0857 24.173 56.0697 24.323 56.0697 24.373C56.0697 24.388 56.0707 24.395 56.0727 24.401C56.0737 24.406 56.0737 24.411 56.0737 24.419C56.0737 24.566 55.9277 25.176 55.8587 25.401C55.8187 25.383 55.7107 25.337 55.7107 25.337L55.5837 25.276C55.3957 25.208 53.5217 23.864 53.3917 23.731L53.3487 23.686C52.7857 23.079 52.3007 22.555 52.2357 21.737C52.2337 21.687 52.2307 21.638 52.2307 21.589C52.2307 20.92 52.5807 20.436 52.5827 20.434L52.5987 20.411L52.6787 19.92L52.9697 19.171C53.2597 18.457 53.5307 17.783 53.5457 16.953L53.5437 16.711C53.5337 16.499 53.4777 16.349 53.3767 16.266L53.1307 16.203C53.0967 16.213 53.0007 16.261 53.0007 16.261C52.7047 16.517 52.6617 17.268 52.6417 18.083C52.6397 18.101 52.6157 18.594 52.6157 18.594L52.6057 18.685C52.5607 19.064 52.5097 19.385 52.3597 19.447C52.2077 19.435 52.1227 18.541 52.0497 17.754C51.9237 16.438 51.8037 15.507 51.4077 15.499C51.2897 15.498 51.1967 15.543 51.1307 15.636C50.6827 16.261 51.6467 18.934 51.9527 19.736C52.0097 19.984 51.9737 20.065 51.8837 20.123C51.8437 20.136 51.5807 19.997 51.0647 19.088L50.8377 18.703C50.5957 18.159 50.5117 17.584 50.4187 16.977L50.3187 16.342L50.2467 15.947C50.3037 15.768 50.3317 15.675 50.3457 15.608C50.3457 15.61 50.3507 15.621 50.3507 15.621L50.8297 14.725C50.8277 14.73 51.0477 14.358 51.0477 14.358C51.0457 14.36 51.3067 13.91 51.3067 13.91C51.3087 13.91 51.7927 13.047 51.7927 13.047L52.0547 12.718C52.5177 12.149 53.2967 11.188 53.2967 10.453C53.2967 10.272 53.2487 10.105 53.1377 9.95897C53.0087 9.84997 52.8727 9.87597 52.8337 9.88597C52.7187 9.89297 52.6367 10.044 52.4087 10.915C52.3017 11.336 52.1367 11.974 51.9977 11.938C51.9357 11.924 51.9257 11.855 51.9257 11.827L51.9957 11.379C52.1187 10.701 52.2227 10.038 52.2227 9.56197C52.2227 9.24197 52.1747 9.00497 52.0567 8.90697C51.9907 8.84897 51.9067 8.83397 51.8137 8.86497C51.4937 9.01997 51.4447 9.77597 51.4207 10.476L51.4047 10.805C51.4047 10.823 51.4677 11.956 51.4677 11.956C51.4607 12.411 51.2797 13.206 51.1387 13.273C51.1257 13.272 51.0937 13.274 51.0937 13.274C51.0857 13.245 50.9647 13.102 50.7617 12.292C50.6607 11.348 50.6607 11.348 50.6547 11.332C50.6547 11.128 50.6837 10.561 50.6987 10.496C50.7597 9.84597 50.6777 9.50197 50.4627 9.45097C50.2637 9.40197 50.0307 9.63897 49.9717 9.78297C49.7127 10.395 49.8137 11.081 49.9497 11.672C50.0807 12.26 50.2777 12.591 50.4497 12.883C50.6327 13.189 50.7737 13.427 50.7657 13.869C50.6737 14.269 50.2087 15.005 50.0027 15.059C49.9887 15.064 49.9777 15.065 49.9517 15.037C49.9517 15.024 49.6497 14.308 49.6497 14.308C49.5207 13.931 49.2437 12.661 49.2437 12.108C49.2437 12.055 49.2477 12.008 49.2527 11.97C49.2767 10.616 49.4277 10.077 50.0597 9.07097C50.1227 8.94297 50.4647 8.43297 51.0857 8.07797C51.9777 7.40597 52.7447 6.77197 53.1907 5.72397L53.2467 5.59497C53.3597 5.34097 53.4987 5.02597 53.4987 4.71897C53.4987 4.70297 53.4987 4.68997 53.4987 4.67497C53.4907 4.48297 53.4127 4.39297 53.3467 4.35397C53.1437 4.23197 52.9687 4.45797 52.8527 4.60497C52.8457 4.61097 52.2887 5.47497 52.2887 5.47497C51.7337 6.37097 50.7037 8.02797 50.4077 7.91897C50.4057 7.91197 50.3607 7.87097 50.3607 7.87097C50.3437 7.84097 50.3367 7.79997 50.3367 7.74897C50.3367 7.34297 50.8247 6.33197 51.1327 5.70197C51.1327 5.69997 51.4187 5.07897 51.4187 5.07897C51.7007 4.30497 51.8457 3.68697 51.8767 3.12797L51.8837 3.05697C51.9067 2.75097 51.9137 2.42297 51.7267 2.33697L51.4887 2.33997C51.3557 2.39597 51.2457 2.53197 51.2217 2.59297C50.9957 3.15197 50.9067 3.61897 50.8177 4.06997L50.7767 4.27497C50.7757 4.28497 50.6627 5.20097 50.6627 5.20097L50.2807 6.49897L50.2517 6.57497C50.2177 6.68097 50.1657 6.83597 50.0747 6.85497C50.0667 6.85297 50.0177 6.84597 50.0177 6.84597C49.9227 6.80597 49.9097 6.38997 49.9097 6.06997C49.9097 5.96397 49.9117 5.86697 49.9137 5.79897L49.9507 4.41497C49.9507 4.38197 49.9517 4.32397 49.9517 4.24297C49.9517 3.56697 49.8957 1.39097 49.1917 1.20797L49.1427 1.19597L49.0237 1.27197C48.9287 1.39097 48.8987 1.52897 48.8937 1.72397C48.8867 2.18597 49.1357 3.44397 49.2277 3.84897L49.3087 4.20797C49.3097 4.21197 49.4087 4.86197 49.4087 4.86197C49.4007 4.98597 49.3677 4.98997 49.3567 4.99197C49.2757 4.99897 49.1587 4.86897 49.1277 4.76197C48.9487 4.18197 48.2847 2.61097 47.6967 2.15897L47.4147 2.07597C47.3677 2.09397 47.2777 2.16097 47.2777 2.16097C47.0547 2.51197 47.7257 3.81197 48.2787 4.53097C48.2837 4.53697 48.5127 4.79097 48.5127 4.79097C48.8077 5.11297 49.1357 5.47097 49.2077 5.74797C49.2087 5.74997 49.4517 6.52297 49.4517 6.52297C49.7567 7.50597 49.9237 8.22097 49.4697 9.17797L49.4307 9.25997C49.3557 9.42497 49.1827 9.81197 49.0637 9.84497C49.0177 9.85797 48.9697 9.85197 48.9077 9.64997C48.9067 9.64497 48.6357 8.84897 48.6357 8.84897L48.4407 8.27097C48.4407 8.22397 48.3707 6.81397 48.3707 6.81397C48.3647 6.38297 47.7187 4.27197 47.1737 3.94497C47.0857 3.89097 46.9957 3.88397 46.9147 3.92497C46.7717 3.99597 46.7147 4.13297 46.7147 4.31097C46.7147 4.72797 47.0277 5.37497 47.3147 5.96797L47.4407 6.23397C47.6107 6.58697 47.7677 6.91997 47.7777 7.05397C47.7737 7.05597 47.7447 7.15797 47.7297 7.21897C47.6857 7.23797 47.6347 7.25697 47.6347 7.25697C47.4637 7.24497 47.1987 6.73097 46.9207 6.18397C46.5227 5.40297 46.0757 4.52597 45.5297 4.59397C45.4567 4.60297 45.3997 4.64197 45.3727 4.70497C45.2677 4.92597 45.5037 5.51697 46.0037 6.27797C46.4097 6.89497 46.9767 7.46097 47.3497 7.83397C47.3477 7.83197 47.8547 8.37897 47.8547 8.37897C48.1947 8.85797 48.7997 10.84 48.7297 11.717C48.7247 11.778 48.7017 11.826 48.6827 11.831C48.6677 11.836 48.6387 11.807 48.6267 11.797C48.6257 11.795 48.2837 11.355 48.2837 11.355C48.1447 11.154 47.9437 10.997 47.7487 10.843L47.6487 10.767C47.4837 10.641 47.3437 10.532 47.2277 10.345C47.2277 10.333 46.9597 9.45297 46.9597 9.45297C46.5847 8.56597 45.2927 6.41497 44.2857 6.29097C44.1477 6.31097 44.0747 6.35697 44.0357 6.42997C44.0117 6.47297 43.9987 6.52097 43.9987 6.57997C43.9987 6.66297 44.0207 6.76197 44.0697 6.88497C44.2427 7.31997 44.5697 7.60097 44.8577 7.84897L45.1077 8.07197C46.0907 9.03697 46.7067 9.89797 46.7067 10.151C46.7067 10.161 46.7047 10.169 46.7027 10.178C46.6967 10.183 46.6787 10.207 46.6787 10.207C46.4447 10.205 44.4087 8.88497 44.1937 8.64697L43.5697 7.90497C43.5307 7.84397 43.0867 7.37897 42.9677 7.27297C42.8267 7.09297 41.5797 5.85797 40.8977 6.33897C40.8507 6.37197 40.8267 6.42197 40.8267 6.48497C40.8267 6.68397 41.1347 7.02597 41.6057 7.35497C41.6127 7.35797 41.9097 7.52997 41.9097 7.52997C41.9117 7.53297 42.2767 7.72897 42.2767 7.72897C42.7827 8.01897 43.3597 8.43197 43.4997 8.69997C43.5337 8.76497 43.5487 8.85997 43.5167 8.91897C43.5077 8.93197 43.4827 8.97297 43.3907 8.97597C42.9477 8.96897 42.5817 8.89997 42.2297 8.83297C41.8327 8.75697 41.4657 8.73397 41.0057 8.75197C40.6527 8.74597 39.9367 8.91997 39.8967 9.21197C39.8757 9.35897 40.0267 9.47497 40.3467 9.55997C41.1767 9.77397 42.0327 9.67097 42.7877 9.58097L42.9297 9.56397C43.3617 9.50997 43.8067 9.45297 44.2197 9.58097C44.2967 9.61797 44.3537 9.69497 44.3567 9.74597C44.3567 9.75097 44.3557 9.76697 44.3457 9.77397C44.1937 9.87397 43.6637 9.93197 43.4357 9.95897L43.2977 9.97397C42.0157 10.255 41.1537 10.885 41.1497 11.303C41.1457 11.528 41.3237 11.571 41.4687 11.607C41.8347 11.698 42.3697 11.359 42.9917 10.967L43.0727 10.916C43.8757 10.413 44.5197 10.143 44.9337 10.137C45.4797 10.031 47.0337 10.923 47.1237 11.091C47.1397 11.135 47.1407 11.173 47.1277 11.188C47.0897 11.232 46.9277 11.207 46.7737 11.181C46.7707 11.181 46.5117 11.147 46.5117 11.147C45.0777 11.129 44.1407 11.215 43.7137 11.4C43.7177 11.398 43.6677 11.418 43.6677 11.418C43.6637 11.418 42.2367 11.75 42.1047 12.387C42.0977 12.428 42.1967 12.66 42.1967 12.66C42.2957 12.774 42.4927 12.888 42.7437 12.872C43.1247 12.846 43.4247 12.66 43.7117 12.475C43.7067 12.477 44.1867 12.209 44.1867 12.209L45.3547 11.819C45.3507 11.82 45.8967 11.661 45.8967 11.661C46.0927 11.597 46.2977 11.549 46.3447 11.659C46.3687 11.716 46.3607 11.784 46.1347 11.888C45.2617 12.277 44.2667 12.808 43.5137 13.791C43.3827 13.96 43.1817 14.374 43.3977 14.581C43.5927 14.768 43.9277 14.611 44.0637 14.534C44.2837 14.411 44.4407 14.209 44.5927 14.014C44.7787 13.799 44.8487 13.715 44.8787 13.671C44.8767 13.677 44.8727 13.69 44.8727 13.69L46.0017 12.556C45.9877 12.569 46.4407 12.193 46.4407 12.193L46.9007 11.812C47.1507 11.695 47.4167 11.675 47.7257 11.756C48.4137 11.938 49.0337 13.371 49.0237 13.943C49.0197 14.171 48.9307 14.186 48.8917 14.195C48.5627 14.186 48.2057 14.065 47.8577 13.945C47.2287 13.733 46.5237 13.494 45.5637 13.671C45.4697 13.71 44.8867 13.991 44.9177 14.335C44.9327 14.525 45.1287 14.641 45.3047 14.654C45.3197 14.654 46.3357 14.592 46.3357 14.592C47.3737 14.495 48.7807 14.361 49.1357 14.834C49.3007 15.056 49.3137 15.385 49.3287 15.702C49.3287 15.713 49.3497 16.037 49.3497 16.037C49.3527 16.063 49.5347 16.84 49.5347 16.84C49.5347 16.849 49.7427 18.301 49.7427 18.301C49.7437 18.313 49.8187 18.628 49.8187 18.628C49.8287 18.657 50.2007 19.377 50.2007 19.377C50.2017 19.381 50.6147 20.085 50.6147 20.085C50.8617 20.487 51.0397 20.782 51.0397 20.997C51.0397 20.999 51.0717 21.433 51.0737 21.48C51.0437 21.512 50.9967 21.56 50.9967 21.56C50.7057 21.611 49.0347 20.051 48.8687 19.829C48.7057 19.584 48.6007 19.283 48.5007 18.992C48.3857 18.658 48.2667 18.314 48.0497 18.02C48.0557 18.03 47.7967 17.595 47.7967 17.595C47.1577 16.466 46.4957 15.411 45.9867 15.343C45.8757 15.326 45.7717 15.363 45.6887 15.449C45.2487 15.892 46.1717 16.894 46.9877 17.777C47.4897 18.32 48.0037 18.873 47.9367 19.052C47.9097 19.12 47.8267 19.124 47.7557 19.104C47.3187 18.971 46.7027 18.355 46.1067 17.756C45.3767 17.025 44.8737 16.544 44.5397 16.539C44.4567 16.538 44.3357 16.549 44.2497 16.649C44.1967 16.711 44.1747 16.777 44.1747 16.848C44.1747 17.048 44.3507 17.268 44.4787 17.428C45.1947 18.336 45.8577 18.868 46.6987 19.204C46.7007 19.204 46.8707 19.266 46.8707 19.266C46.8707 19.266 48.0817 19.711 48.0857 19.713C48.0857 19.717 48.2047 19.799 48.2047 19.799C48.2427 19.84 48.2997 19.91 48.2997 19.972C48.2997 19.981 48.2977 19.99 48.2947 19.999C48.2717 20.067 48.1487 20.123 47.9637 20.147C47.9677 20.146 47.1247 20.219 47.1247 20.219C46.5107 20.207 46.1027 19.878 45.6677 19.529C45.6627 19.526 45.1197 19.119 45.1197 19.119C45.1057 19.11 44.7537 18.924 44.7537 18.924C44.5697 18.839 44.3317 18.711 44.1907 18.572C44.1907 18.567 43.6417 17.692 43.6417 17.692C42.9017 16.715 42.7057 16.454 42.6297 16.386C42.6477 16.394 42.6657 16.404 42.6657 16.404C42.6137 16.333 42.6097 15.938 42.6047 15.521C42.6017 15.083 42.5947 14.484 42.5217 14.005C42.5037 13.797 42.2147 13.085 41.9477 13.053C41.8387 13.041 41.7507 13.131 41.6897 13.319C41.5527 13.717 41.8127 14.503 42.0027 15.075C42.0027 15.072 42.1637 15.591 42.1637 15.591C42.1787 15.653 42.2147 15.799 42.2147 15.91C42.2147 15.983 42.1977 16.04 42.1537 16.056C42.1417 16.056 42.1057 16.057 42.1057 16.057C41.9997 15.989 41.7867 15.291 41.5807 14.617C41.1717 13.276 40.8287 12.245 40.4267 12.177C40.3147 12.157 40.2037 12.215 40.1057 12.349C40.0807 12.397 40.0707 12.465 40.0707 12.542C40.0707 12.753 40.1437 13.029 40.1657 13.098C40.3647 13.91 40.8607 14.991 41.4297 15.846C41.6527 16.18 41.9697 16.512 42.2787 16.831C42.6537 17.222 42.9997 17.58 43.1387 17.901C43.1767 17.992 43.1917 18.058 43.1917 18.101C43.1917 18.124 43.1877 18.141 43.1827 18.149C43.1797 18.154 43.1567 18.159 43.1297 18.162C43.1247 18.153 42.8347 18.052 42.8347 18.052C42.6447 17.987 42.5507 17.955 42.4877 17.943C42.4897 17.942 42.5007 17.937 42.5007 17.937C42.1337 17.818 42.0947 17.806 41.7357 17.466C41.5597 17.299 41.4577 17.071 41.3567 16.849C41.3557 16.847 41.1877 16.505 41.1877 16.505C40.7087 15.7 39.4827 14.094 38.7267 13.735C38.5487 13.652 38.3977 13.632 38.2817 13.683C38.0737 13.768 38.0667 13.921 38.0637 13.969C38.0427 14.422 38.8067 15.077 39.6137 15.771C40.2717 16.333 40.9497 16.916 41.0397 17.264C41.0347 17.254 41.0307 17.256 41.0277 17.259C40.9907 17.276 40.8417 17.229 40.6557 17.095L40.0727 16.577C39.1667 15.819 37.5407 14.695 36.7717 14.689C36.7487 14.684 36.4057 14.641 36.2237 14.795L36.1137 15.032C36.1077 15.354 36.9727 15.682 37.4887 15.846C38.1507 16.064 39.2587 16.422 39.2557 16.638C39.2547 16.668 39.2177 16.742 38.9027 16.807C38.6037 16.799 38.2597 16.69 37.9277 16.587C37.5057 16.455 37.0437 16.339 36.4967 16.392C36.2817 16.43 36.0397 16.473 35.9617 16.622C35.9607 16.624 35.9277 16.749 35.9277 16.749L36.0447 17.044L36.1007 17.068L36.2127 17.121C36.7817 17.3 37.5277 17.365 38.3827 17.317C39.3977 17.261 40.3517 17.211 40.5597 17.681C40.5527 17.689 40.5467 17.819 40.5467 17.819C40.5307 17.922 40.0577 18.252 38.3707 18.688C37.5277 18.964 37.0797 19.291 37.0797 19.609C37.0797 19.643 37.0867 19.677 37.0977 19.713C37.3157 20.152 38.2937 19.755 38.4047 19.708C38.9387 19.484 39.5407 19.09 40.0737 18.744C40.9937 18.145 41.7357 18.023 41.8607 18.199C41.8747 18.22 41.8817 18.243 41.8817 18.269C41.8817 18.407 41.6797 18.595 41.5447 18.707C41.5437 18.709 40.6347 19.484 40.6317 19.485L40.3647 19.651C38.9067 20.537 38.1347 21.246 38.0687 21.755C38.0477 21.896 38.0297 22.018 38.1437 22.136C38.2317 22.23 38.3407 22.275 38.4627 22.27C38.9027 22.247 39.4557 21.528 39.9437 20.895C40.3327 20.393 40.6627 19.96 40.8847 19.973C40.9377 19.993 40.9407 19.998 40.9407 20.011C40.9917 20.168 40.8587 20.364 40.7627 20.509C40.7617 20.511 40.6637 20.667 40.6637 20.667C40.6597 20.676 40.5777 20.836 40.5777 20.836C39.6907 22.577 40.0417 23.449 40.1777 23.572C40.2787 23.662 40.3857 23.688 40.4947 23.656C40.8157 23.561 40.9367 22.924 41.1057 21.888L41.3327 20.701C41.3337 20.69 41.4247 20.106 41.4247 20.106L41.5107 19.534C41.5937 19.183 42.2247 18.636 42.5967 18.597C42.8517 18.571 43.4397 18.854 43.4617 18.979C43.4697 19.005 43.4807 19.051 43.4807 19.051C43.4807 19.071 43.4607 19.09 43.4117 19.129C43.3947 19.143 42.5437 20.092 42.5437 20.092C42.1297 20.468 41.4227 21.206 41.4127 21.833V21.843L41.4147 21.888C41.4747 22.182 41.6957 22.232 41.8047 22.22C42.2377 22.129 42.5207 21.613 42.8207 21.066L42.9337 20.861C42.9327 20.863 43.1877 20.428 43.1877 20.428C43.1827 20.435 43.3757 20.125 43.3757 20.125C43.5537 19.824 43.8547 19.324 44.0537 19.289C44.2147 19.286 45.1217 19.893 45.5927 20.295C45.9757 20.619 45.9787 20.711 45.9787 20.713C45.9747 20.933 45.2047 21.305 44.7437 21.528C44.7417 21.529 44.3067 21.752 44.3067 21.752C44.3017 21.756 43.9097 21.986 43.9097 21.986C43.4737 22.233 42.5537 22.899 42.4017 23.321C42.3147 23.566 42.3857 23.691 42.4637 23.752C42.6567 23.91 42.9477 23.882 43.2427 23.68C44.2147 22.69 45.3277 21.678 45.5407 21.671C45.5457 21.681 45.5517 21.697 45.5547 21.713C45.5757 21.833 45.3287 22.104 45.1957 22.248L45.0597 22.446L45.0807 22.38C45.0197 22.466 43.6007 24.508 43.9127 25.013C43.9847 25.133 44.1227 25.181 44.3187 25.157C44.7767 25.1 45.4107 23.739 45.6027 23.017C45.7997 22.273 46.0227 21.433 46.3807 21.184C46.6107 21.02 47.1897 20.767 48.4587 20.897L48.8337 20.977C49.2237 21.16 49.6427 21.625 49.9777 21.999L50.0557 22.088C50.2937 22.231 50.3927 22.287 50.4547 22.306C50.4487 22.308 50.4317 22.312 50.4317 22.312C50.4317 22.312 51.2557 22.664 51.3037 22.684C51.3397 22.735 51.8577 23.511 51.8577 23.511C51.8667 23.521 52.5927 24.323 52.5967 24.328C52.5967 24.333 52.6607 24.468 52.6607 24.468L52.6757 24.5L52.8177 24.583L53.7627 25.201C53.7627 25.203 54.1147 25.54 54.1147 25.54C54.4017 25.687 54.5247 25.743 54.5987 25.767C54.5917 25.768 54.5747 25.771 54.5747 25.771L55.0327 26.11C55.0327 26.113 55.1737 26.24 55.1737 26.24L55.2157 26.291C55.3167 26.41 55.5277 26.657 55.5477 26.774L55.7127 27.149L55.8797 27.515L55.9427 27.598L56.2107 27.694C56.2107 27.694 56.5247 27.814 56.5297 27.817L56.6127 27.866C57.2237 28.22 57.5017 28.383 57.8447 28.789C58.1537 29.157 58.3177 29.572 58.4737 29.971C58.4757 29.975 58.7367 30.587 58.7367 30.587C58.7547 30.618 59.2907 31.306 59.2907 31.306C59.2907 31.308 59.9177 32.526 59.9177 32.526C59.9257 32.541 60.0097 32.658 60.0097 32.658C60.0057 32.65 60.2227 32.971 60.2227 32.971C60.4187 33.246 60.6207 33.532 60.7027 33.958C60.7787 34.354 60.7827 34.856 60.7747 35.249L60.7267 36.025C60.7267 36.022 60.6177 36.792 60.6177 36.792C60.6197 36.834 60.7217 37.305 60.7217 37.305C60.7237 37.315 60.8247 37.784 60.8247 37.784L60.7717 38.035L60.6457 38.347C60.4887 38.749 60.3257 39.167 60.0307 39.39L59.7987 39.587L59.5267 39.747C59.5217 39.75 59.3117 39.841 59.3117 39.841C59.0937 39.946 58.7737 40.101 58.3967 40.141C58.2587 40.139 58.1727 40.263 58.1677 40.389C58.1657 40.506 58.2577 40.763 58.4437 40.776L59.9327 40.866L60.3147 40.787C60.6117 40.715 61.0197 40.614 61.2947 40.605L61.6627 40.584C62.3187 40.549 62.6727 40.506 63.3327 40.725C64.1157 40.983 64.6907 40.973 64.7977 40.966C64.9417 40.969 65.1107 40.97 65.2117 40.832L65.2287 40.808L65.2497 40.577L65.2117 40.535L65.1367 40.453L64.8307 40.2L64.5487 39.957L64.4607 39.853C64.3307 39.688 64.0067 39.256 63.9237 38.953L63.8847 38.63L63.9067 38.434L63.9257 38.314C63.9237 38.279 63.7837 37.65 63.7837 37.65C63.7837 37.646 63.6557 37.129 63.6557 37.129C63.5787 36.965 63.5507 36.869 63.5447 36.65C63.5457 36.653 63.5637 36.577 63.5637 36.577L63.5917 36.449L63.6647 36.248L63.7687 36.062C63.7737 36.028 63.7877 35.642 63.7877 35.642C63.7867 35.618 63.6637 34.74 63.6637 34.74C63.6247 34.51 63.5377 34.436 63.4447 34.356L63.3547 34.275C63.3167 34.237 63.3027 34.18 63.3027 34.109C63.3027 33.945 63.3837 33.705 63.4707 33.439L63.5537 33.186C63.8577 32.228 64.6727 31.194 65.3647 29.729L65.6267 29.289C65.6247 29.294 66.0657 28.621 66.0657 28.621C66.1507 28.529 66.2347 28.504 66.3527 28.467L66.3937 28.455L66.4467 28.409L66.8047 27.85C66.9157 27.522 67.4367 26.236 67.5957 25.958C67.5977 25.958 67.8587 25.641 67.8587 25.641C67.8877 25.589 67.9347 25.508 68.2247 25.226L70.0127 23.447H70.0067C70.0507 23.415 70.1097 23.365 70.2017 23.285L70.4657 23.056C70.4797 23.041 70.9637 22.49 70.9637 22.49C70.9647 22.487 71.6017 21.708 71.6017 21.708C71.7047 21.566 71.9447 21.497 72.1787 21.428L72.4577 21.34C72.4717 21.334 73.0287 21.04 73.0287 21.04C73.4357 20.974 73.7917 21.293 74.2447 21.698L74.6137 22.021C74.6217 22.025 75.1787 22.415 75.1787 22.415C75.4007 22.61 77.6707 23.696 78.0187 23.373C78.0417 23.364 78.1167 23.296 78.1167 23.187V23.169C78.1007 22.964 77.8607 22.618 75.9547 21.964C75.9547 21.962 75.7027 21.88 75.7027 21.88C75.1247 21.645 74.9347 21.503 74.8727 21.442C75.0527 21.341 75.5557 21.373 75.6997 21.413C76.1577 21.546 78.4697 22.207 78.7417 22.169C78.8277 22.158 78.9737 22.077 79.0247 21.941C79.0667 21.837 79.0447 21.723 78.9607 21.62C78.5057 21.164 76.4367 20.589 75.1877 20.806L74.9787 20.85C74.6697 20.921 74.4027 20.981 73.8827 20.711L73.8347 20.686C73.7047 20.619 73.6837 20.598 73.6767 20.557C73.7347 20.499 73.9037 20.324 73.9037 20.324C74.2887 19.907 74.4927 19.752 74.6947 19.638C74.7007 19.641 74.9057 19.594 74.9057 19.594C74.8837 19.597 75.5047 19.59 75.5047 19.59C75.8367 19.575 76.7447 19.656 76.9767 19.686L78.9037 19.898C79.3777 19.951 79.8117 19.983 80.0077 19.804C80.0747 19.743 80.1077 19.664 80.1007 19.566C80.0977 19.462 80.0377 19.364 79.9197 19.276C79.3127 18.821 76.9857 18.829 76.0527 19.007C75.5277 19.14 75.4197 19.034 75.3747 18.988C75.3537 18.97 75.3477 18.961 75.3537 18.935C75.3467 18.899 75.5197 18.657 75.5197 18.657C75.7227 18.404 75.9437 17.981 76.0037 17.852C75.9997 17.862 76.4127 17.162 76.4157 17.162L76.6647 16.828C76.7557 16.753 76.8707 16.765 77.0527 16.793L77.1747 16.809L77.2297 16.815C78.0747 16.901 78.7837 17.228 79.0197 17.492C79.1757 17.664 79.3517 17.86 79.6727 18.07C80.0927 18.343 81.6877 19.132 81.9767 19.032C82.1137 18.981 82.1877 18.904 82.1957 18.8V18.788C82.1957 18.399 81.2717 17.867 81.2637 17.863C81.2567 17.858 79.5257 17.128 79.5257 17.128C79.5257 17.125 79.4927 17.091 79.4927 17.045C79.4927 17.03 79.4967 17.012 79.5067 16.994C79.5107 16.992 79.5277 16.974 79.5397 16.965C79.5437 16.97 79.6057 16.948 79.6057 16.948C80.2897 16.989 81.0077 17.109 81.5847 17.206C81.6057 17.208 82.5297 17.344 82.5297 17.344C83.1057 17.363 83.4297 17.241 83.5077 16.984C83.5397 16.868 83.5097 16.759 83.4137 16.666Z" fill="white"/>
<path d="M56.9802 40.204C56.8632 40.433 56.6342 40.589 56.1312 40.589C54.9392 40.589 54.0992 40.512 52.4432 40.512C51.1742 40.512 50.4022 40.512 49.0182 40.551C48.9392 40.551 48.9392 40.26 49.0182 40.22C49.7872 40.143 50.1332 40.027 50.3662 39.911C50.6362 39.759 50.7882 39.471 50.7882 35.621V32.731C50.7882 28.844 50.6352 28.498 50.3662 28.382C50.1332 28.229 49.9842 28.113 49.2152 28.035C49.1392 28.035 49.1392 27.713 49.2152 27.713H53.6562C53.6962 27.713 53.6962 28.035 53.6192 28.035C52.8502 28.113 52.8682 28.228 52.6362 28.382C52.4062 28.497 52.2132 28.844 52.2132 32.731V35.621C52.2132 38.123 52.4052 39.201 52.6362 39.471C52.8672 39.742 52.8992 39.859 54.0542 39.859C55.3252 39.859 56.0572 39.548 56.4422 39.202C56.7122 38.896 57.0592 38.164 57.2112 37.507C57.2512 37.394 57.4802 37.507 57.4802 37.587C57.4042 38.625 57.1732 39.933 56.9802 40.204Z" fill="white"/>
<path d="M41.6425 40.551C41.5655 40.551 41.5655 40.26 41.6425 40.22C42.4125 40.143 42.6585 40.027 42.8895 39.911C43.1195 39.759 43.2755 39.471 43.2755 35.621V32.731C43.2755 28.844 43.1195 28.498 42.8895 28.382C42.6595 28.229 42.1405 28.113 41.3705 28.035C41.2945 28.035 41.2945 27.713 41.3705 27.713H46.5005C46.5385 27.713 46.5775 28.035 46.4615 28.035C45.6915 28.113 45.3905 28.228 45.1215 28.382C44.8925 28.497 44.7005 28.844 44.7005 32.731V35.621C44.7005 39.471 44.8925 39.759 45.1215 39.911C45.3915 40.026 45.8545 40.142 46.6245 40.22C46.7395 40.26 46.7015 40.551 46.6625 40.551H41.6425Z" fill="white"/>
<path d="M35.0002 40.5679C34.9602 40.5679 34.9232 40.2729 35.0002 40.2319C35.5392 40.1959 35.9612 40.1159 36.1932 39.9579C36.3852 39.8029 36.5022 39.4679 36.0782 35.5409L35.7322 31.0239L31.5022 40.6459C31.5022 40.7239 30.9572 40.7449 30.9572 40.6249L26.6712 31.2189L26.3242 35.4219C25.9392 39.4669 26.2092 39.7629 26.4392 39.9569C26.6312 40.0749 27.1702 40.1949 27.6702 40.2309C27.7502 40.2719 27.7112 40.5669 27.6702 40.5669H23.1282C23.0892 40.5669 23.0892 40.2719 23.1662 40.2309C23.9752 40.1519 24.3982 40.0329 24.6292 39.8779C24.7832 39.7209 25.0532 39.4659 25.4002 35.5389L25.6552 32.6849C25.8042 31.0529 25.8822 29.2309 25.8442 27.6049C25.8412 27.4889 26.4392 27.4489 26.4782 27.5659L31.6222 38.3289L36.1862 27.5659C36.2242 27.4489 37.0102 27.4889 37.0102 27.6049C37.1252 29.3339 37.1152 30.7469 37.3102 32.5909L37.5782 35.5379C38.0402 39.4649 38.1552 39.7609 38.3882 39.9169C38.6582 40.0309 38.6892 40.1499 39.4582 40.2299C39.5742 40.2709 39.5742 40.5659 39.5352 40.5659H35.0002V40.5679Z" fill="white"/>
<path d="M23.6099 40.568C23.6489 40.568 23.6859 40.333 23.6099 40.292C23.0459 40.254 22.7809 40.177 22.4409 39.979C22.1759 39.784 21.9129 39.469 20.4029 35.542L19.3089 32.597C18.6309 30.749 18.1039 29.188 17.5379 27.46C17.4989 27.303 16.5959 27.394 16.5659 27.552C16.3299 28.866 15.7679 31.018 15.2239 32.688L14.2189 35.712C13.4509 38.283 12.5599 39.8 12.3459 39.92C11.9999 40.118 11.7949 40.193 11.1919 40.233C11.1189 40.271 11.1249 40.569 11.1599 40.569H15.0869C15.1639 40.569 15.1939 40.271 15.1179 40.233C14.2879 40.154 14.0249 39.997 14.0249 39.602C14.0249 39.212 14.2199 38.291 15.1259 35.7H19.0069C20.1019 38.564 20.3269 39.47 20.3269 39.822C20.3269 40.136 19.9869 40.255 19.3839 40.293C19.3079 40.334 19.3079 40.569 19.3839 40.569L23.6099 40.568ZM18.7059 34.874H15.3919L16.9269 29.907L18.7059 34.874Z" fill="white"/>
<path d="M11.9337 28.634C11.9087 28.73 11.6697 28.704 11.6697 28.563C11.6697 27.938 11.5247 27.364 11.1887 26.979C10.7807 26.57 9.91666 26.331 8.21466 26.331C7.27966 26.331 5.97966 26.273 5.74166 26.321C5.66966 26.56 5.64466 27.569 5.64466 29.08V31.962L7.42466 32.043C9.70366 32.043 9.87066 31.707 10.0137 30.869C10.0387 30.772 10.3037 30.772 10.2787 30.845C10.2557 31.517 10.1827 33.755 10.1827 34.427C10.1597 34.498 9.91766 34.498 9.91766 34.404C9.91766 33.971 9.79766 33.421 9.55966 33.18C9.34366 32.965 9.10366 32.797 7.40166 32.797L5.64466 32.714V34.228C5.64466 38.953 5.83766 39.629 6.14966 39.797C6.46066 39.964 7.34766 40.094 8.40166 40.214C8.49766 40.239 8.49766 40.608 8.42666 40.608H1.89266C1.82066 40.608 1.82066 40.24 1.94066 40.214C2.87666 40.119 3.28566 40.045 3.57266 39.878C3.85866 39.711 4.07566 39.252 4.07566 34.525V31.023C4.07566 26.297 3.83566 26.368 3.54666 26.201C3.25866 26.033 2.85166 25.961 1.91566 25.865C1.79666 25.841 1.81966 25.54 1.89166 25.54C3.84566 25.565 6.75866 25.589 8.23766 25.589C10.2537 25.589 11.3327 25.565 12.0517 25.469C12.1477 25.469 12.1957 25.517 12.1957 25.565C12.1487 26.403 12.0767 27.336 11.9337 28.634Z" fill="white"/>
</svg>
