<svg width="146" height="55" viewBox="0 0 146 55" fill="none" xmlns="http://www.w3.org/2000/svg">
<path d="M0 35.9055C0 26.273 8.17451 18.4646 18.2589 18.4646C28.3433 18.4646 36.5178 26.273 36.5178 35.9055C36.5178 45.538 28.3433 53.3464 18.2589 53.3464C8.17451 53.3464 0 45.538 0 35.9055Z" fill="#0052A4"/>
<path fill-rule="evenodd" clip-rule="evenodd" d="M128.163 25.8266C128.163 25.8266 127.315 22.8185 123.05 21.0647C119.924 19.7793 118.58 20.6557 117.792 20.1298C117.003 19.604 117.558 18.5523 116.769 18.3478C115.98 18.1433 115.98 18.2893 115.747 17.5006C115.513 16.7118 112.475 12.5633 109.962 10.3139C107.45 8.06436 101.344 9.29136 101.11 2.92265C101.024 0.556296 101.724 0.790011 101.695 0.205726C101.665 -0.378559 95.56 -0.107871 93.2224 6.34072C91.528 11.015 92.4337 11.8038 90.4179 13.2937C88.4021 14.7836 88.11 16.3612 87.701 17.7343C87.292 19.1073 83.0851 25.9727 82.53 26.9368C81.975 27.9008 81.9457 28.6896 82.9682 27.4626C83.9907 26.2356 87.9639 20.5681 88.4897 19.8669C89.0156 19.1658 89.6583 19.1366 88.928 20.422C88.1976 21.7074 86.3279 24.9794 86.065 25.4176C85.802 25.8558 86.1234 26.3817 86.9122 25.1547C87.701 23.9277 90.0308 20.0098 92.4921 19.0197C95.0337 17.9972 95.9102 17.3253 97.0787 16.6533C98.2473 15.9814 103.856 15.2218 107.508 16.0691C111.16 16.9163 114.169 19.5748 114.111 20.3636C114.052 21.1523 113.935 21.8827 114.87 21.7074C115.805 21.5321 115.922 22.2333 115.63 23.0513C115.338 23.8693 113.965 29.7413 117.967 32.692C117.967 32.692 117.23 25.5463 119.574 23.9277C120.801 23.0805 123.781 22.7007 128.163 25.8266Z" fill="white"/>
<path d="M20.3998 23.8697L20.3633 23.7606L20.4386 23.5913L20.7152 23.5242L20.8261 23.2991L21.0767 23.2329L21.1315 23.0198L21.0201 22.9015L20.8576 22.797V22.6966L20.901 22.6286L21.085 22.5208L21.299 22.4464L21.425 22.2059L21.4451 22.0064L21.9933 21.7179L22.0655 21.7932L22.1399 22.0776L22.5229 22.0087L22.4402 21.801L22.7342 21.6891L22.7584 21.6216L23.1318 21.9849L23.2678 21.7124L23.2235 21.6576L22.8351 21.3956L22.7337 21.2893L22.6949 21.1898L22.7077 21.1332L22.8643 21.0829L22.9812 20.9337L23.2783 20.8876L23.7973 20.7127L23.9635 20.7506L24.1328 20.7219L24.2721 20.7388L24.551 20.6397L24.6377 20.7022L24.5724 20.8054L25.3872 20.7963L25.6159 20.7652L25.8154 20.8237L25.8172 20.9684L25.6784 21.15L26.0254 21.1934L26.0126 21.2943L25.8432 21.345L25.6579 21.308L25.4886 21.3367L25.1677 21.2929L24.9043 21.3596L24.5441 21.3171L24.7381 21.5988L24.6007 21.7047L24.5313 21.8521L24.6815 21.8685L24.9531 21.7033L24.9997 21.7457L25.1111 21.6974L25.4411 21.8512L25.4858 21.727L25.5452 21.7247L25.599 21.7887L25.7017 22.0963L25.7643 22.1821L25.8305 22.1798L25.8551 22.0561L25.9272 21.754L26.0299 21.7056L26.1386 21.8119L26.3385 21.8704L26.7206 21.8996L26.9876 21.9238L27.0835 22.131L27.0648 22.1757L26.905 22.2949L26.7087 22.6021L26.6115 22.9075L26.8246 23.0097L26.7388 23.0695L26.6366 23.1394L26.4243 23.3023L26.3444 23.4625L26.3659 23.5844L26.4024 23.6369L26.443 23.6351L26.5964 23.5191L26.7712 23.3452L26.8694 23.3416L26.8881 23.3973L26.8639 23.4425L26.742 23.7364L26.7206 24.071L26.6197 24.286L26.8059 24.6247L27.0077 25.2277L27.0205 25.3843L26.9744 25.5628L26.7425 25.628L26.6325 25.7773L26.6471 25.8207L26.8904 26.2895L27.0611 26.3392L27.1177 26.4698L27.0702 26.7487L26.9671 26.6766L26.8488 26.4237L26.7635 26.405L26.8817 26.6802L26.8201 26.7144L26.4828 26.4602V26.5606L26.6621 26.7204L27.0164 26.8856L26.973 26.9536L26.6306 27.2001L26.5074 27.4284L26.2805 28.1044L26.2125 28.318L26.1605 28.3199L26.0473 28.56L25.8811 28.6768L25.7049 28.7279L25.5922 29.0657V29.1662L25.6182 29.4423L25.6848 29.5624L25.6401 29.6085L25.6241 30.0558L25.741 30.4854L25.7054 30.5972L25.6606 30.7214L25.6501 30.9893L25.5333 30.9373L25.4634 30.83L25.1859 30.573L25.1526 30.5744L24.9705 30.6255L24.9111 30.6282L24.8632 30.5858L24.6979 30.0914L24.3533 29.4378L24.1484 29.1219L23.8224 28.5234L23.7156 28.2039L23.6978 27.8707L23.8138 27.6434L23.8612 27.4868L23.8379 27.2764L23.7471 27.1454L23.4878 27.0449L23.2783 26.8961L23.2418 26.787L23.5645 26.8185L23.6038 26.7163L23.5061 26.6222L23.3157 26.4506L23.2089 26.688L23.1364 26.6907L23.019 26.5186L23.0003 26.4629L22.909 26.0886L22.8638 25.7568L22.6698 25.3742L22.2449 24.8776L21.9897 24.8114L21.7468 24.6982L21.5109 24.6512L21.2735 24.7169L20.9987 24.6708L20.9485 24.6165L20.8786 24.5088L20.6919 24.349L20.7221 24.2376L20.7978 24.166L20.9781 24.1491L21.0453 24.1121L21.1913 24.1504L21.3662 24.0998L21.378 24.055L21.352 23.9774L21.3155 23.9473L21.2242 23.8944L21.1334 23.898L21.0795 23.9564L21.0119 23.9907L20.9768 24.0267L20.8987 24.0738L20.6472 23.9167L20.4578 23.924L20.3998 23.8697Z" fill="white"/>
<mask id="mask0_7_210" style="mask-type:luminance" maskUnits="userSpaceOnUse" x="36" y="21" width="110" height="27">
<path d="M36.6934 21.3851H146V47.2105H36.6934V21.3851Z" fill="white"/>
</mask>
<g mask="url(#mask0_7_210)">
<path fill-rule="evenodd" clip-rule="evenodd" d="M50.2706 41.9355C49.2842 38.8813 43.3651 25.0374 42.9027 22.1808C42.81 21.6248 42.5635 21.5052 42.1011 21.5052C41.8236 21.5052 41.053 21.5454 40.2515 21.5454C39.265 21.5454 38.2165 21.5052 37.8774 21.5052C37.446 21.5052 37.4154 21.6641 37.4154 22.0219C37.4154 22.4195 37.5081 22.5382 37.8774 22.5382C39.1724 22.5382 40.529 22.8555 40.529 25.7116C40.529 26.7035 40.0045 39.1187 39.758 42.015C39.5421 44.2754 39.4189 45.5846 37.2917 45.7434C36.7681 45.8224 36.7061 45.8224 36.7061 46.2985C36.7061 46.7349 36.8603 46.7746 37.0457 46.7746C37.6309 46.7746 40.3747 46.655 40.9914 46.655C41.4844 46.655 43.8581 46.7746 44.3205 46.7746C44.7523 46.7746 44.7829 46.6559 44.7829 46.1798C44.7829 45.7827 44.598 45.7827 44.1356 45.7434C41.8236 45.5846 41.5154 45.386 41.5154 39.2383C41.5154 36.184 41.5771 31.8201 41.6387 28.1309C41.6693 27.3773 41.5771 26.7428 41.6077 26.0293C42.1011 28.0916 42.6868 29.163 43.7042 31.8201C48.0202 43.0854 48.2667 43.7204 48.7601 45.5846C48.945 46.2985 49.0682 46.4177 49.2842 46.3779L49.6233 46.2985C50.1779 46.2191 50.3628 46.1004 50.486 45.386C50.733 43.9185 54.3085 34.8744 55.3566 32.3359C56.8059 28.7261 57.2373 27.5758 57.7613 25.9499C57.7613 27.8141 57.9462 36.8582 57.9462 38.9205C57.9462 45.3066 57.854 45.664 55.4493 45.8224C54.8326 45.8621 54.771 45.8621 54.771 46.3779C54.771 46.5363 54.771 46.7746 55.0485 46.7746C55.6652 46.7746 56.7132 46.6952 59.1485 46.6952C60.5357 46.6952 61.7691 46.7746 62.4475 46.7746H62.7245C63.0021 46.7746 63.1253 46.7349 63.1253 46.2191C63.1253 45.8224 63.0637 45.8224 62.7862 45.7827C61.6148 45.6243 60.8443 45.5449 60.5974 43.9185C60.3509 42.3715 60.1966 27.695 60.1966 26.3068C60.1966 23.133 60.6284 22.5775 62.3858 22.4989C62.8788 22.4588 62.9404 22.4195 62.9404 21.9028C62.9404 21.5052 62.7556 21.5052 62.5707 21.5052C62.2621 21.5052 61.3989 21.5846 61.0598 21.5846C60.5668 21.5846 58.5323 21.5052 58.2237 21.5052C58.1315 21.5052 58.0078 21.5052 57.9462 21.6248C57.7923 21.9028 57.7613 22.9349 57.1756 24.5216C55.4182 29.3611 51.5031 38.8014 50.2706 41.9355ZM76.3402 40.0877C76.6081 41.0071 77.5886 44.5114 77.5886 45.1153C77.5886 45.9196 76.8752 46.0055 76.3849 46.063C76.0284 46.0917 75.9837 46.0917 75.9837 46.4364C75.9837 46.6377 76.0061 46.7527 76.1841 46.7815C77.0313 46.7527 77.8561 46.7239 78.7029 46.7239C79.4164 46.7239 80.1522 46.7815 80.8652 46.7815C81.0213 46.7815 81.0432 46.7527 81.0432 46.3789C81.0432 46.2068 81.0213 46.1492 80.9323 46.1205C80.464 46.0347 80.2188 45.9772 79.8623 45.1153C79.0375 43.1329 75.3373 30.2914 75.1588 29.1424C75.0475 28.4527 75.0027 28.3664 74.8694 28.3664C74.6905 28.3664 74.4458 28.4815 74.0889 28.4815C73.7766 28.4815 73.6657 28.539 73.5986 28.7974C73.4872 29.2858 73.3978 29.7455 73.2421 30.2051C72.64 32.3022 69.0517 42.4719 68.7618 43.2762C68.3159 44.5114 67.8256 45.8909 67.1121 46.063C66.9118 46.1205 66.8894 46.1205 66.8894 46.4939C66.8894 46.6377 66.9118 46.7527 67.0902 46.7527C67.402 46.7527 68.9179 46.666 69.2521 46.666C70.0993 46.666 70.7457 46.7527 71.2359 46.7527C71.4363 46.7527 71.4363 46.6377 71.4363 46.4364C71.4363 46.0347 71.392 46.0347 70.9684 46.0055C70.3892 45.9772 69.6976 45.7183 69.6976 44.8853C69.6976 44.0522 70.1883 42.3861 70.9013 40.0877H76.3402ZM71.1912 39.1397C72.4396 35.1464 72.5734 34.7151 73.7766 31.1245C74.156 32.3884 75.7833 37.9907 76.1174 39.1397H71.1912ZM85.4121 37.6456C85.4121 39.1684 85.4121 42.2131 85.345 43.5067C85.2784 44.9998 85.2336 45.7471 83.8962 46.0055C83.4949 46.0917 83.4502 46.0917 83.4502 46.4081C83.4502 46.7527 83.5173 46.7527 83.7177 46.7527C84.0299 46.7527 85.5235 46.6952 86.237 46.6952C86.95 46.6952 88.3098 46.7527 89.1347 46.7527C89.3127 46.7527 89.335 46.5802 89.335 46.3789C89.335 46.0917 89.2903 46.0917 88.8891 46.0347C87.5521 45.8617 87.3736 45.517 87.2841 44.8278C87.1504 43.9659 87.1727 39.7427 87.1727 38.795C88.3098 38.8808 89.3127 38.795 89.6473 38.7375C91.5416 43.5067 93.2356 46.8673 96.6683 46.8673C97.6716 46.8673 97.8054 46.6377 97.8054 46.4364C97.8054 46.178 97.8054 46.063 97.6935 46.063C97.0248 46.0347 96.6016 45.9196 96.0443 45.5745C93.8824 44.2531 91.8981 38.8808 91.5864 38.0765C93.6145 37.0426 94.3503 35.1752 94.3503 33.2215C94.3503 30.1476 92.6559 28.3089 89.6473 28.3089C89.1347 28.3089 88.1761 28.4815 83.8519 28.4815C83.6068 28.4815 83.6068 28.5678 83.6068 28.8549C83.6068 29.0562 83.6511 29.0845 83.8519 29.1137C84.9662 29.1708 85.1889 29.6017 85.2784 30.2914C85.4121 31.5554 85.4121 35.7207 85.4121 37.6456ZM87.1727 37.7319C87.1951 36.64 87.2175 31.785 87.2398 30.8086C87.2841 29.4008 87.3065 29.1708 88.9557 29.1708C91.4969 29.1708 92.277 31.4403 92.277 33.7099C92.277 36.6117 90.9843 37.9615 88.6216 37.9615C87.9529 37.9615 87.574 37.8469 87.1727 37.7319ZM103.392 31.9548C103.392 36.0471 103.361 40.9738 103.145 43.2785C103.022 44.3507 102.868 45.6225 101.08 45.821C100.679 45.8608 100.617 45.8608 100.617 46.3775C100.617 46.6952 100.709 46.8143 101.049 46.8143C101.542 46.8143 103.669 46.5756 108.17 46.5756C113.719 46.5756 114.397 46.8143 115.013 46.8143C115.291 46.8143 115.353 46.4167 115.476 45.7416C116.247 42.0862 116.339 40.5762 116.339 40.3379C116.339 40.0599 116.247 39.9408 115.753 39.9408C115.537 39.9408 115.507 40.4173 115.322 41.0929C114.335 44.9866 112.547 44.9866 108.17 44.9866C106.567 44.9866 106.104 44.9469 105.981 43.7546C105.796 42.3646 105.796 39.2255 105.796 33.8217C105.796 32.2328 105.827 25.1606 106.104 23.9683C106.351 23.0549 106.721 22.5382 108.201 22.3794C108.694 22.3392 108.725 22.2999 108.725 21.8229C108.725 21.5454 108.632 21.4258 108.416 21.4258C107.892 21.4258 105.303 21.5846 104.717 21.5846C104.224 21.5846 101.758 21.4258 101.203 21.4258C100.956 21.4258 100.895 21.466 100.895 22.0219C100.895 22.2602 100.987 22.2999 102.004 22.4989C103.268 22.7765 103.361 23.8095 103.392 28.2199V31.9548ZM124.291 35.8416C124.313 29.7149 124.424 29.2283 126.163 29.2C126.564 29.2 126.609 29.1708 126.609 28.7974C126.609 28.539 126.564 28.4815 126.408 28.4815C125.984 28.4815 123.934 28.5102 123.466 28.539C123.065 28.539 120.992 28.4815 120.524 28.4815C120.368 28.4815 120.324 28.539 120.324 28.7974C120.324 29.1137 120.413 29.1708 120.992 29.1708C122.441 29.1708 122.53 29.8582 122.53 33.3794C122.53 36.5861 122.53 41.396 122.417 43.2283C122.329 44.8031 122.24 45.8626 120.68 45.9772C120.256 46.0055 120.211 46.0055 120.211 46.3789C120.211 46.666 120.278 46.6952 120.457 46.6952C120.88 46.6952 122.909 46.6377 123.377 46.6377C124.357 46.6377 125.36 46.6952 126.342 46.6952C126.564 46.6952 126.609 46.6377 126.609 46.4364C126.609 46.1205 126.609 46.063 126.319 46.0347C124.581 46.0055 124.47 45.5189 124.38 43.7153C124.269 42.1122 124.291 37.5881 124.291 35.8416ZM131.824 34.0468C131.824 36.341 131.803 40.5287 131.602 43.1101C131.468 45.0606 131.155 45.6626 129.863 45.9493C129.44 46.0351 129.395 46.0643 129.395 46.351C129.395 46.7239 129.484 46.7527 129.662 46.7527C129.885 46.7527 131.312 46.6952 131.624 46.6952C132.159 46.6952 134.699 46.7527 135.279 46.7527C135.458 46.7527 135.524 46.6952 135.524 46.3793C135.524 46.0643 135.48 46.0351 135.033 46.0068C133.251 45.8923 133.095 44.9172 132.984 43.97C132.85 42.7659 132.85 33.043 132.85 32.0105C133.608 33.1576 134.009 33.8176 135.168 35.366C140.383 42.4792 141.498 43.9997 142.813 46.409C143.013 46.8107 143.171 47.0973 143.281 47.0973C143.392 47.0973 143.816 46.8677 143.816 46.6669C143.816 46.5236 143.682 45.9215 143.66 45.6631C143.593 44.8885 143.549 43.3401 143.549 41.6763C143.549 37.4603 143.616 34.5923 143.772 32.3829C143.95 30.1745 144.129 29.63 145.533 29.2566C145.956 29.1424 146.001 29.1424 146.001 28.7691C146.001 28.539 145.956 28.4815 145.777 28.4815C144.753 28.4815 143.704 28.5102 142.947 28.5102C142.144 28.5102 141.12 28.4815 140.339 28.4815C140.138 28.4815 140.093 28.539 140.093 28.8266C140.093 29.0845 140.117 29.1424 140.383 29.1424C142.234 29.2858 142.434 29.8308 142.546 31.695C142.613 32.7563 142.613 37.2882 142.613 42.3934C141.297 40.4141 134.499 31.2075 133.139 28.9124C133.006 28.6823 132.916 28.5102 132.738 28.5102H132.582C132.292 28.5102 131.869 28.539 131.334 28.539C130.799 28.539 129.841 28.5102 129.729 28.5102C129.506 28.5102 129.462 28.5678 129.462 28.8836C129.462 29.1424 129.506 29.1708 129.996 29.2283C131.824 29.4574 131.824 31.2075 131.824 34.0468Z" fill="white"/>
</g>
<mask id="mask1_7_210" style="mask-type:luminance" maskUnits="userSpaceOnUse" x="36" y="47" width="108" height="8">
<path d="M36.6934 47.9117H143.851V54.1343H36.6934V47.9117Z" fill="white"/>
</mask>
<g mask="url(#mask1_7_210)">
<path fill-rule="evenodd" clip-rule="evenodd" d="M36.8037 54.0358V48.0131H38.3635L40.2168 52.2774C40.3875 52.6746 40.5121 52.9717 40.5906 53.1689C40.6796 52.9498 40.8184 52.628 41.0069 52.2035L42.8816 48.0131H44.2757V54.0358H43.2769V48.9949L41.0019 54.0358H40.067L37.8025 48.9087V54.0358H36.8037ZM61.5199 52.6307L62.5132 52.7252C62.3566 53.1717 62.0663 53.5181 61.6427 53.7646C61.2191 54.0111 60.6777 54.1344 60.0194 54.1344C59.1896 54.1344 58.5309 53.9385 58.0434 53.5469C57.5591 53.1525 57.3167 52.6006 57.3167 51.8913C57.3167 51.1572 57.5627 50.5876 58.0539 50.1822C58.545 49.7769 59.1823 49.5742 59.966 49.5742C60.7242 49.5742 61.3437 49.7728 61.8243 50.1699C62.305 50.567 62.5456 51.1257 62.5456 51.8461C62.5456 51.8899 62.5437 51.9556 62.5401 52.0433H58.3104C58.3456 52.5226 58.5222 52.8896 58.839 53.1443C59.1558 53.399 59.5511 53.5263 60.0245 53.5263C60.3773 53.5263 60.6777 53.4551 60.9274 53.3127C61.1766 53.1703 61.3738 52.943 61.5199 52.6307ZM58.3638 51.4352H61.5308C61.4879 51.0682 61.367 50.793 61.1675 50.6095C60.8612 50.3246 60.4641 50.1822 59.9765 50.1822C59.5351 50.1822 59.1631 50.2959 58.8605 50.5232C58.5615 50.7505 58.3958 51.0545 58.3638 51.4352ZM79.2132 54.0358V53.4853C78.8535 53.918 78.3245 54.1344 77.627 54.1344C77.1746 54.1344 76.7578 54.0385 76.3771 53.8468C75.9996 53.6551 75.7057 53.388 75.4962 53.0457C75.2894 52.7006 75.1862 52.3048 75.1862 51.8584C75.1862 51.4229 75.2802 51.0285 75.4692 50.6752C75.6577 50.3192 75.9408 50.0466 76.3183 49.8577C76.6958 49.6687 77.1175 49.5742 77.5841 49.5742C77.926 49.5742 78.2304 49.6303 78.4975 49.7426C78.7645 49.8522 78.9818 49.996 79.1488 50.174V48.0131H80.1047V54.0358H79.2132ZM76.174 51.8584C76.174 52.4171 76.3274 52.8348 76.6332 53.1114C76.9395 53.388 77.301 53.5263 77.7178 53.5263C78.1378 53.5263 78.4938 53.3949 78.7859 53.1319C79.0813 52.8663 79.2287 52.4623 79.2292 51.92C79.2292 51.3229 79.0795 50.8847 78.7805 50.6054C78.4815 50.326 78.1126 50.1863 77.6749 50.1863C77.2476 50.1863 76.8898 50.3205 76.6013 50.5889C76.3164 50.8573 76.174 51.2805 76.174 51.8584ZM93.4346 48.8635V48.0131H94.3959V48.8635H93.4346ZM93.4346 54.0358V49.6728H94.3959V54.0358H93.4346ZM111.373 52.4376L112.318 52.5321C112.215 53.0333 111.95 53.4264 111.523 53.7112C111.099 53.9933 110.577 54.1344 109.958 54.1344C109.182 54.1344 108.557 53.9399 108.083 53.551C107.614 53.1593 107.378 52.5992 107.378 51.8707C107.378 51.3996 107.48 50.9874 107.683 50.6341C107.886 50.2808 108.194 50.0165 108.607 49.8412C109.024 49.6632 109.476 49.5742 109.963 49.5742C110.579 49.5742 111.083 49.6947 111.475 49.9357C111.867 50.174 112.117 50.5136 112.228 50.9546L111.293 51.0655C111.204 50.7724 111.046 50.552 110.818 50.4041C110.593 50.2562 110.321 50.1822 110.001 50.1822C109.517 50.1822 109.123 50.3164 108.82 50.5848C108.518 50.8505 108.367 51.2723 108.367 51.8502C108.367 52.4363 108.512 52.8622 108.804 53.1278C109.096 53.394 109.477 53.5263 109.948 53.5263C110.325 53.5263 110.64 53.4373 110.893 53.2593C111.145 53.0813 111.306 52.8074 111.373 52.4376ZM128.655 53.4976C128.299 53.7304 127.955 53.8947 127.624 53.9906C127.297 54.0864 126.944 54.1344 126.567 54.1344C125.944 54.1344 125.465 54.018 125.131 53.7852C124.795 53.5496 124.628 53.2497 124.628 52.8854C124.628 52.6718 124.69 52.4774 124.815 52.3021C124.944 52.1241 125.108 51.9821 125.312 51.8748C125.519 51.768 125.75 51.6872 126.006 51.6324C126.195 51.5941 126.479 51.5571 126.86 51.5215C127.637 51.4503 128.209 51.3654 128.576 51.2668C128.579 51.1655 128.58 51.1011 128.58 51.0737C128.58 50.7724 128.489 50.5602 128.308 50.4369C128.063 50.2699 127.697 50.1863 127.213 50.1863C126.761 50.1863 126.427 50.248 126.209 50.3712C125.995 50.4917 125.836 50.7067 125.734 51.0162L124.794 50.9176C124.879 50.6081 125.02 50.3589 125.216 50.1699C125.411 49.9782 125.695 49.8316 126.064 49.7303C126.435 49.6262 126.863 49.5742 127.352 49.5742C127.836 49.5742 128.23 49.618 128.532 49.7057C128.835 49.7933 129.057 49.9042 129.2 50.0384C129.342 50.1699 129.442 50.337 129.499 50.5396C129.532 50.6656 129.547 50.8929 129.547 51.2216V52.2076C129.547 52.895 129.567 53.3305 129.606 53.514C129.648 53.6948 129.73 53.8687 129.852 54.0358H128.848C128.747 53.8824 128.683 53.703 128.655 53.4976ZM128.576 51.8461C128.226 51.9556 127.702 52.0487 127.005 52.1254C126.61 52.1692 126.329 52.2185 126.166 52.2733C126.003 52.3281 125.876 52.4089 125.788 52.5157C125.699 52.6198 125.654 52.7362 125.654 52.8649C125.654 53.0621 125.75 53.2264 125.941 53.3579C126.138 53.4894 126.423 53.5551 126.797 53.5551C127.166 53.5551 127.496 53.4935 127.785 53.3702C128.073 53.2442 128.284 53.0731 128.42 52.8567C128.523 52.6896 128.574 52.4431 128.576 52.1172V51.8461ZM142.829 54.0358V48.0131H143.79V54.0358H142.829Z" fill="white"/>
</g>
<path d="M20.7274 26.5255L20.621 26.431L20.6037 26.3105L20.3659 26.2881L20.2559 26.4461L20.3061 26.6241L20.4143 26.6314L20.6215 26.6981L20.7123 26.5625L20.7274 26.5255Z" fill="white"/>
<path d="M17.9749 27.4051L18.1397 27.1969L18.2365 27.2084L18.2483 27.1801L18.4168 27.3946L18.3145 27.5343L18.1625 27.5722L17.9443 27.5028L17.9749 27.4051Z" fill="white"/>
<path d="M19.1875 27.427L19.25 27.4128L19.3541 27.4841L19.3756 27.5165L19.2815 27.5817L19.1966 27.5416L19.1875 27.427Z" fill="white"/>
<path d="M20.3165 25.8631L20.3777 25.9608L20.2868 26.0179L20.1905 26.0603L20.0234 26.0032L20.1636 25.8029L20.2521 25.8325L20.3165 25.8631Z" fill="white"/>
<path d="M18.3896 26.5935L18.5443 26.8112L18.731 26.9879L18.6959 27.1499L18.8419 27.317L18.8141 27.4384L18.6311 27.3613L18.3855 27.0345L18.2924 26.9902L18.1011 27.1002L17.8181 27.1321L17.84 26.9418L17.635 26.9231L17.6318 26.7989L17.8587 26.8185L18.1855 26.5725L18.3896 26.5935Z" fill="white"/>
<path d="M18.839 27.5945L18.9686 27.6343L19.0092 27.7511L18.8727 27.8652L18.707 27.752L18.839 27.5945Z" fill="white"/>
<path d="M20.1757 25.6646L20.4172 25.7568L20.5696 25.7413L20.6167 25.8955L20.8111 26.0539L20.922 26.4616L21.1471 26.6464L21.0973 26.8802L20.8189 27.034L20.6413 27.1408L20.1433 27.071L20.0283 27.1043L20.0146 27.2741L19.7594 27.2093L19.5271 27.2335L19.5083 27.3567L19.6179 27.4749L19.9767 27.6352L20.1579 27.7653L20.3409 28.0286L20.5623 28.3902L20.7509 28.8005L20.9512 29.1059L21.1247 29.2789L21.2612 29.3314L21.3119 29.1009L21.3128 29.0452L21.253 28.8065L21.3502 28.8402L21.4351 28.8804L21.5944 28.8238L21.74 28.5257L21.7286 28.1998L21.5999 27.8059L21.615 27.7694L21.7286 27.7105L21.8345 27.7826L21.8811 27.9396L22.2727 28.512L22.3526 28.3176L22.4645 28.2386L22.6397 28.2213L22.7141 28.0118L22.878 27.9451L22.8054 27.6L22.5516 27.2691L22.2422 27.0659L22.1481 26.9112L22.1632 26.8742L22.2253 26.8377L22.4393 26.6725L22.448 26.2995L22.3307 25.9553L21.9769 25.6746L21.6948 25.5975L21.6465 25.2537L21.4237 24.9789L21.1831 24.8552L20.8677 24.8279L20.7426 24.6462L20.7248 24.3367L20.5518 24.2107L20.2182 24.1208L20.021 24.3819L19.9356 24.9411L19.8808 24.8589L19.91 24.3513L20.0022 24.1285L20.0776 24.0541L20.1013 23.9428L19.8726 23.7122L19.5617 23.6748L19.4526 23.7232L19.0971 23.9313L18.8305 24.3604L18.7451 24.753L18.8104 24.894L19.0204 25.0378L19.3855 25.2674L19.5718 25.2236L19.8379 25.3158L19.9936 25.4236L20.1721 25.697L20.1757 25.6646Z" fill="white"/>
<path d="M17.8324 24.6699L17.7169 24.7511L17.6936 24.8351L17.6429 24.9607L17.5032 24.8602L17.2659 24.7863L17.1235 24.6484L17.1084 24.5001L17.3147 24.4211L17.2618 24.3969L17.1636 24.3088L17.2143 24.2394L17.4225 24.1103L17.6224 24.0327L17.7913 24.1061L17.8383 24.2559L17.7643 24.4079L17.8935 24.469L17.8429 24.6535L17.8324 24.6699Z" fill="white"/>
<path d="M16.9834 23.8186L17.0528 23.6164L17.1701 23.6063L17.3326 23.4425L17.5417 23.342L17.6147 23.3923L17.7211 23.6301L17.7124 23.7688L17.5303 23.9145L17.2943 23.9633L17.0998 23.772L16.9834 23.8186Z" fill="white"/>
<path d="M17.4951 22.3177L17.5138 22.2424L17.6489 22.1858L17.6782 22.2082L17.7498 22.31L17.6658 22.3907L17.5928 22.4058L17.4951 22.3177Z" fill="white"/>
<path d="M17.6082 22.6989L17.585 22.6098L17.721 22.5815L17.9593 22.6267L18.0067 22.6614L18.0154 22.6947L17.9707 22.8125L17.7913 22.8778L17.7657 22.8116L17.7292 22.7536L17.674 22.7221L17.6082 22.6989Z" fill="white"/>
<path d="M18.2179 23.9468L18.3407 23.95L18.4018 23.9806L18.5214 24.0947L18.5287 24.265L18.2768 24.3472L18.1996 24.4859L18.1763 24.338L17.9796 24.1901L17.9531 24.0299L18.2179 23.9468Z" fill="white"/>
<path d="M17.0915 23.1239L17.08 23.112L17.0426 23.0828L17.0002 23.0915L16.808 23.1677L16.7432 23.065L16.8422 23.0093L16.7893 22.9472L16.8034 22.7706L16.9016 22.6866L16.9381 22.6793L17.1713 22.7313L17.4306 22.7149L17.4009 22.8007L17.4256 22.8956L17.5329 22.9614L17.5228 23.0129L17.1964 23.123L17.1216 23.1239H17.0915Z" fill="white"/>
<path d="M16.0003 23.2033L15.7451 23.2412L15.7725 23.1992L16.0601 23.054L16.2956 23.0563L16.339 23.0828L16.3481 23.1175L16.3463 23.2261L16.1222 23.1782L16.0003 23.2033Z" fill="white"/>
<path d="M16.9773 23.4726L16.9713 23.4164L16.8965 23.301L16.9207 23.3105L16.9545 23.2097L17.0982 23.18L17.1151 23.2133L17.1968 23.4128L17.1393 23.4534L16.9832 23.463L16.9773 23.4726Z" fill="white"/>
<path d="M15.6407 23.4142L15.4695 23.4288L15.4453 23.4767L15.4996 23.5452L15.6179 23.5639L15.7187 23.4571L15.6407 23.4142Z" fill="white"/>
<path d="M15.9112 23.526L16.0431 23.4256L16.2102 23.3416L16.0956 23.3065L15.9705 23.3749L15.9053 23.3886L15.9112 23.526Z" fill="white"/>
<path d="M15.3481 24.2983L15.611 24.4116L15.8438 24.3778L16.0287 24.2746L16.4163 24.0783L16.8704 24.0505L16.9293 23.93L16.7814 23.8232L16.7764 23.7446L16.9453 23.5794L16.8353 23.4443L16.6819 23.4963L16.6162 23.4749L16.4774 23.3507L16.3542 23.3694L16.2907 23.5625L16.1515 23.6931L16.1328 23.9423L16.067 23.9847L15.889 23.9925L15.6498 23.919L15.4275 23.9934L15.3125 24.2194L15.3481 24.2983Z" fill="white"/>
<path d="M14.7515 23.9524L14.6785 23.9674L14.6552 24.05L14.5671 24.0907L14.4863 24.2157L14.579 24.276L14.8118 24.1852L14.841 24.1569L14.9131 24.056L15.5408 23.7899L15.3988 23.7109L15.397 23.6461L15.2856 23.5954L14.9611 23.7132L14.7666 23.8697L14.7515 23.9524Z" fill="white"/>
<path d="M18.5495 21.8923L18.3592 21.7435L18.3309 21.7489L18.2131 21.7654L18.036 21.9548L17.8954 22.2292L17.9068 22.3638L17.9662 22.4455L18.1323 22.5336L18.2766 22.7354L18.4651 22.8194L18.7298 22.7358L18.7842 22.5656L18.6837 22.5003L18.6641 22.4245L18.7449 22.357L18.8759 22.4241L19.0078 22.4702L19.0676 22.5218L19.0361 22.5793L18.9033 22.6208L18.8471 22.7838L18.8348 23.0823L18.649 23.0919L18.4916 23.1608L18.4368 23.2375L18.3281 23.1722L18.2163 23.2033L18.1095 23.2028L17.8027 23.2165L17.8571 23.2772L18.0483 23.2886L18.2898 23.405L18.2053 23.5164L18.2419 23.5662L18.3948 23.6287L18.8252 23.6565L19.0457 23.6319L19.5419 23.6237L19.8861 23.5242L19.9176 23.4096L19.813 23.3594L19.5862 23.3836L19.3515 23.4178L19.1731 23.3968L19.1078 23.41L19.2137 23.3233L19.4415 23.3274L19.536 23.2795L19.8555 23.2918L20.0983 23.2065L19.9358 23.1316L19.8386 23.0782L19.8751 23.0134L20.1002 22.9161L20.2736 22.9175L20.317 22.8796L20.2905 22.7769L20.2435 22.7436L20.118 22.6961L20.1773 22.6039L20.3731 22.5432L20.4352 22.4939L20.6132 22.3058L20.6908 22.0507L20.6767 21.9388L20.8889 21.7932L21.1875 21.6604L21.3577 21.4741L21.5399 21.3281L21.9338 20.951L21.8101 20.9109L22.1356 20.7707L22.2456 20.7274L22.2447 20.6397L22.1675 20.5986L21.7257 20.6178L21.5171 20.6607L21.1852 20.6922L20.8638 20.7073L20.6703 20.8346L20.642 20.8406L20.4416 20.9104L20.3047 20.9675L20.0929 21.025L19.8601 21.0012L19.7669 21.0204L19.4967 21.1478L19.2981 21.2254L19.074 21.2345L18.6677 21.3897L18.5112 21.4874L18.4733 21.5974L18.6066 21.764L18.8147 21.8663L18.8458 21.9028L19.2689 21.9037L19.3611 21.9626L19.2945 22.0274L19.0841 21.948L18.8047 21.9767L18.5495 21.8923Z" fill="white"/>
<path d="M18.1982 23.8058L18.0462 23.8373L17.8631 23.8319L17.7559 23.8538L17.791 23.6954L17.9097 23.6566L18.074 23.6228L18.1644 23.6758L18.1945 23.7351L18.1982 23.8058Z" fill="white"/>
<path d="M18.3599 23.0001L18.2631 23.122L18.0043 23.1448L17.8906 23.0535L17.9618 22.9814L18.065 23.0321L18.159 22.9841L18.3033 22.9545L18.3599 23.0001Z" fill="white"/>
<path d="M15.2441 24.2189L15.1168 24.1655L15.083 24.2728L15.0999 24.3061L15.2387 24.3143L15.2441 24.2189Z" fill="white"/>
<path d="M20.9169 42.8576L20.9872 42.7256L21.0872 42.6508L21.2223 42.5823L21.2762 42.5189L21.3223 42.4623L21.4419 42.4212L21.5957 42.402L21.7263 42.3271L21.8176 42.3436L21.708 42.5257L21.8641 42.4906L22.0408 42.4372L22.1795 42.4358L22.3224 42.5193L22.4566 42.6718L22.8656 42.5828L23.1053 42.6074L23.2134 42.6864L23.323 42.7813L23.3796 42.8261L23.4357 42.9904L23.5243 43.1082L23.6256 43.2205L23.7315 43.3045L23.9794 43.2844L24.1465 43.3391L24.3263 43.4734L24.3555 43.6491L24.3181 43.8481L24.3236 43.9718L24.1433 44.2525L24.498 44.1065L24.6737 44.1042L24.8125 44.1366L24.9713 44.2439L25.1936 44.4338L25.6455 44.4694L25.9062 44.563L26.1257 44.6903L26.2905 44.8761L26.2599 45.0737L26.1668 45.2732L26.0463 45.4449L25.8373 45.6169L25.7209 45.7251L25.6925 45.947L25.5456 46.0109L25.4584 46.2893L25.3767 46.3701L25.3246 46.4669L25.2416 46.5924L25.1945 46.7339L25.2037 46.9613L25.1028 47.1662L24.8609 47.3561L24.608 47.4552L24.4217 47.5579L24.2451 47.6912L24.1478 47.8733L24.1205 48.1285L24.0438 48.2252L23.8886 48.3343L23.8082 48.4425L23.7452 48.6082L23.5836 48.7237L23.4357 48.9113L23.3157 48.9524L23.1687 48.9318L22.9848 48.9497L22.8054 49.009L22.9665 49.2286L22.9213 49.3591L22.7912 49.4677L22.5146 49.6745L22.274 49.7279L22.1672 49.8539L22.1197 50.0023L22.0444 50.0429L21.8445 50.0388L21.7838 50.1018L21.7696 50.1931L21.934 50.2301L21.9426 50.2538L21.8408 50.3848L21.8048 50.5377L21.7473 50.6231L21.6318 50.7267L21.5948 50.8408L21.6341 50.9527L21.7258 51.0481L21.6751 51.2138L21.4802 51.3407L21.425 51.4548L21.2995 51.6136L21.2529 51.8816L21.2826 52.0112L21.5108 52.1961L21.6692 52.307L21.64 52.3358L21.4154 52.3673L21.1776 52.3234L20.9891 52.2801L20.8087 52.2308L20.8202 52.123L20.8083 51.9934L20.6152 51.7405L20.5677 51.5648L20.5435 51.4351L20.56 51.3274L20.5855 51.2425L20.5988 51.1225L20.5919 50.7199L20.5476 50.6756L20.5878 50.3802L20.5942 50.1315L20.6371 49.8987L20.7782 49.596L20.6362 49.6202L20.7074 49.4445L20.7407 49.1829L20.7709 48.9903L20.9014 48.7515L21.0055 48.6078L21.0904 48.4256L21.079 47.8537L21.137 47.4798L21.1812 47.3091L21.21 47.0078L21.2292 46.8827L21.2155 46.6855L21.0607 46.5057L20.8964 46.3989L20.7389 46.2816L20.5992 46.0844L20.5431 45.9214L20.476 45.7123L20.3153 45.4526L20.2751 45.1869L20.1405 44.9222L20.0332 44.8387L20.0825 44.7241L20.2614 44.5862L20.319 44.4557L20.1966 44.4342L20.1633 44.3607L20.2975 44.1836L20.292 43.9399L20.3144 43.912L20.3692 43.8892L20.4308 43.9271L20.5294 43.8189L20.6399 43.5514L20.785 43.2999L20.9169 42.8576Z" fill="white"/>
<path d="M19.8506 47.8103L19.8885 47.725L19.9579 47.7241L19.9793 47.7464L19.9652 47.8364L19.8994 47.8948L19.8666 47.8665L19.8506 47.8103Z" fill="white"/>
<path d="M19.7393 48.9333L19.7434 48.9045L19.7753 48.9041L19.8899 48.9319L19.8771 49.0168L19.8465 49.0173L19.7393 48.9333Z" fill="white"/>
<path d="M20.0069 48.8283L20.0712 48.7315L20.1657 48.7306L20.2228 48.7635L20.21 48.8438L20.1712 48.9004L20.0781 48.9301L20.0087 48.9305L19.9863 48.8794L20.0069 48.8283Z" fill="white"/>
<path d="M22.4704 51.7839L22.4466 51.8227L22.3275 51.8241L22.2964 51.8195L22.1992 51.8766L22.2677 51.7625L22.2928 51.762L22.3097 51.7342L22.417 51.7269L22.4777 51.7374L22.4704 51.7839Z" fill="white"/>
<path d="M22.57 51.794L22.6234 51.736L22.7055 51.7305L22.7443 51.7575L22.7585 51.7922L22.7471 51.82L22.6722 51.867L22.5987 51.8501L22.5371 51.8456L22.5426 51.8104L22.57 51.794Z" fill="white"/>
<path d="M17.621 26.2808L17.6489 25.9672L17.6799 25.843L17.8136 25.8622L18.161 25.6897L18.2035 25.8622L18.0547 26.2347L18.0775 26.5017L18.135 26.7583L18.208 26.8066L18.3966 26.7309L18.4463 26.8066L18.5079 27.0445L18.4189 27.2252L18.3158 27.3978L18.1957 27.4653L18.2039 27.5598H18.3852L18.6472 27.6082L18.6727 27.5114L18.4659 27.3791L18.4865 27.2736L18.6102 27.1791H18.7837L18.9503 27.0824L19.0279 27.1791L19.2168 27.3599L19.3091 27.2928L19.2114 27.2065L19.0822 26.9203L19.0808 26.672L19.137 26.5017L19.3223 26.3187L19.3944 26.3397L19.4871 26.5204L19.6359 26.8066L19.7765 27.2252L19.9764 27.1978L20.0627 27.2357L20.1047 27.3978L20.038 27.5895L20.0677 27.7027L20.1617 27.741L20.2562 27.6269L20.3252 27.4462L20.447 27.3978L20.3731 27.2736L20.4279 27.1791L20.6958 27.1495L20.9049 27.2252L21.0103 27.3978L20.9939 27.5306L20.8674 27.684L20.8802 27.9889L20.8127 28.1701L20.5173 28.2185L20.4288 28.3993L20.232 28.5613H20.1631L20.0896 28.8284L19.9554 28.9822L19.776 29.163L19.4442 29.592L19.2643 29.9266L19.1219 30.2128L19.0685 30.4881L19.1584 30.6419L19.2187 30.6985L19.2725 31.0039L19.3734 31.1952L19.7267 31.338L19.876 31.538L20.0216 31.6055L20.1827 31.6918L20.4082 31.7297L20.5356 31.6726L20.6077 31.7105L20.6602 31.9105L20.6415 32.1017L20.7118 32.35L20.7565 32.6171L20.8629 32.7307L20.9729 32.7034L21.0181 32.5016L20.9131 32.1017L20.9355 31.9484L21.0327 31.8644L21.2267 31.7676L21.3226 31.5969L21.3157 31.1952L21.1591 30.909L21.1988 30.6419L21.2148 30.3452L21.182 29.9645L21.2212 29.6865L21.2408 29.5058L21.3636 29.4008L21.5051 29.5058L21.7165 29.5354L21.8575 29.6404L22.0757 29.8212L22.3323 29.9645L22.3734 30.442L22.346 30.5365L22.3551 30.6419H22.8631L22.9152 30.442L22.9617 30.1645L23.1197 30.3936L23.3511 30.7282L23.4525 31.1007L23.4077 31.3864L23.4155 31.4727L23.6766 31.6726L23.8884 31.8644L24.0933 32.2346L24.1458 32.5226L24.207 32.7499L24.2317 33.0361L24.3919 33.2758L24.553 33.6104L24.6119 33.8856L24.5676 34.1718L24.4823 34.3257H24.3229L24.2157 34.1339L24.1563 34.2668L24.0851 34.1531L23.7309 34.0856L23.7921 34.3152L23.7117 34.3444L23.6419 34.2668L23.5255 34.2878L23.4839 34.2097L23.6323 34.1531L23.6967 33.6186L23.8587 33.467H23.9354L23.9139 33.3032L23.9642 33.0841L23.9715 32.9896L23.8907 33.0361L23.7441 33.1895L23.4899 33.2274L23.3205 33.2087L22.9782 33.1895L23.1302 33.3324L22.9613 33.562L23.2388 33.5428L23.2242 33.7806L22.9503 33.8477L22.9837 34.1444L23.0708 34.2668L23.0558 34.4119L23.1772 34.4498H23.3507L23.4452 34.563L23.3488 34.658L23.1987 34.6977L22.9412 35.0218L22.8088 35.1081L22.7641 34.9839L22.9449 34.7442L22.9773 34.6388L22.6162 34.8871L22.4245 34.925L22.2551 34.9926L22.136 35.2135L22.1059 35.5942L21.7653 36.0041L21.6955 36.1579L21.6211 36.3474L21.6398 36.6523L21.6293 36.9385L21.5777 37.054H21.4581L21.3353 37.0727L21.3604 37.2055L21.4399 37.3968L21.3869 37.5128L21.2235 37.5589L21.0204 37.7127L20.9067 37.9989L20.7008 38.2846L20.6611 38.7137L20.7702 39.0862L20.8501 39.3724L20.9227 39.7152L20.8716 39.9444L20.7661 40.0014L20.6251 39.9152L20.4744 39.6102L20.4365 39.2588L20.3818 38.9433L20.2644 38.8676L20.0253 38.9242L19.7231 38.8192L19.5323 38.8676L19.6605 39.057L19.4391 39.0675L19.2625 39.0483L19.0438 38.8484H18.9042L18.6522 38.9917L18.5518 39.1241L18.3934 39.2291L18.3555 39.429L18.3897 39.6691L18.3664 40.1256L18.423 40.6218L18.4847 40.9272L18.5677 41.2508L18.7298 41.4234L18.9334 41.453L19.1662 41.2508L19.3314 40.9756L19.5204 40.7459L19.687 40.7377L19.8669 40.8806L19.9481 41.0239L19.918 41.4046L19.7281 41.6233L19.7062 41.7771L19.7267 42.0145L19.8048 42.1008L20.0568 42.0337L20.348 42.1008L20.4717 42.2546L20.5543 42.4837L20.5036 42.8539L20.5091 43.2556L20.6045 43.3885L20.751 43.304L20.9158 43.2935L21.066 43.3232L21.2098 43.3885L21.2997 43.5418L21.3746 43.7523L21.3956 44.495L21.2217 44.3329L21.2381 44.0385L21.171 43.9038L21.0642 43.8764L20.9117 43.9604L20.8286 44.133L20.6095 44.0846L20.4174 43.7988L20.1709 43.6094L20.1092 43.304L19.9203 43.037L19.6254 42.8539L19.4081 42.6645L19.152 42.5298L18.9005 42.282L18.5842 42.2441L18.371 42.1957L18.1692 42.025L17.8342 41.8634L17.4996 41.7013L17.2768 41.453L17.1235 41.2047L17.1189 40.8322L17.1221 40.5465L17.0796 40.3739L16.9176 40.1169L16.6474 39.812L16.4684 39.5153L16.2648 39.0757L16.1612 38.9242L16.0544 38.6653L15.859 38.1797L15.9065 38.5517L15.9658 38.8484L16.0937 39.1241L16.2936 39.4103L16.3904 39.7339L16.4849 40.0307L16.5971 40.279L16.756 40.5926L16.4944 40.2981L16.2557 40.1822L16.0987 39.7339L15.9567 39.4774L15.6637 39.2104L15.7408 39.1433L15.8348 39.1807L15.9129 39.1241L15.6577 38.8192L15.5537 38.5896L15.4286 38.1902L15.4048 37.8259L15.0999 37.6935L14.8365 37.3781L14.6539 36.8815L14.6293 36.5952L14.6777 36.3387L14.517 36.2524L14.4549 36.1767L14.4905 35.9475L14.6526 35.2404L14.6001 34.7926L14.5074 34.2878L14.5882 34.1718L14.5102 34.0668L14.6307 33.934L14.5065 33.7049L14.3408 33.4757L14.2148 33.2274L14.0121 33.0653L14.5261 33.1324L14.6526 33.0462L14.3344 32.5984L14.2591 32.3692L14.1792 32.3313L14.0258 31.921L13.9587 31.7863L13.8474 31.4727L13.762 31.4435L13.5347 31.3193L13.3416 31.338L13.2535 31.2057L13.2325 30.9656L12.9855 30.6798L12.7651 30.547L12.2543 30.604L12.2036 30.7282L12.2611 31.0039L12.304 31.2518L12.1114 31.4435L11.9256 31.7105L11.748 32.0725L11.6809 32.2743L11.366 32.4829L11.319 32.188L11.3815 31.8644L11.5919 31.4727L11.7106 31.4056L11.5655 31.2518L11.2687 31.6055L11.0706 31.816L10.9611 31.921L10.8451 32.1775L10.7009 32.6066L10.522 32.7896L10.2974 33.017L10.0682 33.1895L9.87331 33.4273L9.49991 33.7049L9.29907 33.7993L9.23242 33.7532L9.41318 33.3429L9.59532 33.1895L9.79434 32.8467L9.99291 32.712L10.1577 32.3583L10.3289 32.1017L10.4969 31.7863L10.6292 31.454L10.4886 31.4435H10.4256L10.2467 31.538L9.97282 31.6726L9.81442 31.6918L9.63275 31.454L9.62453 31.1952L9.33741 31.0902L9.35293 30.7848L9.29587 30.5365L9.64553 30.4607L9.59258 30.3265L9.37073 30.2608L9.24064 30.1266L9.3123 29.9075L9.6186 29.7541L9.71811 29.5163L10.0125 29.3921L10.2508 29.4113H10.4813L10.6137 29.2574L10.684 28.9338H10.5521L10.3499 29.0306L10.1449 28.9822L9.92946 29.068L9.84546 28.9822L9.98058 28.696L9.90298 28.5992L9.70487 28.5613L9.66151 28.4664L9.69346 28.2669L9.73226 28.151L9.81671 28.0081L10.0048 27.8378L10.2823 27.9026L10.4813 28.1131L10.6164 27.9889L10.6443 27.741L10.8734 27.6543L10.7748 27.5598L10.5411 27.4357H10.3663L10.2668 27.4927L10.154 27.3978L10.0769 27.1412L10.1431 26.95L10.3421 26.834L10.5576 26.7309L10.7634 26.6259L10.9606 26.567H11.3372L11.7499 26.672L11.9416 26.8824L12.0082 26.8528L12.3465 26.8066L12.6637 26.8528L12.9239 26.9687L13.1686 26.9769L13.2594 27.1412L13.4639 27.1791H13.6725L13.8446 27.1412L13.9921 27.322L14.0646 27.0445L14.145 27.0824L14.3896 27.1791L14.6708 27.1978L14.9091 26.9011L15.0785 26.8528L15.2286 27.0445L15.2076 27.1412H15.1387L15.1967 27.2444L15.4021 27.2065L15.4961 26.9961L15.6691 26.9879L15.9239 27.2736L16.211 27.2928L16.5227 27.4357L16.7592 27.684L16.8765 27.6753L17.0997 27.7511L17.3129 27.8944L17.4298 27.8752L17.48 27.7976L17.4398 27.6543L17.1016 27.4548L16.9432 27.5598L16.9002 27.3791L16.4871 27.1978L16.3411 26.95L16.473 26.7879L16.1904 26.7309L16.1443 26.5204V26.3588L16.0859 26.3397L15.9293 26.6259L15.6911 26.672L15.5053 26.7099L15.4624 26.4428L15.2971 26.2347L15.3044 26.0726L15.3724 25.9672L15.5646 25.7759L15.571 25.4413L15.739 25.3742H15.9553L16.1361 25.2985L16.3543 25.4792L16.6716 25.5276L16.8811 25.6226L16.9523 25.7193L17.2622 25.9293L17.4681 25.9672L17.5462 26.2347L17.621 26.2808Z" fill="white"/>
<path d="M21.8513 41.1185L21.9266 41.0993L22.0521 41.1856L22.2689 41.1185L22.4328 41.1669L22.5355 41.375L22.6775 41.491L22.6615 41.5581L22.3233 41.5854L22.2402 41.6717L22.1566 41.6822L22.0868 41.5854L21.7979 41.5476L21.8056 41.4047L21.8782 41.3563L21.8513 41.1185Z" fill="white"/>
<path d="M21.1133 41.537L21.1699 41.375L21.2324 41.3855L21.4488 41.4718L21.4817 41.5183L21.5081 41.6612L21.4132 41.7014L21.3141 41.6046L21.1617 41.6151L21.1133 41.537Z" fill="white"/>
<path d="M21.0068 39.9823L21.0689 39.8878H21.1032L21.1954 40.0686L21.236 40.2224H21.1671L21.0666 40.1822L21.0068 39.9823Z" fill="white"/>
<path d="M21.3838 40.3064L21.444 40.1822L21.4472 40.2224L21.4924 40.3547H21.4587L21.3838 40.3064Z" fill="white"/>
<path d="M21.4268 39.9823L21.4523 39.8878H21.5231L21.7121 40.0686L21.7216 40.1822L21.6879 40.2685H21.6171L21.5518 40.2224L21.508 40.1256L21.4268 39.9823Z" fill="white"/>
<path d="M21.6363 40.4987L21.6289 40.4114H21.742L21.7452 40.45L21.6762 40.5474L21.6363 40.4987Z" fill="white"/>
<path d="M21.7773 40.8322L21.797 40.7377H21.9289L21.9371 40.8322L21.9074 40.8806H21.8367L21.7773 40.8322Z" fill="white"/>
<path d="M21.8395 40.4981L21.8271 40.3547H21.9668L22.0129 40.4981L21.9522 40.5926H21.9171L21.8395 40.4981Z" fill="white"/>
<path d="M22.0605 40.641L22.0939 40.5465H22.1569L22.2692 40.641L22.2774 40.7378H22.1103L22.0605 40.641Z" fill="white"/>
<path d="M23.3906 41.8641L23.404 41.7662L23.4407 41.796L23.489 41.7855L23.4338 41.8829L23.3906 41.8641Z" fill="white"/>
<path d="M23.4238 41.6054L23.4298 41.491H23.4716L23.473 41.5098L23.4771 41.5585L23.4238 41.6054Z" fill="white"/>
<path d="M23.6654 42.7887H23.7288L23.7182 42.8268L23.698 42.8461L23.6631 42.8356L23.6654 42.7887Z" fill="white"/>
<path d="M23.7578 42.56L23.7799 42.4919L23.8194 42.5407L23.8212 42.56L23.8029 42.5981L23.7629 42.617L23.7578 42.56Z" fill="white"/>
<path d="M23.5921 41.7776L23.5889 41.7395L23.6353 41.7014H23.6629L23.6698 41.7776L23.6449 41.8153H23.6233L23.5921 41.7776Z" fill="white"/>
<path d="M23.6524 42.0634L23.6455 41.9875H23.6671L23.7296 42.0634L23.7328 42.1015H23.6772L23.6524 42.0634Z" fill="white"/>
<path d="M23.1154 41.7392L23.1916 41.6612L23.1934 41.4338L23.1295 41.4909L22.846 41.5183L22.783 41.6046L22.7598 41.7287H22.8013L22.862 41.7013L22.9287 41.6717L23.0729 41.7287L23.1154 41.7392Z" fill="white"/>
<path d="M21.6813 41.0892L21.7352 41.0701L21.7206 40.8998L21.7014 40.8409L21.5371 40.7839L21.391 40.6218L21.2979 40.5926L21.1537 40.4707L20.8921 40.4114L20.6625 40.3466L20.4699 40.3739L20.3133 40.4114L20.1914 40.5273L20.1955 40.7378L20.3425 40.746L20.4393 40.6597L20.4311 40.5652L20.5657 40.5926L21.0295 40.8806L21.1546 41.0322L21.1856 41.2321L21.2842 41.2508L21.3983 41.2047L21.4727 41.0892L21.6288 41.1185L21.6813 41.0892Z" fill="white"/>
<path d="M23.8086 42.2633L23.906 42.3313L23.9184 42.2445L23.8936 42.187L23.8959 42.2169L23.8086 42.2633Z" fill="white"/>
<path d="M21.2584 39.6582L21.2461 39.5153H21.3502L21.3625 39.6582L21.3315 39.707H21.2963L21.2584 39.6582Z" fill="white"/>
<path d="M31.9427 40.7734L31.8633 40.7076L31.6392 40.6784L31.4429 40.5721L31.3347 40.5077L31.2215 40.4264L31.1485 40.4278L31.0083 40.5241L30.9618 40.6442L30.928 40.6542L30.8257 40.5492L30.812 40.5218L30.6714 40.4141L30.6609 40.3694L30.5094 40.3183L30.4035 40.2165L30.3889 40.0932L30.4281 40.0763L30.4364 39.9275L30.4176 39.8444L30.2716 39.7855L29.8703 39.7289L29.7512 39.7294L29.544 39.7906L29.4276 39.8339L29.2797 39.7614L29.1852 39.6545L29.1482 39.6847L29.0738 39.7992L28.9505 39.8988L28.846 39.9978L28.7305 40.2242L28.6958 40.342L28.447 40.5374L28.4019 40.5908L28.3489 40.7049L28.2581 40.8076L28.1677 40.9308L28.1435 41.0719L28.0942 41.249L28.0225 41.6009L28.0047 41.7639L28.0189 41.6206L27.9814 41.9428L27.9856 42.0643L28.0097 42.1364L28.0764 42.2747L28.0883 42.3938L28.1202 42.5253L28.2147 42.691L28.3599 42.8622L28.4712 42.9722L28.5589 42.9694L28.6547 42.9224L28.867 42.953L28.9766 42.9096L29.0049 42.8941L29.1062 42.7901L29.124 42.7937L29.2148 42.958L29.3522 43.0064L29.4221 43.021L29.5065 43.1429L29.5768 43.1575L29.7037 43.241L29.6827 43.362L29.6266 43.4757L29.5636 43.7135L29.596 43.8614L29.632 43.9481L29.6914 44.1102L29.674 44.3151L29.6932 44.7269L29.685 44.8551L29.627 45.0012L29.5668 45.1395L29.4673 45.5061L29.4956 45.6334L29.5581 45.7959L29.5335 45.937L29.5179 46.1543L29.5239 46.1812L29.5732 46.3364L29.5837 46.4637L29.5928 46.6244L29.6352 46.7746L29.6485 46.907L29.6453 47.0316L29.6594 47.1589L29.7758 47.2868L29.895 47.2279L30.1333 47.1936L30.2446 47.179L30.4738 47.0964L30.6094 47.0037L30.7011 46.8974L30.7746 46.7874L30.8303 46.6728L30.901 46.4797L30.9595 46.4327L31.1202 46.3241L31.1631 46.1835L31.1904 46.026L31.2712 45.8753L31.379 45.7562L31.6241 45.5773L31.698 45.4677L31.7382 45.234L31.8058 44.9519L31.8117 44.8109L31.8642 44.5091L31.9199 44.379L31.997 44.2699L32.0801 44.1663L32.2764 43.9769L32.4243 43.8609L32.511 43.7582L32.6617 43.6017L32.7945 43.4451L32.8748 43.2949L32.9447 43.1844L32.9579 43.1073L32.9447 43.0005L32.8776 42.9658L32.7415 43.0379L32.6397 43.0169L32.5411 42.9804L32.4389 42.9594L32.4311 42.8791L32.4133 42.8754L32.3786 42.6595L32.1915 42.4587L32.1509 42.3792L32.165 42.2158L32.0943 42.1391L32.0847 41.8616L31.9957 41.6393L32.0098 41.4759L31.9984 41.3942L31.9674 41.3421L31.9687 41.3339L31.9824 41.0691L31.9427 40.7734Z" fill="white"/>
<path fill-rule="evenodd" clip-rule="evenodd" d="M28.1624 41.3102C28.1624 41.018 28.0456 41.1349 28.1916 40.7843C28.3377 40.4337 28.3669 39.8787 28.513 39.4697C28.6591 39.0607 29.1557 38.4764 29.3018 38.3011C29.4478 38.1258 29.4771 38.1258 29.4771 37.8337C29.4771 37.5415 29.6231 37.3662 29.5063 37.2494C29.3894 37.1325 29.2433 37.0157 29.2433 37.0157C29.2433 37.0157 29.5939 36.9572 29.3894 36.8404C29.1849 36.7235 29.1557 36.8696 29.1265 36.6359C29.0973 36.4022 29.2433 36.2415 29.258 36.1831C29.2726 36.1246 29.258 36.037 29.258 35.964C29.258 35.8909 29.2433 35.8909 29.3018 35.8179C29.3602 35.7448 29.331 35.7302 29.4186 35.6572C29.5063 35.5842 29.5355 35.6134 29.5355 35.5257C29.5355 35.4381 29.5209 35.2774 29.5209 35.2774C29.5209 35.2774 29.4771 35.0437 29.5647 35.0145C29.6523 34.9853 29.6085 34.9999 29.6816 34.9415C29.7546 34.883 29.8276 34.7224 29.8276 34.7224C29.7254 34.474 29.7254 34.474 29.7254 34.3426C29.7254 34.2111 29.7838 34.1381 29.7254 34.0212C29.667 33.9044 29.667 33.8751 29.5939 33.7875C29.5715 33.7606 29.5656 33.7542 29.567 33.7523C29.5697 33.7473 29.6099 33.7642 29.5793 33.6122C29.5355 33.3931 29.4186 33.174 29.2141 33.174C29.0096 33.174 28.7467 33.2032 29.0681 32.9549C29.3894 32.7066 29.5209 32.7358 29.3748 32.6774C29.2287 32.6189 29.2433 32.7504 29.1411 32.5313C29.0388 32.3122 28.8197 32.5605 28.8782 32.283C28.9366 32.0054 28.8782 32.0931 29.0535 31.947C29.2287 31.8009 29.3602 31.9032 29.3894 31.5088C29.4186 31.1144 29.4625 30.5155 29.6231 30.9829C29.7838 31.4504 29.6962 31.4211 29.8422 31.5088C29.9883 31.5964 29.9445 31.5818 30.0467 31.6695C30.149 31.7571 30.1636 31.6256 30.1782 31.8301C30.1928 32.0346 30.1928 32.0931 30.2804 32.1515C30.3681 32.2099 30.5434 32.1807 30.3535 32.2976C30.1636 32.4144 30.0613 32.3852 30.0613 32.3852C30.0613 32.3852 30.1928 32.429 30.2074 32.5605C30.222 32.692 30.1782 32.8819 30.2804 32.765C30.3827 32.6481 30.3389 32.6774 30.4265 32.5167C30.5142 32.356 30.5288 32.2976 30.6602 32.2537C30.7917 32.2099 30.8355 32.1953 30.9086 32.0785C30.9816 31.9616 31.1715 31.8155 30.967 31.8886C30.7625 31.9616 30.8793 31.9908 30.7333 31.9324C30.5872 31.874 30.4996 31.9032 30.4703 31.8301C30.4603 31.8055 30.4553 31.8009 30.4525 31.795C30.4461 31.7845 30.4457 31.7699 30.4265 31.5964C30.3973 31.3335 30.4265 31.5818 30.3097 31.202C30.1928 30.8222 30.149 30.9099 30.1928 30.7492C30.2366 30.5885 30.1928 30.6324 30.2512 30.5447C30.3097 30.4571 30.3973 30.4717 30.3535 30.3256C30.3097 30.1795 30.0613 30.2234 30.2951 30.1211C30.5288 30.0189 30.4703 29.975 30.5288 29.8728C30.5872 29.7705 30.6748 29.7413 30.558 29.6683C30.4411 29.5953 30.2512 29.5368 30.3827 29.5076C30.5142 29.4784 30.5872 29.5806 30.558 29.3761C30.5288 29.1716 30.4557 29.3469 30.4703 29.0402C30.4849 28.7334 30.3973 28.4997 30.3243 28.339C30.2512 28.1784 30.2658 28.1491 30.2074 28.0615C30.149 27.9739 30.2366 27.9593 30.2658 27.9008C30.2951 27.8424 30.4703 27.5795 30.4703 27.5795C30.4703 27.5795 30.5142 27.6233 30.6018 27.7401C30.6894 27.857 30.6456 27.8862 30.8209 27.8862C30.9962 27.8862 31.0546 27.9739 31.0546 27.8132C31.0546 27.6525 30.9524 27.521 31.1277 27.6379C31.3029 27.7548 31.3614 27.7694 31.5805 27.7548C31.7996 27.7401 31.7412 27.7548 31.8726 27.8278C32.0041 27.9008 31.9164 27.9154 32.0479 27.9154C32.1794 27.9154 32.2232 27.6963 32.194 27.9885C32.1648 28.2806 32.2524 28.3683 32.3693 28.3975C32.4861 28.4267 32.5884 28.3536 32.6322 28.5581C32.676 28.7626 32.6468 28.6896 32.7344 28.7919C32.8221 28.8941 32.7783 28.8503 32.8367 28.9818C32.8951 29.1132 33.0558 29.0986 32.9243 29.2739C32.7929 29.4492 32.8513 29.2009 32.7052 29.5514C32.5592 29.902 32.4715 29.975 32.676 30.1357C32.8805 30.2964 32.9243 30.3402 32.9243 29.9458C32.9243 29.5514 32.8805 29.5222 33.012 29.42C33.1434 29.3177 33.1873 29.4784 33.1873 29.2739C33.1873 29.0694 33.0558 29.0402 33.2749 29.011C33.494 28.9818 33.5963 28.9671 33.7716 28.9671C33.9468 28.9671 33.9907 29.011 34.1075 28.9379C34.2244 28.8649 34.4143 28.8503 34.4873 28.7773C34.5603 28.7042 34.648 28.8357 34.648 28.8357C34.648 28.8357 36.1817 31.6695 36.1817 35.7741C36.1817 38.4472 35.9772 38.3741 35.8896 38.6225C35.8019 38.8708 35.8896 38.8708 35.8019 39.0168C35.7143 39.1629 35.7435 39.1045 35.612 39.1775C35.4806 39.2506 35.3783 39.309 35.3491 39.4551C35.3199 39.6011 35.1884 39.8202 35.1446 39.9663C35.1008 40.1124 35.1446 40.2 35.1008 40.3315C35.057 40.4629 34.9547 40.609 34.9693 40.7989C34.9839 40.9888 35.057 41.2225 34.8525 41.0472C34.648 40.8719 34.5603 41.0326 34.5457 40.6967C34.5311 40.3607 34.3412 40.3023 34.5311 40.1708C34.721 40.0393 34.794 40.0978 34.7794 39.9079C34.7648 39.718 34.8671 39.7472 34.7064 39.4843C34.5457 39.2213 34.6334 39.236 34.721 39.2213C34.8087 39.2067 34.9839 39.1921 34.7794 39.1483C34.5749 39.1045 34.3704 39.1629 34.5311 39.0461C34.6918 38.9292 34.6334 38.564 34.4289 38.7831C34.2244 39.0022 34.1806 39.0607 34.1221 39.1629C34.0637 39.2652 34.0783 39.309 34.2244 39.309C34.3704 39.309 34.3997 39.3674 34.3851 39.4551C34.3704 39.5427 34.3851 39.4697 34.2974 39.5865C34.2098 39.7034 34.6042 39.6157 34.3704 39.7764C34.1367 39.9371 34.1221 39.9371 33.9614 40.2438C33.8008 40.5506 33.9907 40.609 33.7131 40.7551C33.4356 40.9012 33.4794 40.9742 33.2895 41.0764C33.0996 41.1787 33.1142 41.2371 33.2165 41.3248C33.3187 41.4124 33.4356 41.5585 33.2895 41.7484C33.1434 41.9383 33.1288 41.9383 33.0704 42.1428C33.012 42.3473 33.1581 42.99 32.8513 43.3259C32.5446 43.6619 32.5738 44.0855 31.9457 43.7057C31.3176 43.3259 31.1715 42.9754 30.5726 42.7124C29.9737 42.4495 28.9366 42.0113 28.7905 41.9237C28.6445 41.836 28.1624 41.3102 28.1624 41.3102ZM30.0906 34.1235C30.2074 34.1089 30.2074 34.1819 30.2658 34.065C30.3243 33.9482 30.3243 33.9628 30.3681 33.8459C30.4119 33.7291 30.3389 33.5976 30.4119 33.6999C30.4849 33.8021 30.6018 33.7437 30.4996 33.8605C30.3973 33.9774 30.4411 33.992 30.3681 34.0504C30.2951 34.1089 30.3097 34.1527 30.2074 34.1673C30.1052 34.1819 30.0906 34.1235 30.0906 34.1235ZM30.558 33.3493C30.558 33.174 30.4265 33.0571 30.5288 33.0571C30.631 33.0571 30.6894 33.0571 30.7187 33.2178C30.7479 33.3785 30.8647 33.3785 30.7625 33.4515C30.6602 33.5246 30.6602 33.7437 30.631 33.6122C30.6018 33.4807 30.558 33.3493 30.558 33.3493Z" fill="white"/>
<path fill-rule="evenodd" clip-rule="evenodd" d="M27.8412 28.6604C27.8996 28.6896 28.0603 28.339 28.148 28.4413C28.2356 28.5435 28.4401 28.7188 28.5277 28.5728C28.6154 28.4267 28.7322 28.4121 28.6738 28.2076C28.6154 28.0031 28.4839 27.9008 28.63 27.7402C28.7761 27.5795 29.2581 27.0828 29.1705 27.5649C29.0828 28.0469 29.039 28.0323 29.112 28.1492C29.1851 28.266 29.4918 28.2222 29.521 28.4559C29.5502 28.6896 29.5648 28.5582 29.521 28.8941C29.4772 29.2301 29.5795 29.5953 29.3019 29.42C29.0244 29.2447 28.8929 29.1424 28.8053 29.3177C28.7176 29.493 28.6738 29.5514 28.5423 29.5222C28.4109 29.493 28.4839 29.2593 28.294 29.5076C28.1041 29.7559 27.6513 30.0043 27.5929 29.7413C27.5345 29.4784 27.5929 29.5514 27.5345 29.4492C27.476 29.3469 27.4468 29.3469 27.476 29.2155C27.5052 29.084 27.5198 29.084 27.4468 28.9964C27.3738 28.9087 27.1985 28.8649 27.4468 28.8211C27.6951 28.7773 27.7828 28.6312 27.8412 28.6604Z" fill="white"/>
<path d="M4.42578 34.8831C4.42578 34.7516 4.48421 34.6932 4.48421 34.4887C4.48421 34.2842 4.74714 33.8898 4.71792 34.0212C4.68871 34.1527 4.70332 34.1381 4.6741 34.1965C4.64489 34.255 4.61567 34.2988 4.61567 34.3718C4.61567 34.4448 4.63028 34.4156 4.58646 34.5617C4.54264 34.7078 4.42578 34.8831 4.42578 34.8831Z" stroke="#231F20" stroke-width="1.33333" stroke-miterlimit="3.86371"/>
<path fill-rule="evenodd" clip-rule="evenodd" d="M10.2252 28.2952C9.714 28.1784 9.83086 28.3098 9.5095 28.1637C9.18814 28.0177 9.305 28.0031 9.05668 27.9592C8.80836 27.9154 8.60386 27.857 8.60386 27.857C8.60386 27.857 8.58925 27.7986 8.50161 27.7109C8.41396 27.6233 8.41396 27.521 8.29711 27.5064C8.18025 27.4918 8.078 27.3457 7.94654 27.4042C7.81507 27.4626 7.78586 27.521 7.78586 27.521C7.78586 27.521 7.85889 27.6087 7.69822 27.6233C7.53754 27.6379 7.44989 27.6525 7.39147 27.5502C7.33304 27.448 7.42068 27.4334 7.14314 27.3311C6.86561 27.2289 6.92404 27.1266 6.76336 27.0828C6.60268 27.039 6.57347 27.1266 6.36897 26.9952C6.16447 26.8637 5.91615 26.7615 5.8139 26.7176C5.71165 26.6738 5.50715 26.5278 5.68243 26.5278C5.85772 26.5278 5.98918 26.557 6.09143 26.5424C6.19368 26.5278 6.28132 26.5131 6.25211 26.4401C6.2229 26.3671 6.2375 26.294 6.10604 26.2502C5.97458 26.2064 5.8139 26.2064 5.94536 26.148C6.07683 26.0895 6.09143 26.1772 6.12065 26.0457C6.14986 25.9143 5.97458 25.812 6.2229 25.7974C6.47122 25.7828 6.52965 25.7974 6.51504 25.6951C6.50043 25.5929 6.50043 25.4906 6.33975 25.5345C6.17907 25.5783 5.85772 25.5199 5.68243 25.7244C5.50715 25.9289 5.4195 25.9289 5.47793 26.0311C5.53636 26.1334 5.6094 26.1918 5.6094 26.2502C5.6094 26.3086 5.49254 26.294 5.4049 26.3233C5.31725 26.3525 5.28804 26.4839 5.03972 26.4109C4.7914 26.3379 4.63072 26.3671 4.47004 26.3671C4.30936 26.3671 4.23633 26.3963 4.1779 26.3233C4.11947 26.2502 3.68126 26.1334 3.68126 26.1334C3.68126 26.1334 0.438477 29.7997 0.438477 35.1167C0.438477 40.4337 0.730619 38.9438 0.935119 39.2067C1.13962 39.4697 1.19805 39.7326 1.22726 39.8787C1.25648 40.0247 1.25648 39.9663 1.34412 40.2C1.43176 40.4337 1.46097 40.4629 1.5194 40.6967C1.57783 40.9304 1.54862 41.2225 1.7239 41.1933C1.89919 41.1641 2.01605 40.9158 2.01605 40.7843V40.5944C2.01605 40.5944 1.79694 40.4922 1.95762 40.4191C2.1183 40.3461 1.81155 40.2877 2.01605 40.2438C2.22055 40.2 2.30819 40.3607 2.3374 40.2C2.36662 40.0393 2.20594 39.7326 2.35201 39.8787C2.49808 40.0247 2.43965 40.0978 2.5419 40.1124C2.64415 40.127 2.80483 40.2 2.80483 40.0832C2.80483 39.9663 2.84865 39.9809 2.80483 39.8933C2.76101 39.8056 2.60033 39.8056 2.76101 39.7326C2.92169 39.6596 2.99472 39.7034 3.03854 39.5573C3.08237 39.4112 3.03854 39.309 3.14079 39.2652C3.24304 39.2213 3.27226 39.2652 3.33069 39.1191C3.38911 38.973 3.38911 38.8562 3.3599 38.6517C3.33069 38.4472 3.28686 38.4472 3.34529 38.3449C3.40372 38.2427 3.46215 38.1112 3.43294 38.0382C3.40372 37.9651 3.44754 37.9067 3.40372 37.7168C3.3599 37.5269 3.30147 37.3808 3.30147 37.3808C3.30147 37.3808 3.30147 37.4393 3.3599 37.3808C3.41833 37.3224 3.54979 37.2786 3.54979 37.1763C3.54979 37.0741 3.5644 37.0741 3.53519 36.9718C3.50597 36.8696 3.60822 36.7819 3.44754 36.7381C3.28686 36.6943 3.27226 36.8404 3.19922 36.6797C3.12619 36.519 3.05315 36.4752 3.12619 36.4168C3.19922 36.3583 3.18462 36.3437 3.30147 36.4022C3.41833 36.4606 3.71047 36.4898 3.7689 36.3729C3.82733 36.2561 3.88576 36.2707 3.88576 36.11C3.88576 35.9493 3.68126 35.8909 3.95879 35.7448C4.23633 35.5988 4.25094 35.6864 4.28015 35.4819C4.30936 35.2774 4.3824 35.1752 4.3824 35.1752C4.3824 35.1752 4.45543 35.2774 4.42622 35.4381C4.39701 35.5988 4.36779 35.5988 4.35318 35.7595C4.33858 35.9201 4.3824 35.9786 4.35318 36.1246C4.32397 36.2707 4.1779 36.4898 4.22172 36.6359C4.26554 36.7819 4.19251 36.7527 4.16329 36.8988C4.13408 37.0449 4.03183 37.3808 4.1779 37.3078C4.32397 37.2348 4.32397 37.2348 4.41161 37.1763C4.49926 37.1179 4.55768 37.1033 4.5869 37.1617C4.61611 37.2202 4.63072 37.2348 4.68915 37.1179C4.74758 37.0011 4.7914 37.0011 4.82061 36.8696C4.84983 36.7381 4.84983 36.6651 4.7914 36.5044C4.73297 36.3437 4.70376 36.2853 4.76218 36.1831C4.82061 36.0808 4.82061 36.2707 4.86443 35.8471C4.90826 35.4235 4.87904 35.3651 4.87904 35.2774C4.87904 35.1898 4.9959 34.9853 4.93747 34.6931C4.87904 34.401 4.76218 34.3864 4.87904 34.3426C4.9959 34.2987 5.02511 34.2257 5.12736 34.2841C5.22961 34.3426 5.27343 34.7077 5.25883 34.0796C5.24422 33.4515 5.2004 33.2616 5.18579 33.1594C5.17118 33.0571 5.28804 33.0717 5.14197 32.9841C4.9959 32.8965 5.01051 33.0571 4.95208 32.838C4.89365 32.6189 4.89365 32.6773 4.83522 32.5751C4.77679 32.4728 4.73297 32.356 4.64533 32.4582C4.55768 32.5605 4.52847 32.6335 4.52847 32.8818C4.52847 33.1302 4.29476 32.9841 4.55768 32.3852C4.82061 31.7863 4.74758 32.0346 4.86443 31.9032C4.98129 31.7717 5.02511 31.9908 5.18579 31.7279C5.34647 31.465 5.33186 31.4503 5.50715 31.4503C5.68243 31.4503 5.63861 31.5234 5.8139 31.4503C5.98918 31.3773 6.033 31.3919 6.06222 31.2459C6.09143 31.0998 6.06222 31.0706 6.28132 30.8369C6.50043 30.6031 6.86561 30.4425 6.86561 30.4425C6.86561 30.4425 6.89482 30.4571 6.61729 30.647C6.33975 30.8369 6.32515 30.8222 6.25211 31.0267C6.17907 31.2312 6.13525 31.3189 6.06222 31.4211C5.98918 31.5234 6.033 31.4065 5.88693 31.6548C5.74086 31.9032 5.69704 31.9908 5.69704 32.0785C5.69704 32.1661 5.56558 32.3122 5.74086 32.3268C5.91615 32.3414 5.95997 32.283 5.94536 32.3852C5.93075 32.4875 6.033 32.3998 6.17907 32.429C6.32515 32.4582 6.35436 32.4875 6.45661 32.4144C6.55886 32.3414 6.6319 32.356 6.67572 32.283C6.71954 32.2099 6.77797 32.429 6.77797 32.2099C6.77797 31.9908 6.77797 32.0054 6.73415 31.874C6.69032 31.7425 6.60268 31.7425 6.6319 31.6695C6.66111 31.5964 6.69032 31.7279 6.79257 31.5526C6.89482 31.3773 6.89482 31.2605 6.89482 31.2605C6.89482 31.2605 6.90943 31.0414 6.99707 30.9683C7.08472 30.8953 7.04089 30.8222 7.14314 30.9099C7.24539 30.9975 7.17236 30.9537 7.26 31.056C7.34764 31.1582 7.31843 31.1874 7.44989 31.1582C7.58136 31.129 7.59597 31.202 7.62518 31.056C7.65439 30.9099 7.669 30.8953 7.65439 30.72C7.63979 30.5447 7.55214 30.5155 7.65439 30.4425C7.75664 30.3694 7.65439 30.2672 7.82968 30.2672C8.00496 30.2672 8.26789 30.2087 8.26789 30.2087C8.26789 30.2087 8.41396 30.2087 8.39936 29.9166C8.38475 29.6245 8.25329 29.7559 8.37014 29.5952C8.487 29.4346 8.42857 29.4638 8.53082 29.3761C8.63307 29.2885 8.70611 29.5222 8.70611 29.2447C8.70611 28.9671 8.6915 29.1278 8.70611 28.9233C8.72071 28.7188 8.76453 28.5289 8.85218 28.6166C8.93982 28.7042 8.96904 28.6604 8.98364 28.7334C8.99825 28.8065 8.88139 28.9233 9.08589 28.8649C9.29039 28.8065 9.31961 28.7334 9.29039 28.8503C9.26118 28.9671 9.23196 29.0694 9.305 28.9964C9.37803 28.9233 9.33421 28.9671 9.42186 28.8941C9.5095 28.8211 9.55332 28.6312 9.64096 28.7188C9.72861 28.8065 9.59714 28.8795 9.55332 28.9817C9.5095 29.084 9.37803 29.0256 9.49489 29.1424C9.61175 29.2593 9.55332 29.157 9.67018 29.3031C9.78703 29.4492 9.42186 29.4492 9.86007 29.5076C10.2983 29.566 10.4151 29.6975 10.7219 29.6391C11.0286 29.5806 11.3646 29.2301 11.3354 29.0986C11.3062 28.9671 11.1163 28.6458 11.1163 28.6458L10.2252 28.2952ZM4.98129 26.9075C4.83522 26.8345 4.76218 26.8345 4.74758 26.7469C4.73297 26.6592 4.74758 26.5862 4.82061 26.6738C4.89365 26.7615 4.84983 26.7615 4.9959 26.7615C5.14197 26.7615 5.08354 26.7323 5.27343 26.7761C5.46333 26.8199 5.55097 26.8053 5.43411 26.8637C5.31725 26.9221 5.2004 26.7907 5.17118 26.966C5.14197 27.1412 5.15658 27.1851 5.08354 27.2143C5.01051 27.2435 5.05433 27.2873 4.95208 27.3896C4.84983 27.4918 4.90826 27.5356 4.77679 27.5356C4.64533 27.5356 4.55768 27.448 4.64533 27.4042C4.73297 27.3604 4.80601 27.3165 4.87904 27.2143C4.95208 27.112 4.98129 27.1412 5.02511 27.0244C5.06893 26.9075 5.06893 26.8783 5.06893 26.8783L4.98129 26.9075ZM4.41161 26.7907C4.39701 26.8929 4.45543 26.9221 4.3824 26.9806C4.30936 27.039 4.3824 27.0244 4.29476 27.0682C4.20711 27.112 4.06104 27.112 4.16329 27.1412C4.26554 27.1705 4.26554 27.2727 4.30936 27.1705C4.35318 27.0682 4.35318 27.1412 4.42622 27.0682C4.49926 26.9952 4.55768 27.1266 4.51386 26.9367C4.47004 26.7469 4.41161 26.7907 4.41161 26.7907ZM5.97458 27.0682C5.88693 27.1412 5.8285 27.1559 5.90154 27.1851C5.97458 27.2143 6.033 27.2143 6.033 27.2143C6.033 27.2143 6.13525 27.1705 6.09143 27.112C6.04761 27.0536 5.97458 27.0682 5.97458 27.0682ZM6.39818 27.2727C6.41279 27.3457 6.442 27.3457 6.442 27.3457C6.442 27.3457 6.52965 27.3311 6.50043 27.2727C6.47122 27.2143 6.39818 27.2727 6.39818 27.2727ZM9.14432 28.2806C9.18814 28.3829 9.26118 28.5289 9.26118 28.4413C9.26118 28.3536 9.305 28.3975 9.23196 28.3098C9.15893 28.2222 9.11511 28.1199 9.11511 28.1784C9.11511 28.2368 9.14432 28.2806 9.14432 28.2806ZM1.7093 39.8641C1.69469 39.8056 1.69469 39.7764 1.73851 39.7034C1.78233 39.6303 1.82615 39.6303 1.84076 39.5135C1.85537 39.3966 1.88458 39.4989 1.85537 39.5865C1.82615 39.6742 1.86997 39.7326 1.82615 39.8056C1.78233 39.8787 1.7093 39.8641 1.7093 39.8641ZM1.75312 38.8123C1.75312 38.8123 1.7239 38.6078 1.79694 38.6663C1.86997 38.7247 1.88458 38.7101 1.88458 38.7685C1.88458 38.8269 1.75312 38.8123 1.75312 38.8123Z" fill="white"/>
<path fill-rule="evenodd" clip-rule="evenodd" d="M2.77543 41.909C2.84846 42.0259 2.84846 42.1135 2.93611 42.245C3.02375 42.3764 3.05296 42.3618 3.11139 42.4349C3.16982 42.5079 3.15521 42.727 3.16982 42.5225C3.18443 42.318 3.09678 42.3034 3.18443 42.2596C3.27207 42.2158 3.28668 42.2888 3.3305 42.1573C3.37432 42.0259 3.43275 42.0405 3.38893 41.9236C3.34511 41.8068 3.30128 41.8214 3.34511 41.6461C3.38893 41.4708 3.37432 41.4708 3.44736 41.3832C3.52039 41.2955 3.60803 41.2517 3.65186 41.4124C3.69568 41.5731 3.71028 41.5146 3.7395 41.7191C3.76871 41.9236 3.71028 41.9382 3.76871 42.1135C3.82714 42.2888 3.72489 42.2596 3.87096 42.5079C4.01703 42.7562 4.17771 42.6832 4.19232 42.8439C4.20693 43.0045 4.29457 43.0484 4.23614 43.1944C4.17771 43.3405 4.1631 43.545 4.09007 43.7057C4.01703 43.8664 3.85635 43.7933 3.76871 43.8225C3.68107 43.8518 3.82714 43.8956 3.535 43.6619C3.24286 43.4282 2.93611 43.1214 2.79004 42.8439C2.64396 42.5663 2.54171 42.4495 2.32261 42.2596C2.1035 42.0697 1.97204 42.0405 2.05968 41.9236C2.14732 41.8068 2.08889 41.6461 2.308 41.6899C2.52711 41.7337 2.55632 41.7337 2.64396 41.7191C2.73161 41.7045 2.77543 41.909 2.77543 41.909Z" fill="white"/>
<path fill-rule="evenodd" clip-rule="evenodd" d="M4.92228 44.3485C4.89307 44.1148 4.77621 43.9979 4.92228 43.9979C5.06835 43.9979 5.15599 44.1001 5.14139 43.9395C5.12678 43.7788 5.06835 43.5305 5.12678 43.7204C5.18521 43.9103 5.09757 44.0709 5.24364 43.9979C5.38971 43.9249 5.31667 43.7642 5.43353 43.8956C5.55039 44.0271 5.47735 44.0125 5.60881 44.1001C5.74028 44.1878 5.91556 44.1294 5.94478 44.3046C5.97399 44.4799 5.93017 44.4945 5.97399 44.6552C6.01781 44.8159 5.7841 44.9474 6.03242 45.0204C6.28074 45.0934 6.32456 44.8889 6.41221 45.0934C6.49985 45.2979 6.48524 45.2541 6.55828 45.4586C6.63131 45.6631 6.55828 45.7507 6.79199 45.8384C7.02571 45.926 7.02571 45.8238 7.05492 45.9991C7.08413 46.1744 7.02571 46.189 7.14256 46.2036C7.25942 46.2182 7.33245 46.2912 7.33245 46.2912L7.4201 46.3642L7.50774 46.4811C7.50774 46.4811 7.56617 46.5395 7.56617 46.598C7.56617 46.6564 7.69763 46.7148 7.69763 46.7732C7.69763 46.8317 7.59538 46.8025 7.66842 46.9777C7.74145 47.153 7.65381 47.2553 7.72685 47.4014C7.79988 47.5474 7.77067 47.6497 7.74145 47.7957C7.71224 47.9418 7.59538 48.1609 7.12795 47.8542C6.66053 47.5474 6.70435 47.7519 6.48524 47.4014C6.26613 47.0508 6.35378 47.0508 6.17849 47.0508C6.00321 47.0508 6.29535 47.1092 5.84253 47.0508C5.38971 46.9924 5.09757 47.1969 5.11217 46.9339C5.12678 46.671 5.1706 46.7002 5.08296 46.598C4.99532 46.4957 5.1706 46.598 4.99532 46.335C4.82003 46.0721 4.79082 45.9991 4.79082 45.8092C4.79082 45.6193 4.84924 45.5462 4.7616 45.3125C4.67396 45.0788 4.67396 44.9912 4.65935 44.8597C4.64474 44.7283 4.58632 44.7283 4.71778 44.5968C4.84924 44.4653 4.92228 44.3485 4.92228 44.3485Z" fill="white"/>
</svg>
