<svg width="14" height="10" viewBox="0 0 14 10" fill="none" xmlns="http://www.w3.org/2000/svg">
<path d="M10.8182 0C9.73 0 9.06818 0.20625 8.68636 0.38125C8.19636 0.14375 7.63636 0 7 0C6.36364 0 5.80364 0.14375 5.31364 0.38125C4.93182 0.20625 4.27 0 3.18182 0C1.27273 0 0 5 0 6.25C0 6.76875 0.84 7.24375 1.99818 7.4375C2.40545 8.8375 4.32727 9.90625 6.68182 10V7.325C6.30636 7.09375 5.72727 6.675 5.72727 6.25C5.72727 5.625 7 5.625 7 5.625C7 5.625 8.27273 5.625 8.27273 6.25C8.27273 6.675 7.69364 7.09375 7.31818 7.325V10C9.67273 9.90625 11.5945 8.8375 12.0018 7.4375C13.16 7.24375 14 6.76875 14 6.25C14 5 12.7273 0 10.8182 0ZM2.00455 6.16875C1.68636 6.09375 1.43818 6.00625 1.27273 5.9375C1.43182 4.20625 2.67273 1.5 3.21364 1.25C3.55727 1.25 3.81818 1.2875 4.05364 1.31875C2.71727 2.7625 2.18909 5.025 2.00455 6.16875ZM5.09091 5C4.92213 5 4.76027 4.93415 4.64093 4.81694C4.52159 4.69973 4.45455 4.54076 4.45455 4.375C4.45455 4.0375 4.74091 3.75 5.09091 3.75C5.25968 3.75 5.42154 3.81585 5.54089 3.93306C5.66023 4.05027 5.72727 4.20924 5.72727 4.375C5.72727 4.725 5.44091 5 5.09091 5ZM8.90909 5C8.74032 5 8.57846 4.93415 8.45911 4.81694C8.33977 4.69973 8.27273 4.54076 8.27273 4.375C8.27273 4.0375 8.55909 3.75 8.90909 3.75C9.07786 3.75 9.23973 3.81585 9.35907 3.93306C9.47841 4.05027 9.54545 4.20924 9.54545 4.375C9.54545 4.725 9.25909 5 8.90909 5ZM11.9955 6.16875C11.8109 5.025 11.2827 2.7625 9.94636 1.31875C10.1818 1.2875 10.4427 1.25 10.7864 1.25C11.3273 1.5 12.5682 4.20625 12.7273 5.9375C12.5682 6.00625 12.32 6.09375 11.9955 6.16875Z" fill="#FFBE00"/>
</svg>
