<svg width="161" height="49" viewBox="0 0 161 49" fill="none" xmlns="http://www.w3.org/2000/svg">
<path d="M154.423 48.4116H5.93933C2.61331 48.4116 0 45.7983 0 42.4723V6.8363C0 3.51028 2.61331 0.896973 5.93933 0.896973H154.423C157.749 0.896973 160.362 3.51028 160.362 6.8363V42.4723C160.362 45.7983 157.749 48.4116 154.423 48.4116Z" fill="black"/>
<path d="M154.423 1.84727C157.155 1.84727 159.412 4.10421 159.412 6.8363V42.4723C159.412 45.2044 157.155 47.4613 154.423 47.4613H5.93933C3.20724 47.4613 0.950293 45.2044 0.950293 42.4723V6.8363C0.950293 4.10421 3.20724 1.84727 5.93933 1.84727H154.423ZM154.423 0.896973H5.93933C2.61331 0.896973 0 3.62907 0 6.8363V42.4723C0 45.7983 2.61331 48.4116 5.93933 48.4116H154.423C157.749 48.4116 160.362 45.7983 160.362 42.4723V6.8363C160.362 3.62907 157.749 0.896973 154.423 0.896973Z" fill="#A6A6A6"/>
<path d="M56.3049 13.0135C56.3049 13.9638 56.0674 14.7953 55.4734 15.3892C54.7607 16.1019 53.9292 16.4583 52.8601 16.4583C51.791 16.4583 50.9595 16.1019 50.2468 15.3892C49.5341 14.6765 49.1777 13.845 49.1777 12.7759C49.1777 11.7068 49.5341 10.8753 50.2468 10.1626C50.9595 9.44987 51.791 9.09351 52.8601 9.09351C53.3353 9.09351 53.8104 9.21229 54.2856 9.44987C54.7607 9.68744 55.1171 9.92501 55.3546 10.2814L54.7607 10.8753C54.2856 10.2814 53.6916 10.0438 52.8601 10.0438C52.1474 10.0438 51.4347 10.2814 50.9595 10.8753C50.3656 11.3505 50.128 12.0632 50.128 12.8947C50.128 13.7262 50.3656 14.4389 50.9595 14.9141C51.5535 15.3892 52.1474 15.7456 52.8601 15.7456C53.6916 15.7456 54.2856 15.508 54.8795 14.9141C55.2359 14.5577 55.4734 14.0825 55.4734 13.4886H52.8601V12.5383H56.3049V13.0135ZM61.7691 10.0438H58.5619V12.3007H61.5315V13.1323H58.5619V15.3892H61.7691V16.3395H57.6116V9.21229H61.7691V10.0438ZM65.6891 16.3395H64.7388V10.0438H62.7194V9.21229H67.7085V10.0438H65.6891V16.3395ZM71.1533 16.3395V9.21229H72.1036V16.3395H71.1533ZM76.1423 16.3395H75.192V10.0438H73.1726V9.21229H78.0429V10.0438H76.0235L76.1423 16.3395ZM87.427 15.3892C86.7143 16.1019 85.8828 16.4583 84.8137 16.4583C83.7447 16.4583 82.9131 16.1019 82.2004 15.3892C81.4877 14.6765 81.1313 13.845 81.1313 12.7759C81.1313 11.7068 81.4877 10.8753 82.2004 10.1626C82.9131 9.44987 83.7447 9.09351 84.8137 9.09351C85.8828 9.09351 86.7143 9.44987 87.427 10.1626C88.1398 10.8753 88.4961 11.7068 88.4961 12.7759C88.4961 13.845 88.1398 14.6765 87.427 15.3892ZM82.9132 14.7953C83.3883 15.2704 84.101 15.6268 84.8137 15.6268C85.5265 15.6268 86.2392 15.3892 86.7143 14.7953C87.1895 14.3201 87.5458 13.6074 87.5458 12.7759C87.5458 11.9444 87.3083 11.2317 86.7143 10.7565C86.2392 10.2814 85.5265 9.92501 84.8137 9.92501C84.101 9.92501 83.3883 10.1626 82.9132 10.7565C82.438 11.2317 82.0816 11.9444 82.0816 12.7759C82.0816 13.6074 82.3192 14.3201 82.9132 14.7953ZM89.8028 16.3395V9.21229H90.8719L94.3167 14.7953V9.21229H95.267V16.3395H94.3167L90.6343 10.5189V16.3395H89.8028Z" fill="white" stroke="white" stroke-width="0.2" stroke-miterlimit="10"/>
<path d="M80.8937 26.7922C78.0428 26.7922 75.7859 28.9304 75.7859 31.9C75.7859 34.7509 78.0428 37.0079 80.8937 37.0079C83.7446 37.0079 86.0015 34.8697 86.0015 31.9C86.0015 28.8116 83.7446 26.7922 80.8937 26.7922ZM80.8937 34.8697C79.3495 34.8697 78.0428 33.563 78.0428 31.7812C78.0428 29.9994 79.3495 28.6928 80.8937 28.6928C82.4379 28.6928 83.7446 29.8807 83.7446 31.7812C83.7446 33.563 82.4379 34.8697 80.8937 34.8697ZM69.8465 26.7922C66.9956 26.7922 64.7387 28.9304 64.7387 31.9C64.7387 34.7509 66.9956 37.0079 69.8465 37.0079C72.6974 37.0079 74.9544 34.8697 74.9544 31.9C74.9544 28.8116 72.6974 26.7922 69.8465 26.7922ZM69.8465 34.8697C68.3023 34.8697 66.9957 33.563 66.9957 31.7812C66.9957 29.9994 68.3023 28.6928 69.8465 28.6928C71.3908 28.6928 72.6974 29.8807 72.6974 31.7812C72.6974 33.563 71.3908 34.8697 69.8465 34.8697ZM56.6612 28.3364V30.4746H61.769C61.6502 31.6625 61.1751 32.6127 60.5812 33.2067C59.8685 33.9194 58.6806 34.7509 56.6612 34.7509C53.454 34.7509 51.0782 32.2564 51.0782 29.0491C51.0782 25.8419 53.5728 23.3474 56.6612 23.3474C58.3242 23.3474 59.6309 24.0601 60.5812 24.8916L62.1254 23.3474C60.8187 22.1595 59.1557 21.2092 56.78 21.2092C52.5037 21.2092 48.8213 24.7728 48.8213 29.0491C48.8213 33.3255 52.5037 36.8891 56.78 36.8891C59.1557 36.8891 60.8187 36.1763 62.2442 34.6321C63.6696 33.2067 64.1448 31.1873 64.1448 29.6431C64.1448 29.1679 64.1448 28.6928 64.026 28.3364H56.6612ZM110.59 29.9994C110.115 28.8116 108.927 26.7922 106.314 26.7922C103.701 26.7922 101.563 28.8116 101.563 31.9C101.563 34.7509 103.701 37.0079 106.552 37.0079C108.809 37.0079 110.234 35.5824 110.709 34.7509L109.046 33.563C108.452 34.3945 107.739 34.9885 106.552 34.9885C105.364 34.9885 104.651 34.5133 104.057 33.4443L110.828 30.5934L110.59 29.9994ZM103.701 31.6625C103.701 29.7619 105.245 28.6928 106.314 28.6928C107.146 28.6928 107.977 29.1679 108.215 29.7619L103.701 31.6625ZM98.1178 36.5327H100.375V21.6844H98.1178V36.5327ZM94.5542 27.8613C93.9602 27.2673 93.0099 26.6734 91.8221 26.6734C89.3275 26.6734 86.9518 28.9304 86.9518 31.7812C86.9518 34.6321 89.2088 36.7703 91.8221 36.7703C93.0099 36.7703 93.9602 36.1763 94.4354 35.5824H94.5542V36.2951C94.5542 38.1957 93.4851 39.2648 91.8221 39.2648C90.5154 39.2648 89.5651 38.3145 89.3275 37.483L87.427 38.3145C88.0209 39.6212 89.4463 41.2842 91.9408 41.2842C94.5542 41.2842 96.6923 39.7399 96.6923 36.0576V27.0298H94.5542V27.8613ZM91.9408 34.8697C90.3966 34.8697 89.09 33.563 89.09 31.7812C89.09 29.9994 90.3966 28.6928 91.9408 28.6928C93.4851 28.6928 94.6729 29.9994 94.6729 31.7812C94.6729 33.563 93.4851 34.8697 91.9408 34.8697ZM120.925 21.6844H115.579V36.5327H117.836V30.9497H120.925C123.419 30.9497 125.795 29.1679 125.795 26.3171C125.795 23.4662 123.419 21.6844 120.925 21.6844ZM121.044 28.8116H117.836V23.7037H121.044C122.707 23.7037 123.657 25.1292 123.657 26.1983C123.538 27.5049 122.588 28.8116 121.044 28.8116ZM134.704 26.6734C133.041 26.6734 131.378 27.3861 130.784 28.9304L132.803 29.7619C133.279 28.9304 133.991 28.6928 134.823 28.6928C136.011 28.6928 137.08 29.4055 137.199 30.5934V30.7122C136.842 30.4746 135.892 30.1182 134.942 30.1182C132.803 30.1182 130.665 31.3061 130.665 33.4443C130.665 35.4636 132.447 36.7703 134.348 36.7703C135.892 36.7703 136.605 36.0576 137.199 35.3448H137.317V36.5327H139.456V30.8309C139.218 28.2176 137.199 26.6734 134.704 26.6734ZM134.466 34.8697C133.754 34.8697 132.685 34.5133 132.685 33.563C132.685 32.3752 133.991 32.0188 135.06 32.0188C136.011 32.0188 136.486 32.2564 137.08 32.494C136.842 33.9194 135.654 34.8697 134.466 34.8697ZM146.939 27.0298L144.445 33.4443H144.326L141.712 27.0298H139.337L143.257 36.0576L141 41.0466H143.257L149.315 27.0298H146.939ZM126.983 36.5327H129.24V21.6844H126.983V36.5327Z" fill="white"/>
<path d="M12.3541 9.80591C11.9977 10.1623 11.8789 10.7562 11.8789 11.4689V37.7208C11.8789 38.4335 12.1165 39.0274 12.4728 39.3838L12.5916 39.5026L27.3212 24.773V24.5355L12.3541 9.80591Z" fill="url(#paint0_linear_48_95)"/>
<path d="M32.0724 29.7619L27.2021 24.8917V24.5353L32.0724 19.665L32.1912 19.7838L38.0117 23.1099C39.6747 24.0601 39.6747 25.6044 38.0117 26.5547L32.0724 29.7619Z" fill="url(#paint1_linear_48_95)"/>
<path d="M32.1909 29.6433L27.2018 24.6543L12.3535 39.5026C12.9474 40.0966 13.779 40.0966 14.848 39.6214L32.1909 29.6433Z" fill="url(#paint2_linear_48_95)"/>
<path d="M32.1909 19.666L14.848 9.80674C13.779 9.21281 12.9474 9.33159 12.3535 9.92553L27.2018 24.6551L32.1909 19.666Z" fill="url(#paint3_linear_48_95)"/>
<path opacity="0.2" d="M32.0721 29.5242L14.848 39.2647C13.8977 39.8586 13.0662 39.7398 12.4723 39.2647L12.3535 39.3835L12.4723 39.5022C13.0662 39.9774 13.8977 40.0962 14.848 39.5022L32.0721 29.5242Z" fill="black"/>
<path opacity="0.12" d="M12.3541 39.2651C11.9977 38.9087 11.8789 38.3148 11.8789 37.602V37.7208C11.8789 38.4335 12.1165 39.0275 12.4728 39.3838V39.2651H12.3541ZM38.012 26.1985L32.0726 29.5246L32.1914 29.6433L38.012 26.3173C38.8435 25.8422 39.1998 25.2482 39.1998 24.6543C39.1998 25.2482 38.7247 25.7234 38.012 26.1985Z" fill="black"/>
<path opacity="0.25" d="M14.8486 9.924L38.012 23.1093C38.7247 23.5845 39.1998 24.0596 39.1998 24.6535C39.1998 24.0596 38.8435 23.4657 38.012 22.9905L14.8486 9.924C13.1856 8.85492 11.8789 9.56764 11.8789 11.4682V11.587C11.8789 9.80521 13.1856 8.97371 14.8486 9.924Z" fill="white"/>
<defs>
<linearGradient id="paint0_linear_48_95" x1="25.8898" y1="11.2373" x2="5.95383" y2="31.1721" gradientUnits="userSpaceOnUse">
<stop stop-color="#00A0FF"/>
<stop offset="0.007" stop-color="#00A1FF"/>
<stop offset="0.26" stop-color="#00BEFF"/>
<stop offset="0.512" stop-color="#00D2FF"/>
<stop offset="0.76" stop-color="#00DFFF"/>
<stop offset="1" stop-color="#00E3FF"/>
</linearGradient>
<linearGradient id="paint1_linear_48_95" x1="40.1903" y1="24.7135" x2="11.4475" y2="24.7135" gradientUnits="userSpaceOnUse">
<stop stop-color="#FFE000"/>
<stop offset="0.409" stop-color="#FFBD00"/>
<stop offset="0.775" stop-color="#FFA500"/>
<stop offset="1" stop-color="#FF9C00"/>
</linearGradient>
<linearGradient id="paint2_linear_48_95" x1="29.4778" y1="27.3686" x2="2.44433" y2="54.402" gradientUnits="userSpaceOnUse">
<stop stop-color="#FF3A44"/>
<stop offset="1" stop-color="#C31162"/>
</linearGradient>
<linearGradient id="paint3_linear_48_95" x1="8.6248" y1="1.14957" x2="20.6971" y2="13.2219" gradientUnits="userSpaceOnUse">
<stop stop-color="#32A071"/>
<stop offset="0.069" stop-color="#2DA771"/>
<stop offset="0.476" stop-color="#15CF74"/>
<stop offset="0.801" stop-color="#06E775"/>
<stop offset="1" stop-color="#00F076"/>
</linearGradient>
</defs>
</svg>
