<svg width="45" height="45" viewBox="0 0 45 45" fill="none" xmlns="http://www.w3.org/2000/svg">
<path fill-rule="evenodd" clip-rule="evenodd" d="M45 22.5C45 16.5326 42.6295 10.8097 38.4099 6.5901C34.1903 2.37053 28.4674 0 22.5 0C16.5326 0 10.8097 2.37053 6.5901 6.5901C2.37053 10.8097 0 16.5326 0 22.5C0 28.4674 2.37053 34.1903 6.5901 38.4099C10.8097 42.6295 16.5326 45 22.5 45C28.4674 45 34.1903 42.6295 38.4099 38.4099C42.6295 34.1903 45 28.4674 45 22.5ZM15 15H12V30H15V15ZM30.756 15.198C30.9841 15.0677 31.2424 14.9996 31.5051 15.0005C31.7677 15.0014 32.0256 15.0712 32.2528 15.2031C32.48 15.3349 32.6686 15.5241 32.7997 15.7517C32.9309 15.9793 32.9999 16.2373 33 16.5V28.5C32.9999 28.7627 32.9309 29.0207 32.7997 29.2483C32.6686 29.4759 32.48 29.6651 32.2528 29.7969C32.0256 29.9288 31.7677 29.9986 31.5051 29.9995C31.2424 30.0004 30.9841 29.9323 30.756 29.802L20.256 23.802C20.0266 23.6708 19.8359 23.4812 19.7033 23.2526C19.5707 23.0239 19.5008 22.7643 19.5008 22.5C19.5008 22.2357 19.5707 21.9761 19.7033 21.7474C19.8359 21.5188 20.0266 21.3292 20.256 21.198L30.756 15.198Z" fill="white"/>
</svg>
