<svg width="18" height="16" viewBox="0 0 18 16" fill="none" xmlns="http://www.w3.org/2000/svg">
<path d="M3.00251 16C2.20619 16 1.44249 15.6915 0.879415 15.1424C0.316335 14.5934 0 13.8486 0 13.0721C0 12.2956 0.316335 11.5509 0.879415 11.0018C1.44249 10.4527 2.20619 10.1442 3.00251 10.1442C3.79882 10.1442 4.56252 10.4527 5.1256 11.0018C5.68868 11.5509 6.00502 12.2956 6.00502 13.0721C6.00502 13.8486 5.68868 14.5934 5.1256 15.1424C4.56252 15.6915 3.79882 16 3.00251 16ZM17.6127 11.6074L11.6077 1.46452C11.2095 0.791856 10.5537 0.300979 9.78436 0.0998772C9.01505 -0.101225 8.19533 0.00391988 7.50552 0.392181C6.81571 0.780443 6.31233 1.42002 6.1061 2.1702C5.89987 2.92039 6.0077 3.71974 6.40585 4.3924L12.4116 14.5353C12.8143 15.1993 13.4693 15.6816 14.2344 15.8774C14.9995 16.0732 15.813 15.9667 16.4981 15.5811C17.1832 15.1955 17.6846 14.5619 17.8934 13.8179C18.1023 13.0738 18.0009 12.2795 17.6127 11.6074ZM5.64021 2.76157L1.17398 10.3038C1.7191 9.96106 2.3539 9.7786 3.00251 9.77825C4.92412 9.77239 6.47416 11.3578 6.37583 13.2295L8.7906 9.15022L6.08083 4.5754C5.75631 4.02539 5.60319 3.39509 5.64021 2.76157Z" fill="white"/>
</svg>
