<svg width="18" height="18" viewBox="0 0 18 18" fill="none" xmlns="http://www.w3.org/2000/svg">
<path fill-rule="evenodd" clip-rule="evenodd" d="M8.5 -0.000244141H0V5.99976H8.5V-0.000244141ZM4.25 4.99976C4.38261 4.99976 4.50979 4.94708 4.60355 4.85331C4.69732 4.75954 4.75 4.63236 4.75 4.49976C4.75 4.36715 4.69732 4.23997 4.60355 4.1462C4.50979 4.05243 4.38261 3.99976 4.25 3.99976C4.11739 3.99976 3.99021 4.05243 3.89645 4.1462C3.80268 4.23997 3.75 4.36715 3.75 4.49976C3.75 4.63236 3.80268 4.75954 3.89645 4.85331C3.99021 4.94708 4.11739 4.99976 4.25 4.99976ZM3.75 1.49976C3.75 1.36715 3.80268 1.23997 3.89645 1.1462C3.99021 1.05243 4.11739 0.999756 4.25 0.999756C4.38261 0.999756 4.50979 1.05243 4.60355 1.1462C4.69732 1.23997 4.75 1.36715 4.75 1.49976V2.99976C4.75 3.13236 4.69732 3.25954 4.60355 3.35331C4.50979 3.44708 4.38261 3.49976 4.25 3.49976C4.11739 3.49976 3.99021 3.44708 3.89645 3.35331C3.80268 3.25954 3.75 3.13236 3.75 2.99976V1.49976ZM18 -0.000244141H9.5V5.99976H18V-0.000244141ZM17.1035 1.60326L14.25 4.45676L13 3.20676L11.8535 4.35326L11.1465 3.64626L13 1.79276L14.25 3.04276L16.3965 0.896256L17.1035 1.60326ZM0 12.9998V6.99976H8.5V9.04125C8.06852 9.11419 7.65822 9.2806 7.29784 9.52883C6.93746 9.77706 6.63573 10.1011 6.41379 10.4782C6.19185 10.8554 6.05507 11.2765 6.01304 11.7121C5.97102 12.1476 6.02476 12.5871 6.1705 12.9998H0ZM1.5 9.49975V8.49975H2.5V9.49975H1.5ZM1.5 10.4998V11.4998H2.5V10.4998H1.5ZM3.5 9.49975V8.49975H4.5V9.49975H3.5ZM3.5 10.4998V11.4998H4.5V10.4998H3.5ZM5.5 9.49975V8.49975H6.5V9.49975H5.5ZM12 11.9998C12.0003 12.3404 11.9427 12.6785 11.8295 12.9998H18V6.99976H9.5V9.04125C10.919 9.27926 12 10.5133 12 11.9998ZM13 9.49975H16.5C16.6326 9.49975 16.7598 9.44708 16.8536 9.35331C16.9473 9.25954 17 9.13236 17 8.99975C17 8.86715 16.9473 8.73997 16.8536 8.6462C16.7598 8.55243 16.6326 8.49975 16.5 8.49975H13C12.8674 8.49975 12.7402 8.55243 12.6464 8.6462C12.5527 8.73997 12.5 8.86715 12.5 8.99975C12.5 9.13236 12.5527 9.25954 12.6464 9.35331C12.7402 9.44708 12.8674 9.49975 13 9.49975ZM13 10.9998C13 11.1324 13.0527 11.2595 13.1464 11.3533C13.2402 11.4471 13.3674 11.4998 13.5 11.4998H16.5C16.6326 11.4998 16.7598 11.4471 16.8536 11.3533C16.9473 11.2595 17 11.1324 17 10.9998C17 10.8671 16.9473 10.74 16.8536 10.6462C16.7598 10.5524 16.6326 10.4998 16.5 10.4998H13.5C13.3674 10.4998 13.2402 10.5524 13.1464 10.6462C13.0527 10.74 13 10.8671 13 10.9998Z" fill="white"/>
<path d="M11 12.0002C11 12.5307 10.7893 13.0394 10.4142 13.4145C10.0391 13.7895 9.53043 14.0002 9 14.0002C8.46957 14.0002 7.96086 13.7895 7.58579 13.4145C7.21071 13.0394 7 12.5307 7 12.0002C7 11.4698 7.21071 10.9611 7.58579 10.586C7.96086 10.211 8.46957 10.0002 9 10.0002C9.53043 10.0002 10.0391 10.211 10.4142 10.586C10.7893 10.9611 11 11.4698 11 12.0002ZM9 14.5002C8.22348 14.51 7.4503 14.6039 6.694 14.7802C6.312 14.8727 5.9335 14.9962 5.6385 15.1612C5.3805 15.3057 5 15.5877 5 16.0612V18.0002H13V16.0607C13 15.5877 12.6195 15.3057 12.3615 15.1607C12.0665 14.9962 11.688 14.8727 11.306 14.7802C10.5497 14.6039 9.77652 14.51 9 14.5002Z" fill="white"/>
</svg>
