<svg width="14" height="14" viewBox="0 0 14 14" fill="none" xmlns="http://www.w3.org/2000/svg">
<path d="M10.1111 9.33206C11.1269 9.33206 11.9918 9.98142 12.3122 10.8874H13.2222C13.4285 10.8874 13.6263 10.9693 13.7722 11.1152C13.9181 11.261 14 11.4588 14 11.6651C14 11.8713 13.9181 12.0691 13.7722 12.215C13.6263 12.3608 13.4285 12.4427 13.2222 12.4427H12.3122C12.1515 12.8981 11.8535 13.2924 11.4593 13.5713C11.0651 13.8502 10.594 14 10.1111 14C9.62818 14 9.15714 13.8502 8.76291 13.5713C8.36869 13.2924 8.07069 12.8981 7.91 12.4427H0.777778C0.571498 12.4427 0.373667 12.3608 0.227806 12.215C0.0819442 12.0691 0 11.8713 0 11.6651C0 11.4588 0.0819442 11.261 0.227806 11.1152C0.373667 10.9693 0.571498 10.8874 0.777778 10.8874H7.91C8.07101 10.4324 8.36914 10.0385 8.76334 9.75997C9.15754 9.48142 9.62841 9.33192 10.1111 9.33206ZM3.88889 4.66603C4.34699 4.66597 4.79498 4.80074 5.17699 5.05354C5.55901 5.30633 5.85815 5.66597 6.03711 6.08762L6.08922 6.22137H13.2222C13.4205 6.22159 13.6111 6.29749 13.7553 6.43356C13.8994 6.56963 13.9862 6.7556 13.9978 6.95347C14.0094 7.15134 13.945 7.34618 13.8178 7.49818C13.6906 7.65018 13.5101 7.74786 13.3132 7.77128L13.2222 7.77672H6.09C5.9332 8.22021 5.64602 8.60598 5.26612 8.88344C4.88623 9.1609 4.43134 9.3171 3.96111 9.33157C3.49087 9.34603 3.02725 9.21807 2.63101 8.96448C2.23478 8.71089 1.92443 8.3435 1.74067 7.91048L1.68778 7.77672H0.777778C0.579538 7.7765 0.388864 7.7006 0.244714 7.56453C0.100563 7.42846 0.0138172 7.24249 0.00219946 7.04462C-0.0094183 6.84675 0.0549691 6.65191 0.182206 6.49991C0.309443 6.34791 0.489925 6.25023 0.686778 6.22682L0.777778 6.22137H1.68778C1.84879 5.76638 2.14692 5.37248 2.54112 5.09394C2.93531 4.81539 3.40619 4.66589 3.88889 4.66603ZM10.1111 9.71823e-08C11.1269 9.71823e-08 11.9918 0.649356 12.3122 1.55534H13.2222C13.4285 1.55534 13.6263 1.63728 13.7722 1.78312C13.9181 1.92896 14 2.12676 14 2.33302C14 2.53927 13.9181 2.73707 13.7722 2.88291C13.6263 3.02875 13.4285 3.11069 13.2222 3.11069H12.3122C12.1515 3.56604 11.8535 3.96035 11.4593 4.23925C11.0651 4.51816 10.594 4.66794 10.1111 4.66794C9.62818 4.66794 9.15714 4.51816 8.76291 4.23925C8.36869 3.96035 8.07069 3.56604 7.91 3.11069H0.777778C0.571498 3.11069 0.373667 3.02875 0.227806 2.88291C0.0819442 2.73707 0 2.53927 0 2.33302C0 2.12676 0.0819442 1.92896 0.227806 1.78312C0.373667 1.63728 0.571498 1.55534 0.777778 1.55534H7.91C8.07101 1.10035 8.36914 0.706453 8.76334 0.427906C9.15754 0.149359 9.62841 -0.000139147 10.1111 9.71823e-08Z" fill="#FFBE00"/>
</svg>
