<svg width="18" height="18" viewBox="0 0 18 18" fill="none" xmlns="http://www.w3.org/2000/svg">
<path d="M13 11.9988C14.306 11.9988 15.418 12.8338 15.83 13.9988H17C17.2652 13.9988 17.5196 14.1041 17.7071 14.2917C17.8946 14.4792 18 14.7336 18 14.9988C18 15.264 17.8946 15.5184 17.7071 15.7059C17.5196 15.8934 17.2652 15.9988 17 15.9988H15.83C15.6234 16.5843 15.2403 17.0913 14.7334 17.45C14.2265 17.8086 13.6209 18.0012 13 18.0012C12.3791 18.0012 11.7735 17.8086 11.2666 17.45C10.7597 17.0913 10.3766 16.5843 10.17 15.9988H1C0.734784 15.9988 0.48043 15.8934 0.292893 15.7059C0.105357 15.5184 0 15.264 0 14.9988C0 14.7336 0.105357 14.4792 0.292893 14.2917C0.48043 14.1041 0.734784 13.9988 1 13.9988H10.17C10.377 13.4137 10.7603 12.9072 11.2671 12.549C11.774 12.1908 12.3794 11.9986 13 11.9988ZM5 5.99878C5.58899 5.9987 6.16497 6.172 6.65613 6.49707C7.14729 6.82214 7.5319 7.2846 7.762 7.82678L7.829 7.99878H17C17.2549 7.99906 17.5 8.09666 17.6854 8.27163C17.8707 8.4466 17.9822 8.68573 17.9972 8.94017C18.0121 9.19462 17.9293 9.44516 17.7657 9.64061C17.6021 9.83606 17.3701 9.96168 17.117 9.99178L17 9.99878H7.83C7.6284 10.5691 7.25917 11.0651 6.77073 11.4219C6.28229 11.7787 5.69744 11.9795 5.09285 11.9981C4.48827 12.0167 3.89217 11.8522 3.38273 11.5261C2.87328 11.2 2.47427 10.7276 2.238 10.1708L2.17 9.99878H1C0.74512 9.9985 0.499968 9.9009 0.314632 9.72593C0.129296 9.55096 0.017765 9.31183 0.00282788 9.05738C-0.0121092 8.80294 0.0706746 8.5524 0.234265 8.35695C0.397855 8.16149 0.629904 8.03588 0.883 8.00578L1 7.99878H2.17C2.37701 7.4137 2.76032 6.9072 3.26715 6.54902C3.77397 6.19084 4.37938 5.9986 5 5.99878ZM13 -0.00122058C14.306 -0.00122058 15.418 0.83378 15.83 1.99878H17C17.2652 1.99878 17.5196 2.10414 17.7071 2.29167C17.8946 2.47921 18 2.73356 18 2.99878C18 3.264 17.8946 3.51835 17.7071 3.70589C17.5196 3.89342 17.2652 3.99878 17 3.99878H15.83C15.6234 4.58431 15.2403 5.09135 14.7334 5.44999C14.2265 5.80863 13.6209 6.00123 13 6.00123C12.3791 6.00123 11.7735 5.80863 11.2666 5.44999C10.7597 5.09135 10.3766 4.58431 10.17 3.99878H1C0.734784 3.99878 0.48043 3.89342 0.292893 3.70589C0.105357 3.51835 0 3.264 0 2.99878C0 2.73356 0.105357 2.47921 0.292893 2.29167C0.48043 2.10414 0.734784 1.99878 1 1.99878H10.17C10.377 1.4137 10.7603 0.9072 11.2671 0.549019C11.774 0.190838 12.3794 -0.00139963 13 -0.00122058Z" fill="white"/>
</svg>
