<svg width="19" height="20" viewBox="0 0 19 20" fill="none" xmlns="http://www.w3.org/2000/svg">
<path d="M17.4791 7.2607C16.7456 7.59697 15.9268 7.70072 15.1326 7.55804C14.3384 7.41535 13.607 7.03306 13.0364 6.46251C12.4659 5.89196 12.0836 5.16048 11.9409 4.36632C11.7982 3.57215 11.902 2.75334 12.2382 2.01987C10.426 1.39324 8.45483 1.39962 6.64668 2.03794C4.83853 2.67627 3.30025 3.90883 2.28307 5.53431C1.26589 7.1598 0.829924 9.08216 1.04638 10.9874C1.26283 12.8927 2.11891 14.6682 3.4748 16.0241C4.83068 17.38 6.60625 18.2361 8.51151 18.4526C10.4168 18.669 12.3391 18.233 13.9646 17.2159C15.5901 16.1987 16.8227 14.6604 17.461 12.8523C18.0993 11.0441 18.1057 9.07294 17.4791 7.2607ZM9.38295 15.1774C9.21071 15.1774 9.04235 15.1263 8.89914 15.0306C8.75593 14.9349 8.64431 14.7989 8.5784 14.6398C8.51249 14.4807 8.49524 14.3056 8.52885 14.1366C8.56245 13.9677 8.64539 13.8126 8.76717 13.6908C8.88896 13.569 9.04413 13.486 9.21306 13.4524C9.38198 13.4188 9.55708 13.4361 9.7162 13.502C9.87532 13.5679 10.0113 13.6795 10.107 13.8227C10.2027 13.9659 10.2538 14.1343 10.2538 14.3065C10.2566 14.4227 10.2362 14.5382 10.1937 14.6463C10.1511 14.7544 10.0875 14.8529 10.0063 14.936C9.92516 15.0191 9.8282 15.0852 9.72115 15.1302C9.61409 15.1753 9.4991 15.1985 9.38295 15.1985V15.1774ZM10.106 10.9235V11.8313C10.1049 12.0159 10.0332 12.1931 9.90564 12.3265C9.77807 12.46 9.60427 12.5396 9.41989 12.549H9.36184C9.26852 12.5526 9.17542 12.5376 9.08793 12.5049C9.00043 12.4723 8.92027 12.4226 8.85207 12.3588C8.78386 12.2951 8.72896 12.2184 8.69055 12.1333C8.65213 12.0482 8.63095 11.9563 8.62822 11.8629V10.4063C8.61952 10.3216 8.6281 10.2361 8.65344 10.1549C8.67878 10.0737 8.72034 9.99854 8.77562 9.93389C8.83089 9.86924 8.89872 9.81649 8.975 9.77884C9.05127 9.74119 9.1344 9.71943 9.21933 9.71487C10.0479 9.65154 11.4254 9.34543 11.4254 7.99959C11.4254 7.03376 10.6813 6.37931 9.61517 6.37931C9.21102 6.38599 8.8131 6.48 8.4487 6.65491C8.0843 6.82983 7.76205 7.08149 7.50406 7.39265C7.40648 7.49633 7.28028 7.56865 7.14149 7.60041C7.0027 7.63217 6.8576 7.62194 6.72465 7.57102C6.59169 7.5201 6.47688 7.43079 6.39481 7.31445C6.31275 7.19811 6.26714 7.05998 6.26378 6.91765C6.26689 6.71868 6.34846 6.529 6.49072 6.38987C6.88267 5.93611 7.36935 5.57382 7.91648 5.32852C8.4636 5.08323 9.05786 4.9609 9.65739 4.97015C11.6102 4.97015 12.9718 6.18404 12.9718 7.9257C12.9718 9.55654 11.9321 10.6332 10.106 10.9446V10.9235Z" fill="white"/>
<path d="M15.8342 6.30506C17.2916 6.30506 18.4731 5.12359 18.4731 3.66617C18.4731 2.20875 17.2916 1.02728 15.8342 1.02728C14.3768 1.02728 13.1953 2.20875 13.1953 3.66617C13.1953 5.12359 14.3768 6.30506 15.8342 6.30506Z" fill="white"/>
</svg>
