<svg width="14" height="14" viewBox="0 0 14 14" fill="none" xmlns="http://www.w3.org/2000/svg">
<path d="M13.475 3.84992C13.6019 3.84992 13.7244 3.89587 13.8201 3.97926C13.9157 4.06265 13.9778 4.17784 13.9951 4.30353L14 4.37493V10.3251C14 10.9062 13.7777 11.4653 13.3786 11.8877C12.9795 12.3101 12.434 12.5638 11.8538 12.5967L11.725 12.6002H2.8427L3.3467 13.1042C3.43551 13.1931 3.48944 13.311 3.49869 13.4364C3.50794 13.5618 3.47189 13.6863 3.3971 13.7874L3.346 13.8462C3.25711 13.9351 3.13926 13.9892 3.01388 13.9985C2.88851 14.0079 2.76393 13.972 2.6628 13.8973L2.604 13.8462L1.204 12.4461L1.1592 12.3957L1.1543 12.3887L1.204 12.4461C1.12386 12.3658 1.07118 12.2617 1.05516 12.1494C1.03913 12.0371 1.05992 11.9226 1.1144 11.8231C1.13883 11.7796 1.16897 11.7396 1.204 11.7041L2.604 10.3041C2.6978 10.211 2.82325 10.1567 2.9553 10.1521C3.08736 10.1474 3.21631 10.1928 3.31643 10.279C3.41654 10.3652 3.48045 10.4861 3.49541 10.6174C3.51036 10.7487 3.47526 10.8808 3.3971 10.9873L3.346 11.0461L2.842 11.5501H11.725C12.0325 11.5501 12.3288 11.4344 12.555 11.226C12.7812 11.0176 12.9207 10.7317 12.9458 10.4252L12.95 10.3251V4.37493C12.95 4.23569 13.0053 4.10215 13.1038 4.00369C13.2022 3.90523 13.3358 3.84992 13.475 3.84992ZM11.3372 0.102715L11.396 0.153817L12.796 1.55385C12.8136 1.57185 12.8302 1.59078 12.8457 1.61056L12.796 1.55385C12.8938 1.65181 12.9497 1.78444 12.9502 1.92289C12.9508 2.06133 12.8966 2.19438 12.7995 2.29307L12.796 2.29587L11.396 3.69591C11.3022 3.78898 11.1768 3.84326 11.0447 3.84791C10.9126 3.85256 10.7837 3.80724 10.6836 3.721C10.5835 3.63476 10.5195 3.51393 10.5046 3.38264C10.4896 3.25135 10.5247 3.11924 10.6029 3.01269L10.654 2.95389L11.1566 2.44988H2.275C1.96757 2.44989 1.67138 2.5655 1.44523 2.77376C1.21908 2.98202 1.0795 3.26771 1.0542 3.57411L1.05 3.67491V9.62507C1.04996 9.75809 0.999429 9.88614 0.908619 9.98333C0.817809 10.0805 0.693491 10.1396 0.560784 10.1487C0.428077 10.1578 0.296876 10.1161 0.193691 10.0322C0.090506 9.94823 0.023031 9.82825 0.00489998 9.69647L4.88263e-09 9.62507V3.67491C-3.80427e-05 3.0938 0.222288 2.5347 0.62137 2.11231C1.02045 1.68991 1.56604 1.43625 2.1462 1.40335L2.275 1.39985H11.1573L10.6533 0.895837C10.5645 0.806854 10.5106 0.688958 10.5013 0.563581C10.4921 0.438203 10.5281 0.313669 10.6029 0.212618L10.654 0.153817C10.7429 0.0649021 10.8607 0.0108409 10.9861 0.00146313C11.1115 -0.00791465 11.2361 0.0280137 11.3372 0.102715ZM7 4.19992C7.74261 4.19992 8.4548 4.49493 8.9799 5.02005C9.505 5.54516 9.8 6.25737 9.8 7C9.8 7.74263 9.505 8.45484 8.9799 8.97995C8.4548 9.50507 7.74261 9.80007 7 9.80007C6.25739 9.80007 5.5452 9.50507 5.0201 8.97995C4.495 8.45484 4.2 7.74263 4.2 7C4.2 6.25737 4.495 5.54516 5.0201 5.02005C5.5452 4.49493 6.25739 4.19992 7 4.19992Z" fill="#FFBE00"/>
</svg>
