<svg width="74" height="82" viewBox="0 0 74 82" fill="none" xmlns="http://www.w3.org/2000/svg">
<path d="M56.4989 6.96978e-08C58.8415 -0.000287103 61.0969 0.886852 62.8093 2.48213C64.5216 4.0774 65.5632 6.26185 65.7236 8.59399L65.7441 9.22132V50.748C65.2483 51.076 64.7812 51.4587 64.3429 51.8961L50.3353 65.8695L46.6044 62.1383C44.9642 60.4963 42.7624 59.534 40.4408 59.4445H50.3353C51.1527 59.4445 51.9365 59.1205 52.5145 58.5438C53.0924 57.9671 53.4171 57.1849 53.4171 56.3694C53.4171 55.5538 53.0924 54.7716 52.5145 54.1949C51.9365 53.6182 51.1527 53.2942 50.3353 53.2942H29.7739C28.9565 53.2942 28.1727 53.6182 27.5947 54.1949C27.0168 54.7716 26.6921 55.5538 26.6921 56.3694C26.6921 57.1849 27.0168 57.9671 27.5947 58.5438C28.1727 59.1205 28.9565 59.4445 29.7739 59.4445H39.6889C37.8938 59.5171 36.1588 60.1101 34.696 61.1508C33.2332 62.1916 32.1059 63.6351 31.4521 65.3049C30.7983 66.9747 30.6462 68.7984 31.0144 70.5531C31.3826 72.3077 32.2551 73.9173 33.5254 75.1851L40.3422 81.9914H9.24527C6.90261 81.9917 4.6472 81.1046 2.93485 79.5093C1.22249 77.914 0.180887 75.7296 0.0205456 73.3974L6.98478e-08 72.7742V9.22542C-0.00028772 6.88779 0.888759 4.63722 2.48747 2.92854C4.08617 1.21986 6.27532 0.180499 8.61248 0.0205015L9.24527 6.96978e-08H56.4989ZM20.545 23.5761C20.545 22.4886 20.1121 21.4457 19.3415 20.6768C18.5709 19.9079 17.5258 19.4759 16.436 19.4759C15.3463 19.4759 14.3011 19.9079 13.5305 20.6768C12.7599 21.4457 12.327 22.4886 12.327 23.5761C12.327 24.6635 12.7599 25.7064 13.5305 26.4753C14.3011 27.2443 15.3463 27.6763 16.436 27.6763C17.5258 27.6763 18.5709 27.2443 19.3415 26.4753C20.1121 25.7064 20.545 24.6635 20.545 23.5761ZM29.7739 20.4968C28.9565 20.4968 28.1727 20.8208 27.5947 21.3975C27.0168 21.9742 26.6921 22.7564 26.6921 23.572C26.6921 24.3875 27.0168 25.1697 27.5947 25.7464C28.1727 26.3231 28.9565 26.6471 29.7739 26.6471H50.3353C51.1527 26.6471 51.9365 26.3231 52.5145 25.7464C53.0924 25.1697 53.4171 24.3875 53.4171 23.572C53.4171 22.7564 53.0924 21.9742 52.5145 21.3975C51.9365 20.8208 51.1527 20.4968 50.3353 20.4968H29.7739ZM26.6921 39.9727C26.6921 41.6702 28.0727 43.0479 29.7739 43.0479H50.3353C50.74 43.0479 51.1408 42.9683 51.5147 42.8138C51.8886 42.6592 52.2283 42.4327 52.5145 42.1472C52.8006 41.8616 53.0276 41.5226 53.1825 41.1495C53.3374 40.7764 53.4171 40.3765 53.4171 39.9727C53.4171 39.5689 53.3374 39.169 53.1825 38.7959C53.0276 38.4228 52.8006 38.0838 52.5145 37.7983C52.2283 37.5127 51.8886 37.2862 51.5147 37.1317C51.1408 36.9771 50.74 36.8976 50.3353 36.8976H29.7739C28.9565 36.8976 28.1727 37.2216 27.5947 37.7983C27.0168 38.375 26.6921 39.1571 26.6921 39.9727ZM20.545 39.9727C20.545 38.8853 20.1121 37.8424 19.3415 37.0734C18.5709 36.3045 17.5258 35.8725 16.436 35.8725C15.3463 35.8725 14.3011 36.3045 13.5305 37.0734C12.7599 37.8424 12.327 38.8853 12.327 39.9727C12.327 41.0602 12.7599 42.1031 13.5305 42.872C14.3011 43.6409 15.3463 44.0729 16.436 44.0729C17.5258 44.0729 18.5709 43.6409 19.3415 42.872C20.1121 42.1031 20.545 41.0602 20.545 39.9727ZM20.545 56.3653C20.545 55.2778 20.1121 54.2349 19.3415 53.466C18.5709 52.6971 17.5258 52.2651 16.436 52.2651C15.3463 52.2651 14.3011 52.6971 13.5305 53.466C12.7599 54.2349 12.327 55.2778 12.327 56.3653C12.327 57.4527 12.7599 58.4956 13.5305 59.2645C14.3011 60.0335 15.3463 60.4654 16.436 60.4654C17.5258 60.4654 18.5709 60.0335 19.3415 59.2645C20.1121 58.4956 20.545 57.4527 20.545 56.3653ZM50.3353 74.5742L68.7026 56.2464C68.987 55.9528 69.3272 55.7187 69.7033 55.5577C70.0793 55.3967 70.4837 55.3121 70.8929 55.3087C71.3021 55.3054 71.7079 55.3834 72.0866 55.5382C72.4652 55.693 72.8092 55.9215 73.0984 56.2103C73.3876 56.4992 73.6163 56.8426 73.7711 57.2206C73.9258 57.5986 74.0036 58.0036 73.9999 58.4119C73.9961 58.8202 73.9109 59.2237 73.7492 59.5988C73.5876 59.9739 73.3526 60.3131 73.0582 60.5967L52.5131 81.0976L52.3036 81.2903C51.7123 81.7804 50.9589 82.0323 50.1911 81.9967C49.4233 81.961 48.6965 81.6404 48.1535 81.0976L37.8809 70.843C37.3034 70.2656 36.9793 69.4829 36.9801 68.667C36.9809 67.8512 37.3064 67.0691 37.885 66.4927C38.4637 65.9164 39.2481 65.593 40.0657 65.5938C40.8833 65.5946 41.6671 65.9194 42.2447 66.4968L50.3353 74.5742Z" fill="#FFBE00"/>
</svg>
