<svg width="17" height="19" viewBox="0 0 17 19" fill="none" xmlns="http://www.w3.org/2000/svg">
<path d="M3.64286 4.75C3.64286 6.00978 4.15459 7.21796 5.06548 8.10876C5.97637 8.99956 7.21181 9.5 8.5 9.5C9.78819 9.5 11.0236 8.99956 11.9345 8.10876C12.8454 7.21796 13.3571 6.00978 13.3571 4.75C13.3571 3.49022 12.8454 2.28204 11.9345 1.39124C11.0236 0.500445 9.78819 0 8.5 0C7.21181 0 5.97637 0.500445 5.06548 1.39124C4.15459 2.28204 3.64286 3.49022 3.64286 4.75ZM7.22879 12.1793L7.9346 13.3297L6.67098 17.9275L5.30491 12.4762C5.22902 12.1756 4.93304 11.9789 4.62567 12.0568C1.96942 12.7063 0 15.059 0 17.8607C0 18.4916 0.523661 19 1.16496 19H15.835C16.4801 19 17 18.4879 17 17.8607C17 15.059 15.0306 12.7063 12.3743 12.0568C12.067 11.9826 11.771 12.1793 11.6951 12.4762L10.329 17.9275L9.0654 13.3297L9.77121 12.1793C10.0141 11.7822 9.72188 11.2812 9.25134 11.2812H7.75246C7.28192 11.2812 6.98973 11.7859 7.23259 12.1793H7.22879Z" fill="#242424"/>
</svg>
