<svg width="14" height="14" viewBox="0 0 14 14" fill="none" xmlns="http://www.w3.org/2000/svg">
<path fill-rule="evenodd" clip-rule="evenodd" d="M5.021 0.276514C3.66774 0.670147 2.46465 1.46277 1.56889 2.55084C0.673141 3.63891 0.126368 4.97184 0 6.37551H3.2C3.38551 4.23957 4.0048 2.16392 5.02 0.275514L5.021 0.276514ZM3.2 7.62551H0C0.126104 9.02924 0.672643 10.3623 1.56822 11.4506C2.4638 12.5388 3.66677 13.3316 5.02 13.7255C4.0048 11.8371 3.38551 9.76146 3.2 7.62551ZM6.624 13.9925C5.4108 12.07 4.6674 9.88879 4.454 7.62551H9.489C9.2756 9.88879 8.5322 12.07 7.319 13.9925C7.08747 14.0038 6.85553 14.0038 6.624 13.9925ZM8.924 13.7245C10.2771 13.3307 11.48 12.538 12.3755 11.45C13.2711 10.3619 13.8177 9.02906 13.944 7.62551H10.744C10.5585 9.76146 9.9392 11.8371 8.924 13.7255V13.7245ZM10.744 6.37551H13.944C13.8179 4.97179 13.2714 3.63873 12.3758 2.55048C11.4802 1.46222 10.2772 0.66938 8.924 0.275514C9.93922 2.16391 10.5585 4.23956 10.744 6.37551ZM6.624 0.00851437C6.85586 -0.00283812 7.08814 -0.00283812 7.32 0.00851437C8.53285 1.93112 9.27591 4.11233 9.489 6.37551H4.455C4.672 4.09851 5.417 1.91551 6.624 0.00851437Z" fill="#FFBE00"/>
</svg>
